<svg xmlns="http://www.w3.org/2000/svg" width="39.44" height="39.44" viewBox="0 0 39.44 39.44"><title>facebook</title><path d="M21.07,39.44H2.2A2.18,2.18,0,0,1,0,37.7a2.71,2.71,0,0,1,0-.57Q0,21,0,4.87C0,4,0,4.68,0,3.79,0,2,1.08,0,3.25,0a5.39,5.39,0,0,1,.63,0H37.14A2.26,2.26,0,0,1,38.5.39a2.15,2.15,0,0,1,.94,1.73s0,0.09,0,.13q0,17.47,0,34.93a2.33,2.33,0,0,1-1.53,2.22,0.38,0.38,0,0,1-.16,0H27.21c0-.05,0-0.1,0-0.15q0-7.48,0-15s0-.06,0-0.09a0.05,0.05,0,0,1,.06-0.07h5c0.06,0,.11,0,0.12-0.07,0-.32.08-0.65,0.12-1l0.29-2.3c0.11-.83.21-1.66,0.32-2.49,0-.11,0-0.12-0.11-0.12H27.33c-0.09,0-.12,0-0.12-0.11,0-1.23,0-2.47,0-3.7a5.47,5.47,0,0,1,.1-1.1,2,2,0,0,1,1.35-1.59A4.26,4.26,0,0,1,30,11.52h3.19c0.06,0,.1,0,0.1-0.09q0-2.57,0-5.15a0.08,0.08,0,0,0-.09-0.1l-1-.09C31,6,29.81,6,28.61,6a8.86,8.86,0,0,0-2.88.47,6.46,6.46,0,0,0-4,3.7,9,9,0,0,0-.68,3.51c0,1.48,0,3,0,4.45,0,0.09,0,.12-0.12.12H16c-0.1,0-.12,0-0.12.12q0,2.85,0,5.71c0,0.1,0,.12.12,0.12h4.9c0.09,0,.12,0,0.12.12Q21.07,31.86,21.07,39.44Z" style="fill:#0b8fca"/></svg>