<svg xmlns="http://www.w3.org/2000/svg" width="360.98" height="141.4" viewBox="0 0 360.98 141.4"><title>opa-logo</title><path d="M178.2,70.52a25,25,0,0,1,2-10.13,22.32,22.32,0,0,1,5.55-7.75,25.43,25.43,0,0,1,8.28-5,30.5,30.5,0,0,1,20.43,0A23.91,23.91,0,0,1,228.3,60.4a26.33,26.33,0,0,1,0,20.25,22.32,22.32,0,0,1-5.55,7.75,25.43,25.43,0,0,1-8.28,5,30.5,30.5,0,0,1-20.43,0,23.91,23.91,0,0,1-13.82-12.77A24.74,24.74,0,0,1,178.2,70.52Zm14.53,0a12.32,12.32,0,0,0,3.08,8.63c2,2.2,4.84,3.26,8.54,3.26s6.52-1.06,8.54-3.26A12.17,12.17,0,0,0,216,70.52a12.32,12.32,0,0,0-3.08-8.63c-2-2.2-4.84-3.26-8.54-3.26s-6.52,1.06-8.54,3.26A11.93,11.93,0,0,0,192.73,70.52Z" style="fill:#fff"/><path d="M238.07,52.56a6.69,6.69,0,0,1,6.69-6.69h17.87a48.14,48.14,0,0,1,9.68,1c3.08,0.62,13.82,4.14,13.82,16,0,10.57-10.21,14.7-13.21,15.41a48.14,48.14,0,0,1-9.68,1h-4a6.69,6.69,0,0,0-6.69,6.69v1.5a6.69,6.69,0,0,1-6.69,6.69h-1.14a6.69,6.69,0,0,1-6.69-6.69V52.56Zm14.53,10a6.69,6.69,0,0,0,6.69,6.69h3a17.82,17.82,0,0,0,3.79-.35c1.23-.26,6.52-1.5,6.52-6,0-5.63-6.69-6.6-8.19-6.69a36.57,36.57,0,0,0-4.31-.26h-0.79a6.56,6.56,0,0,0-6.69,6.6h0Z" style="fill:#fff"/><path d="M321.45,88.13h-0.18a13.15,13.15,0,0,1-6.43,5.37,22.6,22.6,0,0,1-8.45,1.67,21.63,21.63,0,0,1-6.34-.88,16.29,16.29,0,0,1-5.37-2.73A13.48,13.48,0,0,1,291,87a13.91,13.91,0,0,1-1.32-6.25,14.67,14.67,0,0,1,1.5-6.87,13.77,13.77,0,0,1,4.05-4.67A17.85,17.85,0,0,1,301,66.39a44.34,44.34,0,0,1,6.78-1.5,63.38,63.38,0,0,1,7-.62,22.26,22.26,0,0,0,2.47-.09,3.12,3.12,0,0,0,2.38-5.11A6,6,0,0,0,318.63,58a10.14,10.14,0,0,0-6.52-2.29,14.48,14.48,0,0,0-6.52,1.5,12.45,12.45,0,0,0-3.17,2.11,3.12,3.12,0,0,1-4.23-.18L295,55.91a3.11,3.11,0,0,1,.35-4.67A28.22,28.22,0,0,1,302,47.81,34.24,34.24,0,0,1,313.18,46a29.49,29.49,0,0,1,10.48,1.58,15.81,15.81,0,0,1,6.6,4.67,17.14,17.14,0,0,1,3.43,7.57,51.5,51.5,0,0,1,1,10.39V91A3.12,3.12,0,0,1,331.58,94h-7.13A3.12,3.12,0,0,1,321.36,91V88.13h0.09Zm-3.52-14.7c-1.06,0-2.47.09-4.14,0.18a20.64,20.64,0,0,0-4.75.79,10.82,10.82,0,0,0-3.87,2,4.73,4.73,0,0,0-1.58,3.79,4.14,4.14,0,0,0,2.2,3.87,8.83,8.83,0,0,0,4.67,1.23,13.1,13.1,0,0,0,4.14-.62A11.82,11.82,0,0,0,318.11,83a7.37,7.37,0,0,0,2.47-2.73,7.64,7.64,0,0,0,.88-3.87h0a3.12,3.12,0,0,0-3.08-3.08h-0.44v0.09Z" style="fill:#fff"/><path d="M353.15,75h0a7.57,7.57,0,0,0,7.57-7.57v-21a7.57,7.57,0,0,0-7.57-7.57h0a7.57,7.57,0,0,0-7.57,7.57v21A7.65,7.65,0,0,0,353.15,75Z" style="fill:#0b8fca"/><path d="M360.37,84.26a8.13,8.13,0,0,0-1.67-2.47,9.38,9.38,0,0,0-2.47-1.67,9.15,9.15,0,0,0-3.08-.62,7.42,7.42,0,0,0-3.08.62,8.13,8.13,0,0,0-2.47,1.67,9.38,9.38,0,0,0-1.67,2.47,8,8,0,0,0,0,6.16,6.81,6.81,0,0,0,1.67,2.47,9.38,9.38,0,0,0,2.47,1.67,9.15,9.15,0,0,0,3.08.62,7.42,7.42,0,0,0,3.08-.62,6.81,6.81,0,0,0,2.47-1.67,9.38,9.38,0,0,0,1.67-2.47,9.15,9.15,0,0,0,.62-3.08A7.42,7.42,0,0,0,360.37,84.26Z" style="fill:#0b8fca"/><path d="M72.2,141.4C32.4,141.4,0,109.7,0,70.7S32.4,0,72.2,0s72.2,31.7,72.2,70.7S112,141.4,72.2,141.4Zm0-137.17c-37.51,0-68,29.85-68,66.47s30.55,66.56,68,66.56,68-29.85,68-66.56S109.7,4.23,72.2,4.23Z" style="fill:#fff"/><path d="M72.2,121.15c-28.44,0-51.51-22.63-51.51-50.45S43.76,20.25,72.2,20.25,123.7,42.88,123.7,70.7,100.64,121.15,72.2,121.15Zm0-96.67c-26.06,0-47.28,20.78-47.28,46.22s21.22,46.22,47.28,46.22,47.28-20.78,47.28-46.22S98.26,24.48,72.2,24.48Z" style="fill:#fff"/><path d="M72.2,101.52c-17.34,0-31.43-13.82-31.43-30.82S54.85,39.88,72.2,39.88s31.43,13.82,31.43,30.82S89.54,101.52,72.2,101.52ZM72.2,44C57.14,44,44.9,56,44.9,70.7S57.14,97.38,72.2,97.38s27.29-12,27.29-26.68S87.25,44,72.2,44Z" style="fill:#fff"/><ellipse cx="72.2" cy="70.7" rx="9.86" ry="9.68" style="fill:#0b8fca"/><path d="M120.89,6.08a9.37,9.37,0,0,0-13,2.64c-0.09.18-.18,0.26-0.26,0.44a8.67,8.67,0,0,0-1.23,4.05,9.4,9.4,0,0,0,4.14,8.54,58.38,58.38,0,0,1-1,98.43,9.46,9.46,0,0,0-4.31,8.54,9,9,0,0,0,1.23,4.14c0.09,0.09.09,0.26,0.18,0.35a9.32,9.32,0,0,0,7.92,4.31,9.07,9.07,0,0,0,5.11-1.5A77.14,77.14,0,0,0,120.89,6.08Z" style="fill:#0b8fca"/><path d="M103.28,25.44a6.34,6.34,0,0,0-7.57.44,4.15,4.15,0,0,0-1.14,1.32,5.67,5.67,0,0,0-1,2.38,6.18,6.18,0,0,0,2.73,6.34,41.48,41.48,0,0,1-.44,69.91,6.39,6.39,0,0,0-2.82,6.34,8.69,8.69,0,0,0,.88,2.38,5.63,5.63,0,0,0,1.14,1.32,6.09,6.09,0,0,0,4.14,1.58,7,7,0,0,0,3.43-1A54.2,54.2,0,0,0,103.28,25.44Z" style="fill:#0b8fca"/><path d="M89.45,42.79a5.15,5.15,0,0,0-5-.44,4.48,4.48,0,0,0-2.2,1.85,6.25,6.25,0,0,0-.7,1.58,5.23,5.23,0,0,0,2,5.72,23.46,23.46,0,0,1,10.3,19.28,23.12,23.12,0,0,1-11.45,20A5.21,5.21,0,0,0,80,96.32,5.45,5.45,0,0,0,80.65,98a5.55,5.55,0,0,0,1.94,1.85,5.31,5.31,0,0,0,2.55.7,5.39,5.39,0,0,0,2.73-.79A33.75,33.75,0,0,0,89.45,42.79Z" style="fill:#0b8fca"/></svg>