<svg xmlns="http://www.w3.org/2000/svg" width="269.08" height="105.4" viewBox="0 0 269.08 105.4"><title>opa-logo</title><path d="M132.83,52.57A18.64,18.64,0,0,1,134.32,45a16.64,16.64,0,0,1,4.14-5.78,19,19,0,0,1,6.17-3.73,22.73,22.73,0,0,1,15.23,0A17.82,17.82,0,0,1,170.18,45a19.63,19.63,0,0,1,0,15.09A16.64,16.64,0,0,1,166,65.89a19,19,0,0,1-6.17,3.73,22.73,22.73,0,0,1-15.23,0,17.82,17.82,0,0,1-10.3-9.52A18.44,18.44,0,0,1,132.83,52.57Zm10.83,0A9.18,9.18,0,0,0,146,59a9.55,9.55,0,0,0,12.73,0A9.07,9.07,0,0,0,161,52.57a9.18,9.18,0,0,0-2.3-6.43,9.55,9.55,0,0,0-12.73,0A8.89,8.89,0,0,0,143.66,52.57Z" style="fill:#fff"/><path d="M177.46,39.18a5,5,0,0,1,5-5h13.32a35.88,35.88,0,0,1,7.22.75c2.3,0.46,10.3,3.09,10.3,11.93,0,7.88-7.61,11-9.85,11.49a35.88,35.88,0,0,1-7.22.75h-3a5,5,0,0,0-5,5h0V65.2a5,5,0,0,1-5,5h-0.85a5,5,0,0,1-5-5h0v-26h0Zm10.83,7.45a5,5,0,0,0,5,5h2.24a13.28,13.28,0,0,0,2.83-.26c0.92-.19,4.86-1.12,4.86-4.47,0-4.2-5-4.92-6.1-5a27.26,27.26,0,0,0-3.21-.19h-0.59a4.89,4.89,0,0,0-5,4.79s0,0.09,0,.13h0Z" style="fill:#fff"/><path d="M239.61,65.69h-0.13a9.8,9.8,0,0,1-4.79,4,16.85,16.85,0,0,1-6.3,1.24,16.12,16.12,0,0,1-4.73-.66,12.14,12.14,0,0,1-4-2,10,10,0,0,1-2.74-3.4,10.37,10.37,0,0,1-1-4.66A10.93,10.93,0,0,1,217,55.07a10.26,10.26,0,0,1,3-3.48,13.31,13.31,0,0,1,4.3-2.1,33.05,33.05,0,0,1,5.05-1.12,47.24,47.24,0,0,1,5.22-.46,16.59,16.59,0,0,0,1.84-.07A2.33,2.33,0,0,0,238.25,44a4.47,4.47,0,0,0-.75-0.8,7.56,7.56,0,0,0-4.86-1.71,10.79,10.79,0,0,0-4.86,1.12,9.28,9.28,0,0,0-2.36,1.57,2.33,2.33,0,0,1-3.15-.13l-2.38-2.41a2.32,2.32,0,0,1,0-3.28l0.24-.2a21,21,0,0,1,5-2.56,25.52,25.52,0,0,1,8.33-1.35,22,22,0,0,1,7.81,1.18,11.78,11.78,0,0,1,4.92,3.48,12.78,12.78,0,0,1,2.56,5.64,38.39,38.39,0,0,1,.75,7.74v15.5a2.33,2.33,0,0,1-2.32,2.24h-5.31a2.33,2.33,0,0,1-2.3-2.24V65.69h0.07Zm-2.62-11c-0.79,0-1.84.07-3.09,0.13a15.39,15.39,0,0,0-3.54.59,8.07,8.07,0,0,0-2.88,1.49,3.53,3.53,0,0,0-1.18,2.83,3.09,3.09,0,0,0,1.64,2.88,6.58,6.58,0,0,0,3.48.92,9.76,9.76,0,0,0,3.09-.46,8.81,8.81,0,0,0,2.62-1.24,5.49,5.49,0,0,0,1.84-2,5.69,5.69,0,0,0,.66-2.88h0a2.33,2.33,0,0,0-2.3-2.3H237v0.07h0Z" style="fill:#fff"/><path d="M263.24,55.91h0a5.64,5.64,0,0,0,5.64-5.64h0V34.61A5.64,5.64,0,0,0,263.24,29h0a5.64,5.64,0,0,0-5.64,5.64h0V50.26A5.7,5.7,0,0,0,263.24,55.91Z" style="fill:#0b8fca"/><path d="M268.62,62.81A6.06,6.06,0,0,0,267.38,61a7,7,0,0,0-1.84-1.24,6.82,6.82,0,0,0-2.3-.46,5.53,5.53,0,0,0-2.3.46A6.06,6.06,0,0,0,259.1,61a7,7,0,0,0-1.24,1.84,6,6,0,0,0,0,4.59,5.08,5.08,0,0,0,1.24,1.84,7,7,0,0,0,1.84,1.24,6.82,6.82,0,0,0,2.3.46,5.53,5.53,0,0,0,2.3-.46,5.08,5.08,0,0,0,1.84-1.24,7,7,0,0,0,1.24-1.84,6.82,6.82,0,0,0,.46-2.3A5.53,5.53,0,0,0,268.62,62.81Z" style="fill:#0b8fca"/><path d="M53.82,105.4C24.15,105.4,0,81.77,0,52.7S24.15,0,53.82,0s53.82,23.63,53.82,52.7S83.49,105.4,53.82,105.4Zm0-102.25c-28,0-50.69,22.25-50.69,49.55s22.77,49.61,50.69,49.61,50.69-22.25,50.69-49.61S81.77,3.15,53.82,3.15Z" style="fill:#fff"/><path d="M53.82,90.31c-21.2,0-38.4-16.87-38.4-37.61s17.2-37.61,38.4-37.61S92.21,32,92.21,52.7,75,90.31,53.82,90.31Zm0-72.06c-19.43,0-35.24,15.49-35.24,34.45S34.39,87.15,53.82,87.15,89.06,71.66,89.06,52.7,73.24,18.25,53.82,18.25Z" style="fill:#fff"/><path d="M53.82,75.67a23,23,0,1,1,23.43-23A23.22,23.22,0,0,1,53.82,75.67Zm0-42.88A19.9,19.9,0,1,0,74.16,52.7,20.16,20.16,0,0,0,53.82,32.8Z" style="fill:#fff"/><ellipse cx="53.82" cy="52.7" rx="7.35" ry="7.22" style="fill:#0b8fca"/><path d="M90.11,4.53a7,7,0,0,0-9.68,2h0c-0.07.13-.13,0.19-0.19,0.33a6.46,6.46,0,0,0-.92,3,7,7,0,0,0,3.09,6.37,43.52,43.52,0,0,1-.75,73.37,7.05,7.05,0,0,0-3.21,6.37A6.71,6.71,0,0,0,79.36,99c0.07,0.07.07,0.19,0.13,0.26a7,7,0,0,0,5.9,3.21,6.76,6.76,0,0,0,3.81-1.12A57.5,57.5,0,0,0,90.11,4.53Z" style="fill:#0b8fca"/><path d="M77,19a4.73,4.73,0,0,0-5.64.33,3.09,3.09,0,0,0-.85,1A4.23,4.23,0,0,0,69.75,22a4.61,4.61,0,0,0,2,4.73,30.92,30.92,0,0,1-.33,52.11,4.76,4.76,0,0,0-2.1,4.73A6.48,6.48,0,0,0,70,85.39a4.2,4.2,0,0,0,.85,1,4.54,4.54,0,0,0,3.09,1.18,5.22,5.22,0,0,0,2.56-.75A40.4,40.4,0,0,0,77,19Z" style="fill:#0b8fca"/><path d="M66.68,31.9a3.84,3.84,0,0,0-3.73-.33,3.34,3.34,0,0,0-1.64,1.38,4.66,4.66,0,0,0-.52,1.18,3.9,3.9,0,0,0,1.49,4.26A17.49,17.49,0,0,1,70,52.76a17.23,17.23,0,0,1-8.53,14.91,3.88,3.88,0,0,0-1.79,4.13A4.06,4.06,0,0,0,60.12,73a4.14,4.14,0,0,0,1.45,1.38,4,4,0,0,0,1.9.52,4,4,0,0,0,2-.59A25.16,25.16,0,0,0,66.68,31.9Z" style="fill:#0b8fca"/></svg>