<svg xmlns="http://www.w3.org/2000/svg" width="113.68" height="113.68" viewBox="0 0 113.68 113.68"><title>play</title><g style="opacity:0.30000000000000004"><path d="M56.84,113.68a56.84,56.84,0,1,1,56.84-56.84A56.9,56.9,0,0,1,56.84,113.68Zm0-108A51.14,51.14,0,1,0,108,56.84,51.2,51.2,0,0,0,56.84,5.7Z" style="fill:#fff"/></g><path d="M86.69,56.87a1.6,1.6,0,0,1,0,2.78L65,72.18,43.31,84.7a1.6,1.6,0,0,1-2.41-1.39V33.22a1.6,1.6,0,0,1,2.41-1.39L65,44.35Z" style="fill:#fff;opacity:0.7000000000000001"/></svg>