<svg xmlns="http://www.w3.org/2000/svg" width="39.65" height="39.46" viewBox="0 0 39.65 39.46"><title>Untitled-1</title><path d="M19.77,39.46H4c-2.73,0-4-1.27-4-4Q0,19.74,0,4C0,1.31,1.3,0,4,0c10.56,0,21.12,0,31.68,0a4,4,0,0,1,3.94,3.92c-0.07,10.56,0,21.12,0,31.68,0,2.5-1.32,3.84-3.82,3.84h-16v0ZM35.38,10.1c-1.05.06-2,.74-3.23,0.63a6.4,6.4,0,0,0,2.41-3.27,26.21,26.21,0,0,1-3.22,1.25A1.18,1.18,0,0,1,30,8.42a5.89,5.89,0,0,0-4.11-1.56A6.41,6.41,0,0,0,19.41,14c0.07,0.63-.1.73-0.65,0.69A18.24,18.24,0,0,1,14,13.65a17.52,17.52,0,0,1-7.26-5c-0.38-.43-0.73-0.72-1,0a6.55,6.55,0,0,0,.31,5.77c0.41,0.78,1.16,1.28,1.65,2.06a2.71,2.71,0,0,1-1.8-.36c-0.51-.25-0.68-0.24-0.63.42a6.3,6.3,0,0,0,1.91,4,7.31,7.31,0,0,0,3,1.75,3.86,3.86,0,0,1-1.6.24c-0.3,0-.71-0.2-0.86.11a1.1,1.1,0,0,0,.27.94,6.57,6.57,0,0,0,4.65,3.23,0.92,0.92,0,0,1,.69.26,12.53,12.53,0,0,1-4.21,2.11,17.57,17.57,0,0,1-4.83.52c0.3,0.22.39,0.3,0.49,0.35,6.15,3.28,12.4,3.47,18.44,0s8.85-9,9.09-15.87A1.61,1.61,0,0,1,33,12.71a9.74,9.74,0,0,0,2.41-2.62v0Z" style="fill:#ffffff"/></svg>