<?xml version="1.0" standalone="no"?>
<!DOCTYPE svg PUBLIC "-//W3C//DTD SVG 20010904//EN"
 "http://www.w3.org/TR/2001/REC-SVG-20010904/DTD/svg10.dtd">
<svg version="1.0" xmlns="http://www.w3.org/2000/svg"
 width="173.000000pt" height="173.000000pt" viewBox="0 0 173.000000 173.000000"
 preserveAspectRatio="xMidYMid meet">
<metadata>
Created by potrace 1.11, written by Peter Selinger 2001-2013
</metadata>
<g transform="translate(0.000000,173.000000) scale(0.100000,-0.100000)"
fill="#000000" stroke="none">
<path d="M655 1639 c-22 -4 -49 -10 -61 -13 -101 -22 -265 -113 -353 -197
-197 -188 -283 -478 -220 -742 58 -241 243 -452 479 -545 196 -77 441 -73 625
12 l51 23 28 -23 c43 -37 91 -32 162 17 317 220 444 644 303 1009 -55 143
-180 303 -300 384 -66 44 -114 48 -156 12 -24 -21 -30 -22 -48 -10 -11 7 -63
27 -115 45 -86 29 -108 33 -225 35 -71 1 -148 -2 -170 -7z m308 -55 c40 -9
105 -31 145 -49 59 -28 72 -38 72 -57 1 -29 12 -43 75 -93 96 -77 145 -135
193 -231 103 -204 85 -461 -45 -647 -51 -73 -82 -105 -156 -159 -52 -40 -70
-59 -79 -89 -10 -35 -17 -41 -84 -69 -90 -37 -204 -57 -308 -54 -403 13 -724
336 -726 727 -1 347 244 645 595 722 84 19 232 18 318 -1z"/>
<path d="M710 1423 c-171 -26 -344 -152 -423 -309 -44 -86 -60 -167 -54 -274
5 -110 29 -187 84 -270 144 -219 422 -314 671 -228 40 13 75 21 78 16 11 -17
57 -7 97 21 101 69 184 184 222 304 76 240 -2 501 -194 654 -49 38 -61 44 -93
40 -24 -3 -66 4 -115 20 -74 24 -205 36 -273 26z m253 -73 c37 -11 67 -24 68
-28 4 -35 13 -51 46 -77 125 -100 188 -213 196 -352 9 -152 -78 -329 -199
-404 -22 -13 -37 -32 -40 -49 -10 -46 -105 -78 -231 -78 -126 0 -225 32 -319
104 -215 163 -269 449 -125 671 129 199 373 285 604 213z"/>
<path d="M683 1190 c-79 -26 -161 -98 -200 -178 -24 -49 -28 -69 -28 -142 0
-71 4 -94 26 -140 58 -123 182 -203 317 -202 146 1 211 25 274 104 79 97 104
220 69 345 -26 95 -134 215 -192 212 -13 -1 -37 3 -54 8 -53 17 -147 14 -212
-7z m186 -36 c23 -5 31 -12 31 -28 0 -13 19 -39 45 -64 82 -77 109 -168 81
-266 -16 -54 -73 -131 -106 -141 -10 -3 -25 -22 -32 -41 -13 -37 -16 -38 -113
-35 -94 3 -200 73 -246 163 -63 123 -16 289 102 367 71 46 153 62 238 45z"/>
<path d="M740 959 c-57 -35 -67 -110 -21 -161 26 -29 35 -33 81 -33 46 0 55 4
81 33 84 94 -32 227 -141 161z"/>
</g>
</svg>
