<svg xmlns="http://www.w3.org/2000/svg" width="764619.666" height="174.131mm" viewBox="0 0 716.83093 616.99997"><g transform="translate(31.104 -234.1)"><path d="M387.386 335.013s165.226-46.516 222.677 36.22c57.452 82.737 95.25 213.668 64.936 253.348-30.314 39.682-225.282-48.6-287.614-289.567z" fill="#668000" fill-rule="evenodd"/><circle r="308.5" cy="542.599" cx="-303.123" transform="scale(-1 1)" fill="#ff7f2a"/><path d="M476.623 336.362s29 24 30 54-17 64-4 73M450.623 540.362s-38 19-53 33" fill="none" stroke="#000"/></g><g transform="matrix(-1 0 0 1 545.727 -234.1)"><circle cx="194.274" cy="452.194" r="118" fill="#fff" fill-rule="evenodd"/><circle cx="212.274" cy="452.194" r="84.143" fill="#0082ff" fill-rule="evenodd"/><circle cx="212.274" cy="452.194" r="54.27" fill-rule="evenodd"/><ellipse cx="440.274" cy="452.194" rx="99.07" ry="104.12" fill="#fff" fill-rule="evenodd"/><circle cx="422.828" cy="452.194" r="70.135" fill="#0082ff" fill-rule="evenodd"/><circle cx="422.828" cy="452.194" r="45.235" fill-rule="evenodd"/><ellipse transform="rotate(33.16)" ry="4.5" rx="15" cy="122.14" cx="596.825" fill="#fff"/><ellipse transform="rotate(33.16)" ry="4.5" rx="15" cy="224.925" cx="430.387" fill="#fff"/><path d="M302.774 333.502c-36.272-19.617-160.623-67.376-184.17-49.244-23.547 18.132 114.8 68.587 166.063 84.94 51.263 16.353 66.982-14.136 18.107-35.696zM499.302 273.845c-37.44 12.89-148.01 69.277-144.162 96.957 3.847 27.68 124.42-36.73 166.958-62.062 42.54-25.332 23.205-55.312-22.796-34.895z" fill="maroon" fill-rule="evenodd"/><path d="M436.274 601.887s-39 9-98 8-156-18-156-18-13 40-3 77 43 56 127 59 124-24 124-24-14-16-11-42 17-60 17-60z" fill="#fff" fill-rule="evenodd" stroke="#000" stroke-width="3"/><path d="M419.274 658.887s-36 10-94 12-150-25-150-25M395.274 731.887c-40 11-80 12-112 11" fill="none" stroke="#000"/></g></svg>