<svg xmlns="http://www.w3.org/2000/svg" width="731918.4" height="585600" viewBox="0 0 686.17351 549.00001"><g transform="translate(127.104 -232.362)"><path d="M171.237 285.276S6.01 238.76-51.44 321.496c-57.45 82.737-95.25 213.668-64.936 253.348 30.313 39.68 225.28-48.6 287.613-289.568z" fill="#668000" fill-rule="evenodd"/><circle r="274.5" cy="506.862" cx="231.5" fill="#ff7f2a"/></g><g transform="translate(7.104 -268.1)"><circle cx="334" cy="506.669" r="118" fill="#fff" fill-rule="evenodd"/><circle cx="352" cy="506.669" r="84.143" fill="#0082ff" fill-rule="evenodd"/><circle cx="352" cy="506.669" r="54.27" fill-rule="evenodd"/><ellipse cx="580" cy="506.669" rx="99.07" ry="104.12" fill="#fff" fill-rule="evenodd"/><circle cx="562.554" cy="506.669" r="70.135" fill="#0082ff" fill-rule="evenodd"/><circle cx="562.554" cy="506.669" r="45.235" fill-rule="evenodd"/><path d="M540 640.796s-141 2.238-149-1.12c-8-3.356-44 107.424 38 108.543 82 1.116 103-17.907 103-17.907s-35-45.342 8-89.52z" fill-rule="evenodd"/><path d="M361 337.19c-26 0-107 12-111 31s85 4 117-3 27-31-6-28zm273.19 12.79c-25.35-5.78-106.99-12.09-115.115 5.546-8.124 17.635 81.984 22.798 114.74 23.088 32.754.29 33.215-24.222.374-28.634z" fill="maroon" fill-rule="evenodd"/><path d="M394 731.18c17 10 50 13 83 9s18-22-6-24-87-13-77 15z" fill="#d70000" fill-rule="evenodd"/><ellipse transform="rotate(33.16)" ry="4.5" rx="15" cy="91.318" cx="743.594" fill="#fff"/><ellipse transform="rotate(33.16)" ry="4.5" rx="15" cy="194.103" cx="577.156" fill="#fff"/></g></svg>