<?xml version="1.0" encoding="UTF-8" standalone="no"?>
<svg
   xmlns:dc="http://purl.org/dc/elements/1.1/"
   xmlns:cc="http://creativecommons.org/ns#"
   xmlns:rdf="http://www.w3.org/1999/02/22-rdf-syntax-ns#"
   xmlns:svg="http://www.w3.org/2000/svg"
   xmlns="http://www.w3.org/2000/svg"
   xmlns:sodipodi="http://sodipodi.sourceforge.net/DTD/sodipodi-0.dtd"
   xmlns:inkscape="http://www.inkscape.org/namespaces/inkscape"
   width="100px"
   height="100px"
   viewBox="0 0 686.17351 549.00001"
   id="svg4231"
   version="1.1"
   inkscape:version="0.91 r13725"
   sodipodi:docname="laranja_lingua.svg">
  <metadata
     id="metadata4265">
    <rdf:RDF>
      <cc:Work
         rdf:about="">
        <dc:format>image/svg+xml</dc:format>
        <dc:type
           rdf:resource="http://purl.org/dc/dcmitype/StillImage" />
        <dc:title></dc:title>
      </cc:Work>
    </rdf:RDF>
  </metadata>
  <defs
     id="defs4263" />
  <sodipodi:namedview
     pagecolor="#ffffff"
     bordercolor="#666666"
     borderopacity="1"
     objecttolerance="10"
     gridtolerance="10"
     guidetolerance="10"
     inkscape:pageopacity="0"
     inkscape:pageshadow="2"
     inkscape:window-width="1865"
     inkscape:window-height="1056"
     id="namedview4261"
     showgrid="false"
     inkscape:zoom="9.39"
     inkscape:cx="50"
     inkscape:cy="50"
     inkscape:window-x="55"
     inkscape:window-y="24"
     inkscape:window-maximized="1"
     inkscape:current-layer="svg4231" />
  <g
     transform="translate(127.104 -232.362)"
     id="g4233">
    <path
       d="M171.237 285.276S6.01 238.76-51.44 321.496c-57.45 82.737-95.25 213.668-64.936 253.348 30.313 39.68 225.28-48.6 287.613-289.568z"
       fill="#668000"
       fill-rule="evenodd"
       id="path4235" />
    <circle
       r="274.5"
       cy="506.862"
       cx="231.5"
       fill="#ff7f2a"
       id="circle4237" />
  </g>
  <ellipse
     id="circle4376"
     cx="340.93561"
     cy="238.78932"
     style="fill:#ffffff;fill-rule:evenodd"
     rx="117.27972"
     ry="117.27971" />
  <ellipse
     id="circle4378"
     cx="358.82574"
     cy="238.78932"
     style="fill:#0082ff;fill-rule:evenodd"
     rx="83.629387"
     ry="83.629379" />
  <ellipse
     id="circle4380"
     cx="358.82574"
     cy="238.78932"
     style="fill-rule:evenodd"
     rx="53.938736"
     ry="53.938728" />
  <ellipse
     id="ellipse4382"
     cx="585.43402"
     cy="238.78932"
     rx="98.465271"
     ry="103.48444"
     style="fill:#ffffff;fill-rule:evenodd" />
  <ellipse
     id="circle4384"
     cx="568.09454"
     cy="238.78932"
     style="fill:#0082ff;fill-rule:evenodd"
     rx="69.706894"
     ry="69.706886" />
  <ellipse
     id="circle4386"
     cx="568.09454"
     cy="238.78932"
     style="fill-rule:evenodd"
     rx="44.958885"
     ry="44.958881" />
  <path
     id="path4388"
     d="m 367.7708,70.344835 c -25.84129,0 -106.34687,11.92675 -110.32245,30.810775 -3.97559,18.88402 84.48116,3.97558 116.28583,-2.981691 31.80467,-6.957271 26.83519,-30.810772 -5.96338,-27.829084 z M 639.29324,83.056763 C 614.09798,77.312045 532.95631,71.040562 524.88091,88.56891 c -8.07441,17.52735 81.48356,22.65884 114.03962,22.94707 32.55407,0.28823 33.01226,-24.074148 0.37172,-28.459217 z"
     inkscape:connector-curvature="0"
     style="fill:#800000;fill-rule:evenodd" />
  <ellipse
     id="ellipse4390"
     transform="matrix(0.83714641,0.54697888,-0.54697896,0.83714635,0,0)"
     ry="4.4725313"
     rx="14.908439"
     cy="-135.81361"
     cx="601.73505"
     style="fill:#ffffff" />
  <ellipse
     id="ellipse4392"
     transform="matrix(0.83714641,0.54697888,-0.54697896,0.83714635,0,0)"
     ry="4.4725313"
     rx="14.908439"
     cy="-33.656025"
     cx="436.31299"
     style="fill:#ffffff" />
  <path
     id="path4394"
     d="m 373.92103,394.46421 c 0,0 -83.85997,18.63555 -71.43627,48.14134 12.4237,29.50678 48.14134,52.80072 82.30651,31.05924 34.16517,-21.74147 38.82456,-52.80071 38.82456,-52.80071 0,0 -32.61271,0 -49.6948,-26.39987 z"
     inkscape:connector-curvature="0"
     style="fill:#ffb655;fill-rule:evenodd" />
  <path
     id="path4396"
     d="m 550.64766,407.44648 c 0,0 -122.49768,53.54614 -189.64827,-26.83519"
     inkscape:connector-curvature="0"
     style="fill:none;stroke:#000000;stroke-width:9.44201088" />
  <path
     id="path4398"
     d="m 392.55658,408.44038 c 0,0 -35.71863,18.63554 -46.58887,43.48294"
     inkscape:connector-curvature="0"
     style="fill:none;stroke:#000000;stroke-width:0.99389589" />
</svg>
