<svg xmlns="http://www.w3.org/2000/svg" width="731919.156" height="585600" viewBox="0 0 686.17421 549.00001"><g transform="translate(127.104 -232.362)"><path d="M171.237 285.276S6.01 238.76-51.44 321.496c-57.45 82.737-95.25 213.668-64.936 253.348 30.313 39.68 225.28-48.6 287.613-289.568z" fill="#668000" fill-rule="evenodd"/><circle r="274.5" cy="506.862" cx="231.5" fill="#ff7f2a"/></g><path d="M495.024 444.83c6.3-11.785 16.482-26.942.726-34.31-15.757-7.365-59.087-9.575-70.116 1.475-11.03 11.05-22.847 48.62 0 56.723 22.847 8.103 49.632 11.05 55.147-1.473 5.52-12.524 14.246-22.414 14.246-22.414z" fill-rule="evenodd" stroke="#000" stroke-width=".762"/><circle cx="341.104" cy="238.57" r="118" fill="#fff" fill-rule="evenodd"/><circle cx="359.104" cy="238.57" r="84.143" fill="#0082ff" fill-rule="evenodd"/><circle cx="359.104" cy="238.57" r="54.27" fill-rule="evenodd"/><ellipse cx="587.104" cy="238.57" rx="99.07" ry="104.12" fill="#fff" fill-rule="evenodd"/><circle cx="569.658" cy="238.57" r="70.135" fill="#0082ff" fill-rule="evenodd"/><circle cx="569.658" cy="238.57" r="45.235" fill-rule="evenodd"/><path d="M368.104 69.09c-26 0-107 12-111 31s85 4 117-3 27-31-6-28zm273.19 12.79c-25.35-5.78-106.99-12.09-115.115 5.547-8.128 17.635 81.98 22.798 114.74 23.088 32.75.29 33.21-24.222.37-28.634z" fill="maroon" fill-rule="evenodd"/><ellipse transform="rotate(33.16)" ry="4.5" rx="15" cy="-137.006" cx="602.897" fill="#fff"/><ellipse transform="rotate(33.16)" ry="4.5" rx="15" cy="-34.221" cx="436.459" fill="#fff"/><path d="M422.524 457.087c8.49 6.304 24.968 8.195 41.447 5.673 16.48-2.522 8.99-13.87-2.992-15.13-11.984-1.26-43.443-8.196-38.45 9.456z" fill="#d70000" fill-rule="evenodd" stroke="#000" stroke-width=".351"/></svg>