<svg xmlns="http://www.w3.org/2000/svg" width="731918.4" height="585600" viewBox="0 0 686.17351 549.00001"><g transform="translate(127.104 -232.362)"><path d="M171.237 285.276S6.01 238.76-51.44 321.496c-57.45 82.737-95.25 213.668-64.936 253.348 30.313 39.68 225.28-48.6 287.613-289.568z" fill="#668000" fill-rule="evenodd"/><circle r="274.5" cy="506.862" cx="231.5" fill="#ff7f2a"/></g><g transform="translate(7.104 -268.1)"><circle r="118" cy="506.669" cx="334" fill="#fff" fill-rule="evenodd"/><circle r="84.143" cy="506.669" cx="352" fill="#0082ff" fill-rule="evenodd"/><circle r="54.27" cy="506.669" cx="352" fill-rule="evenodd"/><ellipse ry="104.12" rx="99.07" cy="506.669" cx="580" fill="#fff" fill-rule="evenodd"/><circle r="70.135" cy="506.669" cx="562.554" fill="#0082ff" fill-rule="evenodd"/><circle r="45.235" cy="506.669" cx="562.554" fill-rule="evenodd"/><path d="M361 337.19c-26 0-107 12-111 31s85 4 117-3 27-31-6-28zm273.19 12.79c-25.35-5.78-106.99-12.09-115.115 5.546-8.124 17.635 81.984 22.798 114.74 23.088 32.754.29 33.215-24.222.374-28.634z" fill="maroon" fill-rule="evenodd"/><ellipse cx="743.594" cy="91.318" rx="15" ry="4.5" transform="rotate(33.16)" fill="#fff"/><ellipse cx="577.156" cy="194.103" rx="15" ry="4.5" transform="rotate(33.16)" fill="#fff"/><path d="M545 676.362s-142 32-183-2" fill="none" stroke="#000" stroke-width="9.5"/></g></svg>