<svg xmlns="http://www.w3.org/2000/svg" width="675524.296" height="184.527mm" viewBox="0 0 633.30402 653.83726"><g fill-rule="evenodd"><path d="M96.476 301.784c15.37 99.973 47.29 237.19 65.025 262.346 17.735 25.156 48.046 73.925 104.042 86.903 44.185 10.24 143.85-7.376 215.175-56.03 100.127-68.3 154.878-176.094 152.514-293.87-2.364-117.778-29.556-169.234-93.4-202.395-87.672-45.538-249.46-42.308-300.298-26.3-50.838 16.01-146.603 35.608-143.056 229.346z" fill="#d40000"/><path d="M485.354 6.873c-8.518 18.928-22.714 51.107-47.32 47.32-24.607-3.785-113.57-28.392-191.177 7.572-25.255 11.704-62.463 53.946-62.463 71.928s17.035 28.392 17.035 28.392 29.338-49.213 49.213-52.053c19.875-2.84 53 12.304 41.642 49.214-11.357 36.91-13.25 36.91-13.25 36.91s73.82-32.178 88.964-58.677c15.14-26.5 40.695-32.18 40.695-32.18s70.034 37.857 78.552 65.303c8.518 27.446 27.446 80.445 27.446 80.445s37.857-71.927 28.393-101.266c-9.465-29.34 30.16 26.975 36.847 80.21 6.688 53.235 23.723 58.913 23.723 58.913s25.553-141.016-13.25-172.248c-38.803-31.23-84.23-28.392-77.606-59.624 6.625-31.232 12.304-37.856 12.304-37.856s-4.732-33.125-39.75-12.304z" fill="#89a02c"/><path d="M245.174 62.843s-94.105 40.76-121.102 39.69c-26.998-1.07 65.928 28.17 88.98 7.228 23.055-20.94 32.122-46.917 32.122-46.917z" fill="#89a02c"/><path d="M555.104 274.68s12 30 5 33-8-24-5-33zM556.082 350.097s1.16 32.29-6.44 32.75c-7.603.458.576-25.293 6.44-32.75zM495.83 396.304s1.16 32.29-6.442 32.75c-7.602.458.578-25.293 6.442-32.75z"/></g><g transform="matrix(-1 0 0 1 545.727 -229.68)"><circle cx="194.274" cy="452.194" r="118" fill="#fff" fill-rule="evenodd"/><circle cx="212.274" cy="452.194" r="84.143" fill="#0082ff" fill-rule="evenodd"/><circle cx="212.274" cy="452.194" r="54.27" fill-rule="evenodd"/><ellipse cx="440.274" cy="452.194" rx="99.07" ry="104.12" fill="#fff" fill-rule="evenodd"/><circle cx="422.828" cy="452.194" r="70.135" fill="#0082ff" fill-rule="evenodd"/><circle cx="422.828" cy="452.194" r="45.235" fill-rule="evenodd"/><ellipse transform="rotate(33.16)" ry="4.5" rx="15" cy="122.14" cx="596.825" fill="#fff"/><ellipse transform="rotate(33.16)" ry="4.5" rx="15" cy="224.925" cx="430.387" fill="#fff"/><path d="M302.774 333.502c-36.272-19.617-160.623-67.376-184.17-49.244-23.547 18.132 114.8 68.587 166.063 84.94 51.263 16.353 66.982-14.136 18.107-35.696zM499.302 273.845c-37.44 12.89-148.01 69.277-144.162 96.957 3.847 27.68 124.42-36.73 166.958-62.062 42.54-25.332 23.205-55.312-22.796-34.895z" fill="maroon" fill-rule="evenodd"/><path d="M436.274 601.887s-39 9-98 8-156-18-156-18-13 40-3 77 43 56 127 59 124-24 124-24-14-16-11-42 17-60 17-60z" fill="#fff" fill-rule="evenodd" stroke="#000" stroke-width="3"/><path d="M419.274 658.887s-36 10-94 12-150-25-150-25M395.274 731.887c-40 11-80 12-112 11" fill="none" stroke="#000"/></g></svg>