<svg xmlns="http://www.w3.org/2000/svg" width="608846.324" height="615162.104" viewBox="0 0 570.79343 576.71448"><g fill-rule="evenodd"><path d="M471.724 278.94c-13 84.56-40 200.62-55 221.898-15 21.277-40.638 62.528-88 73.505-37.373 8.662-121.67-6.24-182-47.392-84.69-57.768-131-148.943-129-248.562 2-99.62 25-143.142 79-171.19 74.155-38.517 211-35.785 254-22.245 43 13.54 124 30.118 121 193.986z" fill="#d40000"/><path d="M133.724 7.262c9 20 24 54 50 50s120-30 202 8c26.685 12.366 66 57 66 76s-18 30-18 30-31-52-52-55-56 13-44 52 14 39 14 39-78-34-94-62-43-34-43-34-74 40-83 69-29 85-29 85-40-76-30-107-31.867 28.503-38.934 84.752c-7.066 56.248-25.066 62.248-25.066 62.248s-27-149 14-182 89-30 82-63-13-40-13-40 5-35 42-13z" fill="#89a02c"/></g><g transform="translate(-108.276 -254.242)"><path d="M487.92 712.93c6.3-11.786 16.482-26.943.726-34.31-15.757-7.366-59.087-9.576-70.116 1.474-11.03 11.05-22.847 48.62 0 56.723 22.847 8.103 49.632 11.05 55.147-1.473 5.515-12.524 14.242-22.414 14.242-22.414z" fill-rule="evenodd" stroke="#000" stroke-width=".762"/><circle cx="334" cy="506.669" r="118" fill="#fff" fill-rule="evenodd"/><circle cx="352" cy="506.669" r="84.143" fill="#0082ff" fill-rule="evenodd"/><circle cx="352" cy="506.669" r="54.27" fill-rule="evenodd"/><ellipse cx="580" cy="506.669" rx="99.07" ry="104.12" fill="#fff" fill-rule="evenodd"/><circle cx="562.554" cy="506.669" r="70.135" fill="#0082ff" fill-rule="evenodd"/><circle cx="562.554" cy="506.669" r="45.235" fill-rule="evenodd"/><path d="M361 337.19c-26 0-107 12-111 31s85 4 117-3 27-31-6-28zM634.19 349.98c-25.35-5.78-106.99-12.09-115.115 5.546-8.124 17.635 81.984 22.798 114.74 23.088 32.754.29 33.215-24.222.374-28.634z" fill="maroon" fill-rule="evenodd"/><ellipse transform="rotate(33.16)" ry="4.5" rx="15" cy="91.318" cx="743.594" fill="#fff"/><ellipse transform="rotate(33.16)" ry="4.5" rx="15" cy="194.103" cx="577.156" fill="#fff"/><path d="M415.42 725.186c8.49 6.304 24.968 8.195 41.447 5.673 16.48-2.522 8.988-13.87-2.996-15.13-11.984-1.26-43.443-8.196-38.45 9.456z" fill="#d70000" fill-rule="evenodd" stroke="#000" stroke-width=".351"/></g></svg>