<svg xmlns="http://www.w3.org/2000/svg" width="548745.184" height="735627.515" viewBox="0 0 514.4486 689.6508"><g fill-rule="evenodd"><path d="M291.38 150.11s13-68 5-94-46-63-83-55-58 41.737-58 41.737l39 30.263s17-21 29-17-31 95-31 95z" fill="#450"/><path d="M236.522 132.122c-30-6.683-54.675-22.582-84-20.047-49.507 4.278-38 26.73-54 23.865-16-2.864-27.636-17.53-57-12.41-25.52 4.45-45 14.32-41 54.413 2.18 21.858 18 441.036 62 481.13 44 40.094 76 3.818 76 3.818s31.022 28.066 71 25.776c50-2.864 64.546-11.846 76-20.047 0 0 23 21.955 51 21 28-.954 45-5.727 56-43.912s85-469.674 80-496.403c-5-26.73-19-39.14-40-38.185-21 .955-34 14.32-34 14.32s-15-24.82-65-24.82c-66 0-42 31.502-97 31.502z" fill="#af2b2e"/></g><g transform="translate(-164.62 -197.774)"><circle r="118" cy="506.669" cx="334" fill="#fff" fill-rule="evenodd"/><circle r="84.143" cy="506.669" cx="352" fill="#0082ff" fill-rule="evenodd"/><circle r="54.27" cy="506.669" cx="352" fill-rule="evenodd"/><ellipse ry="104.12" rx="99.07" cy="506.669" cx="580" fill="#fff" fill-rule="evenodd"/><circle r="70.135" cy="506.669" cx="562.554" fill="#0082ff" fill-rule="evenodd"/><circle r="45.235" cy="506.669" cx="562.554" fill-rule="evenodd"/><path d="M361 337.19c-26 0-107 12-111 31s85 4 117-3 27-31-6-28zM634.19 349.98c-25.35-5.78-106.99-12.09-115.115 5.546-8.124 17.635 81.984 22.798 114.74 23.088 32.754.29 33.215-24.222.374-28.634z" fill="maroon" fill-rule="evenodd"/><ellipse cx="743.594" cy="91.318" rx="15" ry="4.5" transform="rotate(33.16)" fill="#fff"/><ellipse cx="577.156" cy="194.103" rx="15" ry="4.5" transform="rotate(33.16)" fill="#fff"/><path d="M545 676.362s-142 32-183-2" fill="none" stroke="#000" stroke-width="9.5"/></g></svg>