<?xml version="1.0" encoding="UTF-8" standalone="no"?>
<svg
   xmlns:dc="http://purl.org/dc/elements/1.1/"
   xmlns:cc="http://creativecommons.org/ns#"
   xmlns:rdf="http://www.w3.org/1999/02/22-rdf-syntax-ns#"
   xmlns:svg="http://www.w3.org/2000/svg"
   xmlns="http://www.w3.org/2000/svg"
   xmlns:sodipodi="http://sodipodi.sourceforge.net/DTD/sodipodi-0.dtd"
   xmlns:inkscape="http://www.inkscape.org/namespaces/inkscape"
   width="48.885204"
   height="65.533508"
   viewBox="0 0 363.75211 689.64987"
   id="svg4991"
   version="1.1"
   inkscape:version="0.91 r13725"
   sodipodi:docname="pimentao_lingua.svg">
  <metadata
     id="metadata5027">
    <rdf:RDF>
      <cc:Work
         rdf:about="">
        <dc:format>image/svg+xml</dc:format>
        <dc:type
           rdf:resource="http://purl.org/dc/dcmitype/StillImage" />
        <dc:title></dc:title>
      </cc:Work>
    </rdf:RDF>
  </metadata>
  <defs
     id="defs5025" />
  <sodipodi:namedview
     pagecolor="#ffffff"
     bordercolor="#666666"
     borderopacity="1"
     objecttolerance="10"
     gridtolerance="10"
     guidetolerance="10"
     inkscape:pageopacity="0"
     inkscape:pageshadow="2"
     inkscape:window-width="862"
     inkscape:window-height="480"
     id="namedview5023"
     showgrid="false"
     fit-margin-top="0"
     fit-margin-left="0"
     fit-margin-right="0"
     fit-margin-bottom="0"
     inkscape:zoom="2.36"
     inkscape:cx="212.14403"
     inkscape:cy="34.32688"
     inkscape:window-x="55"
     inkscape:window-y="24"
     inkscape:window-maximized="0"
     inkscape:current-layer="svg4991" />
  <g
     id="g5569"
     transform="translate(78.785218,-3.9850737e-5)">
    <g
       transform="translate(-318.75447,-197.77432)"
       style="fill-rule:evenodd"
       id="g4993">
      <path
         style="fill:#445500"
         inkscape:connector-curvature="0"
         id="path4995"
         d="m 456,347.884 c 0,0 13,-68 5,-94 -8,-26 -46,-63 -83,-55 -37,8 -58,41.737 -58,41.737 l 39,30.264 c 0,0 17,-21 29,-17 12,4 -31,95 -31,95 z" />
      <path
         style="fill:#af2b2e"
         inkscape:connector-curvature="0"
         id="path4997"
         d="m 401.143,329.896 c -30,-6.683 -54.675,-22.582 -84,-20.047 -49.507,4.277 -38,26.728 -54,23.864 -16,-2.864 -27.636,-17.53 -57,-12.41 -25.52,4.45 -45,14.32 -41,54.413 2.18,21.858 18,441.036 62,481.13 44,40.094 76,3.818 76,3.818 0,0 31.022,28.065 71,25.775 50,-2.864 64.546,-11.846 76,-20.047 0,0 23,21.956 51,21.002 28,-0.955 45,-5.728 56,-43.913 11,-38.185 85,-469.674 80,-496.403 -5,-26.73 -19,-39.14 -40,-38.186 -21,0.955 -34,14.32 -34,14.32 0,0 -15,-24.82 -65,-24.82 -66,0 -42,31.502 -97,31.502 z" />
    </g>
    <circle
       style="fill:#ffffff;fill-rule:evenodd"
       id="circle4999"
       r="118"
       cy="308.89468"
       cx="15.245533" />
    <circle
       style="fill:#0082ff;fill-rule:evenodd"
       id="circle5001"
       r="84.142998"
       cy="308.89468"
       cx="33.245533" />
    <circle
       style="fill-rule:evenodd"
       id="circle5003"
       r="54.27"
       cy="308.89468"
       cx="33.245533" />
    <ellipse
       style="fill:#ffffff;fill-rule:evenodd"
       id="ellipse5005"
       ry="104.12"
       rx="99.07"
       cy="308.89468"
       cx="261.24554" />
    <circle
       style="fill:#0082ff;fill-rule:evenodd"
       id="circle5007"
       r="70.135002"
       cy="308.89468"
       cx="243.79955" />
    <circle
       style="fill-rule:evenodd"
       id="circle5009"
       r="45.235001"
       cy="308.89468"
       cx="243.79955" />
    <path
       style="fill:#800000;fill-rule:evenodd"
       inkscape:connector-curvature="0"
       id="path5011"
       d="m 42.245533,139.41568 c -26,0 -107,12 -111,31 -4,19 85,4 117,-3 32,-7 27,-31 -6,-28 z m 273.189997,12.79 c -25.35,-5.78 -106.99,-12.09 -115.115,5.546 -8.124,17.635 81.984,22.798 114.74,23.088 32.754,0.29 33.215,-24.222 0.374,-28.634 z" />
    <ellipse
       style="fill:#ffffff"
       id="ellipse5013"
       cx="368.57147"
       cy="100.10391"
       rx="15"
       ry="4.5"
       transform="matrix(0.83714638,0.54697892,-0.54697892,0.83714638,0,0)" />
    <ellipse
       style="fill:#ffffff"
       id="ellipse5015"
       cx="202.13347"
       cy="202.88892"
       rx="15"
       ry="4.5"
       transform="matrix(0.83714638,0.54697892,-0.54697892,0.83714638,0,0)" />
    <path
       style="fill:#ff8080;fill-rule:evenodd"
       inkscape:connector-curvature="0"
       id="path5017"
       d="m 48.433533,465.52568 c 0,0 -84.375,18.75 -71.875,48.437 12.5,29.688 48.437,53.125 82.812,31.25 34.375,-21.875 39.063,-53.125 39.063,-53.125 0,0 -32.813,0 -50,-26.562 z" />
    <path
       style="fill:none;stroke:#000000;stroke-width:9.5"
       inkscape:connector-curvature="0"
       id="path5019"
       d="m 226.24553,478.58768 c 0,0 -123.25,53.875 -190.812997,-27" />
    <path
       style="fill:none;stroke:#000000"
       inkscape:connector-curvature="0"
       id="path5021"
       d="m 67.183533,479.58768 c 0,0 -35.938,18.75 -46.875,43.75" />
  </g>
</svg>
