<svg xmlns="http://www.w3.org/2000/svg" width="619339.691" height="795360.831" viewBox="0 0 580.63096 745.65079"><g fill-rule="evenodd"><path d="M238.32 150.11s-13-68-5-94 46-63 83-55 58 41.737 58 41.737l-39 30.263s-17-21-29-17 31 95 31 95z" fill="#450"/><path d="M290.143 93.47c36.845-7.817 67.15-26.415 103.166-23.45 60.8 5.005 46.67 31.267 66.32 27.917 19.65-3.35 33.94-20.507 70.003-14.517 31.342 5.205 55.267 16.75 50.354 63.65-2.68 25.57-22.108 515.91-76.147 562.81-54.04 46.902-93.34 4.468-93.34 4.468s-38.1 32.83-87.2 30.15c-61.406-3.35-79.27-13.857-93.34-23.45 0 0-28.246 25.684-62.635 24.567-34.388-1.116-55.267-6.7-68.777-51.367C85.04 649.58-5.844 144.838.298 113.57c6.14-31.267 23.334-45.784 49.126-44.667 25.79 1.116 41.757 16.75 41.757 16.75s18.426-29.034 79.834-29.034c81.058 0 51.582 36.85 119.13 36.85z" fill="#af2b2e"/></g><g transform="translate(-110.688 -191.774)"><circle r="118" cy="506.669" cx="-468.007" transform="scale(-1 1)" fill="#fff" fill-rule="evenodd"/><circle r="84.143" cy="506.669" cx="-450.007" transform="scale(-1 1)" fill="#0082ff" fill-rule="evenodd"/><circle r="54.27" cy="506.669" cx="-450.007" transform="scale(-1 1)" fill-rule="evenodd"/><ellipse ry="104.12" rx="99.07" cy="506.669" cx="-222.007" transform="scale(-1 1)" fill="#fff" fill-rule="evenodd"/><circle r="70.135" cy="506.669" cx="-239.452" transform="scale(-1 1)" fill="#0082ff" fill-rule="evenodd"/><circle r="45.235" cy="506.669" cx="-239.452" transform="scale(-1 1)" fill-rule="evenodd"/><ellipse cx="72.191" cy="529.99" rx="15" ry="4.5" transform="rotate(146.84)" fill="#fff"/><ellipse cx="-94.247" cy="632.775" rx="15" ry="4.5" transform="rotate(146.84)" fill="#fff"/><path d="M359.506 387.978c36.273-19.618 160.623-67.377 184.17-49.245 23.547 18.132-114.8 68.588-166.063 84.94-51.262 16.353-66.982-14.136-18.107-35.695zM162.98 328.32c37.438 12.89 148.007 69.277 144.16 96.957-3.846 27.68-124.42-36.73-166.958-62.062-42.54-25.33-23.205-55.312 22.797-34.894z" fill="maroon" fill-rule="evenodd"/><path d="M226.007 656.362s39 9 98 8 156-18 156-18 13 40 3 77-43 56-127 59-124-24-124-24 14-16 11-42-17-60-17-60z" fill="#fff" fill-rule="evenodd" stroke="#000" stroke-width="3"/><path d="M243.007 713.362s36 10 94 12 150-25 150-25m137-138c6 25 15 41 6 55s-24 55-21 67 12 26-3 49m-85 171s12-26 15-48 2-67 2-67m-196 121c12-28-1-89-1-89m-74-35c40 11 80 12 112 11" fill="none" stroke="#000"/></g></svg>