<svg xmlns="http://www.w3.org/2000/svg" width="548745.184" height="735627.515" viewBox="0 0 514.4486 689.6508"><g fill-rule="evenodd"><path d="M291.38 150.11s13-68 5-94-46-63-83-55-58 41.737-58 41.737l39 30.263s17-21 29-17-31 95-31 95z" fill="#450"/><path d="M236.522 132.122c-30-6.683-54.675-22.582-84-20.047-49.507 4.278-38 26.73-54 23.865-16-2.864-27.636-17.53-57-12.41-25.52 4.45-45 14.32-41 54.413 2.18 21.858 18 441.036 62 481.13 44 40.094 76 3.818 76 3.818s31.022 28.067 71 25.777c50-2.864 64.546-11.846 76-20.047 0 0 23 21.955 51 21 28-.954 45-5.727 56-43.912s85-469.674 80-496.403c-5-26.73-19-39.14-40-38.185-21 .955-34 14.32-34 14.32s-15-24.82-65-24.82c-66 0-42 31.502-97 31.502z" fill="#af2b2e"/></g><g transform="translate(-164.62 -197.774)"><circle cx="334" cy="506.669" r="118" fill="#fff" fill-rule="evenodd"/><circle cx="352" cy="506.669" r="84.143" fill="#0082ff" fill-rule="evenodd"/><circle cx="352" cy="506.669" r="54.27" fill-rule="evenodd"/><ellipse cx="580" cy="506.669" rx="99.07" ry="104.12" fill="#fff" fill-rule="evenodd"/><circle cx="562.554" cy="506.669" r="70.135" fill="#0082ff" fill-rule="evenodd"/><circle cx="562.554" cy="506.669" r="45.235" fill-rule="evenodd"/><path d="M540 640.796s-141 2.238-149-1.12c-8-3.356-44 107.424 38 108.543 82 1.117 103-17.906 103-17.906s-35-45.342 8-89.52z" fill-rule="evenodd" stroke="#000" stroke-width=".625"/><path d="M361 337.19c-26 0-107 12-111 31s85 4 117-3 27-31-6-28zm273.19 12.79c-25.35-5.78-106.99-12.09-115.115 5.546-8.124 17.635 81.984 22.798 114.74 23.088 32.754.29 33.215-24.222.374-28.634z" fill="maroon" fill-rule="evenodd"/><path d="M394 731.18c17 10 50 13 83 9s18-22-6-24-87-13-77 15z" fill="#d70000" fill-rule="evenodd" stroke="#000" stroke-width=".625"/><ellipse transform="rotate(33.16)" ry="4.5" rx="15" cy="91.318" cx="743.594" fill="#fff"/><ellipse transform="rotate(33.16)" ry="4.5" rx="15" cy="194.103" cx="577.156" fill="#fff"/></g></svg>