<svg id="Layer_1" xmlns="http://www.w3.org/2000/svg" width="150" height="150" viewBox="0 0 150 150"><style>.st0,.st1{fill:#666364}.st1{fill-rule:evenodd;clip-rule:evenodd}</style><g id="XMLID_2_"><path id="XMLID_29_" class="st0" d="M75 150c-41.4 0-75-33.6-75-75S33.6 0 75 0s75 33.6 75 75-33.6 75-75 75zM75 9.2C38.7 9.2 9.2 38.7 9.2 75s29.5 65.8 65.8 65.8 65.8-29.5 65.8-65.8S111.3 9.2 75 9.2z"/><g id="Forma_1"><g id="XMLID_65_"><path id="XMLID_66_" class="st1" d="M74.7 45.9c1.5-13.9 31.9-7 25.5-25-1-2.8-5.3-1.6-4.4 1.2C98.6 30 88 31 82.7 32.8 76.3 35 71 38.7 70.2 45.9c-.3 3 4.2 2.9 4.5 0zm31.9 18.9c.1-2.9.1-5.8.1-8.4H30.3v5.1c.1 16.8 1.5 38.4 15.3 49.2-9.2.7-15.2 1.8-15.3 3.1v.1c.1.7 1.9 1.3 5 1.9h66.3c3.2-.6 5-1.2 5-2 0-1.3-6-2.4-15.3-3.2-6.4-.5-14.3-.8-22.8-.8 8.6 0 16.5.3 22.8.8 4.2-3.2 7.2-7.5 9.4-12.2 15.8-.6 23-7.8 23.2-16.7v-1c-.2-7.6-5.6-14-17.3-15.9zm-67.1-2.5h11.9c-5.3 16 3.7 41.2 3.7 41.2-19.5-15-15.6-41.2-15.6-41.2zm64 28.5c1.7-6 2.4-12.4 2.8-18.6 6.7 1.6 7.9 4.9 7.8 9.2 0 5-1.4 8.3-10.6 9.4zm-7.2-54.6c-5.9 1.4-11.3 4-13.2 10.3-.8 2.8 3.5 4 4.4 1.2 2-7 11.1-7.1 16.8-8.8 6.2-1.8 9.7-6.2 8.9-12.8-.4-2.9-4.9-2.9-4.5 0 1 8.1-6.3 8.7-12.4 10.1z"/></g></g></g></svg>