<svg id="Layer_1" xmlns="http://www.w3.org/2000/svg" width="150" height="150" viewBox="0 0 150 150"><style>.st0,.st1{fill:#666364}.st1{fill-rule:evenodd;clip-rule:evenodd}</style><g id="XMLID_2_"><path id="XMLID_28_" class="st0" d="M75 150c-41.4 0-75-33.6-75-75S33.6 0 75 0s75 33.6 75 75-33.6 75-75 75zM75 9.2C38.7 9.2 9.2 38.7 9.2 75s29.5 65.8 65.8 65.8 65.8-29.5 65.8-65.8S111.3 9.2 75 9.2z"/><g id="Forma_1_2_"><g id="XMLID_64_"><path id="XMLID_65_" class="st1" d="M121.3 41.8c0-1.4-1.1-2.5-2.5-2.5-.4 0-.7.1-1 .2 0 0-.1 0-.2.1-.2.1-.5.3-.6.5-1.8 1.5-7.7 7.7-8.2 16-.7 12.7 5.4 17.9 7.5 22.6l-1.7 27.7c0 .6.5 1.2 1.3 1.6h5.8c.7-.4 1.2-1 1.3-1.6v-.3l-1.7-64.3zm-71.4 1c0-1.4-1.1-2.5-2.5-2.5s-2.5 1.1-2.5 2.5V58h-1.4V42.8c0-1.4-1.1-2.5-2.5-2.5s-2.5 1.1-2.5 2.5V58h-1.4V42.8c0-1.4-1.1-2.5-2.5-2.5s-2.5 1.1-2.5 2.5V58h-1.4V43.3c0-1.4-1.1-2.5-2.5-2.5s-2.5 1.1-2.5 2.5V60c0 2.8 1.9 5.8 4.4 7.1l4.3 2.2c.5.2 1 .4 1.6.6l-1.7 37.8c0 .2 0 .3.1.4h8.1c.1-.1.1-.3.1-.4l-1.7-38c.6-.2 1.2-.4 1.7-.7l3.2-2c2.3-1.4 4.1-4.5 4.1-7.3V42.8zm28.5 3.4c-15.8 0-28.7 12.9-28.7 28.8s12.8 28.8 28.7 28.8c15.8 0 28.7-12.9 28.7-28.8S94.2 46.2 78.4 46.2zm0 53.2C65 99.4 54.1 88.5 54.1 75c0-13.4 10.9-24.4 24.3-24.4s24.3 10.9 24.3 24.4c0 13.5-10.9 24.4-24.3 24.4zm0-47.1c-12.5 0-22.6 10.2-22.6 22.7s10.1 22.7 22.6 22.7C90.8 97.7 101 87.5 101 75S90.8 52.3 78.4 52.3z"/></g></g></g></svg>