<svg id="Layer_1" xmlns="http://www.w3.org/2000/svg" width="150" height="150" viewBox="0 0 150 150"><style>.st0{fill:#666364}</style><path class="st0" d="M74.9 150C33.6 150 0 116.4 0 75.1S33.6.2 74.9.2s74.9 33.6 74.9 74.9S116.2 150 74.9 150zm0-140.6C38.7 9.4 9.2 38.9 9.2 75.1s29.5 65.7 65.7 65.7 65.7-29.5 65.7-65.7S111.1 9.4 74.9 9.4z"/><g id="Forma_1_4_"><g id="XMLID_114_"><path id="XMLID_115_" class="st0" d="M120.6 47.3c-.5-.7-1.4-1.2-2.3-1.2H53.8l-2.6-7.6c-.3-.8-.9-1.4-1.6-1.7l-13.3-5.2c-1.5-.6-3.1.1-3.7 1.6-.6 1.5.1 3.1 1.6 3.7l12.1 4.7L61 84.1c-.7.2-1.2.7-1.5 1.4l-4.3 11.8c-.3.7-.2 1.5.3 2.2.4.6 1.2 1 1.9 1h2.2c-1.4 1.5-2.2 3.5-2.2 5.7 0 4.7 3.8 8.5 8.5 8.5s8.5-3.8 8.5-8.5c0-2.2-.8-4.2-2.2-5.7h18.6c-1.4 1.5-2.2 3.5-2.2 5.7 0 4.7 3.8 8.5 8.5 8.5s8.5-3.8 8.5-8.5c0-2.2-.8-4.2-2.2-5.7h2.7c1.3 0 2.4-1.1 2.4-2.4s-1.1-2.4-2.4-2.4H60.9l2.6-7.3c.3.1.7.2 1.1.2h41.8c1.2 0 2.3-.8 2.7-2L121 49.8c.3-.8.1-1.8-.4-2.5zm-23.2 55.1c2.1 0 3.8 1.7 3.8 3.8 0 2.1-1.7 3.8-3.8 3.8-2.1 0-3.8-1.7-3.8-3.8 0-2.1 1.7-3.8 3.8-3.8zm-31.3 0c2.1 0 3.8 1.7 3.8 3.8 0 2.1-1.7 3.8-3.8 3.8s-3.8-1.7-3.8-3.8c0-2.1 1.7-3.8 3.8-3.8zM73.3 83h-6.6l-2.1-6.1h8.7V83zm0-11.8H62.6L60 63.9h13.3v7.3zm0-13H58l-2.2-6.4h17.5v6.4zM92.1 83H79v-6.1h13.1V83zm0-11.8H79v-7.3h13.1v7.3zm0-13H79v-6.4h13.1v6.4zM104.4 83h-6.5v-6.1h8.5l-2 6.1zm3.8-11.8H97.8v-7.3h12.7l-2.3 7.3zm4.1-13H97.8v-6.4h16.6l-2.1 6.4z"/></g></g></svg>