<svg id="Layer_1" xmlns="http://www.w3.org/2000/svg" width="150" height="150" viewBox="0 0 150 150"><style>.st0{fill:#666364}</style><g id="XMLID_2_"><path id="XMLID_52_" class="st0" d="M75 150c-41.4 0-75-33.6-75-75S33.6 0 75 0s75 33.6 75 75-33.6 75-75 75zM75 9.2C38.7 9.2 9.2 38.7 9.2 75s29.5 65.8 65.8 65.8 65.8-29.5 65.8-65.8S111.3 9.2 75 9.2z"/><g id="Forma_1_10_"><g id="XMLID_120_"><path id="XMLID_121_" class="st0" d="M87 37.4H63V47h24v-9.6zm-4.8 24c-2.7 0-4.8 2.2-4.8 4.8 0 2.7 2.2 4.8 4.8 4.8 2.7 0 4.8-2.2 4.8-4.8 0-2.6-2.1-4.8-4.8-4.8zm-4.8 19.3c0 2.7 2.2 4.8 4.8 4.8 2.7 0 4.8-2.2 4.8-4.8 0-2.7-2.2-4.8-4.8-4.8s-4.8 2.1-4.8 4.8zM67.8 71c2.7 0 4.8-2.2 4.8-4.8 0-2.7-2.2-4.8-4.8-4.8S63 63.6 63 66.2c0 2.7 2.1 4.8 4.8 4.8zm28.8-24c2.7 0 4.8-2.2 4.8-4.8v-9.6c0-2.7-2.2-4.8-4.8-4.8-2.7 0-4.8 2.2-4.8 4.8v9.6c0 2.6 2.2 4.8 4.8 4.8zm0 24c2.7 0 4.8-2.2 4.8-4.8 0-2.7-2.2-4.8-4.8-4.8-2.7 0-4.8 2.2-4.8 4.8 0 2.7 2.2 4.8 4.8 4.8zm0 14.5c2.7 0 4.8-2.2 4.8-4.8 0-2.7-2.2-4.8-4.8-4.8-2.7 0-4.8 2.2-4.8 4.8 0 2.6 2.2 4.8 4.8 4.8zm-43.2 0c2.7 0 4.8-2.2 4.8-4.8 0-2.7-2.2-4.8-4.8-4.8-2.7 0-4.8 2.2-4.8 4.8 0 2.6 2.1 4.8 4.8 4.8zm0 14.4c2.7 0 4.8-2.2 4.8-4.8 0-2.7-2.2-4.8-4.8-4.8-2.7 0-4.8 2.2-4.8 4.8 0 2.6 2.1 4.8 4.8 4.8zm0-28.9c2.7 0 4.8-2.2 4.8-4.8 0-2.7-2.2-4.8-4.8-4.8-2.7 0-4.8 2.2-4.8 4.8 0 2.7 2.1 4.8 4.8 4.8zm57.7-33.6h-4.8V47h4.8v62.5H38.9V47h4.8v-9.6h-4.8c-5.3 0-9.6 4.3-9.6 9.6v62.5c0 5.3 4.3 9.6 9.6 9.6H111c5.3 0 9.6-4.3 9.6-9.6V47c.1-5.3-4.2-9.6-9.5-9.6zM67.8 85.5c2.7 0 4.8-2.2 4.8-4.8 0-2.7-2.2-4.8-4.8-4.8-2.7 0-4.8 2.2-4.8 4.8 0 2.6 2.1 4.8 4.8 4.8zm0 14.4c2.7 0 4.8-2.2 4.8-4.8 0-2.7-2.2-4.8-4.8-4.8S63 92.4 63 95.1c0 2.6 2.1 4.8 4.8 4.8zM53.4 47c2.7 0 4.8-2.2 4.8-4.8v-9.6c0-2.7-2.2-4.8-4.8-4.8-2.7 0-4.8 2.2-4.8 4.8v9.6c0 2.6 2.1 4.8 4.8 4.8z"/></g></g></g></svg>