<svg id="Layer_1" xmlns="http://www.w3.org/2000/svg" width="150" height="150" viewBox="0 0 150 150"><style>.st0,.st1{fill:#666364}.st1{fill-rule:evenodd;clip-rule:evenodd}</style><g id="XMLID_2_"><path id="XMLID_108_" class="st0" d="M75 150c-41.4 0-75-33.6-75-75S33.6 0 75 0s75 33.6 75 75-33.6 75-75 75zM75 9.2C38.7 9.2 9.2 38.7 9.2 75s29.5 65.8 65.8 65.8 65.8-29.5 65.8-65.8S111.3 9.2 75 9.2z"/><g id="Forma_1_6_"><g id="XMLID_97_"><path id="XMLID_99_" class="st1" d="M86 69.1l4.5 2.6 9.4-5.4L86 58.2v10.9zm27.8-16.8l3.4-6c2.7-4.7-5-9.9-8.4-11.9-1.5-.9-3.9-2.2-6.4-2.9h-6.5c-.6.3-1.1.8-1.5 1.5l-4.5 7.9c-4.7-1-9.7-1.6-14.9-1.6-27 0-48.8 14.8-48.8 33s21.9 33 48.8 33h.2c.2 4-4.1 10.5-10.6 14 25.6 0 37.5-19.5 37.6-19.6 13-5.9 21.6-16 21.6-27.4 0-7.6-3.7-14.5-10-20zM48.2 81.6c-2.5 0-4.4-2-4.4-4.5s2-4.5 4.4-4.5c2.5 0 4.4 2 4.4 4.5.1 2.5-1.9 4.5-4.4 4.5zm12.2 0c-2.5 0-4.4-2-4.4-4.5s2-4.5 4.4-4.5 4.4 2 4.4 4.5-2 4.5-4.4 4.5zm12.1 0c-2.5 0-4.4-2-4.4-4.5s2-4.5 4.4-4.5c2.5 0 4.4 2 4.4 4.5s-1.9 4.5-4.4 4.5zm29-14.3l-9.4 5.4-7.7 4.4-.1-9-.1-10.9 12.9-22.6c.8-1.3 5.2-.1 10 2.6 4.7 2.8 8 6.1 7.2 7.4l-12.8 22.7z"/></g></g></g></svg>