<svg version="1.2" baseProfile="tiny" xmlns="http://www.w3.org/2000/svg" width="960" height="527.3" viewBox="0 0 960 527.3"><path fill="#2177A0" d="M574.4 193.6l.8-1.8h2.7l2.9-1.5 2.9-1h3.1l3-1.7 1.9-2.2 2.3-1.1 3.6-2.1 1.1-.7 5-2 1.8-1.5 4.1-2.2h3.1l3.7-1.4 3.4-2.8h2.7l2.5-.7 1.9-3.5h3l1.6 1 2.7.3 3.5 1 2.9-2.3.9-1.4 1.3-1.8 2-3.4 2.7-.9 2.3-1.8 7.3 6.4 1.7 12.2 9-.8 13.9-13.7 26.6-5.9 8 16.2-9 7 28 8.1 13.5 4.3v21.5L737.7 238h-27.5L683 255.3l-21.4 9.2-10.7 6.4 4.1 18.6-12.1 8.7-30.5 8.3h-31.5l-5.6-14.9-22.4-1-14.9 11.2-15.6 8.5-15.9-1.7-15.9 17.6-22.5 3.1-7.6-13.1-16.3-14.4-7.4-11.6 13.6-7.6 13.9-16.2 16.3-4.9 21.1-16.3 25.2-22.8 21.2-8z"/><g fill="#FFF"><path d="M594.5 217.5c.4-.1 1-.1 1.6-.1.9 0 1.5.2 1.9.5.3.3.5.7.5 1.2 0 .9-.5 1.4-1.2 1.7.5.2.8.6 1 1.3.2.9.4 1.5.5 1.8h-.9c-.1-.2-.3-.7-.4-1.6-.2-.9-.5-1.2-1.3-1.3h-.8v2.8h-.8v-6.3zm.8 2.9h.9c.9 0 1.5-.5 1.5-1.2 0-.8-.6-1.2-1.5-1.2-.4 0-.7 0-.8.1v2.3zM603.1 220.8h-2.5v2.4h2.8v.7h-3.7v-6.5h3.5v.7h-2.7v2.1h2.5v.6zM609.4 223.6c-.4.1-1.1.4-2 .4-1 0-1.8-.3-2.4-.9-.6-.5-.9-1.4-.9-2.4 0-1.9 1.3-3.4 3.5-3.4.8 0 1.3.2 1.6.3l-.2.7c-.3-.2-.8-.3-1.4-.3-1.6 0-2.6 1-2.6 2.6 0 1.7 1 2.6 2.5 2.6.6 0 .9-.1 1.1-.2v-1.9h-1.3v-.7h2.2v3.2zM611.6 217.4v6.5h-.8v-6.5h.8zM614.1 221.9l-.7 2.1h-.9l2.2-6.5h1l2.2 6.5h-.9l-.7-2.1h-2.2zm0-4.9c0-.6.2-1 .7-1 .2 0 .4.1.6.2.2.1.3.2.5.2s.2-.1.3-.4h.5c0 .6-.2.9-.7.9-.2 0-.4-.1-.6-.2-.2-.1-.3-.2-.5-.2s-.2.2-.3.4h-.5zm2.1 4.2l-.6-1.9-.3-1.2-.3 1.2-.6 1.9h1.8zM624.4 220.6c0 2.2-1.4 3.4-3 3.4-1.7 0-2.9-1.3-2.9-3.3 0-2.1 1.3-3.4 3-3.4s2.9 1.3 2.9 3.3zm-5.1.1c0 1.4.8 2.6 2.1 2.6s2.1-1.2 2.1-2.7c0-1.3-.7-2.7-2.1-2.7-1.4.1-2.1 1.3-2.1 2.8zM627.4 222.9c.4.2.9.4 1.5.4.9 0 1.4-.5 1.4-1.1 0-.6-.3-1-1.2-1.3-1.1-.4-1.7-.9-1.7-1.9 0-1 .8-1.8 2.1-1.8.7 0 1.2.2 1.4.3l-.2.7c-.2-.1-.6-.3-1.2-.3-.9 0-1.2.5-1.2 1 0 .6.4.9 1.3 1.3 1.1.4 1.7 1 1.7 1.9 0 1-.7 1.9-2.3 1.9-.6 0-1.3-.2-1.7-.4l.1-.7zM635.7 220.8h-2.5v2.4h2.8v.7h-3.7v-6.5h3.5v.7h-2.7v2.1h2.5v.6zM637.1 217.5c.4-.1 1-.1 1.6-.1.9 0 1.5.2 1.9.5.3.3.5.7.5 1.2 0 .9-.5 1.4-1.2 1.7.5.2.8.6 1 1.3.2.9.4 1.5.5 1.8h-.9c-.1-.2-.3-.7-.4-1.6-.2-.9-.5-1.2-1.3-1.3h-.8v2.8h-.8v-6.3zm.8 2.9h.9c.9 0 1.5-.5 1.5-1.2 0-.8-.6-1.2-1.5-1.2-.4 0-.7 0-.8.1v2.3zM642.3 217.5c.4-.1 1-.1 1.6-.1.9 0 1.5.2 1.9.5.3.3.5.7.5 1.2 0 .9-.5 1.4-1.2 1.7.5.2.8.6 1 1.3.2.9.4 1.5.5 1.8h-.9c-.1-.2-.3-.7-.4-1.6-.2-.9-.5-1.2-1.3-1.3h-.8v2.8h-.8v-6.3zm.8 2.9h.9c.9 0 1.5-.5 1.5-1.2 0-.8-.6-1.2-1.5-1.2-.4 0-.7 0-.8.1v2.3zM648.6 221.9l-.7 2.1h-.9l2.2-6.5h1l2.2 6.5h-.9l-.7-2.1h-2.2zm2.2-.7l-.6-1.9-.3-1.2-.3 1.2-.6 1.9h1.8zM653.5 223.9v-6.5h.9l2.1 3.3c.5.8.9 1.5 1.2 2.1-.1-.9-.1-1.7-.1-2.7v-2.7h.8v6.5h-.9l-2.1-3.3c-.5-.7-.9-1.5-1.2-2.2 0 .8.1 1.6.1 2.7v2.8h-.8zM660.9 221.9l-.7 2.1h-.9l2.2-6.5h1l2.2 6.5h-.9l-.7-2.1h-2.2zm2.2-.7l-.6-1.9-.3-1.2-.3 1.2-.6 1.9h1.8z"/></g><path fill="#458BB0" d="M435.1 227.8l3.3-3.4h3.1l1.2-1.9 2.8-2.1h2.9l4.4-.4h7.3l1.2-.5 3.6-1.3.6 1.1 1 .8 2.5.4 2.7.2 1.9-.1.7-1.2 1.3.7 1.3.5 1.9-.5 2.6-.5 2.6 2.3 1.8 2.7 1 3.7v2.8l1.2 1.9H493.8l2.3.6 4.7-.7 2-2h2.5l.5-5 2.3-2.9 2.2.2 3.5-.4 1.7-.1 5.5-3.9 2.9-1.4 1.8-1 3.5-.8 1.5-1.9 2-1.3 2.4-.9 1.4-1.4 2.9-3.3 3.1-1.4 3.4-1.1 3.8-.4 3.4-1.1 1.8-.9h1.9l4-3 3.4-.7 1.7-.9.8-.6 2.5-1.4 2.4-1.7 2 .4-.5 1.7-2.6.7v2.1l-1.4 3.7-2.3 3.8-1.7 1.1-.4 2.1.1 2.2.5 3.3-1.5 2.3-.1 1.9-1.8 3.5-4.5-.3-.8 1.2.5 4 1 3.1-.4 2.6-2.5 1.7-2.6 1-3.2 1.1-3.1 1.2-.7 1.4-2.7 1.8-2.4 2-1.2 2.1h-1.4l-2.1-.9-.5-3.9 1.2-3.2-1.9-3.6-1.7-.1-2 .3-1.4.8h-2.6l-1.9-.9-2.6-2.9-3.2-.3-.9 2.6.5 2.4v3.5l-1 1.2h-2.6l-3.7.4-1.5 1.7-.5 2.2-1.9 2.1-2.2.7-.4 1.8-2 1.9-2.7 2.8-2.1 2.6-1.5 5.8-1.9 2.2-3.4 1.2-3.1 1.3-3.7 1.8-3.8 1.7-4.4-.4-3.3-.5-4.5-.5-2.1 2.4-2 2.6-2.8 5 .4 1.4-1.5 2.2-2.6 1.6-3.2 2-1.2 1.9-.5 2.4-1.4 1.5-1.9 1.1-3.1.8-1.8 2.2.5 1.6 3.2 1h6l3 1.2 2 2.4-.8 3.9-5.5 8.3-11 3.9-7.2-3-5.3.7-6 8.1-11.5 3-1.7-2.1-5.3 7.1-7.4 3h-8l-8.8-7.1-12.2.9-6.3-15.9 6.5-29.1 13.6-13.1 17.6-10.2 13.6-5.5 14.3-4.9 4.4-3.9-1-13.4z"/><path fill="#FFF" d="M398 335.7h-8.3l-.1-.1-8.7-7.1-12.3.9-6.4-16.3v-.1l6.5-29.2.1-.1 13.7-13.2 17.5-10.2 13.7-5.6 14.3-4.8 4.2-3.8-.9-13.3 3.6-5.4 3.4-3.6h3.1l1.1-1.8 2.9-2.1h3l4.4-.4h7.3l5-1.9.7 1.3.8.8 2.4.3 2.8.3 1.7-.2.8-1.2 1.6.7 1.2.5 1.8-.5 2.8-.5 2.8 2.4 1.9 2.9 1 3.7v2.8l1.1 1.7h5.7l2.3.6 4.5-.7 2-2.1h2.3l.5-4.8 2.4-3.1 2.4.2 5-.5 5.4-3.8 3-1.4 1.9-1 3.3-.8 1.5-2 2-1.2 2.4-1 1.3-1.3 3-3.4 3.1-1.4 3.5-1.2 3.8-.4 3.3-1 1.8-1h1.9l4-2.9 3.4-.7 1.6-.9.8-.6 2.4-1.4 2.5-1.8 2.5.5-.7 2.2-2.5.8v1.9l-1.4 3.7-2.3 3.9-1.7 1-.4 1.9.1 2.2.5 3.4-1.5 2.4-.1 2-1.9 3.7-4.5-.3-.6.9.4 3.8 1.1 3.2-.4 2.8-2.7 1.7-2.7 1.1-3.1 1-3 1.2-.7 1.4-2.8 1.9-2.3 1.9-1.3 2.3h-1.7l-2.3-1-.5-4.2 1.1-3.1-1.7-3.2-1.5-.1-1.9.2-1.5.8h-2.8l-1.9-.9-2.6-2.8-2.8-.2-.7 2.2.5 2.4v3.6l-1.2 1.4h-2.8l-3.5.3-1.3 1.6-.4 2.3-2 2.2-2.2.7-.4 1.7-2.1 2-2.7 2.8-2 2.5-1.6 5.9-1.9 2.3-3.6 1.2-3 1.2-3.7 1.8-3.9 1.8-4.5-.4-3.3-.4-4.3-.5-2 2.3-2.1 2.6-2.7 4.8.4 1.5-1.8 2.4-2.6 1.6-3.1 1.9-1.1 1.9-.4 2.4-1.5 1.7-2 1.1-3 .8-1.6 2 .4 1.2 3 1h6l3.1 1.2 2.1 2.6-.9 4.2-5.5 8.3h-.1l-11.2 4-7.2-3-5.1.7-6 8.1h-.1L412 328l-1.5-1.9-5.1 6.9-7.4 2.7zm-8-.7h7.9l7.2-2.9 5.5-7.4 1.8 2.3 11.2-2.9 6-8.1 5.5-.7h.1l7 2.9 10.8-3.8 5.3-8.1.8-3.7-1.8-2.2-2.9-1.2h-6l-3.4-1.1-.6-1.9 2-2.5 3.2-.8 1.8-1 1.3-1.4.5-2.4 1.3-2.1 3.3-2 2.5-1.5 1.4-2-.4-1.4 2.8-5.1 2.1-2.6 2.2-2.6 4.7.5 3.3.4 4.3.4 3.7-1.7 3.7-1.8 3.1-1.2 3.4-1.2 1.7-2.1 1.6-5.9 2.1-2.6 2.7-2.8 1.9-1.8.5-1.9 2.3-.7 1.8-1.9.4-2.2 1.6-1.9 3.9-.4h2.5l.9-1v-3.3l-.5-2.5 1-2.9 3.6.3 2.7 3 1.7.8h2.4l1.5-.8 2-.3 2 .1 2 3.9-1.1 3.3.4 3.6 1.9.8h1.1l1.2-2.1 2.3-2 2.7-1.8.7-1.4 3.2-1.3 3.1-1 2.6-1 2.4-1.5.3-2.4-1-3.1-.4-4.1 1-1.5 4.5.3 1.7-3.2.1-1.9 1.5-2.3-.5-3.2-.1-2.3.5-2.3 1.8-1.1 2.2-3.7 1.3-3.6v-2.3l2.7-.8.4-1.1-1.5-.3-2.3 1.6-2.5 1.4-.8.6-1.8 1-3.4.7-4 3H555l-1.7.9-3.4 1.1-3.8.4-3.3 1.1-3 1.3-2.9 3.2-1.5 1.5-2.4 1-1.9 1.1-1.5 2-3.5.8-1.8.9-3 1.4-5.5 3.9-5.3.5-2.1-.2-2.1 2.7-.5 5.2h-2.7l-2 2.1-4.9.7-2.4-.6h-5.9l-1.4-2.1v-2.9l-.9-3.5-1.8-2.7-2.4-2.1-2.4.4-2 .5-1.4-.6-1-.5-.6 1-2.1.2-2.8-.3-2.6-.4-1.1-1-.5-.9-4.6 1.7h-7.4l-4.4.4h-2.8l-2.7 2-1.2 2h-3.2l-3.2 3.4-3.4 5.2.9 13.4-4.6 4.1-14.3 4.8-13.6 5.5-17.5 10.1-13.5 13.1L363 313l6.1 15.6 12.1-.9 8.8 7.3z"/><path fill="#2E62AD" d="M226.5 472.2l4.4-2.6 6.2-10.1-1.4-1.2-3.9-2.3h-4.4l-.9-4.4h-3.9l-2.1-2-3.5-1.6-2.4-.9-3.1-.5-1.3-1.5-.9-1.8v-3.7l1.2-2.7-1.2-3 1.7-2.3 1.1-1.1.8-3.3v-9.7l2.3-1.5h2.4l1.7-1.5 3.9-1.3h12.9l3.3-2 1.4-1.7 4.8-1.9h2.6l3.9-2.6 3.7-2.2 1.8-3.1 5.1-3.5 5.6-2.2h5.3l1.2 2.2v6.3l-1.3 2.3-2.8.9-.9 3.1.3 4.7 3.2.7h2.9l2-2.4 3.7-2.8 2.1.8 2.3-.3 4.3-.8 2 2 2.2 1.3 2.8 4.7 3.4-.6 1.9-.3 1.5-1.3 2.1-3.8v-6.2l-3.2-8.1-3.2-6.4-2.9-.9h-4.5l-1.4-1.5-1-1.6v-4.2l-.3-3.5-3.5-2.5-8.4.6-4 1.4-4.5-1-9.8.4-1.9 1.4-2.1 2.8-5.8.4-3.2-.8-2.7-1.5h-2.6l-2.5.6-1.7 2.2-2 2.1-3.5-.6-2.9-.8-2.9.5-1.2 1.1-2.5 3.1-1.9 2h-1.8l-2.5.6h-2.5l-3.6.5-3.7 2.6-2.9 1.3-.7 2.6-2.4 4.3-3.2 2.6-2.9 2.7-2.5 2.1-2.7 2.6v5.9l.6 2.1-.6 4.4-.9 4.3v7.2l-1.8 1.6-2.6 1.9-.8 7.5-1.3 4.7 1.6 1.5 2.1 1 4.5 3.8 2.7 2.1 1.3 2.4.5 3.3 2.4 1.9.3 2.6 1.5 1.1 1.2 2.9 3.3-.6 3-1.7.9-2.1 6-.2 3.1.7 2.9.8 6 1.5z"/><path fill="#5FCAEA" d="M195.2 292.3v-5.2h2l2.1-1.5 2.4-.9 2.5-1.7 2.4 1 4.7.7 4.1.3h3.7l2.4-2v-4.2l4.1-2.1h7.5l4.3 1.1 2.6.1 3.1-2.7 1.4-.9 4.5-2.9 3.8-1.6 2.4-2.8 3.3-2.6h13l1.7.9h3.5l4.5.5h5.3l4 .2 4.4-.2 3.4-2.9 4.3-2.8 3.2-2.1 5-1.3 3.4-1.9 5.2-5.6 3.7-2.1 6.2-1.7h4.8l5.6-.9 2.8-2.2 5.8-1.7 4.5-3.7h3.1l4.2-1.7 7.5-3.7h1.9l2-1.4h3.6l2.3 1.4 3.5 1.1 3.8-.1 2.7-2 3.6-1.2 2.9.4 4.5.6 5.7 1 3.7-.8 4.4-.2 14.7-.6 3.3-1.9 2.8.7 1.3 1v4.7l1.3 1.4 1.4 1.5.7 2v5l.7 3.9v6.1l-2.1 3h-2.6l-3.3-1-1.8-1.4-2.8.8-.8 3.8-1.8 2.3-4.9 1h-3.5l-3 .6h-5.1l-1.5 2.7-.9 2.7-1.6 2.2-2.8 1.9-3.5 1.1-4.6 2.1-1.7 2.3-3.1 3.7-.3 1.8-.6 1.9-3.1.7-5 .4-2.2 2.7v2.5l-3.1 3.3.2 4-2.2 6.4.3 2.6.3 3.8.5 3.2v2.4l1.6 3.6 2.6 7.9-9.2 5.6 4.8 7.1-2.3 10.6-6.2 14.8-8.8 6.5-15.7 10.6-17.3-1.2-9.4-2.5-7.6 6.7-7.7 5.7-9-6.4.4-9.7-.8-3.2 1.1-3.3.5-1.4 1.6-3.8v-4.1l2-2.7-.1-1.6 2.3-.1 1.6-1.9 2.1-1.1 2-1.6.6-1.8 1.6.4 1.4-.5-.2-3.4.6-1 .9-.8 1.3-4-1.3-2.2-1.4-.6v-2.5l-1.5-1.2-1.6-1.7-2.4-.3-4.7-.3-13.2-1-.9-1.4-2.2-1.3-3.2-1.2-4.8-2.1-2.7-.2h-2.8l-1 2.2h-2.5l-2 .9-3.8 2.5-3.7 1.3-5.6.1-3 .9-4.4-3.4-4.6-2.1.4 2.9-4.9-.3-3-.7-2-3.9-1.6-4-1.8-.2-2.9-3.5-3.4-3.8-2.6-3.5-2.8-5.4-2.2-1 1.3-1.2v-3.5l-.7-1.3-2.5-.5-3.7-4h-2.3z"/><path fill="#FFF" d="M296.7 393.5l-9.4-6.7.3-9.8-.8-3.3 1.2-3.3.5-1.4 1.6-3.8V361l2-2.6-.1-1.8 2.5-.1 1.6-1.8 2.1-1.2 1.9-1.5.6-1.9 1.8.4 1-.3-.2-3.3.7-1.1.9-.7 1.2-3.8-1.1-2-1.5-.6v-2.6l-1.4-1-1.6-1.7-2.2-.3-4.6-.2-13.4-1.1-1-1.5-2.1-1.2-3.1-1.2-4.8-2.1-2.6-.2h-2.6l-.9 2.2h-2.7l-1.9.9-3.8 2.6-3.8 1.3-5.6.1-3.1 1-4.5-3.5-4-1.8.4 2.7-5.4-.3-3.2-.7-2-4.1-1.6-3.9-1.8-.2-3-3.6-3.3-3.8-2.7-3.5-2.7-5.4-2.6-1.2 1.5-1.4v-3.2l-.6-1.2-2.5-.5-3.7-4h-2.3l-3.5-1.2v-5.8h2.3l2.1-1.5 2.4-.8 2.5-1.8 2.6 1.1 4.6.7 4.1.3h3.5l2.2-1.9V279l4.4-2.2h7.6l4.3 1 2.4.2 3-2.7 1.4-.9 4.5-2.9 3.8-1.6 2.4-2.7 3.4-2.7h13.2l1.7.9h3.4l4.5.5h5.3l4 .2 4.2-.2 3.4-2.9 4.4-2.8 3.2-2.1 5-1.4 3.4-1.9 5.2-5.6 3.7-2.1 6.3-1.7h4.8l5.4-.8 2.8-2.3 5.8-1.7 4.5-3.7h3.2l4.1-1.7 7.6-3.7h1.9l2-1.4h3.8l2.4 1.4 3.4 1.1 3.6-.1 2.7-2 3.7-1.2 3 .4 4.4.5 5.7 1 3.7-.8 4.5-.3 14.6-.5 3.3-1.9 3 .8 1.4 1.1v4.7l1.2 1.4 1.5 1.6.7 2.1v5l.7 3.8v6.3l-2.2 3.2h-2.9l-3.5-1.1-1.6-1.3-2.5.8-.8 3.7-1.9 2.4-5.1 1.1h-3.5l-3 .6h-5l-1.4 2.5-.9 2.7-1.7 2.2-2.6 1.7-3.5 1.1-4.5 2-1.6 2.3-3.1 3.7-.3 1.7-.7 2-3.2.8-4.9.3-2.1 2.5v2.5l-3.1 3.3.3 4v.1l-2.2 6.2.3 2.6.3 3.7.5 3.3v2.3l1.6 3.6 2.7 8.2-9.2 5.5 4.7 7-2.3 10.8-6.3 14.9-8.8 6.5-15.8 10.7-17.4-1.2-9.4-2.4-7.5 6.6-7.8 5.9zm-8.7-7.1l8.6 6.2 7.4-5.6 7.7-6.8 9.6 2.6 17.1 1.1 15.6-10.5 8.7-6.4 6.2-14.7 2.3-10.4-5-7.3 9.3-5.6-2.5-7.6-1.7-3.7v-2.3l-.5-3.2-.3-3.8-.4-2.7 2.3-6.3-.3-4.1 3.1-3.3v-2.5l2.4-2.9 5.2-.4 2.8-.7.5-1.6.4-1.9 3.2-3.8 1.7-2.4 4.7-2.1 3.5-1.1 2.7-1.8 1.6-2.1.8-2.6 1.6-2.9h5.3l3-.6h3.5l4.8-1 1.7-2.1.8-3.9 3.2-1 1.8 1.5 3.3 1h2.4l1.9-2.7v-6l-.7-3.8v-5l-.6-1.9-1.4-1.4-1.4-1.6v-4.6l-1.1-.8-2.6-.6-3.2 1.9h-.1l-14.7.5-4.4.3-3.7.8-5.8-1.1-4.4-.5-2.9-.4-3.5 1.2-2.7 2-4 .1-3.6-1.2-2.3-1.3h-3.3l-2 1.4h-1.9l-7.5 3.7-4.3 1.8h-3l-4.5 3.6-5.8 1.7-2.8 2.3-5.6.9h-4.9l-6.1 1.7-3.6 2-5.2 5.6-3.5 1.9-5 1.4-3.1 2-4.3 2.8-3.5 3-4.4.2-4-.2h-5.4l-4.5-.5h-3.5l-1.7-.9h-12.8l-3.2 2.5-2.4 2.8-3.9 1.6-4.4 2.9-1.4.9-3.2 2.8-2.7-.2-4.3-1h-7.3l-3.9 1.9v4.1l-2.6 2.3h-3.8l-4.2-.3-4.8-.7-2.2-1-2.3 1.7-2.4.8-2.1 1.6h-1.8v4.6l3 1.1h2.4l3.7 4.1 2.6.5.8 1.6v3.7l-1 .9 1.8.9 2.8 5.5 2.6 3.4 3.3 3.8 2.8 3.4 1.9.2 1.7 4.2 1.9 3.8 2.8.7 4.5.2-.5-3.1 5.3 2.4 4.2 3.3 2.9-.9 5.6-.1 3.6-1.2 3.8-2.5 2.2-1h2.3l.9-2.2h3.1l2.8.3 4.8 2.1 3.1 1.3 2.3 1.3.9 1.3 13.1 1 4.7.2 2.5.4 1.7 1.8 1.6 1.2v2.5l1.3.5 1.4 2.4-1.3 4.3-1 .8-.5.8.2 3.6-1.7.6-1.4-.3-.5 1.5-2.1 1.7-2.1 1.2-1.7 1.9-2.1.1.1 1.4-2 2.7v4.2l-1.6 3.8-.5 1.4-1.1 3.1.8 3.2-.5 8.7z"/><path fill="#003D56" d="M523.8 302.7h-4.1l-2.6 1h-2.4l-1.6-1h-3.6l-3 .5-2.1-.5H502v2.2l-2.1 1.6v1.6l-1.2.7-1.9.7v1.4l-.4 1.3h-1.1l-.6 1.2h-1.2l-1.6.9-3.8.7-2.3 1.4h-1.6l-2.1.7h-1.7l-1.4.9-.8 1.2-.9 2.2-1.1 2.1-2 .4-1.9.4-2.9-.5-2.1-1.1-2-2.8.7-1.6 1.4-.3 1.7-3 1.4-.5-2.5-2.4-.4-1.5-1-3.2h-1.8l-1.5-1.3-2.6-2-1.5-2.3-1.1 2.1-2.5 2.3-1.8 1.7v.6l-1.5 2.2-1.3 1.8-.8.6-3.3 1-1.7-.5h-3.4l-3.2-.5h-2.3l-2.1.9-1.8-.4-3.3-.5-1 1.3-2.6 2.7-1 2.8-2.6 1.4-3.9 2-6.1-1.7-2.3.2-2.2.3-1.3 1.4v2l-.7 1.8-2.2 3-2 1.2-1.9.9-2.2 1.9-3.2-1-.6-1.2v-3.5l2.5-.4 1.9-2.3 2.1-2.3 3.2-3.5-.6-1.7-2.2-.3-1.7-1.8-2.6.9-2.6 1.7v1.9l-.8 2.3-1.2 1.8-1.3.4-.7-.6v-3.1l.6-1.8-2.1-3.3H385l-2.6.7-2 2.6-1.9.5-.9 1.3-1.2 2.5-2.1 2.1-2.4 3.1-2.5 1.1-2.7-.2-3.6 1.5-.9 3.4 1.5 2.8 2.7 2.1 1.4 2.2.1 4.2-2.2 2.3-2.4.8-1.7 3.1-.5 3.7 1 5.2-.4 2.7-1.9 1.6h-5.1l-2 2.1-1.2 1.3-.8 2.3-1.6.9-2.4 2.6-1.7 3-2.3.7-.7 2h-2.7l-2-3-1.6-1.3-3.7 1-2.4 1.6-2.3.3-2.7 1.8-2.8-.5-2.4-.1-1.4-1.7-1.9-.8-4.1-.4-2.6 1.9-1.2 2.1-3.5 2-2.2 1.2-.7 1.7-3 3.1-.5 1.5.6 1.3.5 2.9 1.2 1.7v2.9l1.2 1.3.7 2.2.5 4.6.8 2.6h1.8v1.6h2.9l2.9-3.6 2.2-1.6 1.6-2.7-.3-2.7-.7-2.5 1.1-2.7 1.4-.5.8-3 1.8-.6 1.9.8 1 2.4v2.9l1.7 2.8 1.2.9.8 1.6 1.6.4 1.2.5.3-2.5.1-3.4-1.7-2 1.6-2.5 1.8-.4h2.3l1.1-2.1 1.5-1.1 1.9.2 2.3.6 2.2.3h1.5l2.1.5 2.5-1.9 5.2-1.8 1.9-.2 2.6-.2 3.3-.6 3.1-.1 2.5.4 3.6 1.3 4.3 2.4 2 1.5 2.1.8 1.5 2.3 2.9.8 2.3 1.9 2.3.5 1 1.3 2.6 1.7 3.1 1.2 1.3 2 .8 2-.2 3 1 2.7 1 3.5 3.8 1.4 4.4.9 3.5-.6 3.4-.8h3.5l2.8-.6 2.3-2.8 3.3-2 5.7-2.7 3.3-1.2 4.1-.4 5-1.2 2.7.4 4 .2 4.4.8 2.7-.1 5.6.1 3.4-1.9 3.4-1.6 3.4-1.3 3-.1 2.6-1.3 2.4-3.4 1.8-5.1-5.4-7.4-2.7-2.4H472l-2.3-1.5v-3.4l.4-3.1 2.1-1.3 4.8-.3 2.5-1.9 1.9-1.9-.6-2.3-2.7-1-2.2-2-3.4-.1-1.1-2.1-4.1.2-4 .1-1.1-1.9 2.1-2.1 3-1.2.8-2 3.8-2 4.9-3.3 4-1.3h2.1l6.3-1.8 1.6-2.4 2.9-.4 1.8-.6 3.8.6 3.7 1.2 2.1 2.2.6 3.7 1.9 1.4-.4 4.8-1.4 4.4-3.2 1.7-4.1-.1-2.4-.2.5 2.2.3 5.6-.9 3.9-1.7 2-3.3 5.3-2.4 6.6v1.7l1.9 2 1.5 2.8 3.9 5.2 5 .5 4-.8 1.6-2.4 6.5-1.2 23.6-13.5 17.5-.3 20.4-4.5.8-15.4-12.2-16.2-7.5-4.4-3.2-11.2-10.9-.6-11.2 2.2 8.9-9.9-6.2-6.3-1.6-9.1-2.9-3.8z"/><path fill="#FFF" d="M406.6 419.3l-4.4-.9-4-1.5-1.1-3.7-1-2.7.2-3-.7-1.9-1.3-1.9-3-1.2-2.7-1.8-1-1.2-2.2-.4-2.3-1.9-3-.9-1.5-2.3-2.1-.8-2-1.6-4.3-2.4-3.5-1.3-2.4-.3-3.1.1-3.2.6-2.6.2-2 .3-5 1.7-2.6 2-2.3-.5h-1.4l-2.3-.3-2.3-.6-1.7-.2-1.3.9-1.2 2.3h-2.5l-1.5.3-1.4 2.2 1.7 1.9-.2 3.6-.3 3-1.6-.7-1.7-.5-.8-1.6-1.2-1-1.8-2.9v-2.9l-1-2.2-1.7-.8-1.4.5-.9 3-1.4.5-1 2.4.8 2.5.3 2.8-1.7 2.9-2.2 1.6-2.9 3.6h-3.5v-1.6h-1.7l-.9-2.8-.5-4.6-.7-2.1-1.3-1.3V397l-1.1-1.8-.5-2.8-.6-1.4.5-1.8 3-3 .7-1.8 2.4-1.3 3.4-1.9 1.3-2.2 2.7-1.9 4.3.4 2.1.9 1.3 1.6 2.2.1 2.8.5 2.6-1.8 2.2-.3 2.5-1.6 3.9-1 1.8 1.5 2 2.8h2.3l.7-1.9 2.4-.7 1.6-3 2.5-2.6 1.5-.9.9-2.2 1.1-1.4 2.2-2.2h5l1.8-1.4.3-2.5-1-5.2v-.1l.5-3.8 1.8-3.2 2.5-.8 2-2.2-.1-4-1.3-2-2.8-2.2-1.5-2.9 1-3.8 3.8-1.6 2.8.2 2.3-1.1 2.4-3 2.1-2.1 1.2-2.5 1-1.3 1.9-.5 2-2.6 2.8-.7h3l2.3 3.6-.6 1.9v2.8l.4.4 1.1-.3 1.1-1.7.8-2.2v-2l2.8-1.8 2.8-1 1.7 1.9 2.3.4.7 2-3.3 3.7-2.2 2.3-2 2.4-2.3.3v3.2l.4 1 2.9.9 2.1-1.8 1.9-.9 1.9-1.2 2.1-2.9.7-1.6v-2.1l1.5-1.7 2.4-.3 2.4-.2 6 1.6 3.8-1.9 2.5-1.3 1.1-2.9 2.6-2.7 1-1.4 3.5.6 1.7.4 2.2-.9h2.2l3.3.5h3.4l1.7.5 3.1-1 .7-.5 1.4-1.7 1.4-2.1v-.7l1.9-1.8 2.5-2.2 1.3-2.6 1.8 2.7 2.6 2 1.4 1.2h1.9l1.4 4.9 2.8 2.7-1.8.7-1.7 3.1-1.4.3-.5 1.3 1.8 2.5 2 1.1 2.8.5 3.7-.8 1-1.9.9-2.1.9-1.4 1.5-.9h1.8l2.1-.8h1.5l2.3-1.4 3.8-.7 1.7-.9h1l.6-1.2h1.1l.3-1v-1.6l2.1-.8 1-.7v-1.5l2.1-1.6v-2.4h2.9l2 .5 2.9-.5h3.8l1.6 1h2.3l2.7-1h4.3l4.8 1.4 3 4 1.6 9.1 6.4 6.5-8.4 9.3 10.2-2 11.2.6 3.2 11.4 7.5 4.3 12.3 16.3v.1l-.8 15.8-20.7 4.6-17.4.3-23.6 13.5-6.4 1.2-1.6 2.4-4.2.8-5.2-.5-4-5.3-1.5-2.9-2-2v-2l2.5-6.7 3.3-5.3 1.7-2 .8-3.8-.3-5.6-.5-2.6 2.8.2 4 .1 3-1.5 1.3-4.2.3-4.5-1.9-1.4-.5-3.7-2-2-3.6-1.2-3.6-.6-1.7.6-2.8.4-1.5 2.4-6.5 1.8h-2l-4 1.3-4.8 3.3-3.7 2-.8 2-3.1 1.2-1.8 1.8.8 1.5 3.9-.1 4.3-.3 1.1 2.2 3.3.1 2.3 2 2.8 1 .7 2.7-2 2-2.6 2-4.9.3-1.9 1.2-.4 2.9.1 3.2 2 1.3h2.8l2.9 2.6 5.5 7.5-1.9 5.4-2.5 3.5-2.7 1.4-3 .1-3.4 1.3-3.4 1.5-3.4 1.9-5.7-.1-2.7.1-4.4-.8-3.9-.2-2.7-.4-5 1.2-4.1.4-3.3 1.2-5.6 2.7-3.2 1.9-2.4 2.9-3 .6h-3.4l-3.3.8-4.8.6zm-7.9-2.8l3.6 1.3 4.2.8 3.5-.6 3.4-.8h3.4l2.7-.6 2.3-2.8 3.3-2 5.7-2.7 3.5-1.2 4.1-.3 5-1.2 2.8.4 3.9.2 4.4.8 2.6-.1 5.5.1 3.3-1.9 3.4-1.6 3.6-1.3 3-.1 2.4-1.2 2.3-3.4 1.7-4.9-5.2-7.2-2.6-2.3h-2.7l-2.5-1.6-.1-3.6.5-3.2 2.3-1.5 4.8-.3 2.4-1.8 1.7-1.7-.5-2-2.6-1-2.2-1.9-3.5-.1-1.1-2.1-3.8.2-4.3.1-1.3-2.3 2.4-2.3 2.9-1.2.8-2 3.9-2.1 4.9-3.4 4.2-1.3h2l6.1-1.7 1.6-2.4 3.1-.5 1.8-.6 3.8.6 3.9 1.2 2.3 2.3.5 3.7 1.9 1.5-.4 5-1.4 4.6-3.4 1.8-4.2-.1-1.9-.1.3 1.7.4 5.7-.9 4-1.8 2.1-3.2 5.2-2.4 6.6v1.5l1.9 1.9 1.5 2.9 3.8 5 4.8.5 3.8-.7 1.6-2.4 6.6-1.2 23.7-13.5 17.5-.3 20.1-4.4.8-15.1-12.1-16-7.6-4.4v-.1l-3.1-11-10.6-.6-12.1 2.4 9.4-10.4-6.1-6.2-1.7-9.3-2.7-3.6-4.5-1.3h-4l-2.7 1h-2.5l-1.6-1h-3.5l-3 .5-2.1-.5h-2v2.1l-2.1 1.6v1.6l-1.4.9-1.7.6v1.3l-.5 1.5h-1.2l-.6 1.2h-1.3l-1.7.9-3.7.7-2.3 1.4h-1.7l-2.1.8h-1.6l-1.2.8-.7 1.1-.9 2.1-1.1 2.2-4.1.9-3.1-.6-2.2-1.2-2.1-2.9.8-2 1.4-.3 1.7-3 1-.4-2.2-2-.5-1.7-.9-2.9h-1.7l-1.6-1.4-2.7-2.1-1.1-1.7-.8 1.6-2.5 2.2-1.7 1.6v.6l-1.5 2.3-1.5 1.8-.9.7-3.4 1.1-1.8-.5h-3.3l-3.3-.5h-2.1l-2.2 1-1.9-.5-3.1-.5-.8 1.1-2.6 2.7-1.1 2.9-2.7 1.4-4 2.1-6.1-1.7-2.3.2-2.1.2-1.1 1.3v2l-.7 1.8-2.3 3.1-2 1.2-1.9.9-2.3 2-3.6-1.1-.6-1.5v-3.8l2.6-.4 1.8-2.2 2.2-2.3 3.1-3.4-.5-1.3-2.2-.4-1.6-1.7-2.3.9-2.4 1.5v1.8l-.9 2.3-1.2 2-1.7.4-.9-.8v-3.3l.6-1.7-1.9-3h-2.5l-2.4.7-2 2.6-1.9.5-.9 1.1-1.3 2.6-2.1 2.2-2.5 3.1-2.6 1.2-2.8-.2-3.3 1.4-.9 3.2 1.4 2.6 2.8 2.1 1.4 2.2.1 4.5-2.3 2.5-2.4.8-1.6 2.9-.4 3.6 1 5.2-.4 2.9-2.2 1.7h-5l-2 2-1.1 1.3-.9 2.3-1.6 1-2.4 2.4-1.7 3.1-2.3.8-.7 2.1h-3.1L337 378l-1.4-1.2-3.5.9-2.4 1.7-2.3.3-2.7 1.8-3-.5-2.4-.1-1.4-1.7-1.9-.8-3.9-.3-2.4 1.7-1.2 2.2-3.5 2-2.1 1.2-.7 1.7-3 3-.4 1.3.6 1.3.5 2.8 1.1 1.8v2.8l1.2 1.3.7 2.3.5 4.6.7 2.3h1.9v1.6h2.4l2.8-3.5 2.2-1.6 1.5-2.5-.2-2.5-.8-2.6 1.2-2.9 1.4-.5.9-3 2-.7 2.2 1 1.1 2.7v2.8l1.6 2.6 1.3 1 .7 1.4 1.4.4.8.4.2-2 .2-3.3-1.8-2.1 1.9-2.9 1.9-.4h2.2l1.1-2.1 1.6-1.2 2 .2 2.3.6 2.2.2h1.5l2 .5 2.5-1.9 5.1-1.7 2.1-.3 2.6-.2 3.2-.6 3.2-.1 2.5.4 3.6 1.3 4.4 2.4 2 1.6 2.1.8 1.5 2.2 2.9.9 2.3 1.8 2.3.4 1.1 1.4 2.5 1.7 3.1 1.2 1.5 2.1.8 2.1-.2 3 .9 2.6.9 3.4z"/><path fill="#149DD8" d="M647.6 278.8V283h-.8l-1.5 1.5h-5.1v1.8l-.8 2.2-.9 1.8-1.1.7v1.6l-1 1.8-.9 1.2-2.2.6-3.2.3-.9-.7-2.2.7-2.6-.8-.9.8-1.3-1.8-1.7 1-1.5-1-1.2.6-1.6.4-2.6.2-1.6-.8v2.9h-.5l-1.9.5-1.1 1.3-.7-.5-1.4 1.4h-.8l-1.9-1.1-2.3-1.1-1.9-.7-1.4.5-1.4 1.2-.9.3-.4 1.4-1.1.3-2.3.4-1.5-1.2-1.8.7-.7-3.4 1.2-1 1.2-2.1-1.2-1.4.9-1.4-.6-4.5v-1.9l-1.1-.8-2.1-.1-1.4.9-1.1-.4-1.6 1.1-1.3 1.9-2.7-.7-2-.6-1.7 1.1-1.6-.7-2.6.7-.7-1.4-2.2-.4-1.3-1.5-1.7-.3h-2.6l-.9-1.5-1.8-.7-1.1 1.3-.9 1.8-1.5 1.1-3.2.3-1.7-1.1-1.7.3-1.6.7.3 1.6-2.5.7-1.8 1.9-1.8.2-1.4 1.5-1.6 1.2-.8 2-.8.7-.9 1.5-1.1.6-3-.1-2.5-.4-.7 1.1-1.3 1.4v1.3l-1.8.4-.3 1.9.9.8.8 2.5.2 1.3 1.7.5-.2 1.5.2 3.8 1.2 1.1.7 1 .7 2.3 1.5 1.3.8 1.8 1.1 1.5-.8.8-2 1.5-2.3 1.7-.8.7-2.7 6.1.2 1.9 1.7 1.2h4.4l1.5-1.4 3.3-2.4 3.6 1.2h2.1l1.2.3 1.9.3 3.7-.4.5 2.4.3.8.4.6.8 1.5v1.6l-.2 2.2 1 .7.5 1.5 2.3 1.1 1.1.7 1.8.3.2 1.1 1.6 1 .9 2.3v1.8l1 .8.6 1.4.9.8 1.5 1 .1 1.1.9 1.3 1 .8v1.7l1.1.8v1.8l1.2 1.5.6 1.4.2 2.5-.7 3-.9 1.9h-2.5l-1.1-.5-1.4.5-4.5.6-1.3-.6-.9-1.3h-3.1l-3.9.4-3.4.1-1.5 1.4-1.8.3h-3.9v.7l.1.9-1.3.7-1.6.4v.6l-6.6.7h-4.6l-3.1.7-2.8 3h-1.2l-.9 1.4-1.4 1-2.9 2.4-2.1 1.6h-1.5l-1.2 2.7-1.8 1.8v4.8h2.1l2.4 1.2 4.2-1.7 1.4.4h6l7.3-.6 4.3-.5 8.8-.3 2.8.7h3.8l4.2-.7 4.3-.4 2.8-1.5 5.3-.6 2.3-1.5 3.1.5 3.5-.3 3.1-1.4h4.3l1.9 1 5.5-.7 5.1-1.7 3.6 2.2 2.4-.1 1.9-.6 4.3.4 2.8.3 6.1-.3 4.5.3 5.9.7h4.1l3.1.7h4.2l3.3-.7 2.9.2 5 .5 3-.5 5-.3 1.5 1.3 4-.1 5-1.4 4.2 2.2 3.3.9 2.1.7 2 1.6 2.8 2.5 1 2 2.6 3.9h1.4v2.1l1.6-1v-2.1l-1.2-2.8-1.8-1.5-1.7-2.1-2.1-1.4v-2.4l-.7-4.2 1.4-2.2 3.1-4.3 1.9.5 1.1-2.5.9-2.4 1.3-2.4v-3.1l3.2-2.3 1.7-1.5 3.3-1.2 1.5-.9h4.4l3.2-1.2.9-.9v-2.4l-2.4-2.4-2.1.7-.3 1.2-3.7.3-2.7-.1-2.3-2.5-1.9-1-2.6-5h-2.1l-.3-2.6v-3.8l.7-1.2-1.6-4 .2-3.3 1-3.5 1.4-4.8.7-2.3 3.1-.7 1.4-.6 2.8-1.3 3.4-2.2v-2.1l-1.5-2.2-.7-2.1 1-2.3 2.1-.1 2.9-1.9.4-1.6 3.1-1v-1.9l4.5-3.3 1.4-3.1 2.4-3 1.7-2.4h2l.8-4.9-11.6-7.2-33-10.8-14.1 8.7-10.7-4.7z"/><path fill="#FFF" d="M686.7 411.9v-2.4h-1.2l-2.7-4.1-1-1.9-2.7-2.6-2-1.5-2-.7-3.3-.9-4-2.2-5 1.4-4.1.2-1.6-1.4-4.9.3-3 .5-5-.5-2.9-.2-3.3.7h-4.2l-3.1-.7h-4.1l-5.9-.7-4.5-.3-6 .3-2.8-.3-4.3-.3-1.8.5-2.6.2-3.6-2.2-4.9 1.7-5.6.7-1.9-1h-4.2l-3.2 1.4-3.5.4-3-.5-2.2 1.5-5.4.5-2.8 1.6-4.3.3-4.1.7h-3.9l-2.8-.7-8.8.3-4.3.5-7.3.5h-6.1l-1.3-.3-4.2 1.7-2.5-1.2h-2.3v-5.3l1.8-1.8 1.3-2.9h1.7l2-1.5 2.9-2.4 1.3-1 .9-1.5h1.3l2.7-2.9 3.3-.8h4.6l6.3-.7v-.6l1.8-.5 1.1-.6-.1-.6V377h4.2l1.6-.3 1.6-1.4 3.5-.2 3.9-.4 3.3.1.9 1.4 1.2.5 4.4-.6 1.4-.5 1.2.5h2.1l.8-1.6.7-3-.2-2.4-.5-1.3-1.3-1.6v-1.7l-1.1-.7v-1.7l-1-.8-.9-1.3-.1-1-1.3-.9-1-.9-.6-1.4-1.1-.9V353l-.9-2.1-1.6-1-.2-1-1.7-.3-1.2-.7-2.3-1.1-.5-1.5-1-.7.2-2.4.1-1.5-.8-1.4-.4-.6-.3-.9-.4-2.1-3.4.3-2-.2-1.2-.3h-2.1l-3.5-1.2-3.2 2.3-1.6 1.5h-4.6l-2-1.4-.2-2.2 2.7-6.3.9-.7 2.3-1.6 1.9-1.5.5-.6-.9-1.2-.9-1.8-1.5-1.4-.8-2.3-.7-.9-1.3-1.2-.2-3.9.2-1.3-1.6-.4-.3-1.5-.7-2.4-1-.9.4-2.3 1.8-.5v-1.1l1.4-1.5.8-1.2 2.7.4 2.9.1 1-.5.9-1.5.7-.6.8-2 1.7-1.3 1.4-1.6 1.8-.2 1.8-1.9 2.3-.6-.3-1.6 1.8-.7 1.9-.4 1.7 1.1 3-.3 1.4-1 .9-1.8 1.3-1.4 2.1.8.8 1.4h2.5l1.8.4 1.3 1.5 2.3.4.6 1.3 2.4-.6 1.6.7 1.7-1.1 2.1.6 2.5.7 1.2-1.8 1.8-1.3 1.1.4 1.3-.9 2.4.2 1.3.9v2.1l.6 4.6-.7 1.3 1.2 1.4-1.4 2.4-1.1.8.6 2.9 1.6-.6 1.5 1.2 2.2-.4.8-.2.4-1.4 1.1-.3 1.4-1.2 1.6-.5 2 .7 2.4 1.1 1.8 1.1h.6l1.4-1.5.7.4 1-1.1 2.1-.6h.2v-3.1l2 1 2.5-.2 1.6-.4 1.3-.6 1.5 1 1.8-1 1.2 1.7.8-.7 2.6.8 2.3-.7 1 .7 3-.3 2-.6.9-1.1.9-1.7v-1.7l1.2-.7.9-1.7.8-2.1v-2.1h5.3l1.5-1.5h.6v-4.4l5.3 3.5 10.5 4.6 14-8.6 33.3 10.8 11.8 7.4-1 5.4h-2l-1.6 2.3-2.4 2.9-1.4 3.2-4.4 3.2v2l-3.2 1.1-.3 1.5-3.1 2-2 .2-.9 1.9.6 1.9 1.6 2.3v2.4l-3.6 2.4-2.8 1.2-1.4.7-2.9.6-.6 2.1-1.4 4.8-1 3.4-.2 3.2 1.6 4.1-.7 1.3v3.7l.3 2.2h2l2.6 5.1 1.9 1.1 2.2 2.3 2.6.2 3.3-.3.3-1.2 2.5-.8 2.7 2.7v2.7l-1.1 1-3.4 1.2H701l-1.5.8-3.3 1.2-1.7 1.5-3 2.2v3l-1.4 2.5-.8 2.4-1.2 2.7-2-.5-3 4.1-1.3 2.1.7 4v2.3l2 1.3 1.7 2.1 1.8 1.6 1.2 2.9v2.3l-2.5 1.1zm-.9-3.1h1.5v1.8l.9-.6v-1.8l-1.2-2.6-1.7-1.5-1.7-2.1-2.2-1.5v-2.6l-.7-4.2 1.5-2.4 3.3-4.5 1.8.5.9-2.1.9-2.4 1.4-2.4v-3.2l3.3-2.4 1.8-1.6 3.3-1.2 1.6-.9h4.4l3.2-1.2.7-.7V367l-2.2-2.2-1.7.6-.4 1.3-3.9.4-3-.2-2.3-2.5-1.9-1.1-2.5-4.9h-2.2l-.4-2.9v-3.9l.7-1.1-1.5-3.9.2-3.4 1-3.5 1.4-4.8.8-2.4 3.3-.7 1.3-.7 2.8-1.2 3.3-2.1V326l-1.5-2.2-.7-2.2 1.2-2.6 2.2-.2 2.8-1.8.4-1.6 3.1-1v-1.8l4.6-3.3 1.4-3.1 2.4-2.9 1.8-2.5h1.8l.8-4.3-11.4-7.1-32.9-10.7-14 8.7-10.9-4.7-4.3-2.8v3.9h-1l-1.5 1.5H641v1.6l-.8 2.2-1 2-1.1.6v1.5l-1 1.9-1 1.3-2.3.7-3.3.3-.9-.7-2.2.7-2.5-.8-1.1.9-1.3-1.8-1.6.9-1.5-1-1 .4-1.7.4-2.7.2-1.1-.6v2.7h-.8l-1.8.5-1.3 1.4-.7-.4-1.2 1.3H606l-1.9-1.1-2.3-1.1-1.7-.6-1.3.4-1.4 1.2-1.4-.3-.4 1.4-1.2.3-2.6.4-1.4-1.1-2 .8-.9-4.1 1.4-1.1 1-1.8-1.2-1.4.9-1.5-.6-4.4v-1.8l-.8-.6-1.9-.2-1.4 1-1.1-.4-1.4 1-1.4 2.1-3-.8-1.8-.5-1.7 1.1-1.7-.7-2.7.7-.7-1.5-2.2-.4-1.3-1.5-1.5-.3h-2.8l-.9-1.5-1.5-.6-1 1.1-.9 1.8-1.7 1.2-3.4.3-1.7-1.1-1.5.3-1.2.5.3 1.7-2.7.7-1.9 1.9-1.8.2-1.3 1.4-1.6 1.2-.7 2-.8.7-.9 1.5-1.3.7-3.1-.1-2.3-.4-.6.9-1.2 1.4v1.4l-1.9.5-.2 1.4.9.7.8 2.6.3 1.1 1.8.5-.3 1.9.2 3.5 1.1 1.1.8 1.1.7 2.2 1.5 1.4.9 1.8 1.2 1.6-1 1-2 1.6-2.3 1.6-.8.6-2.6 6 .2 1.7 1.5 1.1h4.1l1.4-1.3 3.5-2.6 3.8 1.3h2.1l1.2.3 1.9.2 4-.4.5 2.7.3.8.4.5.9 1.6-.1 1.7-.2 2.1.9.6.5 1.5 2.1 1 1.1.7 2 .3.3 1.2 1.5 1 1 2.5v1.6l1 .8.6 1.4.9.8 1.5 1.1.1 1.2.8 1.2 1.1.9v1.7l1.1.7v1.8l1.2 1.5.6 1.5.2 2.5-.8 3.2-1 2h-2.8l-1-.4-1.3.4-4.7.7-1.6-.7-.8-1.3-2.9-.1-3.9.4-3.3.2-1.5 1.4-1.9.3h-3.6v.3l.1 1.1-1.6.8-1.3.3v.7l-6.9.7h-4.6l-3 .7-2.8 3h-1.2l-.8 1.3-1.4 1-2.9 2.4-2.2 1.6h-1.4l-1.2 2.7-1.6 1.6v4.4h1.8l2.4 1.2 4.1-1.7 1.5.4h6l7.2-.5 4.3-.5 8.9-.4 2.8.7h3.8l4.1-.7 4.3-.3 2.8-1.6 5.3-.5 2.3-1.6 3.2.5 3.4-.3 3.2-1.4h4.4l1.9 1 5.4-.7 5.1-1.8 3.7 2.3 2.3-.2 1.9-.5h.1l4.3.3 2.8.3 6-.3 4.5.3 5.9.7h4.2l3.1.7h4.1l3.3-.7 3 .2 5 .5 2.9-.5 5.2-.4 1.6 1.4 3.8-.2 5.1-1.4 4.2 2.3 3.2.9 2.2.7 2.1 1.6 2.9 2.7 1 1.9 2.1 4.4z"/><path fill="#0B4B64" d="M702.6 165.5l.9 3.6-.5 1.5-2.1 1.6-2.8 2.1-1.2 2.9v9.4l3.3 2.6 3.3 2 2.6 1.3h4.1l1.2 2.7h5.9l4.3-.8 3.7-2.1 1.9 2.9h9.5l2.6-1.5 2.9.5 1.4 1v3l-1 2.4h-1.2v5.5l.8 3-1 1.7-2.4 5-3.1 1.2-2.6 2.1-1.8 1.7.4 4.7 1.7 2.4 1.2 1.4-.5 2.3-2.2 1.2-3.2 2.2-4.1 1.1-1.9-1.8-1.6-3.8-2.9-1.4-3.7-2.4-2.5-.3-3 1.5-1.5 1.4-2.5-.2-.8-.5-3 1.1-1.7 2-1.7 4.4v2.6l-.9 1.9h-8l-1.2 1.5-2.6.9v1.5l-2.2 1.8-1.2 1.4h-2.8l-2.4 1h-1.6v3.5l-2.1 1.5v3.7l-2.6-1.6h-2.9l-2.3.2-2.5 1.4-4.2 2.9-4 3.6h-1.7l-1.7 2.1-1.4 1.6-2.8 2.4-1.9 3.1v2.1l2.1 1.4 2.4 1.7v2.8l-.3 3.2.3 2.5 1.7 1.4-.8 2.9 1.2 4.7 3.4 1.4h3l1.4 1.9 2.7-1.8 2.1-2.2 4.2.2h2l.2 2.2 1.4 1.6 1 1.7h3l4.5-5.2 3.4-4.8h1.9l1.9 1.5 3.2-1 2.4-.7 4.5 1 2.2-.3 3.3.3 2.4 2.6h2.8l1.4 1.6 2.9.1 1.9.9 1.8 1 2.4 2 4.2-2 4.5-1.7 1-3.8 3.3-2.1 2.6-5.7 1-4.1 2.3-.2 4.1-1.2.9 1.5 2.9-2.7 3.3-4.5 1.1-2.3 5-1.9h3.1l5-2.9 3.5-2.6 3.9-.9 3-.8h3.8l4.2-2.3 4.3-1.7 3.1-2.1h2.6l3.5-.2 4.1-3.1h6.4l4.7-1.9 4-.7 3.1.5 4.5-2.9 10.7-1.9 4.3-2.4 2.6-2.5 2.3-.1 3.4-3.8 2.8-.4 4.3-3.3 4 .9 5.2-3.3 3.3-1.9.9-3.8 3.1-.5 1.4-2.6 2-4.2 1.9-5.5v-5.9l-2.7-15.6-1.9-4-2.1-9.5.5-4.8-1.2-4 .5-11.9 2.1-5.2-.9-4-5.7-5.6-2.9-4.3-.5-6.7.1-4 2.5-5.9 7.7-8.1 7.1-7.5 4.5-6.6 2.1-5.8-2.6-3.7-3.8-4.5-5.2-5h-3.8l-6.4-5.4H858l-5.3 1.9-10.1.6-10.4-.7-6.7 1.4-2.8-1.9-3.4-3-4.9-1.4-5.2-1.2-4.5-1.2-2.8 1.2-5.5 1.1-4.5-1.3-2.6-1.9h-9.5L745.4 95 712 122l-21.9 17.5z"/><path fill="#FFF" d="M675.9 301.1h-3.3l-1.1-1.9-1.4-1.6-.2-2h-1.8l-4-.2-2 2.2-3 1.9-1.5-2h-2.9l-3.6-1.4-1.3-4.9.8-2.8-1.6-1.4-.4-2.6.4-3.3v-2.6l-2.3-1.6-2.2-1.5V273l2-3.3 2.8-2.4 1.4-1.5 1.8-2.2h1.8l3.9-3.5 4.2-3 2.8-1.4 2.2-.2h3.1l2.2 1.3v-3.2l2.1-1.6v-3.6h1.8l2.5-1h2.6l1.1-1.3 2.2-1.7v-1.6l2.7-.9 1.3-1.6h7.9l.7-1.6v-2.6l1.8-4.4 1.8-2.1 3.2-1.1.9.6 2.2.2 1.5-1.3 3-1.6 2.8.4 3.7 2.5 3 1.4 1.6 3.9 1.7 1.6 3.9-1 3.1-2.2 2.2-1.2.4-1.9-1.1-1.3-1.8-2.5-.4-4.9 1.8-1.8 2.7-2.2 3-1.2 2.4-4.9 1-1.6-.8-2.9v-5.9h1.3l.9-2.1v-2.7l-1.2-.9-2.7-.5-2.6 1.5H727l-1.8-2.8-3.5 2-4.3.9h-6.2l-1.2-2.8h-4.1l-2.6-1.2-3.3-2.1-3.4-2.7v-9.6l1.2-3 2.8-2.1 2.1-1.5.4-1.4-.8-3.5-12.6-26.2.2-.2 21.8-17.5 33.4-27 34.5-27.2h9.8L792 70l4.4 1.2 5.4-1 2.8-1.2 4.6 1.2 5.2 1.2 5 1.5 3.5 2.9 2.6 1.8 6.7-1.4 10.4.7 9.9-.5 5.4-1.9h3.4l6.4 5.4h3.8l5.3 5.1 3.8 4.5 2.7 3.8-2.2 6.1-4.5 6.6-14.6 15-2.4 5.8-.2 3.9.5 6.6 2.9 4.2 5.8 5.6.9 4.2-2.1 5.2-.5 11.8 1.2 4-.5 4.9 2.1 9.4 1.9 4 2.8 15.6v6l-1.9 5.6-2.1 4.2-1.5 2.8-3.1.5-.8 3.7-3.4 2-5.3 3.4-4-.9-4.3 3.2-2.7.3-3.5 3.8-2.3.2-2.6 2.4-4.4 2.5-10.7 1.9-4.6 3-3.2-.5-3.9.7-4.8 1.9H799l-4 3.1-3.6.2h-2.5l-3.1 2.1-4.3 1.7-4.2 2.3h-3.8l-2.9.9-3.9.9-3.4 2.6-5.1 3h-3.1l-4.8 1.8-1 2.1-3.3 4.6-3.3 3.1-.9-1.7-4 1.1-2 .2-1 3.9-2.7 5.9-3.3 2.1-1 3.8-4.7 1.8-4.3 2-2.6-2-1.7-1-1.8-.8-3-.2-1.4-1.5h-2.8l-2.4-2.6-3.1-.3-2.3.3-4.5-1-2.3.7-3.3 1.1-2-1.6H684l-3.4 4.7-4.7 4.9zm-2.9-.7h2.6l4.4-5.1 3.5-5h2.2l1.9 1.5 2.9-1 2.5-.7 4.5 1 2.2-.3 3.5.4 2.4 2.6h2.8l1.4 1.6 2.9.2 1.9.9 1.8 1.1 2.3 1.8 4-1.8 4.4-1.7 1-3.8 3.3-2.1 2.6-5.6 1.1-4.3 2.5-.2 4.4-1.3.8 1.4 2.6-2.5 3.2-4.5 1.1-2.3 5.3-2h3l4.9-2.9 3.6-2.6 4-.9 3-.9h3.7l4.1-2.2 4.3-1.7 3.2-2.1h2.7l3.3-.2 4.2-3.1h6.5l4.7-1.9 4-.7 3 .5 4.5-2.9 10.7-1.9 4.2-2.4 2.7-2.5 2.2-.2 3.5-3.8 2.8-.4 4.4-3.3 4 .9 5.1-3.2 3.2-1.8.9-3.9 3.2-.5 1.3-2.4 2.1-4.1 1.9-5.4v-5.8l-2.8-15.5-1.9-4-2.1-9.6.5-4.8-1.2-4v-.1l.5-12.1 2-5.1-.8-3.8-5.7-5.5-3-4.4-.5-6.8.2-4.1 2.5-6 14.9-15.6 4.4-6.5 2-5.7-2.5-3.5-3.8-4.5-5.1-4.9h-3.8l-6.4-5.4h-3.1l-5.4 1.9-10 .5-10.4-.7-6.8 1.4-2.9-2-3.4-2.9-4.8-1.4-5.2-1.2-4.4-1.2-2.7 1.2-5.6 1.1-4.7-1.3-2.5-1.8h-9.3l-34.3 27.1-33.4 27-21.6 17.3 12.4 25.8.9 3.7-.5 1.8-2.3 1.6-2.7 2-1.1 2.8v9.1l3.2 2.5 3.3 2.1 2.5 1.2h4.3l1.2 2.8h5.7l4.2-.8 3.9-2.2 2 3.1h9.2l2.6-1.6 3.2.6 1.6 1.2v3.3l-1.1 2.6h-1.1v5.1l.9 3-1.1 1.9-2.5 5.1-3.2 1.2-2.6 2-1.6 1.6.3 4.4 1.7 2.3 1.3 1.5-.6 2.6-2.4 1.3-3.2 2.3-4.3 1.1-2.1-2-1.5-3.7-2.8-1.3-3.6-2.4-2.4-.3-2.8 1.5-1.6 1.5-2.7-.2-.8-.5-2.7 1-1.6 2-1.7 4.2v2.7l-1 2.1h-8l-1.2 1.5-2.5.8v1.5l-2.4 1.8-1.3 1.5H679l-2.5 1h-1.2v3.3l-2.1 1.6v4.1l-3-1.8h-2.8l-2.2.2-2.5 1.4-4.1 2.9-4 3.7h-1.7l-1.6 2-1.4 1.6-2.8 2.4-1.8 3v1.8l1.9 1.3 2.6 1.8v2.9l-.3 3.3.3 2.2 1.8 1.4-.9 3.1 1.1 4.4 3.2 1.3h3.1l1.3 1.8 2.5-1.5 2.2-2.3 4.3.2h2.4l.2 2.5 1.3 1.5.7 1.1z"/><path fill="#002939" d="M667.9 47.4l4.6-6 6-7.4v-5.6l-5.3-3.7-2-5 2-6.5H684.1l2.3-3.7h9.2l6-1.8V.3H715l4.2 2.8 6-2.8h11l8.3 2.8v5l2.8 5.6-1.8 3.2 1.8 4.6v7.4l-2.8 3.2v6l-.2 5 3 4.3 4.3 3.7 2.4 3.1h12.5v4.5h11.7v3.1h5.7l1.3 4.1h3.2v1.9l-3.1 4.4-5.7 4.1-4.8 4.5-3 3-2 1-.2 2.9v5.2h1.5l.7 3.3 1.6 1.6-.9 3.3v3.6l1.2 2.9-1.7 1.8-4 5.3-1.4 2.5h-10.5l-.9 15.2-4.7-5.9-2.4-4.1-2.4-.6-.2-2.6-3.4-2.6-3.3-1.2-1.4.9-2.8-.7-3.1 1.4-3.3.5-1.7 4.9-3.3 2.2-1.9 4.2-2.8 2.2.5 3.8h-2.7l-3.3 3.1-4.5-1-2.6 1.9h-1.7l-2.5 4.5 2.3 2.1-1.2 3.3-.2 6.9.4 6.6-3 2.2-6.6.9-2.6 2.7H687l-2.6 3-2.4 3.3-2.6 2.6-.7 2.6h-6.6l-2.2 2-2 2v2.4l-1.5 1.7h-6.5v-5l-2.6-1.7-1.2-4-.9-3.5-1.4-2.9v-6.1h-2.2v-2.6l-2.1-2.2-1.4-.4-.9-3.1V150l-2.9.4-1.2-1.6-1.8.2-2.4-1.9-1.9-2.8-3.1-2.6-1.9-1.3v-6.6l3.3-.2.5-4 1.6.7 1-3.3 1.9-.5.2-3.4 1.9-1.4 2.1-2.1 2.2-1.4 1.7-1.2.7-4.7 1.9-1.2v-6l1.4-1.6.2-3.5 1-.3v-3l1.9-.5.6-5 2.2-.7v-5l2.1-2.8.7-13v-5.5l1.4-3.5.6-3.4 1.3-.9.3-6 2.6-2.3z"/><path fill="#FFF" d="M666.6 188h-7.1v-5.2l-2.5-1.7-1.2-4.1-.9-3.5-1.4-3v-5.7h-2.2V162l-1.9-2.1-1.5-.4-.9-3.4v-5.7l-2.7.3-1.2-1.6-1.7.2-2.6-2.1-1.9-2.7-3.1-2.6-2-1.5v-7.1l3.3-.2.5-4.2 1.6.7 1-3.1 1.8-.5.2-3.4 2-1.5 2.1-2.1 2.2-1.4 1.6-1.1.7-4.7 1.9-1.2v-6l1.4-1.6.2-3.6 1-.3v-3l1.9-.5.5-5 2.2-.7V85l2.1-2.8.7-12.9v-5.6l1.4-3.5.7-3.5 1.2-.8.3-6 2.7-2.3.6-.7 4.6-6 5.9-7.3v-5.2L673 25l-2.2-5.3 2.2-6.8h10.9l2.3-3.7h9.4l5.7-1.8V0h13.8l4.1 2.7 6-2.7h11.2l8.5 2.8V8l2.8 5.6-1.9 3.2 1.8 4.6V29l-2.8 3.2v5.9l-.2 4.9 2.9 4.1 4.2 3.7 2.4 3h12.6v4.5h11.8v3.1h5.6l1.2 4.2h3.4V68l-3.3 4.5-5.7 4.2-4.8 4.5-3 3-1.9.9-.2 2.7v4.8h1.5l.7 3.5 1.6 1.6-.9 3.4v3.5l1.3 3.1-1.9 1.9-3.9 5.3-1.5 2.6h-10.4l-.9 15.8-5.2-6.6-2.4-4.1-2.5-.5-.2-2.7-3.3-2.5-3.1-1.1-1.4.9-2.8-.7-3.1 1.4-3.1.5-1.7 4.8-3.3 2.3-1.9 4.1-2.7 2.2.5 4h-3l-3.3 3.1-4.5-1-2.6 1.9h-1.6l-2.2 4.1 2.2 2.1-1.3 3.5-.2 6.9.4 6.7-3.2 2.4-6.5.9-2.6 2.8H687l-2.5 2.8-2.4 3.3-2.6 2.6-.7 2.8h-6.7l-2.2 2-1.8 1.8v2.4l-1.5 1.6zm-6.4-.7h6.1l1.3-1.5v-2.4l2.1-2 2.4-2.2h6.4l.6-2.4 2.7-2.7 2.4-3.2 2.7-3.1h3.8l2.6-2.8 6.6-.9 2.7-2.1-.3-6.4.2-7.1 1.1-3.1-2.3-2.1 2.6-4.9h1.8l2.6-1.9 4.5 1 3.3-3.1h2.5l-.5-3.6 2.9-2.3 1.9-4.2 3.3-2.2 1.7-4.9 3.5-.5 3.2-1.4 2.7.7 1.4-.9 3.5 1.3 3.6 2.7.2 2.5 2.3.5 2.5 4.3 4.1 5.1.8-14.6h10.7l1.3-2.2 4-5.4 1.6-1.6-1.1-2.9v-3.7l.8-3.1-1.5-1.5-.7-3.1h-1.6v-5.5l.2-3.2 2.2-1.1 2.9-2.9 4.9-4.5 5.7-4.1 3-4.2v-1.4h-3.2l-1.2-4.2h-5.8V59h-11.8v-4.5h-12.3l-2.5-3.2-4.3-3.7-3.1-4.4.2-5.1V32l2.8-3.2v-7.2l-1.9-4.7 1.8-3.2-2.7-5.4v-5l-8-2.6h-10.9l-6.1 2.8-4.2-2.8H702v7.2l-6.3 1.9h-9l-2.3 3.7h-10.8l-2 6.1 2 4.9 5.4 3.7V34l-6.1 7.5-4.6 6-.6.7-2.5 2.2-.3 6.1-1.2.9-.7 3.3-1.4 3.5v5.5l-.7 13.1-2.1 2.8v5.2l-2.3.7-.5 5-2 .5v2.9l-1.1.4-.2 3.3-1.4 1.6v6.1l-1.9 1.2-.7 4.7-1.9 1.3-2.2 1.4-2 2-1.8 1.3-.2 3.5-2 .5-1.1 3.5-1.5-.7-.5 3.8-3.2.2v6.1l1.8 1.3 3.2 2.7 1.9 2.7 2.3 1.8 1.8-.2 1.2 1.6 3.1-.4v6.4l.8 2.9 1.3.3 2.2 2.4v2.4h2.2v6.3l1.4 2.9.9 3.5 1.2 3.8 2.6 1.8v5z"/><g fill="#FFF"><path d="M577.2 345l-2.2-3.1v3.1h-.9v-6.4c.2-.1.4-.2.7-.3.3-.1.6-.1.9-.1.7 0 1.3.2 1.7.5.4.3.6.8.6 1.5 0 .6-.2 1-.6 1.3-.4.3-.9.5-1.5.5l2.2 3h-.9zm-1.5-6.3c-.3 0-.6 0-.8.1v2.8c.1 0 .3.1.6.1.5 0 .9-.1 1.2-.4.3-.3.4-.6.4-1.1 0-1-.4-1.5-1.4-1.5zM579.3 345v-6.7h3.1v.6h-2.2v2.3h2v.6h-2v2.6h2.2v.6h-3.1zM586.2 345.1c-.8 0-1.5-.3-2-.9-.5-.6-.8-1.5-.8-2.6s.3-1.9.8-2.5c.5-.6 1.2-.9 2-.9.3 0 .7 0 .9.1.3.1.5.1.6.3l-.3.6c-.1-.1-.3-.1-.5-.2s-.4-.1-.7-.1c-.6 0-1.1.2-1.5.7-.3.5-.5 1.2-.5 2.1 0 .9.2 1.6.5 2 .4.5.8.7 1.4.7h.5c.1 0 .2-.1.3-.1v-2.5h-1.1v-.6h2v3.5c-.2.1-.5.2-.7.3-.2.1-.5.1-.9.1zM589.3 345v-6.7h.9v6.7h-.9zM592.8 342.9l-.7 2.1h-.9l2.2-6.5h1l2.2 6.5h-.9l-.7-2.1h-2.2zm0-4.8c0-.6.2-1 .7-1 .2 0 .4.1.6.2.2.1.3.2.5.2s.2-.1.3-.4h.5c0 .6-.2.9-.7.9-.2 0-.4-.1-.6-.2-.2-.1-.3-.2-.5-.2s-.2.2-.3.4h-.5zm2.1 4.2l-.6-1.9-.3-1.2-.3 1.2-.6 1.9h1.8zM603.1 341.7c0 2.2-1.4 3.4-3 3.4-1.7 0-2.9-1.3-2.9-3.3 0-2.1 1.3-3.4 3-3.4 1.7-.1 2.9 1.3 2.9 3.3zm-5.1.1c0 1.4.8 2.6 2.1 2.6s2.1-1.2 2.1-2.7c0-1.3-.7-2.7-2.1-2.7-1.4 0-2.1 1.3-2.1 2.8zM606.2 338.5c.5-.1 1.1-.1 1.8-.1 1.2 0 2.1.3 2.6.8.6.5.9 1.3.9 2.3 0 1.1-.3 1.9-.9 2.5-.6.6-1.6.9-2.9.9-.6 0-1.1 0-1.5-.1v-6.3zm.9 5.8h.9c1.8 0 2.8-1 2.8-2.8 0-1.5-.9-2.5-2.6-2.5-.4 0-.8 0-1 .1v5.2zM613.6 342.9l-.7 2.1h-.9l2.2-6.5h1l2.2 6.5h-.9l-.7-2.1h-2.2zm2.2-.6l-.6-1.9-.3-1.2-.3 1.2-.6 1.9h1.8zM618.4 344c.4.2.9.4 1.5.4.9 0 1.4-.5 1.4-1.1 0-.6-.3-1-1.2-1.3-1.1-.4-1.7-.9-1.7-1.9 0-1 .8-1.8 2.1-1.8.7 0 1.2.2 1.4.3l-.2.7c-.2-.1-.6-.3-1.2-.3-.9 0-1.2.5-1.2 1 0 .6.4.9 1.3 1.3 1.1.4 1.7 1 1.7 1.9 0 1-.7 1.9-2.3 1.9-.6 0-1.3-.2-1.7-.4l.1-.7zM625.3 338.5c.4-.1 1-.1 1.5-.1.8 0 1.4.1 1.8.5.3.3.5.6.5 1.2s-.4 1.2-1.1 1.4c.6.2 1.3.7 1.3 1.6 0 .6-.2 1-.6 1.3-.5.4-1.2.6-2.3.6-.6 0-1 0-1.3-.1v-6.4zm.9 2.7h.8c.9 0 1.4-.5 1.4-1.1 0-.8-.6-1.1-1.4-1.1-.4 0-.6 0-.7.1v2.1zm0 3.1h.7c.9 0 1.7-.3 1.7-1.3 0-.9-.8-1.3-1.7-1.3h-.7v2.6zM631.6 342.9l-.6 2.1h-.9l2.2-6.5h1l2.2 6.5h-.9l-.7-2.1h-2.3zm2.2-.6l-.6-1.9-.3-1.2-.3 1.2-.6 1.9h1.8zM637.4 338.5v6.5h-.8v-6.5h.8zM642.4 345l-.8-1.4c-.3-.6-.6-.9-.8-1.3-.2.4-.4.7-.7 1.3l-.8 1.4h-1l2-3.3-1.9-3.2h1l.9 1.5c.2.4.4.8.6 1.1.2-.4.3-.7.6-1.1l.9-1.5h1l-2 3.2 2 3.4h-1zM645.3 342.9l-.7 2.1h-.9l2.2-6.5h1l2.2 6.5h-.9l-.7-2.1h-2.2zm2.2-.6l-.6-1.9-.3-1.2-.3 1.2-.6 1.9h1.8zM650.2 338.5c.5-.1 1.1-.1 1.8-.1 1.2 0 2.1.3 2.6.8.6.5.9 1.3.9 2.3 0 1.1-.3 1.9-.9 2.5-.6.6-1.6.9-2.9.9-.6 0-1.1 0-1.5-.1v-6.3zm.9 5.8h.9c1.8 0 2.8-1 2.8-2.8 0-1.5-.9-2.5-2.6-2.5-.4 0-.8 0-1 .1v5.2zM657.6 342.9l-.7 2.1h-.9l2.2-6.5h1l2.2 6.5h-.9l-.7-2.1h-2.2zm2.1-.6l-.6-1.9-.3-1.2-.3 1.2-.6 1.9h1.8zM662.3 344c.4.2.9.4 1.5.4.9 0 1.4-.5 1.4-1.1 0-.6-.3-1-1.2-1.3-1.1-.4-1.7-.9-1.7-1.9 0-1 .8-1.8 2.1-1.8.7 0 1.2.2 1.4.3l-.2.7c-.2-.1-.6-.3-1.2-.3-.9 0-1.2.5-1.2 1 0 .6.4.9 1.3 1.3 1.1.4 1.7 1 1.7 1.9 0 1-.7 1.9-2.3 1.9-.6 0-1.3-.2-1.7-.4l.1-.7zM595.1 350.1h.8v5.8h2.8v.7h-3.6v-6.5zM600.5 350.1v6.5h-.8v-6.5h.8zM603.2 350.8h-2v-.7h4.8v.7h-2v5.8h-.9v-5.8zM612.1 353.3c0 2.2-1.4 3.4-3 3.4-1.7 0-2.9-1.3-2.9-3.3 0-2.1 1.3-3.4 3-3.4s2.9 1.3 2.9 3.3zm-5.1.1c0 1.4.8 2.6 2.1 2.6s2.1-1.2 2.1-2.7c0-1.3-.7-2.7-2.1-2.7-1.4.1-2.1 1.4-2.1 2.8zM613.2 350.2c.4-.1 1-.1 1.6-.1.9 0 1.5.2 1.9.5.3.3.5.7.5 1.2 0 .9-.5 1.4-1.2 1.7.5.2.8.6 1 1.3.2.9.4 1.5.5 1.8h-.9c-.1-.2-.3-.7-.4-1.6-.2-.9-.5-1.2-1.3-1.3h-.9v2.8h-.8v-6.3zm.8 2.9h.9c.9 0 1.5-.5 1.5-1.2 0-.8-.6-1.2-1.5-1.2-.4 0-.7 0-.8.1v2.3zM619.5 354.6l-.7 2.1h-.9l2.2-6.5h1l2.2 6.5h-.9l-.7-2.1h-2.2zm1.5-6l1 1.1h-.7l-.6-.7-.6.7h-.7l1-1.1h.6zm.6 5.3l-.6-1.9-.3-1.2-.3 1.2-.6 1.9h1.8zM624.4 356.6v-6.5h.9l2.1 3.3c.5.8.9 1.5 1.2 2.1-.1-.9-.1-1.7-.1-2.7v-2.7h.8v6.5h-.9l-2.1-3.3c-.5-.7-.9-1.5-1.2-2.2 0 .8.1 1.6.1 2.7v2.8h-.8zM634.1 353.6h-2.5v2.4h2.8v.7h-3.7v-6.5h3.5v.7h-2.7v2.1h2.5v.6zM636.6 354.6l-.7 2.1h-.9l2.2-6.5h1l2.2 6.5h-.9l-.7-2.1h-2.2zm2.1-.7l-.6-1.9-.3-1.2-.3 1.2-.6 1.9h1.8zM641.3 355.6c.4.2.9.4 1.5.4.9 0 1.4-.5 1.4-1.1 0-.6-.3-1-1.2-1.3-1.1-.4-1.7-.9-1.7-1.9 0-1 .8-1.8 2.1-1.8.7 0 1.2.2 1.4.3l-.2.7c-.2-.1-.6-.3-1.2-.3-.9 0-1.2.5-1.2 1 0 .6.4.9 1.3 1.3 1.1.4 1.7 1 1.7 1.9 0 1-.7 1.9-2.3 1.9-.6 0-1.3-.2-1.7-.4l.1-.7z"/></g><g fill="#231F20"><path d="M518.2 510.7c-1.2 0-2-.5-2.6-1.4-.6-.9-.8-2.1-.8-3.5 0-1.5.3-2.6.8-3.5.6-.9 1.4-1.4 2.6-1.4 1.2 0 2 .5 2.6 1.4.6.9.8 2.1.8 3.5 0 1.5-.3 2.7-.8 3.6-.5.8-1.4 1.3-2.6 1.3zm0-9c-.8 0-1.4.4-1.7 1.1-.3.8-.5 1.7-.5 2.9s.2 2.1.5 2.9c.3.7.9 1.1 1.7 1.1.8 0 1.4-.4 1.7-1.1.3-.8.5-1.7.5-2.9s-.2-2.1-.5-2.9c-.3-.7-.9-1.1-1.7-1.1zM527.3 510.7c-1.1 0-2-.5-2.6-1.4-.6-.9-1-2.1-1-3.5s.3-2.6.9-3.5c.6-.9 1.5-1.4 2.6-1.4.4 0 .8 0 1.1.1.3.1.6.2.8.4l-.3.7-.6-.3c-.2-.1-.5-.1-.7-.1-.8 0-1.5.4-1.9 1.1-.4.8-.6 1.7-.6 2.9 0 1.1.2 2.1.6 2.8.4.8 1 1.1 1.8 1.1.3 0 .5 0 .7-.1l.6-.3.3.8c-.2.2-.5.3-.8.4-.2.2-.5.3-.9.3zM531.2 510.5V501h4.4v.8h-3.1v3.3h2.8v.8h-2.8v3.7h3.1v.8h-4.4zM543.3 510.5l-.9-2.9h-3.3l-.9 2.9H537l3.2-9.5h1.1l3.2 9.5h-1.2zm-2.2-7.2c-.1-.4-.2-.6-.2-.8 0-.2 0-.3-.1-.3 0 .1-.1.2-.1.4 0 .1-.1.4-.2.8l-1.1 3.6h2.9l-1.2-3.7zM552.2 510.5l-4.1-7c-.1-.1-.2-.3-.3-.6l-.3-.6v8.1h-1.1V501h1.3l3.9 6.7c.1.2.3.5.3.6.1.2.1.3.2.4v-.4V501h1.1v9.5h-1zM559.2 510.7c-1.2 0-2-.5-2.6-1.4-.6-.9-.8-2.1-.8-3.5 0-1.5.3-2.6.8-3.5.6-.9 1.4-1.4 2.6-1.4 1.2 0 2 .5 2.6 1.4.6.9.8 2.1.8 3.5 0 1.5-.3 2.7-.8 3.6-.6.8-1.5 1.3-2.6 1.3zm0-9c-.8 0-1.4.4-1.7 1.1-.3.8-.5 1.7-.5 2.9s.2 2.1.5 2.9c.3.7.9 1.1 1.7 1.1.8 0 1.4-.4 1.7-1.1.3-.8.5-1.7.5-2.9s-.2-2.1-.5-2.9c-.4-.7-.9-1.1-1.7-1.1zM512.4 527.1l-.9-2.9h-3.3l-.9 2.9h-1.2l3.2-9.5h1.1l3.2 9.5h-1.2zm-2.2-7.2c-.1-.4-.2-.6-.2-.8 0-.2 0-.3-.1-.3 0 .1-.1.2-.1.4 0 .1-.1.4-.2.8l-1.1 3.6h2.9l-1.2-3.7zM518.1 518.5v8.7h-1.3v-8.7H515v-.8h5.1v.8h-2zM522.1 527.1v-9.5h1.3v8.7h2.9v.8h-4.2zM533.8 527.1l-.9-2.9h-3.3l-.9 2.9h-1.2l3.2-9.5h1.1l3.2 9.5h-1.2zm-1-10.2l-1.5-1.1-1.5 1.1-.3-.3 1.4-1.4c.1-.1.3-.2.5-.2s.3.1.5.2l1.4 1.4-.5.3zm-1.3 3c-.1-.4-.2-.6-.2-.8 0-.2 0-.3-.1-.3 0 .1-.1.2-.1.4 0 .1-.1.4-.2.8l-1.1 3.6h2.9l-1.2-3.7zM542.7 527.1l-4.1-7c-.1-.1-.2-.3-.3-.6l-.3-.6v8.1h-1v-9.5h1.3l3.9 6.7c.1.2.3.5.3.6.1.2.1.3.2.4v-.4V517.6h1.1v9.5h-1.1zM549 518.5v8.7h-1.3v-8.7h-1.9v-.8h5.1v.8H549zM553 527.1v-9.5h1.3v9.5H553zM560.2 527.3c-1.1 0-2-.5-2.6-1.4s-1-2.1-1-3.5.3-2.6.9-3.5c.6-.9 1.5-1.4 2.6-1.4.4 0 .8 0 1.1.1.3.1.6.2.8.4l-.3.7-.6-.3c-.2-.1-.5-.1-.7-.1-.8 0-1.5.4-1.9 1.1-.4.8-.6 1.7-.6 2.9 0 1.1.2 2.1.6 2.8.4.8 1 1.1 1.8 1.1.3 0 .5 0 .7-.1l.6-.3.3.8c-.2.2-.5.3-.8.4-.1.2-.5.3-.9.3zM567.3 527.3c-1.2 0-2-.5-2.6-1.4-.6-.9-.8-2.1-.8-3.5 0-1.5.3-2.6.8-3.5.6-.9 1.4-1.4 2.6-1.4 1.2 0 2 .5 2.6 1.4s.8 2.1.8 3.5c0 1.5-.3 2.7-.8 3.6-.6.8-1.4 1.3-2.6 1.3zm0-9c-.8 0-1.4.4-1.7 1.1-.3.8-.5 1.7-.5 2.9s.2 2.1.5 2.9c.3.7.9 1.1 1.7 1.1.8 0 1.4-.4 1.7-1.1.3-.8.5-1.7.5-2.9s-.2-2.1-.5-2.9c-.4-.7-.9-1.1-1.7-1.1z"/></g><g fill="#231F20"><path d="M495.9 149.5l-.7-7.1v-.7-.4c0 .1-.1.3-.1.5s-.1.4-.2.7l-2 7.1h-.8l-2-7.1c-.1-.2-.1-.4-.2-.7s-.1-.4-.1-.4v.4c0 .2 0 .4-.1.7l-.8 7.1h-1.1l1.1-9.5h1.3l1.9 6.9c.1.3.1.5.2.7 0 .1.1.3.1.4 0-.1.1-.2.1-.4s.1-.4.2-.7l2-6.9h1.3l1.1 9.5-1.2-.1zM499.5 149.5V140h1.3v9.5h-1.3zM509.2 149.5l-4.1-7c-.1-.1-.2-.3-.3-.6l-.3-.6v8.1h-1.1v-9.5h1.3l3.9 6.7c.1.2.3.5.3.6.1.2.1.3.2.4v-.4V140h1.1v9.5h-1zM518.5 149.5l-.9-2.9h-3.3l-.9 2.9h-1.2l3.2-9.5h1.1l3.2 9.5h-1.2zm-2.2-7.3c-.1-.4-.2-.6-.2-.8 0-.2 0-.3-.1-.3 0 .1-.1.2-.1.4 0 .1-.1.4-.2.8l-1.1 3.6h2.9l-1.2-3.7zM523.4 149.6c-.5 0-1 0-1.3-.1-.3-.1-.6-.2-.9-.4l.3-.9c.2.1.5.2.7.3.3.1.6.1.9.1.5 0 1-.2 1.3-.5.3-.3.5-.8.5-1.3 0-.4-.1-.8-.4-1.1-.2-.3-.7-.5-1.4-.8-.7-.3-1.2-.6-1.5-1.1-.3-.4-.5-.9-.5-1.4 0-.7.2-1.4.7-1.9.5-.5 1.1-.8 1.9-.8.4 0 .8 0 1.1.1.3.1.6.2.8.4l-.3.8c-.2-.1-.4-.2-.7-.3-.2-.1-.5-.1-.8-.1-.5 0-.9.2-1.2.5-.3.3-.4.7-.4 1.2 0 .4.1.8.4 1.1.3.3.8.5 1.4.8.7.3 1.2.6 1.5 1.1.3.5.4 1 .4 1.5 0 .8-.3 1.5-.8 2-.1.5-.8.8-1.7.8zM490.5 166.2c-1.2 0-2.1-.4-2.9-1.3s-1.1-2.1-1.1-3.7c0-1.5.4-2.7 1.1-3.6.8-.8 1.7-1.3 2.9-1.3.5 0 .9 0 1.3.1s.7.2.9.4l-.4.8c-.2-.1-.4-.2-.7-.3-.3-.1-.6-.1-1-.1-.9 0-1.6.3-2.1 1s-.7 1.7-.7 3 .2 2.2.7 2.9c.5.7 1.1 1 1.9 1 .3 0 .5 0 .7-.1.2 0 .3-.1.5-.2v-3.6H490v-.8h2.8v5c-.3.2-.7.3-1 .4-.3.4-.7.4-1.3.4zM495.5 166.1v-9.5h4.4v.8h-3.1v3.3h2.8v.8h-2.8v3.7h3.1v.8h-4.4zM506.6 166.1l-3.1-4.4v4.4h-1.3v-9.2c.3-.1.6-.3 1-.4.4-.1.9-.1 1.4-.1 1.1 0 1.9.2 2.4.7.6.5.8 1.2.8 2.1 0 .8-.3 1.4-.8 1.9s-1.2.7-2.1.7l3.1 4.2h-1.4zm-2.1-8.9c-.5 0-.8.1-1.1.2v4c.2.1.5.1.8.1.8 0 1.3-.2 1.7-.5.4-.4.6-.9.6-1.6.1-1.5-.6-2.2-2-2.2zM515.7 166.1l-.9-2.9h-3.3l-.9 2.9h-1.2l3.2-9.5h1.1l3.2 9.5h-1.2zm-2.2-7.3c-.1-.4-.2-.6-.2-.8 0-.2 0-.3-.1-.3 0 .1-.1.2-.1.4 0 .1-.1.4-.2.8l-1.1 3.6h2.9l-1.2-3.7zM518.9 166.1v-9.5h1.3v9.5h-1.3zM524.7 166.2c-.5 0-1 0-1.3-.1-.3-.1-.6-.2-.9-.4l.3-.9c.2.1.5.2.7.3.3.1.6.1.9.1.5 0 1-.2 1.3-.5.3-.3.5-.8.5-1.3 0-.4-.1-.8-.4-1.1-.2-.3-.7-.5-1.4-.8-.7-.3-1.2-.6-1.5-1.1-.3-.4-.5-.9-.5-1.4 0-.7.2-1.4.7-1.9.5-.5 1.1-.8 1.9-.8.4 0 .8 0 1.1.1.3.1.6.2.8.4l-.3.8c-.2-.1-.4-.2-.7-.3-.2-.1-.5-.1-.8-.1-.5 0-.9.2-1.2.5-.3.3-.4.7-.4 1.2 0 .4.1.8.4 1.1.3.3.8.5 1.4.8.7.3 1.2.6 1.5 1.1.3.5.4 1 .4 1.5 0 .8-.3 1.5-.8 2-.2.6-.9.8-1.7.8z"/></g><g fill="#231F20"><path d="M870.4 14.3V4.8h4.4v.8h-3.1v3.3h2.8v.8h-2.8v3.7h3.1v.8h-4.4zM878.8 14.4c-.5 0-1 0-1.3-.1-.3-.1-.6-.2-.9-.4l.3-.9c.2.1.5.2.7.3s.6.1.9.1c.5 0 1-.2 1.3-.5.3-.3.5-.8.5-1.3 0-.4-.1-.8-.4-1.1-.2-.3-.7-.5-1.4-.8-.7-.3-1.2-.6-1.5-1.1-.3-.4-.5-.9-.5-1.4 0-.7.2-1.4.7-1.9.5-.5 1.1-.8 1.9-.8.4 0 .8 0 1.1.1.3.1.6.2.8.4v.9c-.2-.1-.4-.2-.7-.3-.2-.1-.5-.1-.8-.1-.5 0-.9.2-1.2.5-.3.3-.4.7-.4 1.2 0 .4.1.8.4 1.1.3.3.8.5 1.4.8.7.3 1.2.6 1.5 1.1.3.5.4 1 .4 1.5 0 .8-.3 1.5-.8 2-.4.5-1.1.7-2 .7zM885.7 10.4h-.4v4h-1.2V5.2c.3-.2.6-.3 1-.4.4-.1.9-.1 1.4-.1 1.1 0 1.9.3 2.4.8s.8 1.2.8 2.1c0 .8-.3 1.5-.8 2.1-.5.5-1.4.8-2.5.8-.2-.1-.4-.1-.7-.1zm.7-5h-.6c-.2 0-.3.1-.5.1v4H886.2c.8 0 1.3-.2 1.7-.6.4-.4.5-.9.5-1.6 0-.7-.2-1.2-.5-1.6-.3-.1-.8-.3-1.5-.3zM892.5 4h-.7l1-1.9c.3-.2.5-.2.8-.2.3 0 .5.1.5.2L892.5 4zm-.6 10.3V4.8h1.3v9.5h-1.3zM900.4 14.3l-3.1-4.4v4.4H896V5.1c.3-.1.6-.3 1-.4.4-.1.9-.1 1.4-.1 1.1 0 1.9.2 2.4.7.6.5.8 1.2.8 2.1 0 .8-.3 1.4-.8 1.9s-1.2.7-2.1.7l3.1 4.2h-1.4zm-2.1-8.9c-.5 0-.8.1-1.1.2v4c.2.1.5.1.8.1.8 0 1.3-.2 1.7-.5.4-.4.6-.9.6-1.6 0-1.5-.6-2.2-2-2.2zM904 14.3V4.8h1.3v9.5H904zM910.6 5.6v8.7h-1.3V5.6h-1.9v-.8h5.1v.8h-1.9zM917.6 14.4c-1.2 0-2-.5-2.6-1.4-.6-.9-.8-2.1-.8-3.5s.3-2.6.8-3.5c.6-.9 1.4-1.4 2.6-1.4 1.2 0 2 .5 2.6 1.4.6.9.8 2.1.8 3.5 0 1.5-.3 2.7-.8 3.6-.5.9-1.4 1.3-2.6 1.3zm0-8.9c-.8 0-1.4.4-1.7 1.1-.3.8-.5 1.7-.5 2.9s.2 2.1.5 2.9c.3.7.9 1.1 1.7 1.1.8 0 1.4-.4 1.7-1.1.3-.8.5-1.7.5-2.9s-.2-2.1-.5-2.9c-.3-.7-.9-1.1-1.7-1.1zM878.4 31c-.5 0-1 0-1.3-.1-.3-.1-.6-.2-.9-.4l.3-.9c.2.1.5.2.7.3s.6.1.9.1c.5 0 1-.2 1.3-.5.3-.3.5-.8.5-1.3 0-.4-.1-.8-.4-1.1-.2-.3-.7-.5-1.4-.8-.7-.3-1.2-.6-1.5-1.1-.3-.4-.5-.9-.5-1.4 0-.7.2-1.4.7-1.9.5-.5 1.1-.8 1.9-.8.4 0 .8 0 1.1.1.3.1.6.2.8.4l-.3.8c-.2-.1-.4-.2-.7-.3-.2-.1-.5-.1-.8-.1-.5 0-.9.2-1.2.5-.3.3-.4.7-.4 1.2 0 .4.1.8.4 1.1.3.3.8.5 1.4.8.7.3 1.2.6 1.5 1.1.3.5.4 1 .4 1.5 0 .8-.3 1.5-.8 2-.2.6-.9.8-1.7.8zM889.1 30.9l-.9-2.9h-3.3l-.9 2.9h-1.2l3.2-9.5h1.1l3.2 9.5h-1.2zm-2.2-7.2c-.1-.4-.2-.6-.2-.8 0-.2 0-.3-.1-.3 0 .1-.1.2-.1.4 0 .1-.1.4-.2.8l-1.1 3.6h2.9l-1.2-3.7zM898 30.9l-4.1-7c-.1-.1-.2-.3-.3-.6l-.3-.6v8.1h-1.1v-9.5h1.3l3.9 6.7c.1.2.3.5.3.6.1.2.1.3.2.4v-.4V21.4h1.1v9.5h-1zM904.3 22.2v8.7H903v-8.7h-1.9v-.8h5.1v.8h-1.9zM911.4 31c-1.2 0-2-.5-2.6-1.4-.6-.9-.8-2.1-.8-3.5s.3-2.6.8-3.5c.6-.9 1.4-1.4 2.6-1.4 1.2 0 2 .5 2.6 1.4.6.9.8 2.1.8 3.5 0 1.5-.3 2.7-.8 3.6-.6.9-1.4 1.3-2.6 1.3zm0-8.9c-.8 0-1.4.4-1.7 1.1-.3.8-.5 1.7-.5 2.9s.2 2.1.5 2.9c.3.7.9 1.1 1.7 1.1.8 0 1.4-.4 1.7-1.1.3-.8.5-1.7.5-2.9s-.2-2.1-.5-2.9c-.4-.7-.9-1.1-1.7-1.1z"/></g><g fill="#231F20"><path d="M115.1 350.5c-.5 0-1 0-1.3-.1-.3-.1-.6-.2-.9-.4l.3-.9c.2.1.5.2.7.3.3.1.6.1.9.1.5 0 1-.2 1.3-.5s.5-.8.5-1.3c0-.4-.1-.8-.4-1.1-.2-.3-.7-.5-1.4-.8-.7-.3-1.2-.6-1.5-1.1-.3-.4-.5-.9-.5-1.4 0-.7.2-1.4.7-1.9.5-.5 1.1-.8 1.9-.8.4 0 .8 0 1.1.1s.6.2.8.4l-.3.8c-.2-.1-.4-.2-.7-.3-.2-.1-.5-.1-.8-.1-.5 0-.9.2-1.2.5-.3.3-.4.7-.4 1.2 0 .4.1.8.4 1.1.3.3.8.5 1.4.8.7.3 1.2.6 1.5 1.1.3.5.4 1 .4 1.5 0 .8-.3 1.5-.8 2s-.9.8-1.7.8zM125.8 350.4l-.9-2.9h-3.3l-.9 2.9h-1.2l3.2-9.5h1.1l3.2 9.5h-1.2zm-1.5-10.5h-.2c-.2 0-.5-.1-.9-.3-.4-.2-.7-.3-.9-.3-.2 0-.3.1-.4.2-.1.2-.2.3-.2.4l-.4-.6c.1-.2.2-.4.4-.6.1-.1.4-.2.7-.2.2 0 .5.1.9.3.4.2.6.3.8.2.2 0 .4-.1.5-.2.1-.1.2-.2.3-.4l.4.6c-.1.2-.2.4-.3.5-.2.3-.4.4-.7.4zm-.7 3.2c-.1-.4-.2-.6-.2-.8 0-.2 0-.3-.1-.3 0 .1-.1.2-.1.4 0 .1-.1.4-.2.8l-1.1 3.6h2.9l-1.2-3.7zM132.1 350.5c-1.2 0-2-.5-2.6-1.4-.6-.9-.8-2.1-.8-3.5 0-1.5.3-2.6.8-3.5.6-.9 1.4-1.4 2.6-1.4 1.2 0 2 .5 2.6 1.4.6.9.8 2.1.8 3.5 0 1.5-.3 2.7-.8 3.6-.5.8-1.4 1.3-2.6 1.3zm0-9c-.8 0-1.4.4-1.7 1.1-.3.8-.5 1.7-.5 2.9s.2 2.1.5 2.9c.3.7.9 1.1 1.7 1.1.8 0 1.4-.4 1.7-1.1.3-.8.5-1.7.5-2.9s-.2-2.1-.5-2.9c-.3-.7-.9-1.1-1.7-1.1zM107.2 363h-.4v4h-1.2v-9.1c.3-.2.6-.3 1-.4.4-.1.9-.1 1.4-.1 1.1 0 1.9.3 2.4.8s.8 1.2.8 2.1c0 .8-.3 1.5-.8 2.1-.5.5-1.4.8-2.5.8-.3-.1-.5-.1-.7-.2zm.6-4.9h-.6c-.2 0-.3.1-.5.1v4H107.6c.8 0 1.3-.2 1.7-.6.4-.4.5-.9.5-1.6 0-.7-.2-1.2-.5-1.6-.2-.2-.7-.3-1.5-.3zM118.8 367l-.9-2.9h-3.3l-.9 2.9h-1.2l3.2-9.5h1.1l3.2 9.5h-1.2zm-2.2-7.3c-.1-.4-.2-.6-.2-.8 0-.2 0-.3-.1-.3 0 .1-.1.2-.1.4 0 .1-.1.4-.2.8l-1.1 3.6h2.9l-1.2-3.7zM124.9 367.1c-.9 0-1.6-.3-2.2-.8-.5-.5-.8-1.2-.8-2.1v-6.8h1.3v6.8c0 .6.2 1 .5 1.4.3.3.8.5 1.3.5s.9-.2 1.2-.5c.3-.3.5-.8.5-1.4v-6.8h1.2v6.8c0 .8-.3 1.5-.8 2-.5.6-1.3.9-2.2.9zM130.6 367v-9.5h1.3v8.7h2.9v.8h-4.2zM140 367.1c-1.2 0-2-.5-2.6-1.4-.6-.9-.8-2.1-.8-3.5 0-1.5.3-2.6.8-3.5.6-.9 1.4-1.4 2.6-1.4 1.2 0 2 .5 2.6 1.4.6.9.8 2.1.8 3.5 0 1.5-.3 2.7-.8 3.6-.6.9-1.4 1.3-2.6 1.3zm0-9c-.8 0-1.4.4-1.7 1.1-.3.8-.5 1.7-.5 2.9s.2 2.1.5 2.9c.3.7.9 1.1 1.7 1.1.8 0 1.4-.4 1.7-1.1.3-.8.5-1.7.5-2.9s-.2-2.1-.5-2.9-.9-1.1-1.7-1.1z"/></g><g fill="#FFF"><path d="M401.3 361.4c.4-.1 1-.1 1.6-.1.9 0 1.5.2 1.9.5.3.3.5.7.5 1.2 0 .9-.5 1.4-1.2 1.7.5.2.8.6 1 1.3.2.9.4 1.5.5 1.8h-.9c-.1-.2-.3-.7-.4-1.6-.2-.9-.5-1.2-1.3-1.3h-.8v2.8h-.8v-6.3zm.8 3h.9c.9 0 1.5-.5 1.5-1.2 0-.8-.6-1.2-1.5-1.2-.4 0-.7 0-.8.1v2.3zM409.9 364.8h-2.5v2.4h2.8v.7h-3.7v-6.5h3.5v.7h-2.7v2.1h2.5v.6zM416.2 367.6c-.4.1-1.1.4-2 .4-1 0-1.8-.3-2.4-.9-.6-.5-.9-1.4-.9-2.4 0-1.9 1.3-3.4 3.5-3.4.8 0 1.3.2 1.6.3l-.2.7c-.3-.2-.8-.3-1.4-.3-1.6 0-2.6 1-2.6 2.6 0 1.7 1 2.6 2.5 2.6.6 0 .9-.1 1.1-.2v-1.9h-1.3v-.7h2.2v3.2zM418.3 361.3v6.5h-.8v-6.5h.8zM420.9 365.8l-.7 2.1h-.9l2.2-6.5h1l2.2 6.5h-.9l-.7-2.1h-2.2zm0-4.9c0-.6.2-1 .7-1 .2 0 .4.1.6.2.2.1.3.2.5.2s.2-.1.3-.4h.5c0 .6-.2.9-.7.9-.2 0-.4-.1-.6-.2-.2-.1-.3-.2-.5-.2s-.2.2-.3.4h-.5zm2.1 4.3l-.6-1.9-.3-1.2-.3 1.2-.6 1.9h1.8zM431.2 364.5c0 2.2-1.4 3.4-3 3.4-1.7 0-2.9-1.3-2.9-3.3 0-2.1 1.3-3.4 3-3.4s2.9 1.4 2.9 3.3zm-5.1.1c0 1.4.8 2.6 2.1 2.6s2.1-1.2 2.1-2.7c0-1.3-.7-2.7-2.1-2.7-1.4.1-2.1 1.4-2.1 2.8zM387 376.6c0-.9-.1-2-.1-2.8-.2.8-.5 1.6-.8 2.5l-1.2 3.2h-.6l-1.1-3.1c-.3-.9-.6-1.8-.8-2.5 0 .8-.1 1.9-.1 2.9l-.2 2.8h-.8l.5-6.5h1.1l1.1 3.2c.3.8.5 1.5.7 2.2.2-.7.4-1.4.7-2.2l1.2-3.2h1.1l.4 6.5h-.8l-.3-3zM392.7 376.4h-2.5v2.4h2.8v.7h-3.7V373h3.5v.7h-2.7v2.1h2.5v.6zM395.5 373.7h-2v-.7h4.8v.7h-2v5.8h-.9v-5.8zM399.1 373c.4-.1 1-.1 1.6-.1.9 0 1.5.2 1.9.5.3.3.5.7.5 1.2 0 .9-.5 1.4-1.2 1.7.5.2.8.6 1 1.3.2.9.4 1.5.5 1.8h-.9c-.1-.2-.3-.7-.4-1.6-.2-.9-.5-1.2-1.3-1.3h-.8v2.8h-.8V373zm.8 3h.9c.9 0 1.5-.5 1.5-1.2 0-.8-.6-1.2-1.5-1.2-.4 0-.7 0-.8.1v2.3zM409.9 376.2c0 2.2-1.4 3.4-3 3.4-1.7 0-2.9-1.3-2.9-3.3 0-2.1 1.3-3.4 3-3.4s2.9 1.3 2.9 3.3zm-5.1.1c0 1.4.8 2.6 2.1 2.6s2.1-1.2 2.1-2.7c0-1.3-.7-2.7-2.1-2.7-1.4 0-2.1 1.3-2.1 2.8zM411 373c.4-.1.9-.1 1.6-.1.8 0 1.4.2 1.8.5.4.3.6.8.6 1.4 0 .6-.2 1.1-.5 1.4-.4.5-1.2.7-2 .7-.3 0-.5 0-.7-.1v2.6h-.8V373zm.8 3.2c.2 0 .4.1.7.1 1 0 1.6-.5 1.6-1.4 0-.9-.6-1.3-1.5-1.3-.4 0-.6 0-.8.1v2.5zM421.7 376.2c0 2.2-1.4 3.4-3 3.4-1.7 0-2.9-1.3-2.9-3.3 0-2.1 1.3-3.4 3-3.4 1.8 0 2.9 1.3 2.9 3.3zm-5.1.1c0 1.4.8 2.6 2.1 2.6s2.1-1.2 2.1-2.7c0-1.3-.7-2.7-2.1-2.7-1.4 0-2.1 1.3-2.1 2.8zM422.8 373h.8v5.8h2.8v.7h-3.6V373zM428.2 373v6.5h-.8V373h.8zM430.9 373.7h-2v-.7h4.8v.7h-2v5.8h-.9v-5.8zM434.8 377.4l-.7 2.1h-.9l2.2-6.5h1l2.2 6.5h-.9l-.7-2.1h-2.2zm2.2-.6l-.6-1.9-.3-1.2-.3 1.2-.6 1.9h1.8zM439.7 379.5V373h.9l2.1 3.3c.5.8.9 1.5 1.2 2.1-.1-.9-.1-1.7-.1-2.7V373h.8v6.5h-.9l-2.1-3.3c-.5-.7-.9-1.5-1.2-2.2 0 .8.1 1.6.1 2.7v2.8h-.8zM447.2 377.4l-.7 2.1h-.9l2.2-6.5h1l2.2 6.5h-.9l-.7-2.1h-2.2zm2.1-.6l-.6-1.9-.3-1.2-.3 1.2-.6 1.9h1.8z"/></g><g fill="#FFF"><path d="M776.9 192.4c.4-.1 1-.1 1.6-.1.9 0 1.5.2 1.9.5.3.3.5.7.5 1.2 0 .9-.5 1.4-1.2 1.7.5.2.8.6 1 1.3.2.9.4 1.5.5 1.8h-.9c-.1-.2-.3-.7-.4-1.6-.2-.9-.5-1.2-1.3-1.3h-.8v2.8h-.8v-6.3zm.8 2.9h.9c.9 0 1.5-.5 1.5-1.2 0-.8-.6-1.2-1.5-1.2-.4 0-.7 0-.8.1v2.3zM785.5 195.7H783v2.4h2.8v.7h-3.7v-6.5h3.5v.7h-2.7v2.1h2.5v.6zM791.8 198.5c-.4.1-1.1.4-2 .4-1 0-1.8-.3-2.4-.9-.6-.5-.9-1.4-.9-2.4 0-1.9 1.3-3.4 3.5-3.4.8 0 1.3.2 1.6.3l-.2.7c-.3-.2-.8-.3-1.4-.3-1.6 0-2.6 1-2.6 2.6 0 1.7 1 2.6 2.5 2.6.6 0 .9-.1 1.1-.2V196h-1.3v-.7h2.2v3.2zM794 192.3v6.5h-.8v-6.5h.8zM796.5 196.8l-.7 2.1h-.8l2.2-6.5h1l2.2 6.5h-.9l-.7-2.1h-2.3zm0-4.9c0-.6.2-1 .7-1 .2 0 .4.1.6.2.2.1.3.2.5.2s.2-.1.3-.4h.5c0 .6-.2.9-.7.9-.2 0-.4-.1-.6-.2-.2-.1-.3-.2-.5-.2s-.2.2-.3.4h-.5zm2.1 4.2l-.6-1.9-.3-1.2-.3 1.2-.6 1.9h1.8zM806.8 195.5c0 2.2-1.4 3.4-3 3.4-1.7 0-2.9-1.3-2.9-3.3 0-2.1 1.3-3.4 3-3.4 1.8 0 2.9 1.3 2.9 3.3zm-5.1.1c0 1.4.8 2.6 2.1 2.6s2.1-1.2 2.1-2.7c0-1.3-.7-2.7-2.1-2.7-1.4.1-2.1 1.3-2.1 2.8zM810 198.8v-6.5h.9l2.1 3.3c.5.8.9 1.5 1.2 2.1-.1-.9-.1-1.7-.1-2.7v-2.7h.8v6.5h-.9l-2.1-3.3c-.5-.7-.9-1.5-1.2-2.2 0 .8.1 1.6.1 2.7v2.8h-.8zM821.9 195.5c0 2.2-1.4 3.4-3 3.4-1.7 0-2.9-1.3-2.9-3.3 0-2.1 1.3-3.4 3-3.4 1.8 0 2.9 1.3 2.9 3.3zm-5 .1c0 1.4.8 2.6 2.1 2.6s2.1-1.2 2.1-2.7c0-1.3-.7-2.7-2.1-2.7-1.4.1-2.1 1.3-2.1 2.8zM823 192.4c.4-.1 1-.1 1.6-.1.9 0 1.5.2 1.9.5.3.3.5.7.5 1.2 0 .9-.5 1.4-1.2 1.7.5.2.8.6 1 1.3.2.9.4 1.5.5 1.8h-.9c-.1-.2-.3-.7-.4-1.6-.2-.9-.5-1.2-1.3-1.3h-.8v2.8h-.9v-6.3zm.9 2.9h.9c.9 0 1.5-.5 1.5-1.2 0-.8-.6-1.2-1.5-1.2-.4 0-.7 0-.8.1v2.3zM829.6 193h-2v-.7h4.8v.7h-2v5.8h-.9V193zM836.5 195.7H834v2.4h2.8v.7h-3.7v-6.5h3.5v.7H834v2.1h2.5v.6z"/></g><g fill="#FFF"><path d="M677.5 75.2c.4-.1 1-.1 1.6-.1.9 0 1.5.2 1.9.5.3.3.5.7.5 1.2 0 .9-.5 1.4-1.2 1.7.5.2.8.6 1 1.3.2.9.4 1.5.5 1.8h-.9c-.1-.2-.3-.7-.4-1.6-.2-.9-.5-1.2-1.3-1.3h-.8v2.8h-.8v-6.3zm.8 3h.9c.9 0 1.5-.5 1.5-1.2 0-.8-.6-1.2-1.5-1.2-.4 0-.7 0-.8.1v2.3zM686 78.6h-2.5V81h2.8v.7h-3.7v-6.5h3.5v.7h-2.7V78h2.5v.6zM692.4 81.3c-.4.1-1.1.4-2 .4-1 0-1.8-.3-2.4-.9-.6-.5-.9-1.4-.9-2.4 0-1.9 1.3-3.4 3.5-3.4.8 0 1.3.2 1.6.3l-.2.7c-.3-.2-.8-.3-1.4-.3-1.6 0-2.6 1-2.6 2.6 0 1.7 1 2.6 2.5 2.6.6 0 .9-.1 1.1-.2v-1.9h-1.3v-.7h2.2v3.2zM694.5 75.1v6.5h-.8v-6.5h.8zM697.1 79.6l-.7 2.1h-.9l2.2-6.5h1l2.2 6.5h-.9l-.7-2.1h-2.2zm0-4.9c0-.6.2-1 .7-1 .2 0 .4.1.6.2.2.1.3.2.5.2s.2-.1.3-.4h.5c0 .6-.2.9-.7.9-.2 0-.4-.1-.6-.2-.2-.1-.3-.2-.5-.2s-.2.2-.3.4h-.5zm2.1 4.2l-.6-1.9-.3-1.2-.3 1.2-.6 1.9h1.8zM707.4 78.3c0 2.2-1.4 3.4-3 3.4-1.7 0-2.9-1.3-2.9-3.3 0-2.1 1.3-3.4 3-3.4s2.9 1.4 2.9 3.3zm-5.1.1c0 1.4.8 2.6 2.1 2.6s2.1-1.2 2.1-2.7c0-1.3-.7-2.7-2.1-2.7-1.4.1-2.1 1.4-2.1 2.8zM710.5 81.6v-6.5h.9l2.1 3.3c.5.8.9 1.5 1.2 2.1-.1-.9-.1-1.7-.1-2.7v-2.7h.8v6.5h-.9l-2.1-3.3c-.5-.7-.9-1.5-1.2-2.2 0 .8.1 1.6.1 2.7v2.8h-.8zM722.5 78.3c0 2.2-1.4 3.4-3 3.4-1.7 0-2.9-1.3-2.9-3.3 0-2.1 1.3-3.4 3-3.4s2.9 1.4 2.9 3.3zm-5.1.1c0 1.4.8 2.6 2.1 2.6s2.1-1.2 2.1-2.7c0-1.3-.7-2.7-2.1-2.7-1.4.1-2.1 1.4-2.1 2.8zM723.6 75.2c.4-.1 1-.1 1.6-.1.9 0 1.5.2 1.9.5.3.3.5.7.5 1.2 0 .9-.5 1.4-1.2 1.7.5.2.8.6 1 1.3.2.9.4 1.5.5 1.8h-.9c-.1-.2-.3-.7-.4-1.6-.2-.9-.5-1.2-1.3-1.3h-.8v2.8h-.8v-6.3zm.8 3h.9c.9 0 1.5-.5 1.5-1.2 0-.8-.6-1.2-1.5-1.2-.4 0-.7 0-.8.1v2.3zM734.4 78.3c0 2.2-1.4 3.4-3 3.4-1.7 0-2.9-1.3-2.9-3.3 0-2.1 1.3-3.4 3-3.4 1.8 0 2.9 1.4 2.9 3.3zm-5.1.1c0 1.4.8 2.6 2.1 2.6s2.1-1.2 2.1-2.7c0-1.3-.7-2.7-2.1-2.7-1.4.1-2.1 1.4-2.1 2.8zM738.9 78.6h-2.5V81h2.8v.7h-3.7v-6.5h3.5v.7h-2.7V78h2.5v.6zM740.2 80.6c.4.2.9.4 1.5.4.9 0 1.4-.5 1.4-1.1 0-.6-.3-1-1.2-1.3-1.1-.4-1.7-.9-1.7-1.9 0-1 .8-1.8 2.1-1.8.7 0 1.2.2 1.4.3l-.2.7c-.2-.1-.6-.3-1.2-.3-.9 0-1.2.5-1.2 1 0 .6.4.9 1.3 1.3 1.1.4 1.7 1 1.7 1.9 0 1-.7 1.9-2.3 1.9-.6 0-1.3-.2-1.7-.4l.1-.7zM746.3 75.8h-2v-.7h4.8v.7h-2v5.8h-.9v-5.8zM753.3 78.6h-2.5V81h2.8v.7h-3.7v-6.5h3.5v.7h-2.7V78h2.5v.6z"/></g><g fill="#FFF"><path d="M451.1 244.1c.4-.1 1-.1 1.6-.1.9 0 1.5.2 1.9.5.3.3.5.7.5 1.2 0 .9-.5 1.4-1.2 1.7.5.2.8.6 1 1.3.2.9.4 1.5.5 1.8h-.9c-.1-.2-.3-.7-.4-1.6-.2-.9-.5-1.2-1.3-1.3h-.8v2.8h-.8v-6.3zm.8 3h.9c.9 0 1.5-.5 1.5-1.2 0-.8-.6-1.2-1.5-1.2-.4 0-.7 0-.8.1v2.3zM459.7 247.5h-2.5v2.4h2.8v.7h-3.7v-6.5h3.5v.7h-2.7v2.1h2.5v.6zM466 250.3c-.4.1-1.1.4-2 .4-1 0-1.8-.3-2.4-.9-.6-.5-.9-1.4-.9-2.4 0-1.9 1.3-3.4 3.5-3.4.8 0 1.3.2 1.6.3l-.2.7c-.3-.2-.8-.3-1.4-.3-1.6 0-2.6 1-2.6 2.6 0 1.7 1 2.6 2.5 2.6.6 0 .9-.1 1.1-.2v-1.9h-1.3v-.7h2.2v3.2zM468.2 244.1v6.5h-.8v-6.5h.8zM470.7 248.5l-.7 2.1h-.9l2.2-6.5h1l2.2 6.5h-.9l-.7-2.1h-2.2zm0-4.8c0-.6.2-1 .7-1 .2 0 .4.1.6.2.2.1.3.2.5.2s.2-.1.3-.4h.5c0 .6-.2.9-.7.9-.2 0-.4-.1-.6-.2-.2-.1-.3-.2-.5-.2s-.2.2-.3.4h-.5zm2.1 4.2l-.6-1.9-.3-1.2-.3 1.2-.6 1.9h1.8zM481 247.3c0 2.2-1.4 3.4-3 3.4-1.7 0-2.9-1.3-2.9-3.3 0-2.1 1.3-3.4 3-3.4 1.8 0 2.9 1.3 2.9 3.3zm-5.1.1c0 1.4.8 2.6 2.1 2.6s2.1-1.2 2.1-2.7c0-1.3-.7-2.7-2.1-2.7-1.4 0-2.1 1.3-2.1 2.8zM445.1 262c-.3.2-.9.3-1.7.3-1.8 0-3.2-1.2-3.2-3.3 0-2 1.4-3.4 3.4-3.4.8 0 1.3.2 1.6.3l-.2.7c-.3-.2-.8-.3-1.3-.3-1.5 0-2.6 1-2.6 2.7 0 1.6.9 2.6 2.5 2.6.5 0 1-.1 1.4-.3l.1.7zM449.5 259.2H447v2.4h2.8v.7h-3.7v-6.5h3.5v.7H447v2.1h2.5v.6zM450.9 262.2v-6.5h.9l2.1 3.3c.5.8.9 1.5 1.2 2.1-.1-.9-.1-1.7-.1-2.7v-2.7h.8v6.5h-.8l-2.1-3.3c-.5-.7-.9-1.5-1.2-2.2 0 .8.1 1.6.1 2.7v2.8h-.9zM458.5 256.4h-2v-.7h4.8v.7h-2v5.8h-.9v-5.8zM462.1 255.8c.4-.1 1-.1 1.6-.1.9 0 1.5.2 1.9.5.3.3.5.7.5 1.2 0 .9-.5 1.4-1.2 1.7.5.2.8.6 1 1.3.2.9.4 1.5.5 1.8h-.9c-.1-.2-.3-.7-.4-1.6-.2-.9-.5-1.2-1.3-1.3h-.8v2.8h-.8v-6.3zm.9 3h.9c.9 0 1.5-.5 1.5-1.2 0-.8-.6-1.2-1.5-1.2-.4 0-.7 0-.8.1v2.3zM472.9 258.9c0 2.2-1.4 3.4-3 3.4-1.7 0-2.9-1.3-2.9-3.3 0-2.1 1.3-3.4 3-3.4 1.8 0 2.9 1.4 2.9 3.3zm-5 .1c0 1.4.8 2.6 2.1 2.6s2.1-1.2 2.1-2.7c0-1.3-.7-2.7-2.1-2.7-1.4.1-2.1 1.4-2.1 2.8zM476 258.6v.6h-2.4v-.6h2.4zM476.9 261.2c.4.2.9.4 1.5.4.9 0 1.4-.5 1.4-1.1 0-.6-.3-1-1.2-1.3-1.1-.4-1.7-.9-1.7-1.9 0-1 .8-1.8 2.1-1.8.7 0 1.2.2 1.4.3l-.2.7c-.2-.1-.6-.3-1.2-.3-.9 0-1.2.5-1.2 1 0 .6.4.9 1.3 1.3 1.1.4 1.7 1 1.7 1.9 0 1-.7 1.9-2.3 1.9-.6 0-1.3-.2-1.7-.4l.1-.7zM482.6 255.7v3.9c0 1.5.6 2.1 1.5 2.1 1 0 1.6-.6 1.6-2.1v-3.9h.9v3.8c0 2-1.1 2.8-2.5 2.8-1.3 0-2.3-.8-2.3-2.8v-3.9h.8zM488.1 255.7h.8v5.8h2.8v.7h-3.6v-6.5z"/></g><g fill="#FFF"><path d="M272.6 288.5c.4-.1 1-.1 1.6-.1.9 0 1.5.2 1.9.5.3.3.5.7.5 1.2 0 .9-.5 1.4-1.2 1.7.5.2.8.6 1 1.3.2.9.4 1.5.5 1.8h-.9c-.1-.2-.3-.7-.4-1.6-.2-.9-.5-1.2-1.3-1.3h-.8v2.8h-.8v-6.3zm.8 2.9h.9c.9 0 1.5-.5 1.5-1.2 0-.8-.6-1.2-1.5-1.2-.4 0-.7 0-.8.1v2.3zM281.2 291.8h-2.5v2.4h2.8v.7h-3.7v-6.5h3.5v.7h-2.7v2.1h2.5v.6zM287.5 294.6c-.4.1-1.1.4-2 .4-1 0-1.8-.3-2.4-.9-.6-.5-.9-1.4-.9-2.4 0-1.9 1.3-3.4 3.5-3.4.8 0 1.3.2 1.6.3l-.2.7c-.3-.2-.8-.3-1.4-.3-1.6 0-2.6 1-2.6 2.6 0 1.7 1 2.6 2.5 2.6.6 0 .9-.1 1.1-.2v-1.9h-1.3v-.7h2.2v3.2zM289.7 288.4v6.5h-.8v-6.5h.8zM292.2 292.9l-.7 2.1h-.9l2.2-6.5h1l2.2 6.5h-.9l-.7-2.1h-2.2zm0-4.9c0-.6.2-1 .7-1 .2 0 .4.1.6.2.2.1.3.2.5.2s.2-.1.3-.4h.5c0 .6-.2.9-.7.9-.2 0-.4-.1-.6-.2-.2-.1-.3-.2-.5-.2s-.2.2-.3.4h-.5zm2.1 4.2l-.6-1.9-.3-1.2-.3 1.2-.6 1.9h1.8zM302.5 291.6c0 2.2-1.4 3.4-3 3.4-1.7 0-2.9-1.3-2.9-3.3 0-2.1 1.3-3.4 3-3.4 1.8 0 2.9 1.3 2.9 3.3zm-5.1.1c0 1.4.8 2.6 2.1 2.6s2.1-1.2 2.1-2.7c0-1.3-.7-2.7-2.1-2.7-1.4.1-2.1 1.3-2.1 2.8zM311.2 292c0-.9-.1-2-.1-2.8-.2.8-.5 1.6-.8 2.5l-1.2 3.2h-.6l-1.1-3.1c-.3-.9-.6-1.8-.8-2.5 0 .8-.1 1.9-.1 2.9l-.2 2.8h-.8l.5-6.5h1.1l1.1 3.2c.3.8.5 1.5.7 2.2.2-.7.4-1.4.7-2.2l1.2-3.2h1.1l.4 6.5h-.8l-.3-3zM316.8 291.8h-2.5v2.4h2.8v.7h-3.7v-6.5h3.5v.7h-2.7v2.1h2.5v.6zm-.1-4.9l-1.2 1.1h-.7l.9-1.1h1zM318.2 288.5c.5-.1 1.1-.1 1.8-.1 1.2 0 2.1.3 2.6.8.6.5.9 1.3.9 2.3 0 1.1-.3 1.9-.9 2.5-.6.6-1.6.9-2.9.9-.6 0-1.1 0-1.5-.1v-6.3zm.9 5.7h.9c1.8 0 2.8-1 2.8-2.8 0-1.5-.9-2.5-2.6-2.5-.4 0-.8 0-1 .1v5.2zM325.5 288.4v6.5h-.8v-6.5h.8zM332.6 291.6c0 2.2-1.4 3.4-3 3.4-1.7 0-2.9-1.3-2.9-3.3 0-2.1 1.3-3.4 3-3.4s2.9 1.3 2.9 3.3zm-5.1.1c0 1.4.8 2.6 2.1 2.6s2.1-1.2 2.1-2.7c0-1.3-.7-2.7-2.1-2.7-1.4.1-2.1 1.3-2.1 2.8zM285.6 300.1c.4-.1.9-.1 1.6-.1.8 0 1.4.2 1.8.5.4.3.6.8.6 1.4 0 .6-.2 1.1-.5 1.4-.4.5-1.2.7-2 .7-.3 0-.5 0-.7-.1v2.6h-.8v-6.4zm.9 3.1c.2 0 .4.1.7.1 1 0 1.6-.5 1.6-1.4 0-.9-.6-1.3-1.5-1.3-.4 0-.6 0-.8.1v2.5zM291 304.5l-.7 2.1h-.9l2.2-6.5h1l2.2 6.5h-.8l-.7-2.1H291zm2.2-.7l-.6-1.9-.3-1.2-.3 1.2-.6 1.9h1.8zM295.9 300.1c.4-.1 1-.1 1.6-.1.9 0 1.5.2 1.9.5.3.3.5.7.5 1.2 0 .9-.5 1.4-1.2 1.7.5.2.8.6 1 1.3.2.9.4 1.5.5 1.8h-.9c-.1-.2-.3-.7-.4-1.6-.2-.9-.5-1.2-1.3-1.3h-.8v2.8h-.8v-6.3zm.9 3h.9c.9 0 1.5-.5 1.5-1.2 0-.8-.6-1.2-1.5-1.2-.4 0-.7 0-.8.1v2.3zM302.2 304.5l-.7 2.1h-.9l2.2-6.5h1l2.2 6.5h-.9l-.7-2.1h-2.2zm2.2-.7l-.6-1.9-.3-1.2-.3 1.2-.6 1.9h1.8zM308.9 298.5l-1.2 1.1h-.7l.9-1.1h1zm-1 1.5v6.5h-.8V300h.8zM309.4 300.1c.4-.1 1-.1 1.5-.1.8 0 1.4.1 1.8.5.3.3.5.6.5 1.2s-.4 1.2-1.1 1.4c.6.2 1.3.7 1.3 1.6 0 .6-.2 1-.6 1.3-.5.4-1.2.6-2.3.6-.6 0-1 0-1.3-.1v-6.4zm.9 2.7h.8c.9 0 1.4-.5 1.4-1.1 0-.8-.6-1.1-1.4-1.1-.4 0-.6 0-.7.1v2.1zm0 3.1h.7c.9 0 1.7-.3 1.7-1.3 0-.9-.8-1.3-1.7-1.3h-.7v2.6zM315.7 304.5l-.7 2.1h-.9l2.2-6.5h1l2.2 6.5h-.9l-.7-2.1h-2.2zm2.2-.7l-.6-1.9-.3-1.2-.3 1.2-.6 1.9h1.8z"/></g><g fill="#FFF"><path d="M204.7 395.9c.4-.1 1-.1 1.6-.1.9 0 1.5.2 1.9.5.3.3.5.7.5 1.2 0 .9-.5 1.4-1.2 1.7.5.2.8.6 1 1.3.2.9.4 1.5.5 1.8h-.9c-.1-.2-.3-.7-.4-1.6-.2-.9-.5-1.2-1.3-1.3h-.8v2.8h-.8v-6.3zm.9 3h.9c.9 0 1.5-.5 1.5-1.2 0-.8-.6-1.2-1.5-1.2-.4 0-.7 0-.8.1v2.3zM213.3 399.3h-2.5v2.4h2.8v.7h-3.7v-6.5h3.5v.7h-2.7v2.1h2.5v.6zM219.7 402.1c-.4.1-1.1.4-2 .4-1 0-1.8-.3-2.4-.9-.6-.5-.9-1.4-.9-2.4 0-1.9 1.3-3.4 3.5-3.4.8 0 1.3.2 1.6.3l-.2.7c-.3-.2-.8-.3-1.4-.3-1.6 0-2.6 1-2.6 2.6 0 1.7 1 2.6 2.5 2.6.6 0 .9-.1 1.1-.2v-1.9h-1.3v-.7h2.2v3.2zM221.8 395.8v6.5h-.8v-6.5h.8zM224.3 400.3l-.7 2.1h-.9l2.2-6.5h1l2.2 6.5h-.9l-.7-2.1h-2.2zm0-4.9c0-.6.2-1 .7-1 .2 0 .4.1.6.2.2.1.3.2.5.2s.2-.1.3-.4h.5c0 .6-.2.9-.7.9-.2 0-.4-.1-.6-.2-.2-.1-.3-.2-.5-.2s-.2.2-.3.4h-.5zm2.2 4.3l-.6-1.9-.3-1.2-.3 1.2-.6 1.9h1.8zM234.6 399c0 2.2-1.4 3.4-3 3.4-1.7 0-2.9-1.3-2.9-3.3 0-2.1 1.3-3.4 3-3.4 1.8 0 2.9 1.4 2.9 3.3zm-5 .1c0 1.4.8 2.6 2.1 2.6s2.1-1.2 2.1-2.7c0-1.3-.7-2.7-2.1-2.7-1.4.1-2.1 1.4-2.1 2.8zM237.7 401.3c.4.2.9.4 1.5.4.9 0 1.4-.5 1.4-1.1 0-.6-.3-1-1.2-1.3-1.1-.4-1.7-.9-1.7-1.9 0-1 .8-1.8 2.1-1.8.7 0 1.2.2 1.4.3l-.2.7c-.2-.1-.6-.3-1.2-.3-.9 0-1.2.5-1.2 1 0 .6.4.9 1.3 1.3 1.1.4 1.7 1 1.7 1.9 0 1-.7 1.9-2.3 1.9-.6 0-1.3-.2-1.7-.4l.1-.7zM243.4 395.8v3.9c0 1.5.6 2.1 1.5 2.1 1 0 1.6-.6 1.6-2.1v-3.9h.9v3.8c0 2-1.1 2.8-2.5 2.8-1.3 0-2.3-.8-2.3-2.8v-3.8h.8zM248.8 395.8h.8v5.8h2.8v.7h-3.6v-6.5z"/></g><path fill="#0B4B64" d="M882 93.7l-.5-.5 13.8-18 36.8-26.5 27.6-11 .3.6-27.7 11.1-36.6 26.3z"/><circle fill="#FFF" cx="413.4" cy="404.5" r="3"/><circle fill="#FFF" cx="211.2" cy="459.8" r="3"/><circle fill="#FFF" cx="266.1" cy="272.4" r="3"/><circle fill="#FFF" cx="542.4" cy="390.6" r="3"/><circle fill="#FFF" cx="718.4" cy="277.9" r="3"/><g fill="#231F20"><path d="M528 411.3c-.2 0-.4 0-.6-.1-.2 0-.3-.1-.4-.2l.1-.4c.1.1.2.1.3.1.1 0 .3.1.4.1.2 0 .4-.1.6-.2.1-.1.2-.3.2-.6 0-.2-.1-.3-.2-.5-.1-.1-.3-.2-.6-.4-.3-.1-.5-.3-.7-.5-.1-.2-.2-.4-.2-.7 0-.3.1-.6.3-.9.2-.2.5-.4.9-.4.2 0 .4 0 .5.1.1 0 .3.1.4.2l-.1.4c-.1-.1-.2-.1-.3-.1-.1 0-.2-.1-.4-.1s-.4.1-.5.2c-.1.1-.2.3-.2.5s.1.4.2.5c.1.1.3.2.6.4.3.1.5.3.7.5.1.2.2.4.2.7 0 .4-.1.7-.4.9-.1.4-.5.5-.8.5zM532.8 411.2l-.4-1.3h-1.5l-.4 1.3h-.5l1.5-4.3h.5l1.4 4.3h-.6zm-1-3.2c-.1-.2-.1-.3-.1-.4v-.2.2c0 .1-.1.2-.1.3l-.5 1.6h1.3l-.6-1.5zM536.4 411.1l.7.9-.4.4-.6-1.2c-.1 0-.3.1-.4.1-.5 0-.9-.2-1.2-.6-.3-.4-.4-.9-.4-1.6 0-.7.1-1.2.4-1.6.3-.4.6-.6 1.2-.6.5 0 .9.2 1.2.6.3.4.4.9.4 1.6 0 .5-.1.9-.2 1.2-.2.3-.5.6-.7.8zm-.8-3.9c-.4 0-.6.2-.8.5s-.2.8-.2 1.3.1 1 .2 1.3c.1.3.4.5.8.5s.6-.2.8-.5c.1-.3.2-.8.2-1.3s-.1-1-.2-1.3c-.1-.3-.4-.5-.8-.5zM539.6 411.3c-.4 0-.7-.1-1-.4-.2-.2-.4-.6-.4-.9v-3.1h.6v3.1c0 .3.1.5.2.6.2.2.3.2.6.2.2 0 .4-.1.6-.2.2-.2.2-.4.2-.6v-3.1h.5v3.1c0 .4-.1.7-.4.9-.2.3-.5.4-.9.4zM544.6 411.2l-.4-1.3h-1.5l-.4 1.3h-.5l1.5-4.3h.5l1.4 4.3h-.6zm-1-3.2c-.1-.2-.1-.3-.1-.4v-.2.2c0 .1-.1.2-.1.3l-.5 1.6h1.3l-.6-1.5zM548 411.2l-1.4-2v2h-.6v-4.1c.1-.1.3-.1.5-.2.2 0 .4-.1.6-.1.5 0 .8.1 1.1.3.3.2.4.5.4.9s-.1.6-.4.9c-.2.2-.6.3-.9.3l1.4 1.9h-.7zm-.9-4c-.2 0-.4 0-.5.1v1.8h.4c.3 0 .6-.1.8-.2.2-.2.3-.4.3-.7-.1-.7-.4-1-1-1zM549.6 411.2v-4.3h2v.4h-1.4v1.5h1.3v.4h-1.3v1.6h1.4v.4h-2zM556.2 411.2l-.3-3.2v-.3-.2c0 .1 0 .1-.1.2 0 .1 0 .2-.1.3l-.9 3.2h-.4l-.9-3.2c0-.1-.1-.2-.1-.3v-.2.5l-.3 3.2h-.5l.5-4.3h.6l.9 3.1c0 .1.1.2.1.3v0c0-.1 0-.2.1-.3l.9-3.1h.6l.5 4.3h-.6zM560.2 411.2l-.4-1.3h-1.5l-.4 1.3h-.5l1.5-4.3h.5l1.4 4.3h-.6zm-1-3.2c-.1-.2-.1-.3-.1-.4v-.2.2c0 .1-.1.2-.1.3l-.5 1.6h1.3l-.6-1.5z"/></g><g fill="#231F20"><path d="M744.7 294.7l-.3-3.2v-.3-.2c0 .1 0 .1-.1.2 0 .1 0 .2-.1.3l-.9 3.2h-.4l-.9-3.2c0-.1-.1-.2-.1-.3v-.2.5l-.3 3.2h-.6l.5-4.3h.6l.9 3.1c0 .1.1.2.1.3v0c0-.1 0-.2.1-.3l.9-3.1h.6l.5 4.3h-.5zM748.7 294.7l-.4-1.3h-1.5l-.4 1.3h-.5l1.5-4.3h.5l1.4 4.3h-.6zm-1-3.3c-.1-.2-.1-.3-.1-.4v-.2.2c0 .1-.1.2-.1.3l-.5 1.6h1.3l-.6-1.5zM751.6 294.8c-.5 0-.9-.2-1.2-.6-.3-.4-.4-.9-.4-1.6 0-.6.1-1.2.4-1.6.3-.4.7-.6 1.2-.6.2 0 .3 0 .5.1.1 0 .3.1.4.2l-.1.3c-.1 0-.2-.1-.3-.1-.1 0-.2-.1-.3-.1-.4 0-.7.2-.8.5-.2.3-.3.8-.3 1.3s.1.9.3 1.3c.2.3.5.5.8.5h.3c.1 0 .2-.1.3-.1l.2.4c-.1.1-.2.1-.4.2-.2-.2-.4-.1-.6-.1zM755.8 294.7l-.4-1.3H754l-.4 1.3h-.5l1.5-4.3h.5l1.4 4.3h-.7zm-1-3.3c-.1-.2-.1-.3-.1-.4v-.2.2c0 .1-.1.2-.1.3l-.5 1.6h1.3l-.6-1.5zM757.3 294.7v-4.3h2v.4h-1.4v1.5h1.3v.4h-1.3v1.6h1.4v.4h-2zm1-4.6h-.3l.4-.9c.1-.1.2-.1.4-.1.1 0 .2 0 .2.1l-.7.9z"/></g><g fill="#231F20"><path d="M394.6 430.6l-1.4-2v2h-.6v-4.1c.1-.1.3-.1.5-.2.2 0 .4-.1.6-.1.5 0 .8.1 1.1.3.3.2.4.5.4.9s-.1.6-.4.9c-.2.2-.6.3-.9.3l1.4 1.9h-.7zm-.9-4c-.2 0-.4 0-.5.1v1.8h.4c.3 0 .6-.1.8-.2.2-.2.3-.4.3-.7-.1-.7-.4-1-1-1zM396.2 430.6v-4.3h.6v4.3h-.6zM399.5 430.7c-.5 0-.9-.2-1.2-.6-.3-.4-.4-.9-.4-1.6 0-.7.1-1.2.4-1.6.3-.4.6-.6 1.2-.6.5 0 .9.2 1.2.6.3.4.4.9.4 1.6 0 .7-.1 1.2-.4 1.6-.3.4-.7.6-1.2.6zm0-4.1c-.4 0-.6.2-.8.5-.1.3-.2.8-.2 1.3s.1 1 .2 1.3c.1.3.4.5.8.5s.6-.2.8-.5c.1-.3.2-.8.2-1.3s-.1-.9-.2-1.3c-.2-.3-.5-.5-.8-.5zM405.2 430.7c-.2 0-.5 0-.7-.1-.2 0-.3-.1-.5-.2v-3.9c.3-.2.7-.2 1.1-.2.6 0 1 .2 1.3.6.3.4.5.9.5 1.6 0 .7-.1 1.2-.4 1.6s-.7.6-1.3.6zm-.1-4.1c-.2 0-.4 0-.5.1v3.5c.1.1.3.1.5.1.4 0 .7-.2.9-.5.2-.3.3-.8.3-1.4 0-1.2-.4-1.8-1.2-1.8zM408 430.6v-4.3h2v.4h-1.4v1.5h1.3v.4h-1.3v1.6h1.4v.4h-2zM412.2 432v-.4c.2-.1.4-.2.6-.4.1-.2.2-.4.2-.7v-4.1h.6v4.1c0 .4-.1.8-.4 1.1-.3.1-.6.3-1 .4zM417.2 430.6l-.4-1.3h-1.5l-.4 1.3h-.5l1.5-4.3h.5l1.4 4.3h-.6zm-1-3.3c-.1-.2-.1-.3-.1-.4v-.2.2c0 .1-.1.2-.1.3l-.5 1.6h1.3l-.6-1.5zM421.3 430.6l-1.8-3.1c0-.1-.1-.2-.1-.3-.1-.1-.1-.2-.1-.3v3.6h-.5v-4.3h.6l1.8 3c.1.1.1.2.2.3 0 .1.1.1.1.2v-.2-3.3h.5v4.3h-.7zM423 430.6v-4.3h2v.4h-1.4v1.5h1.3v.4h-1.3v1.6h1.4v.4h-2zM426 430.6v-4.3h.6v4.3h-.6zM429.8 430.6l-1.4-2v2h-.6v-4.1c.1-.1.3-.1.5-.2.2 0 .4-.1.6-.1.5 0 .8.1 1.1.3.3.2.4.5.4.9s-.1.6-.4.9c-.2.2-.6.3-.9.3l1.4 1.9h-.7zm-.9-4c-.2 0-.4 0-.5.1v1.8h.4c.3 0 .6-.1.8-.2.2-.2.3-.4.3-.7-.1-.7-.4-1-1-1zM432.8 430.7c-.5 0-.9-.2-1.2-.6s-.4-.9-.4-1.6c0-.7.1-1.2.4-1.6.3-.4.6-.6 1.2-.6.5 0 .9.2 1.2.6.3.4.4.9.4 1.6 0 .7-.1 1.2-.4 1.6-.3.4-.6.6-1.2.6zm0-4.1c-.4 0-.6.2-.8.5s-.2.8-.2 1.3.1 1 .2 1.3c.1.3.4.5.8.5s.6-.2.8-.5c.1-.3.2-.8.2-1.3s-.1-.9-.2-1.3c-.2-.3-.4-.5-.8-.5z"/></g><g fill="#231F20"><path d="M256.7 260.4l-1.4-2v2h-.6v-4.1c.1-.1.3-.1.5-.2.2 0 .4-.1.6-.1.5 0 .8.1 1.1.3.3.2.4.5.4.9s-.1.6-.4.9c-.2.2-.6.3-.9.3l1.4 1.9h-.7zm-.9-4c-.2 0-.4 0-.5.1v1.8h.4c.3 0 .6-.1.8-.2.2-.2.3-.4.3-.7-.1-.6-.4-1-1-1zM258.4 260.4v-4.3h2v.4H259v1.5h1.3v.4H259v1.6h1.4v.4h-2zM262.2 260.5c-.2 0-.4 0-.6-.1-.2 0-.3-.1-.4-.2l.1-.4c.1.1.2.1.3.1.1 0 .3.1.4.1.2 0 .4-.1.6-.2.1-.1.2-.3.2-.6 0-.2-.1-.3-.2-.5-.1-.1-.3-.2-.6-.4-.3-.1-.5-.3-.7-.5-.1-.2-.2-.4-.2-.7 0-.3.1-.6.3-.9.2-.2.5-.4.9-.4.2 0 .4 0 .5.1.1 0 .3.1.4.2l-.1.4c-.1-.1-.2-.1-.3-.1-.1 0-.2-.1-.4-.1s-.4.1-.5.2c-.1.1-.2.3-.2.5s.1.4.2.5c.1.1.3.2.6.4.3.1.5.3.7.5.1.2.2.4.2.7 0 .4-.1.7-.4.9-.1.4-.5.5-.8.5zM264.5 260.4v-4.3h2v.4h-1.4v1.5h1.3v.4h-1.3v1.6h1.4v.4h-2zM270.1 260.4l-1.8-3.1c0-.1-.1-.2-.1-.3-.1-.1-.1-.2-.1-.3v3.6h-.5V256h.6l1.8 3c.1.1.1.2.2.3 0 .1.1.1.1.2v-.2-3.3h.5v4.3h-.7zM272.9 260.5c-.2 0-.5 0-.7-.1-.2 0-.3-.1-.5-.2v-3.9c.3-.2.7-.2 1.1-.2.6 0 1 .2 1.3.6.3.4.5.9.5 1.6 0 .7-.1 1.2-.4 1.6s-.7.6-1.3.6zm0-4c-.2 0-.4 0-.5.1v3.5c.1.1.3.1.5.1.4 0 .7-.2.9-.5.2-.3.3-.8.3-1.4 0-1.2-.4-1.8-1.2-1.8zM275.8 260.4v-4.3h2v.4h-1.4v1.5h1.3v.4h-1.3v1.6h1.4v.4h-2z"/></g><circle fill="#FFF" cx="536.9" cy="219.4" r="3"/><circle fill="#FFF" cx="734.9" cy="42.5" r="3"/><circle fill="#FFF" cx="480.1" cy="297.7" r="3"/><g fill="#231F20"><path d="M524.6 200.6c-.2 0-.4 0-.6-.1-.2 0-.3-.1-.4-.2l.1-.4c.1.1.2.1.3.1.1 0 .3.1.4.1.2 0 .4-.1.6-.2.1-.1.2-.3.2-.6 0-.2-.1-.3-.2-.5-.1-.1-.3-.2-.6-.4-.3-.1-.5-.3-.7-.5-.1-.2-.2-.4-.2-.7 0-.3.1-.6.3-.9.2-.2.5-.4.9-.4.2 0 .4 0 .5.1.1 0 .3.1.4.2l-.1.4c-.1-.1-.2-.1-.3-.1-.1 0-.2-.1-.4-.1s-.4.1-.5.2c-.1.1-.2.3-.2.5s.1.4.2.5c.1.1.3.2.6.4.3.1.5.3.7.5.1.2.2.4.2.7 0 .4-.1.7-.4.9-.1.4-.4.5-.8.5zM529.5 200.6l-.4-1.3h-1.5l-.4 1.3h-.5l1.5-4.3h.5l1.4 4.3h-.6zm-1-3.3c-.1-.2-.1-.3-.1-.4v-.2.2c0 .1-.1.2-.1.3l-.5 1.6h1.3l-.6-1.5zM531.6 198.8h-.2v1.8h-.6v-4.1c.1-.1.3-.1.5-.2.2 0 .4-.1.6-.1.5 0 .9.1 1.1.4.2.2.4.6.4.9 0 .4-.1.7-.4.9-.2.2-.6.4-1.1.4h-.3zm.3-2.2h-.3c-.1 0-.1 0-.2.1v1.8h.4c.3 0 .6-.1.8-.3.2-.2.2-.4.2-.7 0-.3-.1-.6-.2-.7-.1-.2-.3-.2-.7-.2zM535.7 200.6c-.4 0-.7-.1-1-.4-.2-.2-.4-.6-.4-.9v-3.1h.6v3.1c0 .3.1.5.2.6.2.2.3.2.6.2.2 0 .4-.1.6-.2.2-.2.2-.4.2-.6v-3.1h.5v3.1c0 .4-.1.7-.4.9-.1.3-.4.4-.9.4zM539.8 200.6c-.5 0-.9-.2-1.2-.6-.3-.4-.4-.9-.4-1.6 0-.6.1-1.2.4-1.6.3-.4.7-.6 1.2-.6.2 0 .3 0 .5.1.1 0 .3.1.4.2l-.1.3c-.1 0-.2-.1-.3-.1-.1 0-.2-.1-.3-.1-.4 0-.7.2-.8.5-.2.3-.3.8-.3 1.3s.1.9.3 1.3c.2.3.5.5.8.5h.3c.1 0 .2-.1.3-.1l.2.4c-.1.1-.2.1-.4.2-.3-.1-.5-.1-.6-.1zM544 200.6l-.4-1.3h-1.5l-.4 1.3h-.5l1.5-4.3h.5l1.4 4.3h-.6zm-1-3.3c-.1-.2-.1-.3-.1-.4v-.2.2c0 .1-.1.2-.1.3l-.5 1.6h1.3l-.6-1.5zM545.4 200.6v-4.3h.6v4.3h-.6zM549.7 200.6l-.4-1.3h-1.5l-.4 1.3h-.5l1.5-4.3h.5l1.4 4.3h-.6zm-1-3.3c-.1-.2-.1-.3-.1-.4v-.2.2c0 .1-.1.2-.1.3l-.5 1.6h1.3l-.6-1.5z"/></g><g fill="#231F20"><path d="M760.2 36.2c-.2 0-.5 0-.7-.1-.2 0-.4-.1-.5-.2V32c.1-.1.3-.1.5-.2.2 0 .4-.1.6-.1.5 0 .8.1 1.1.3.3.2.4.5.4.8 0 .3-.1.5-.2.7-.2.2-.4.3-.6.3.2.1.5.2.7.4.2.2.3.4.3.7 0 .4-.1.7-.4.9-.3.3-.7.4-1.2.4zm-.1-4.1c-.2 0-.4 0-.6.1v1.5h.3c.4 0 .7-.1.9-.2.2-.1.3-.3.3-.6 0-.5-.3-.8-.9-.8zm-.2 1.9h-.3v1.7c.2.1.4.1.6.1.3 0 .5-.1.7-.2.2-.1.3-.3.3-.6s-.1-.6-.3-.7c-.2-.2-.6-.3-1-.3zM764.2 36.2c-.5 0-.9-.2-1.2-.6-.3-.4-.4-.9-.4-1.6 0-.7.1-1.2.4-1.6.3-.4.6-.6 1.2-.6.5 0 .9.2 1.2.6.3.4.4.9.4 1.6 0 .7-.1 1.2-.4 1.6-.3.4-.7.6-1.2.6zm0-4c-.4 0-.6.2-.8.5-.1.3-.2.8-.2 1.3s.1 1 .2 1.3c.1.3.4.5.8.5s.6-.2.8-.5c.1-.3.2-.8.2-1.3s-.1-.9-.2-1.3c-.2-.3-.5-.5-.8-.5zM770.3 36.1l-.3-3.2v-.3-.2c0 .1 0 .1-.1.2 0 .1 0 .2-.1.3l-.9 3.2h-.4l-.9-3.2c0-.1-.1-.2-.1-.3v-.2.5l-.3 3.2h-.5l.5-4.3h.6l.9 3.1c0 .1.1.2.1.3v0c0-.1 0-.2.1-.3l.9-3.1h.6l.5 4.3h-.6zM773.1 37.5v-.4c.2-.1.4-.2.6-.4.1-.2.2-.4.2-.7v-4.1h.6V36c0 .4-.1.8-.4 1.1-.3.2-.6.4-1 .4zM775.7 36.1v-4.3h2v.4h-1.4v1.5h1.3v.4h-1.3v1.6h1.4v.4h-2zM779.5 36.2c-.2 0-.4 0-.6-.1-.2 0-.3-.1-.4-.2l.1-.4c.1.1.2.1.3.1s.3.1.4.1c.2 0 .4-.1.6-.2.1-.1.2-.3.2-.6 0-.2-.1-.3-.2-.5-.1-.1-.3-.2-.6-.4-.3-.1-.5-.3-.7-.5-.1-.2-.2-.4-.2-.7 0-.3.1-.6.3-.9.2-.2.5-.4.9-.4.2 0 .4 0 .5.1.1 0 .3.1.4.2l-.1.4c-.1-.1-.2-.1-.3-.1-.1 0-.2-.1-.4-.1s-.4.1-.5.2c-.1.1-.2.3-.2.5s.1.4.2.5c.1.1.3.2.6.4.3.1.5.3.7.5.1.2.2.4.2.7 0 .4-.1.7-.4.9-.1.4-.4.5-.8.5zM783.2 36.2c-.4 0-.7-.1-1-.4-.2-.2-.4-.6-.4-.9v-3.1h.6v3.1c0 .3.1.5.2.6.2.2.3.2.6.2.2 0 .4-.1.6-.2.2-.2.2-.4.2-.6v-3.1h.5v3.1c0 .4-.1.7-.4.9-.2.3-.5.4-.9.4zM786.5 36.2c-.2 0-.4 0-.6-.1-.2 0-.3-.1-.4-.2l.1-.4c.1.1.2.1.3.1s.3.1.4.1c.2 0 .4-.1.6-.2.1-.1.2-.3.2-.6 0-.2-.1-.3-.2-.5-.1-.1-.3-.2-.6-.4-.3-.1-.5-.3-.7-.5-.1-.2-.2-.4-.2-.7 0-.3.1-.6.3-.9.2-.2.5-.4.9-.4.2 0 .4 0 .5.1.1 0 .3.1.4.2l-.1.4c-.1-.1-.2-.1-.3-.1-.1 0-.2-.1-.4-.1s-.4.1-.5.2c-.1.1-.2.3-.2.5s.1.4.2.5c.1.1.3.2.6.4.3.1.5.3.7.5.1.2.2.4.2.7 0 .4-.1.7-.4.9-.1.4-.4.5-.8.5zM753.2 43.7c-.2 0-.5 0-.7-.1s-.3-.1-.5-.2v-3.9c.3-.2.7-.2 1.1-.2.6 0 1 .2 1.3.6.3.4.5.9.5 1.6 0 .7-.1 1.2-.4 1.6s-.7.6-1.3.6zm-.1-4.1c-.2 0-.4 0-.5.1v3.5c.1.1.3.1.5.1.4 0 .7-.2.9-.5.2-.3.3-.8.3-1.4 0-1.2-.4-1.8-1.2-1.8zM757.4 43.7c-.5 0-.9-.2-1.2-.6-.3-.4-.4-.9-.4-1.6 0-.7.1-1.2.4-1.6.3-.4.6-.6 1.2-.6.5 0 .9.2 1.2.6.3.4.4.9.4 1.6 0 .7-.1 1.2-.4 1.6-.3.4-.7.6-1.2.6zm0-4c-.4 0-.6.2-.8.5-.1.3-.2.8-.2 1.3s.1 1 .2 1.3c.1.3.4.5.8.5s.6-.2.8-.5c.1-.3.2-.8.2-1.3s-.1-.9-.2-1.3c-.2-.4-.4-.5-.8-.5zM762 43.6v-4.3h.6v4.3h-.6zM764.9 39.7v3.9h-.6v-3.9h-.9v-.4h2.3v.4h-.8zM769.2 43.6l-.4-1.3h-1.5l-.4 1.3h-.5l1.5-4.3h.5l1.4 4.3h-.6zm-1-3.2c-.1-.2-.1-.3-.1-.4v-.2.2c0 .1-.1.2-.1.3l-.5 1.6h1.3l-.6-1.5zM771.8 43.7c-.2 0-.5 0-.7-.1-.2 0-.4-.1-.5-.2v-3.9c.1-.1.3-.1.5-.2.2 0 .4-.1.6-.1.5 0 .8.1 1.1.3.3.2.4.5.4.8 0 .3-.1.5-.2.7-.2.2-.4.3-.6.3.2.1.5.2.7.4.2.2.3.4.3.7 0 .4-.1.7-.4.9s-.8.4-1.2.4zm-.1-4.1c-.2 0-.4 0-.6.1v1.5h.3c.4 0 .7-.1.9-.2.2-.1.3-.3.3-.6 0-.5-.3-.8-.9-.8zm-.3 1.9h-.3v1.7c.2.1.4.1.6.1.3 0 .5-.1.7-.2.2-.1.3-.3.3-.6s-.1-.6-.3-.7c-.2-.2-.5-.3-1-.3zM776.8 43.6l-.4-1.3h-1.5l-.4 1.3h-.5l1.5-4.3h.5l1.4 4.3h-.6zm-1-3.2c-.1-.2-.1-.3-.1-.4v-.2.2c0 .1-.1.2-.1.3L775 42h1.3l-.5-1.6zM779 41.9h-.2v1.8h-.6v-4.1c.1-.1.3-.1.5-.2.2 0 .4-.1.6-.1.5 0 .9.1 1.1.4.2.2.4.5.4.9s-.1.7-.4.9c-.2.2-.6.4-1.1.4h-.3zm.3-2.3h-.3c-.1 0-.1 0-.2.1v1.8h.4c.3 0 .6-.1.8-.3.2-.2.2-.4.2-.7 0-.3-.1-.6-.2-.7-.1-.1-.4-.2-.7-.2zM783.2 43.7c-.5 0-.9-.2-1.2-.6-.3-.4-.4-.9-.4-1.6 0-.7.1-1.2.4-1.6.3-.4.6-.6 1.2-.6.5 0 .9.2 1.2.6.3.4.4.9.4 1.6 0 .7-.1 1.2-.4 1.6-.3.4-.7.6-1.2.6zm0-4c-.4 0-.6.2-.8.5-.1.3-.2.8-.2 1.3s.1 1 .2 1.3c.1.3.4.5.8.5s.6-.2.8-.5c.1-.3.2-.8.2-1.3s-.1-.9-.2-1.3c-.2-.4-.5-.5-.8-.5zM788.2 43.6l-.4-1.3h-1.5l-.4 1.3h-.5l1.5-4.3h.5l1.4 4.3h-.6zm-1-3.2c-.1-.2-.1-.3-.1-.4v-.2.2c0 .1-.1.2-.1.3l-.5 1.6h1.3l-.6-1.5zM792.3 43.6l-1.8-3.1c0-.1-.1-.2-.1-.3-.1-.1-.1-.2-.1-.3v3.6h-.5v-4.3h.6l1.8 3c.1.1.1.2.2.3 0 .1.1.1.1.2v-.2-3.3h.5v4.3h-.7zM796.4 43.6l-.4-1.3h-1.5l-.4 1.3h-.5l1.5-4.3h.5l1.4 4.3h-.6zm-1-3.2c-.1-.2-.1-.3-.1-.4v-.2.2c0 .1-.1.2-.1.3l-.5 1.6h1.3l-.6-1.5z"/></g><g fill="#FFF"><path d="M465.3 286.3h-.2v1.8h-.6V284c.1-.1.3-.1.5-.2.2 0 .4-.1.6-.1.5 0 .9.1 1.1.4.2.2.4.5.4.9s-.1.7-.4.9c-.2.2-.6.4-1.1.4h-.3zm.3-2.3h-.3c-.1 0-.1 0-.2.1v1.8h.4c.3 0 .6-.1.8-.3.2-.2.2-.4.2-.7 0-.3-.1-.6-.2-.7-.2-.1-.4-.2-.7-.2zM468.1 288v-4.3h2v.4h-1.4v1.5h1.3v.4h-1.3v1.6h1.4v.4h-2zM472.2 284.1v3.9h-.6v-3.9h-.9v-.4h2.3v.4h-.8zM476 288l-1.4-2v2h-.6v-4.1c.1-.1.3-.1.5-.2.2 0 .4-.1.6-.1.5 0 .8.1 1.1.3.3.2.4.5.4.9s-.1.6-.4.9c-.2.2-.6.3-.9.3l1.4 1.9h-.7zm-1-4c-.2 0-.4 0-.5.1v1.8h.4c.3 0 .6-.1.8-.2.2-.2.3-.4.3-.7-.1-.7-.4-1-1-1zM479 288.1c-.5 0-.9-.2-1.2-.6-.3-.4-.4-.9-.4-1.6s.1-1.2.4-1.6c.3-.4.6-.6 1.2-.6.5 0 .9.2 1.2.6.3.4.4.9.4 1.6 0 .7-.1 1.2-.4 1.6-.3.4-.7.6-1.2.6zm0-4c-.4 0-.6.2-.8.5-.1.3-.2.8-.2 1.3s.1 1 .2 1.3c.1.3.4.5.8.5s.6-.2.8-.5c.1-.3.2-.8.2-1.3s-.1-.9-.2-1.3c-.2-.4-.4-.5-.8-.5zm0-.7h-.3l.4-.9c.1-.1.2-.1.4-.1s.2 0 .2.1l-.7.9zM482.4 286.3h-.2v1.8h-.6V284c.1-.1.3-.1.5-.2.2 0 .4-.1.6-.1.5 0 .9.1 1.1.4.2.2.4.5.4.9s-.1.7-.4.9c-.2.2-.6.4-1.1.4h-.3zm.3-2.3h-.3c-.1 0-.1 0-.2.1v1.8h.4c.3 0 .6-.1.8-.3.2-.2.2-.4.2-.7 0-.3-.1-.6-.2-.7-.2-.1-.4-.2-.7-.2zM486.5 288.1c-.5 0-.9-.2-1.2-.6-.3-.4-.4-.9-.4-1.6s.1-1.2.4-1.6c.3-.4.6-.6 1.2-.6.5 0 .9.2 1.2.6.3.4.4.9.4 1.6 0 .7-.1 1.2-.4 1.6-.2.4-.6.6-1.2.6zm0-4c-.4 0-.6.2-.8.5-.1.3-.2.8-.2 1.3s.1 1 .2 1.3c.1.3.4.5.8.5s.6-.2.8-.5c.1-.3.2-.8.2-1.3s-.1-.9-.2-1.3c-.2-.4-.4-.5-.8-.5zM489.2 288v-4.3h.6v3.9h1.3v.4h-1.9zM492 288v-4.3h.6v4.3h-.6zM494.6 288.1c-.2 0-.4 0-.6-.1-.2 0-.3-.1-.4-.2l.1-.4c.1.1.2.1.3.1.1 0 .3.1.4.1.2 0 .4-.1.6-.2.1-.1.2-.3.2-.6 0-.2-.1-.3-.2-.5-.1-.1-.3-.2-.6-.4-.3-.1-.5-.3-.7-.5-.1-.2-.2-.4-.2-.7 0-.3.1-.6.3-.9.2-.2.5-.4.9-.4.2 0 .4 0 .5.1.1 0 .3.1.4.2l-.1.4c-.1-.1-.2-.1-.3-.1-.1 0-.2-.1-.4-.1s-.4.1-.5.2c-.1.1-.2.3-.2.5s.1.4.2.5c.1.1.3.2.6.4.3.1.5.3.7.5.1.2.2.4.2.7 0 .4-.1.7-.4.9-.1.4-.5.5-.8.5z"/></g><g fill="#231F20"><path d="M202.7 481.4h-.2v1.8h-.6v-4.1c.1-.1.3-.1.5-.2.2 0 .4-.1.6-.1.5 0 .9.1 1.1.4.2.2.4.5.4.9s-.1.7-.4.9c-.2.2-.6.4-1.1.4-.1.1-.2.1-.3 0zm.3-2.2h-.3c-.1 0-.1 0-.2.1v1.8h.4c.3 0 .6-.1.8-.3.2-.2.2-.4.2-.7 0-.3-.1-.6-.2-.7-.1-.1-.4-.2-.7-.2zM207.9 483.2l-.4-1.3H206l-.4 1.3h-.5l1.5-4.3h.5l1.4 4.3h-.6zm-1-3.2c-.1-.2-.1-.3-.1-.4v-.2.2c0 .1-.1.2-.1.3l-.5 1.6h1.3l-.6-1.5zM211.4 483.2l-1.4-2v2h-.6v-4.1c.1-.1.3-.1.5-.2.2 0 .4-.1.6-.1.5 0 .8.1 1.1.3.3.2.4.5.4.9s-.1.6-.4.9c-.2.2-.6.3-.9.3l1.4 1.9h-.7zm-1-4c-.2 0-.4 0-.5.1v1.8h.4c.3 0 .6-.1.8-.2.2-.2.3-.4.3-.7-.1-.7-.4-1-1-1zM215.4 483.2l-.4-1.3h-1.5l-.4 1.3h-.5l1.5-4.3h.5l1.4 4.3h-.6zm-1-3.2c-.1-.2-.1-.3-.1-.4v-.2.2c0 .1-.1.2-.1.3l-.5 1.6h1.3l-.6-1.5zM218 479.3v3.9h-.6v-3.9h-.9v-.4h2.3v.4h-.8zM221.1 481.3v1.9h-.6v-1.9l-1.2-2.4h.6l.9 1.9.9-1.9h.5l-1.1 2.4z"/></g><path fill="#2E62AD" d="M199.7 474.1h-11.8l-58.8-13.9-69.5 13.9-.1-.6 69.7-14 58.8 14h11.7z"/><g fill="#231F20"><path d="M198.3 191H45.8v-7.8h.7v7.1h151.1v-7.1h.7z"/><path d="M121.7 183.2h.7v7.4h-.7zM159.8 186.9h.7v3.7h-.7zM84.3 186.9h.7v3.7h-.7z"/></g><g fill="#231F20"><path d="M185.7 179.3v-6c-.2.1-.5.2-.8.3s-.7.2-1 .2l-.1-.6c.6-.1 1.1-.2 1.4-.4.4-.2.6-.4.8-.7h.6v7.1h-.9zM191.2 179.4c-.8 0-1.3-.4-1.7-1.1-.3-.7-.5-1.6-.5-2.6s.2-1.8.5-2.6c.3-.7.9-1.1 1.7-1.1.8 0 1.3.4 1.7 1.1.3.7.5 1.6.5 2.6s-.2 1.9-.5 2.6c-.4.7-1 1.1-1.7 1.1zm0-6.8c-.4 0-.7.2-.9.7-.2.5-.4 1.3-.4 2.4 0 1.1.1 1.9.3 2.4s.5.7.9.7.7-.2.9-.7c.2-.5.4-1.3.4-2.4 0-1.1-.1-1.9-.3-2.4s-.5-.7-.9-.7zM196.6 179.4c-.8 0-1.3-.4-1.7-1.1-.3-.7-.5-1.6-.5-2.6s.2-1.8.5-2.6c.3-.7.9-1.1 1.7-1.1.8 0 1.3.4 1.7 1.1.3.7.5 1.6.5 2.6s-.2 1.9-.5 2.6c-.3.7-.9 1.1-1.7 1.1zm0-6.8c-.4 0-.7.2-.9.7-.2.5-.4 1.3-.4 2.4 0 1.1.1 1.9.3 2.4s.5.7.9.7.7-.2.9-.7c.2-.5.4-1.3.4-2.4 0-1.1-.1-1.9-.3-2.4-.2-.5-.5-.7-.9-.7zM203.2 179.3l-2.1-2.9v2.9h-.9v-8.2h.9v5.1l2-2.6h1l-2.1 2.6 2.3 3-1.1.1zM211.4 179.3v-4c0-.3-.1-.6-.2-.8-.2-.2-.4-.3-.8-.3-.5 0-.8.2-1.2.5v4.6h-.9v-4.1c0-.3-.1-.6-.3-.8-.2-.2-.5-.3-.9-.3h-.6c-.1 0-.3.1-.5.2v4.9h-.9V174l.9-.3c.3-.1.7-.1 1.1-.1.4 0 .8.1 1 .2.3.1.5.3.7.5.2-.2.4-.4.7-.5s.6-.2 1-.2c.6 0 1.1.2 1.4.5.3.3.4.7.4 1.2v4h-.9z"/></g><path fill="#231F20" d="M46.1 179.4c-.8 0-1.3-.4-1.7-1.1-.3-.7-.5-1.6-.5-2.6s.2-1.8.5-2.6c.3-.7.9-1.1 1.7-1.1.8 0 1.3.4 1.7 1.1.3.7.5 1.6.5 2.6s-.2 1.9-.5 2.6c-.3.7-.9 1.1-1.7 1.1zm0-6.8c-.4 0-.7.2-.9.7-.2.5-.4 1.3-.4 2.4 0 1.1.1 1.9.3 2.4.2.5.5.7.9.7s.7-.2.9-.7c.2-.5.4-1.3.4-2.4 0-1.1-.1-1.9-.3-2.4s-.5-.7-.9-.7z"/><g fill="#231F20"><path d="M79.6 179.3l2.5-3.6c.3-.4.4-.7.5-.9.1-.2.1-.5.1-.7 0-.9-.5-1.3-1.5-1.3-.3 0-.5 0-.7.1-.2.1-.4.1-.6.2l-.2-.6c.2-.1.5-.2.8-.3.3-.1.6-.1 1-.1.7 0 1.2.2 1.6.5.4.3.6.8.6 1.4 0 .3-.1.6-.2.9-.1.3-.4.7-.7 1.1l-1.9 2.6h2.9v.8h-4.2zM87 179.4c-.7 0-1.3-.1-1.8-.4l.2-.6c.2.1.4.2.6.2.3.1.5.1.8.1.4 0 .8-.1 1.1-.4.3-.3.5-.6.5-1.1 0-.5-.2-.9-.5-1.2-.3-.3-.8-.4-1.5-.4-.2 0-.6 0-.9.1l.3-3.6h3.3v.8h-2.7l-.2 2.2h.6c.8 0 1.4.2 1.8.6.4.4.6.9.6 1.6 0 .6-.2 1.1-.7 1.5-.2.4-.8.6-1.5.6z"/></g><g fill="#231F20"><path d="M118.9 179.4c-.7 0-1.3-.1-1.8-.4l.2-.6c.2.1.4.2.6.2.3.1.5.1.8.1.4 0 .8-.1 1.1-.4.3-.3.5-.6.5-1.1 0-.5-.2-.9-.5-1.2-.3-.3-.8-.4-1.5-.4-.2 0-.6 0-.9.1l.3-3.6h3.3v.8h-2.7l-.2 2.2h.6c.8 0 1.4.2 1.8.6.4.4.6.9.6 1.6 0 .6-.2 1.1-.7 1.5-.2.4-.8.6-1.5.6zM124.8 179.4c-.8 0-1.3-.4-1.7-1.1-.3-.7-.5-1.6-.5-2.6s.2-1.8.5-2.6c.3-.7.9-1.1 1.7-1.1.8 0 1.3.4 1.7 1.1.3.7.5 1.6.5 2.6s-.2 1.9-.5 2.6c-.4.7-.9 1.1-1.7 1.1zm0-6.8c-.4 0-.7.2-.9.7-.2.5-.4 1.3-.4 2.4 0 1.1.1 1.9.3 2.4.2.5.5.7.9.7s.7-.2.9-.7c.2-.5.4-1.3.4-2.4 0-1.1-.1-1.9-.3-2.4-.2-.5-.5-.7-.9-.7z"/></g><path fill="#231F20" d="M252.9 183.3l-6.7 7.6 6.7-20.7z"/><path fill="#231F20" d="M259.9 191.7l-7.2-8.4.1-14.3 7.1 22.7zm-6.9-8.5l6 7-5.9-19-.1 12zM254.6 168.3l-3-5.2c-.1-.1-.1-.3-.2-.4-.1-.2-.2-.3-.2-.4V168.4h-.8v-7.1h1l2.9 5c.1.2.2.3.3.5.1.1.1.2.1.3v-.3-5.5h.8v7.1h-.9z"/><g fill="#231F20"><path d="M13.1 83.8L2.4 70.1l-.2 13.7H0V56.3c.7-.4 1.5-.8 2.6-1.1 1.1-.3 2.3-.4 3.7-.4 2.9 0 5.1.7 6.7 2.2 1.6 1.4 2.3 3.5 2.3 6.1 0 2.7-.9 4.7-2.6 6-1.7 1.4-4.1 2.1-7.2 2.1l10.3 12.6h-2.7zM6.2 56.3c-1.6 0-2.9.2-3.9.7v12.7c.7.2 1.7.3 2.9.3 2.6 0 4.5-.6 5.9-1.8 1.3-1.2 2-2.9 2-5.1 0-2.4-.6-4.1-1.7-5.2-1.2-1.1-2.9-1.6-5.2-1.6zM24.8 83.8V55.2h2.4v28.6h-2.4zM46.5 84.2c-3.4 0-5.9-1.3-7.5-4-1.6-2.7-2.4-6.2-2.4-10.7 0-4.4.8-8 2.4-10.7 1.6-2.7 4.1-4 7.5-4 3.4 0 5.9 1.4 7.5 4 1.6 2.7 2.4 6.3 2.4 10.7 0 4.4-.8 8-2.4 10.7-1.6 2.7-4.1 4-7.5 4zm0-27.8c-2.7 0-4.7 1.2-5.8 3.7-1.1 2.5-1.7 5.6-1.7 9.3 0 3.8.5 6.9 1.6 9.3 1.1 2.4 3.1 3.7 5.9 3.7 2.9 0 4.8-1.2 5.9-3.7 1.1-2.4 1.6-5.5 1.6-9.3 0-3.7-.6-6.8-1.7-9.3-1.1-2.4-3.1-3.7-5.8-3.7zM87.6 84.2c-1.6 0-3-.1-4.2-.4-1.2-.3-2.2-.6-2.9-1.1V56.3c.7-.4 1.7-.8 3-1.1 1.3-.3 2.6-.4 4-.4 3.6 0 6.4 1.2 8.3 3.7 2 2.5 3 6 3 10.6 0 4.7-.9 8.4-2.8 11.1-1.8 2.7-4.6 4-8.4 4zm-.4-27.9c-1.7 0-3.1.2-4.3.7v24.8c1.1.5 2.5.7 4.4.7 3.2 0 5.5-1.1 6.9-3.4 1.4-2.3 2.2-5.6 2.2-10 0-4.2-.8-7.3-2.3-9.5-1.5-2.2-3.8-3.3-6.9-3.3zM108.1 83.8V55.2h12.6v1.6h-10.2v11.3h9.3v1.6h-9.3v12.4h10.2v1.6h-12.6zM139 92.9v-1.7c1.6-.5 2.9-1.5 4-2.9s1.6-3.2 1.6-5.3V55.2h2.4V83c0 2.7-.8 4.9-2.3 6.6-1.7 1.8-3.5 2.9-5.7 3.3zM174 83.8l-3.2-9.8h-10.4l-3.2 9.8H155l9.9-28.6h1.9l9.8 28.6H174zM166.6 61c-.3-.9-.5-1.7-.6-2.2-.1-.5-.2-1-.2-1.3-.1.3-.2.8-.4 1.4-.2.6-.4 1.3-.7 2.1l-3.8 11.6h9.5L166.6 61zM201.8 83.8l-13.5-23.2c-.4-.6-.7-1.3-1.1-2-.4-.7-.7-1.3-.9-1.7v27h-2V55.2h3L200.6 78c.4.8.8 1.5 1.1 2.1.3.6.5 1 .6 1.1V80 55.2h2v28.6h-2.5zM214.4 83.8V55.2H227v1.6h-10.2v11.3h9.3v1.6h-9.3v12.4H227v1.6h-12.6zM235.9 83.8V55.2h2.4v28.6h-2.4zM261.9 83.8l-10.8-13.7-.1 13.7h-2.2V56.3c.7-.4 1.5-.8 2.6-1.1 1.1-.3 2.3-.4 3.7-.4 2.9 0 5.1.7 6.7 2.2 1.6 1.4 2.3 3.5 2.3 6.1 0 2.7-.9 4.7-2.6 6-1.7 1.4-4.1 2.1-7.2 2.1l10.3 12.6h-2.7zm-7-27.5c-1.6 0-2.9.2-3.9.7v12.7c.7.2 1.7.3 3 .3 2.6 0 4.5-.6 5.9-1.8 1.3-1.2 2-2.9 2-5.1 0-2.4-.6-4.1-1.7-5.2-1.2-1.1-3-1.6-5.3-1.6zM282.3 84.2c-3.4 0-5.9-1.3-7.5-4-1.6-2.7-2.4-6.2-2.4-10.7 0-4.4.8-8 2.4-10.7 1.6-2.7 4.1-4 7.5-4 3.4 0 5.9 1.4 7.5 4 1.6 2.7 2.4 6.3 2.4 10.7 0 4.4-.8 8-2.4 10.7-1.6 2.7-4.1 4-7.5 4zm0-27.8c-2.7 0-4.7 1.2-5.8 3.7-1.1 2.5-1.7 5.6-1.7 9.3 0 3.8.5 6.9 1.6 9.3 1.1 2.4 3.1 3.7 5.9 3.7 2.9 0 4.8-1.2 5.9-3.7 1.1-2.4 1.6-5.5 1.6-9.3 0-3.7-.6-6.8-1.7-9.3-1.1-2.4-3-3.7-5.8-3.7z"/></g><path fill="#231F20" d="M68.9 109.3c.6 0 1.1.2 1.5.6.4.4.6.9.6 1.4 0 .3-.1.5-.2.8-.1.3-.3.5-.5.8l-2.2 3h3.1v.7H67v-.6l2.6-3.5c.2-.2.3-.5.4-.6.1-.2.1-.4.1-.6 0-.4-.1-.7-.4-.9-.2-.2-.5-.4-.9-.4-.5 0-.9.2-1.3.6l-.5-.6c.6-.5 1.2-.7 1.9-.7M75.4 109.3c.6 0 1.1.2 1.5.6.4.4.6.9.6 1.4 0 .3-.1.5-.2.8-.1.3-.3.5-.5.8l-2.2 3h3.1v.7h-4.2v-.6l2.6-3.5c.2-.2.3-.5.4-.6.1-.2.1-.4.1-.6 0-.4-.1-.7-.4-.9-.2-.2-.5-.4-.9-.4-.5 0-.9.2-1.3.6l-.5-.5c.6-.6 1.2-.8 1.9-.8M81.4 109.2c-.3 0-.5.1-.7.3-.1.1-.1.3-.2.4v1.1c0 .1 0 .2.1.3 0 .1.1.2.1.3.1.2.4.3.7.3.3 0 .5-.1.7-.3.1-.1.1-.3.2-.4v-.7-.4c0-.1 0-.2-.1-.3 0-.1-.1-.2-.1-.3-.2-.2-.4-.3-.7-.3m0-.6c.5 0 .8.1 1.1.4.2.2.3.4.3.6.1.2.1.5.1.9s0 .7-.1.9l-.3.6c-.3.3-.7.4-1.1.4-.5 0-.8-.1-1.1-.4-.2-.2-.3-.4-.3-.6-.1-.2-.1-.5-.1-.9s0-.7.1-.9l.3-.6c.3-.2.6-.4 1.1-.4M92.8 109.4v.7h-2.7v2.4c.3-.2.7-.3 1.1-.3.6 0 1 .2 1.4.6.4.4.6 1 .6 1.6 0 .6-.2 1.2-.6 1.6-.4.4-.9.7-1.6.7-.4 0-.8-.1-1.1-.2l-.9-.6.5-.5c.5.4.9.7 1.5.7.4 0 .8-.1 1-.4.2-.3.4-.7.4-1.1 0-.5-.1-.8-.4-1.1-.2-.3-.6-.4-1-.4s-.8.1-1.2.4l-.6-.3v-3.6h3.6zM98.4 110.4c-.3-.3-.6-.4-1-.4s-.7.1-1 .4c-.3.3-.4.7-.4 1.2s.1.9.4 1.2c.3.3.6.4 1 .4s.7-.1 1-.4c.3-.3.4-.7.4-1.2s-.1-.9-.4-1.2m-2.5-.5c.4-.5.9-.7 1.5-.7s1.2.2 1.5.7c.4.5.6 1 .6 1.7 0 .3 0 .6-.1.9-.1.3-.2.5-.4.8l-1.7 3.3h-.9l1.5-2.8c-.2.1-.4.1-.7.1-.4 0-.7-.1-1.1-.3-.3-.2-.5-.5-.7-.8-.2-.3-.2-.7-.2-1.1.1-.8.3-1.3.7-1.8M101.8 109.8c0-.1 0-.3.1-.4.1-.1.2-.1.4-.1s.3 0 .4.1c.1.1.1.2.1.4v.3l-.2 1.4h-.6l-.2-1.4v-.3M110.9 110c-.4 0-.7.1-.9.4-.1.1-.1.2-.2.3-.1.1-.1.2-.1.4 0 .1 0 .3-.1.5V114.4c0 .2 0 .4.1.5 0 .1.1.2.1.4.1.1.1.2.2.3.2.2.5.4.9.4s.7-.1.9-.4c.1-.1.1-.2.2-.3 0-.1.1-.2.1-.4 0-.1 0-.3.1-.5v-.6-.8-.8-.6c0-.2 0-.4-.1-.5 0-.1-.1-.2-.1-.4-.1-.1-.1-.2-.2-.3-.2-.3-.5-.4-.9-.4m-.9-.6c.3-.1.6-.2.9-.2.3 0 .6.1.9.2.3.1.5.3.7.5l.2.3c.1.1.1.2.2.4 0 .2.1.3.1.4 0 .1 0 .3.1.6V114.4c0 .2 0 .4-.1.6 0 .1-.1.3-.1.4 0 .2-.1.3-.2.4l-.2.3c-.2.2-.4.3-.7.5-.3.1-.6.2-.9.2-.3 0-.6-.1-.9-.2-.3-.1-.5-.3-.7-.5l-.2-.3c-.1-.1-.1-.2-.2-.4 0-.2-.1-.3-.1-.4 0-.1 0-.3-.1-.6v-.6-.8-.8-.6c0-.2 0-.4.1-.6 0-.1.1-.3.1-.4 0-.2.1-.3.2-.4l.2-.3c.2-.2.5-.4.7-.5M116.8 109.8c0-.1 0-.3.1-.4.1-.1.2-.1.4-.1.1 0 .3 0 .4.1.1.1.1.2.1.4v.3l-.2 1.4h-.5l-.2-1.4c-.1-.2-.1-.2-.1-.3m-1.6 0c0-.1 0-.3.1-.4.1-.1.2-.1.4-.1.1 0 .3 0 .4.1.1.1.1.2.1.4v.3l-.2 1.4h-.5l-.2-1.4c-.1-.2-.1-.2-.1-.3M123.9 115.3c.7.4 1.4.6 2 .6.3 0 .5 0 .7-.1.2-.1.4-.2.5-.3.1-.1.2-.3.3-.4.1-.2.1-.3.1-.5s-.1-.5-.2-.7c-.1-.2-.3-.3-.4-.5-.2-.1-.4-.2-.6-.2-.2-.1-.5-.1-.8-.2-.3-.1-.5-.2-.7-.3-.3-.2-.5-.4-.7-.7-.2-.3-.3-.6-.3-1 0-.2.1-.5.1-.7.1-.2.2-.4.4-.6.2-.2.4-.3.7-.4.3-.1.6-.2.9-.2.6 0 1.2.2 2 .5l-.3.7c-.7-.3-1.2-.5-1.7-.5-.4 0-.8.1-1 .4-.2.2-.4.5-.4.9 0 .2.1.4.2.6.1.2.3.3.4.4.2.1.5.2 1 .3.5.1.8.2 1.1.4.3.2.5.4.7.7.2.3.3.6.3 1 0 .2 0 .4-.1.6l-.3.6c-.1.2-.3.3-.5.5l-.6.3c-.3.1-.5.1-.8.1-.7 0-1.5-.2-2.3-.7l.3-.6zM134.3 115.7c.1-.1.2-.2.4-.2s.3.1.4.2c.1.1.2.2.2.4 0 .1 0 .3-.1.5l-.5 1.3h-.5l.3-1.2-.2-.2c-.1-.1-.1-.2-.1-.3-.1-.3 0-.4.1-.5M145.8 114.1v.7h-.6v1.8h-.8v-1.8h-3.1v-.5l2.1-4.9h.8l-2 4.7h2.2v-1.8h.8v1.8zM147.9 115.8l.5-.5c.4.4.9.6 1.4.6.4 0 .7-.1 1-.4.2-.3.4-.6.4-1 0-.2 0-.4-.1-.6-.1-.2-.2-.3-.4-.5-.1-.1-.3-.2-.4-.2-.2 0-.3-.1-.4-.1h-.9v-.7h.9c.1 0 .2 0 .4-.1.1 0 .3-.1.4-.2.1-.1.2-.2.3-.4.1-.2.1-.4.1-.6 0-.4-.1-.7-.3-.9-.2-.2-.5-.3-.9-.3-.5 0-1 .2-1.4.7l-.5-.5c.2-.2.5-.4.9-.6.3-.2.7-.2 1.1-.2.6 0 1.1.2 1.5.6.4.4.6.8.6 1.4 0 .3-.1.6-.2.9-.2.3-.4.5-.6.7.3.2.5.4.7.7.2.3.3.7.3 1 0 .6-.2 1.1-.6 1.5-.4.4-.9.6-1.6.6-.4 0-.8-.1-1.1-.2-.5-.2-.8-.4-1.1-.7M155.8 109.2c-.3 0-.5.1-.7.3-.1.1-.1.3-.2.4v1.1c0 .1 0 .2.1.3 0 .1.1.2.1.3.1.2.4.3.7.3.3 0 .5-.1.7-.3.1-.1.1-.3.2-.4v-.7-.4c0-.1 0-.2-.1-.3 0-.1-.1-.2-.1-.3-.2-.2-.4-.3-.7-.3m0-.6c.5 0 .8.1 1.1.4.2.2.3.4.3.6.1.2.1.5.1.9s0 .7-.1.9l-.3.6c-.3.3-.6.4-1.1.4-.5 0-.8-.1-1.1-.4-.2-.2-.3-.4-.3-.6-.1-.2-.1-.5-.1-.9s0-.7.1-.9l.3-.6c.2-.2.6-.4 1.1-.4M165.4 116.6h-.8v-6.3l-1.1.5-.3-.7 1.5-.8h.7zM168.2 115.8l.5-.5c.4.4.9.6 1.5.6.4 0 .7-.1 1-.4.2-.3.4-.6.4-1 0-.2 0-.4-.1-.6-.1-.2-.2-.3-.4-.5-.1-.1-.3-.2-.4-.2-.2 0-.3-.1-.4-.1h-.9v-.7h.9c.1 0 .2 0 .4-.1.1 0 .3-.1.4-.2.1-.1.2-.2.3-.4.1-.2.1-.4.1-.6 0-.4-.1-.7-.3-.9-.2-.2-.5-.3-.9-.3-.5 0-1 .2-1.4.7l-.5-.5c.2-.2.5-.4.9-.6.3-.2.7-.2 1.1-.2.6 0 1.1.2 1.5.6.4.4.6.8.6 1.4 0 .3-.1.6-.2.9-.2.3-.4.5-.6.7.3.2.5.4.7.7.2.3.3.7.3 1 0 .6-.2 1.1-.6 1.5-.4.4-.9.6-1.6.6-.4 0-.8-.1-1.1-.2-.7-.2-1-.4-1.2-.7M174.4 109.8c0-.1 0-.3.1-.4.1-.1.2-.1.4-.1.1 0 .3 0 .4.1.1.1.1.2.1.4v.3l-.2 1.4h-.5l-.2-1.4c-.1-.2-.1-.2-.1-.3M181.6 115.8l.5-.5c.4.4.9.6 1.4.6.4 0 .7-.1 1-.4.2-.3.4-.6.4-1 0-.2 0-.4-.1-.6-.1-.2-.2-.3-.4-.5-.1-.1-.3-.2-.4-.2-.2 0-.3-.1-.4-.1h-.9v-.7h.9c.1 0 .2 0 .4-.1.1 0 .3-.1.4-.2.1-.1.2-.2.3-.4.1-.2.1-.4.1-.6 0-.4-.1-.7-.3-.9-.2-.2-.5-.3-.9-.3-.5 0-1 .2-1.4.7l-.5-.5c.2-.2.5-.4.9-.6.3-.2.7-.2 1.1-.2.6 0 1.1.2 1.5.6.4.4.6.8.6 1.4 0 .3-.1.6-.2.9-.2.3-.4.5-.6.7.3.2.5.4.7.7.2.3.3.7.3 1 0 .6-.2 1.1-.6 1.5-.4.4-.9.6-1.6.6-.4 0-.8-.1-1.1-.2-.6-.2-.9-.4-1.1-.7M187.9 115.8l.5-.5c.4.4.9.6 1.5.6.4 0 .7-.1 1-.4.2-.3.4-.6.4-1 0-.2 0-.4-.1-.6-.1-.2-.2-.3-.4-.5-.1-.1-.3-.2-.4-.2-.2 0-.3-.1-.4-.1h-.9v-.7h.9c.1 0 .2 0 .4-.1.1 0 .3-.1.4-.2.1-.1.2-.2.3-.4.1-.2.1-.4.1-.6 0-.4-.1-.7-.3-.9s-.5-.3-.9-.3c-.5 0-1 .2-1.4.7l-.5-.5c.2-.2.5-.4.9-.6.3-.2.7-.2 1.1-.2.6 0 1.1.2 1.5.6.4.4.6.8.6 1.4 0 .3-.1.6-.2.9-.2.3-.4.5-.6.7.3.2.5.4.7.7.2.3.3.7.3 1 0 .6-.2 1.1-.6 1.5-.4.4-.9.6-1.6.6-.4 0-.8-.1-1.1-.2-.7-.2-1-.4-1.2-.7M195.8 109.8c0-.1 0-.3.1-.4.1-.1.2-.1.4-.1.1 0 .3 0 .4.1.1.1.1.2.1.4v.3l-.2 1.4h-.5l-.2-1.4c-.1-.2-.1-.2-.1-.3m-1.6 0c0-.1 0-.3.1-.4.1-.1.2-.1.4-.1s.3 0 .4.1c.1.1.1.2.1.4v.3l-.2 1.4h-.5l-.2-1.4c-.1-.2-.1-.2-.1-.3M203.2 109.4l1.3 5.8 1.1-3.7h.7l1.1 3.7 1.3-5.8h.8l-1.6 7.2h-.8l-1.1-3.9-1.2 3.9h-.8l-1.6-7.2z"/></svg>