<svg version="1.2" baseProfile="tiny" xmlns="http://www.w3.org/2000/svg" width="171.4" height="100.2" viewBox="-175.8 230.5 171.4 100.2"><g fill-rule="evenodd"><path fill="#1D1D1B" d="M-86.5 247.9v.2h-.2v.2h-.2v.2h-.2v.2h-.2v.2h.2v.2h-.4v-.2h-.2v-.2-.2h.2v-.2h.2v-.4h.8zM-136.4 251.2v.2h-.2-.2v.2h-1.1c-.2 0-.4.1-.5 0h-.2v-.2h-.2v-.2h-.2c0-.1.1-.3 0-.4h-.2v-.4h.2v-.2-.2h.2v-.2h.2v-.2h.2v-.2h.4v-.2h.2v-.2h.9v.2c.1 0 .3-.1.4 0v.2h.2c.1 0 0 .3 0 .4h.2v1.3c-.1.1-.3.1-.3.1m-1.1-1.4h-.2v.4h.2v.2h.2v-.2h.2v-.2h.2v-.2h-.4v-.2h-.2v.2zM-63.3 249.8h.4v.2h.2v.4h-.2-.2v-.2h-.2v-.2-.2M-68.7 250.1h.2v.2h.2v.2h.2v.4h.2v.2h.2v.4h-.2v-.2h-.2v-.2h-.2v-.2h-.2v-.2h-.2v-.4h-.2v-.2h.2M-86.9 250.7v.2h-.2v.2H-87.7v-.4h.8zM-56.7 250.7h.7v.2h-.2V251.5h-.2v-.2c-.1 0-.3.1-.4 0V250.7zM-67.3 251.8h.2v.2h.4v.2h.2v.2h.2v.2h.2v.2h.2v.2h.2v.2h.2v.4h-.5v-.2h-.2v-.2h-.2-.2v-.2h.2v-.2h-.2v-.2h-.2v-.2h-.2v-.2h-.2v-.2h-.2v-.4h-.2v-.2h.4v.4zM-65.3 252.5h.2v.2h.2v.2h-.4v-.2h-.2v-.2h.2M-128.6 253v-.2h.2v-.2h.4v.4h-.6zM-42.2 252.7v.4h-.2v.2h-.2v-.2h-.2v-.2h.2v-.2h.4zM-44.8 254.7v1.5h-.2V255.6h-.2v.2h-.4v-.4h.2v-.2-.4h.2v-.2h.4zM-89.2 255v.2h-.2v.2h-.2-.2v-.2h.2v-.2c.1 0 .3.1.4 0M-129.3 255.2H-128.7v.2h-.4-.2v-.2M-90.3 256.1h-.2v-.2-.2h.2v-.2h.4v.2h-.2v.2h-.2v.2M-62.9 257.9h.2v.4h.2v.4h-.2v-.2h-.2v-.2-.4M-58.7 260.3h.2V260.9h-.2v-.6zM-58.4 262.8h.2v-.2-.2h-.2v-.5h.4v1.3h.2v.4h.2v.4h.2v.2h.2v.2h.2v.4h-.4v-.2h-.2v-.2h-.2v-.2-.2h-.2v-.2h-.2v-.4h-.2v-.2h-.2v-.2h-.2v-1.5h.2V262.4h.2v.4zM-99.4 262.1v.5h-.4v-.4h.2v-.2c.1.1.2.1.2.1M-27.9 263v.9h-.2v-.5-.4h.2M-97.7 263.4v.7h.2V264.7h.2v.2h.2v.2h.2v.2H-97.5v-.2h-.2v-.2h-.2v-.2-.4h-.2v-.2-.5h.2v-.2c0-.1.1 0 .2 0M-69.6 263.9v.4h-.2V264.9h-.2V265.5h-.2v.4h-.2V266.5h-.2v.2h-.2v.2h-.5v-.2h.2v-.2h.2v-.2-.2h.2v-.2-.2h.2v-.2h.2v-.5h.2v-.4-.2h.2v-.5h.2v-.2h.2c-.1.1-.1.2-.1.2M-109.5 263.9h.2v.4h-.2v.2h-.4v-.2h.2v-.2h.2v-.2zM-89 264.1h.4v.2h.2v.2h-.6v-.4zM-94.8 265.2h.2v.2h.2v.2h.2v.2h.2v.2h.2v.2h.2v.2h-.2-.2v-.2h-.2-.2v-.2h-.2v-.2h-.2V265.2zM-96.6 265.4v.2h.2v.2h.2v.8h-.2v-.2h-.2v-.2-.2h-.2v-.2c0-.1-.1-.3 0-.4 0-.1.1 0 .2 0M-63.5 265.7v1.7h-.2v-.9-.4-.2-.2h.2M-141.3 266.3v.2h-.2c0 .1.1.3 0 .4h-.2v.2h-.2v-.2-.2-.4h.6zM-84.1 266.4v.4h-.2v.2h-.2v-.2-.2h.2v-.2s.1.1.2 0M-45.3 266.8V267.4h-.2v-.2h-.2v-.4h.2v-.2c.1 0 .3-.1.4 0v.2h-.2M-94.5 267.5h-.2v.2h-.2v-.2h-.2v-.2h.2v-.2h.2v.2h.2c.1.1 0 .2 0 .2M-67.1 267.4h.2v1h-.2c0 .1.1.3 0 .4h-.2c0 .1.1.3 0 .4h-.2v.2h-.2v.2h-.4v-.6h.2v-.2h.2v-.2h.2v-.5h.2v-.2-.4h.2v-.1zM-65.1 267.7v.8h-.2v1.1h-.2v.2h-.2v.2h-.2v-.5h.2v-.2-.2-.2h.2v-.4-.2h.2V267.7v-.2h.2v.2M-62.9 267.7h.2v.4h.2v.7h-.2v-.2h-.2v-.2-.7zM-64.4 268.6h.4V269.2h.2v.2c-.1 0-.3.1-.4 0-.1-.1 0-.3 0-.4h-.2v-.2-.2M-71.8 268.8v.7h-.2c0-.2-.1-.4 0-.5v-.2h.2M-57.5 269v.9h-.2v-.2-.4-.4c.1.1.2.1.2.1M-46.2 269h.2v.4h-.4v-.2h.2v-.2M-142.7 269.2v.2h-.2c0 .1.1.3 0 .4h-.2v.2h-.2v.2h-.2v-.2c0-.1-.1-.3 0-.4h.2v-.2h.2v-.2h.4zM-144.9 270.1V270.7h-.2v.2h-.2v.2h-.4v-.4h.2v-.2h.2v-.4h.2v-.2h.2v.2M-50.6 270.6v-.2c0-.1-.3 0-.4 0v-.2h.2v-.2h.2v.2h.2v.4h-.2M-29 270.3v.2h-.2v.2h-.2-.2v.2h-.2v.2c-.1 0-.3-.1-.4 0v.2H-30.8v.2h-.4v-.2h.2v-.2h.4v-.2h.2v-.2c.1-.1.3 0 .4 0v-.2h.4v-.2h.4v-.2h.2v.2M-91.9 270.8v.7h-.2v-.2h-.2V271h.2v-.2h.2M-93.7 271.5c0 .1.1.3 0 .4-.1.1-.3 0-.4 0v-.2-.4h.2v.2c0 .1.1 0 .2 0M-91.8 271.9v-.2h.2v.2h.2v.2h-.2-.2c0-.1.1-.2 0-.2M-75.2 271.9v-.2h.4v.2h-.2v.2h-.2c-.1-.1 0-.2 0-.2M-88.7 272.1c0 .1-.1.3 0 .4h.2v.7h.2v.7h.2v.4h-.2v-.2h-.2v-.2-.2h-.2v-.4-.2h-.2v-.5-.2h-.2v-.2h.2v-.2c.1 0 .2.1.2.1M-106.6 272.6h.4v.4h-.2v.2c-.1.3 0 .6 0 .9V274.7H-107v-.4h-.2v-.2h.2v-.2-.2h-.2v-.2-.2h-.2v-.2h-.2v-.2h-.2v-.2c.1 0 .3-.1.4 0v.2h.2v.2h.2v.4h.2v.9h.2v-.9-.4h-.2v-.4h.2v-.1zM-97.6 272.6h.2v1h.4V274.2h-.2v-.2h-.2v-.2h-.4v-.4-.2h.2V272.6zM-33.9 272.8v.2h-.2v-.2h-.2v-.2h.4v.2M-92.8 272.8h.4v.4h-.4zM-68.4 273.2h.2V273.8h-.2v-.6zM-28.4 273.3v.2h.2v.2h-.2v.2c-.1 0-.3-.1-.4 0v.2h-.2v.2h-.2v.2h-.4v-.2h.2v-.2h.2v-.2h.2v-.2h.2v-.2h.2v-.2-.2h.2c0 .1-.1.2 0 .2M-30.6 273.5h-.2-.2v.2h-.2v-.2-.2H-30.6v.2M-41.1 274.1v.2h-.2v-.2h-.2v-.2h.4s-.1.1 0 .2M-33 274.6v.2h-.2v.2h-.2v.2h-.2v-.2-.4h.2v-.2H-32.8v.2h-.2M-58.4 275.2h-.2v-.2-.2h.2v-.2h.4v.2h-.2v.2h-.2s.1.1 0 .2M-146.9 274.8h.4v.2h-.2v.4h-.2v.4h-.2v.4h-.2v.2h-.2v-.2c0-.1-.1-.3 0-.4h.2v-.4h.2v-.2h.2v-.4zM-50.2 274.8h.2v.4h.2v.7h-.2v-.2h-.2v-.2-.7zM-110.4 275h.4v.2h.2v.2h.2c0 .1-.1.3 0 .4h.2v.2h.2v.2h.2V276.8h.2v.2h.2c0 .1-.1.3 0 .4h.2c0 .1-.1.3 0 .4h.4v-.4-.2h-.2v-.4-.2h-.2v-.5h.4v.2h-.2v.2h.2v.4h.2v.8h.2v.7h.2V279.5h-.2v-.2h-.2v.4h-.2v-.2h-.2v-.4h-.2v-.2-.4h-.2v-.2-.2-.2h-.2v-.2-.2h-.2v-.2h-.2v-.4h-.2v-.2h-.2v-.2h-.2v-.2-.2h-.2v-.2h-.2v-.2h-.2v-.4h-.2v-.2h.2v-.1zm2.1 3.1v.7h.2v-.2c.1-.2 0-.4 0-.5 0 0-.1-.1-.2 0M-142.9 275.2v.2h.2v.2h-.2v.4h-.2V275.4v-.2c0-.1.2 0 .2 0M-106.4 275.3v-.2h.2v.2h.2v.2h-.2-.2c-.1 0 0-.1 0-.2M-83 275.2v.2h.2V276h-.4v-.5-.2c0-.2.1-.1.2-.1M-34.4 275.5v.4h-.2v-.2-.4h.4v.2h-.2M-105.4 275.5v.8h-.2v.2h-.2v.2h-.2v-.2h-.2v-.2-.2h-.2v-.2h.4v-.2h.2v-.2h.4zM-58.2 275.5v.2h.2v.4h-.2v-.2h-.2v-.2-.2h.2M-146.7 276.4h-.2v-.2-.2h.2v-.2h.4v.2h-.2v.2h-.2v.2M-60.2 276.4v.2h.2v.2h.2v.9c.1 0 .3-.1.4 0v.2h.2v.2h.2v.2h-.2-.2v-.2h-.2v-.2h-.2v.2h-.2v-.2-.4-.2h-.2v-.2-.2h-.2v-.2c0-.1-.1-.3 0-.4.1.1.2.2.2.1M-21.4 276.6h-.4-.2v.2h-.2v-.2-.2h.8c.1 0 0 .2 0 .2M-65.1 277h.2v.2h.2V277.8h.2V278.4h-.2v-.2-.2h-.2v-.2-.2-.2h-.2v-.4zM-94.5 277.3v.2h.2v1h-.2v-.2-.2h-.2v-.4-.4h.2M-87.2 277.3h.4v.4h.2v.2h.2V278.5h-.2v-.2h-.2v-.2h-.2v-.2h-.2V277.3zM-51.1 277.5c0 .1.1.3 0 .4-.1.1-.3 0-.4 0v-.2-.4h.2v.2h.2M-25.5 277.3v.4h-.7v-.2h.4v-.2h.2.1M-74.9 277.9v.4h-.2v.4h-.2v.4h-.4v-.2h.2v-.2-.2h.2c.1-.1 0-.3 0-.4h.2v-.2-.2h.2v.2M-70.7 278.1h.4v.7h-.9-.2v-.2H-70.8v-.2h.2V278.1zM-20.6 278.2H-20v.2h-.4-.2c-.1 0 0-.1 0-.2M-145.8 278.6v.4h-.2v.2h-.2v-.2-.2h.2v-.2h.2M-91 278.8h.2v.8h-.4v-.4h.2v-.4zM-106.8 279.1v.8h-.2v.2h-.2v-.7h.2v-.2c0-.1.2 0 .2-.1M-31.3 279.7v.2h-.2-.2v.2h-.8v.2h-.5-.2v.2h-.8v.2h-1v-.2h.4v-.2h1v-.2h1.1v-.2H-31.9v-.2H-31.3v-.2h.2c-.2 0-.3.2-.2.2M-90.5 280.2v.2h-.2v-.2h-.2v-.2h.4v.2M-78.7 280.2H-78.1v.2h-.4-.2v-.2M-147.6 280.4h.4v.2h.2v.2h.2v.4h-.2v.4h-.2v.4h-.2c0 .1.1.3 0 .4h-.2v1.1h-.2v-.2h-.2V282.7v-.9-.4h.2v-.8h.2v-.2zM-37 280.6h1.6v.2h-.2-.2v.2c-.1.1-.3 0-.4 0v.2H-36.8v-.2h-.4v-.4zM-88.1 281.1v.2H-88.7v-.2h-.2v-.2h.4v.2h.4M-71.8 281h.2V281.6h-.2v-.6zM-78.9 281.1h.2v.4h-.2v.8h-.2v.4h-.2v.2h-.2v.2h-.5v-.2h.4v-.2h.2c.1-.1-.1-.3 0-.4h.2v-.4h.2V281.3h.2v-.2zM-71.6 281.9h.2v.2h.2v.2h.2v.4h.2v.2h-.2v.2h-.2v-.2-.2h-.2v-.2h-.2v-.4h-.2v-.2c0-.1.1 0 .2 0M-114.2 283.3h.2v.4c0 .1.1.3 0 .4h-.2v-.2-.2h-.2v-.2h.2s-.1-.1 0-.2M-146.4 283.5h.4v.7h-.2v-.2h-.2v-.2c0-.1.1-.2 0-.3M-86.7 283.5h.2v.2h.2v.4h.8v-.2H-84.9v.2h.4v.2h.2v.4h.2v.2h.2v.4h.2v.2h.2v.4h.2v.4h.2V286.9h.2V287.5h.2V288.1h.2v1h.2v1.4h-.2v.8h-.2V291.9h-.2v.4h-.2v.2h-.2v.2h-.2c0 .1-.1.3 0 .4h.2v.2h-.2v.2h-.4v-.2h-.2v-.2-.4-.7c0-.1.1-.3 0-.4-.1-.1-.3 0-.4 0v-.4c.1 0 .3.1.4 0v-.2h.2V290.4c-.1 0-.3.1-.4 0v-.2-.2h-.2v-.4-.4-.2h-.2v-1h-.2v-.2-.2h-.2v-.4-.2h-.2v-.4-.2h-.2v-.4-.5-.2h-.2v-.7h-.2v-.2h-.2-.2v-.2h-.2c0-.1.1-.3 0-.4h-.2V283.5zm1.5 1.5c-.1 0 0 .3 0 .4h.2v.8h.2v1.2h.2v.2h.2v.4h.2v.2h.2v.4h.2v.4h.2v.2h.2v-1.1h-.2v-.4c0-.2.1-.5 0-.7h-.2v-.2-.2h-.2v-.2-.2h-.2v-.2h-.2v-.2-.2h-.2v-.2h-.2v-.2h-.2v-.2c-.1 0-.2-.1-.2 0"/><path fill="#1D1D1B" d="M-76.9 284V284.6h-.2v.2h-.4-.2v.2h-.2v.2h-.2v.2h-.2v.2h-.2v.2h-.2v.2h-.2c0 .1.1.3 0 .4h-.2v.2h-.2v.4h-.2v.4h-.2v.2h-.2v.4c-.1 0-.3-.1-.4 0v.2h-.2-.2v-.2h-.2v-.2-.2-.2h-.2v-1.3h-1.3v.2h-1-.2v-.2h.4v-.2h1.1v-.2h1.1v-1.1-.2h.4v-.2h.2v-.2h.4v.4h.4v-.2h.2v-.2h.2v-.2h.4v-.2h1.3v.2h.4v.2zm-2 .4v.2h-.2-.2v.2h-.2V285.4h.4v-.2h.2v-.2h.2v-.2h.2v-.2h.2v-.2h-.6zM-31.2 284.2v-.2h1.2v.2h-.5v.2h-.4v-.2c-.1 0-.2.1-.3 0M-144.9 284.2h.4v.8h-.2v.2h-.2v-.2-.8M-25.4 284.4v-.2h.2c.1 0 .3-.1.4 0v.2h-.2v.2h-.2v-.2h-.2M-113.7 284.6h.2v.4h.2c0 .1-.1.3 0 .4h.2v.2h-.2-.2v-.2-.2h-.2v-.4h-.2v-.2h.2M-146.2 285.1v-.2h.2v.2h.2v.2h-.2-.2s.1-.1 0-.2M-130.8 285.1h.4v.7h.2V286.4h.2v.4h.2v.2h.2c0 .1-.1.3 0 .4h.2v.2h.2v.4h.2v.4h.2v.4h-.2v-.2h-.2v-.2h-.2v-.2h-.2v-.2-.2h-.2v-.2h-.2c0-.1.1-.3 0-.4h-.2v-.4h-.2v-.2h-.2v-.4h-.2v-1.1zM-129.5 285.1h.4v.2h.2v.2h.2v.2c.1.1.3 0 .4 0v.2h.2v.2h.2v.2h.2v.4h.4v.2h.2v.2h.2v.2h.2v-.2-.2h.4v.4h.2v.4h.2v.2h.2v.2h.4v.2h.4v.2h.2v.2c.1 0 .3-.1.4 0v.2h.2v.2h.4v.2h.2v.2h.2v.2c.1 0 .3-.1.4 0v.2H-123.5v-.2h-.2-.2v-.2c-.1 0-.3.1-.4 0v-.2h-.2v-.2h-.2v-.2c-.1 0-.3.1-.4 0v-.2h-.4-.2v-.2h-.2v.2h-.4v-.2c-.1 0-.3.1-.4 0v-.2h-.2v-.2-.2h-.2v-.2h-.2v-.2h-.2v-.4h-.2v-.2h-.2v-.2h-.2v-.2h-.2v-.2h-.2-.2v-.2h-.2v.4h.2v.4h.2v.4h-.4v-.2h-.2v-.2h-.2v-.2h-.2v-.4-.2-.2h.2v-.2-.2h-.2v-.4zM-95.2 285.3h.4v.4h.2v.2c.2 0 .5.1.7 0h.2v-.2H-93.1v.2h-.2-.2v.2H-94.1h-.2v.2h-.7v-.2h-.2v-.2-.6M-118.8 285.7h.2v.4h-.4v-.2h.2v-.2M-115.7 286.4h.4v.2h.2v.4h.2v.4h-.2v-.2h-.2v-.2h-.2v-.2h-.2v-.4zM-54 286.4v.2h-.2-.2v.2c-.2.1-.4 0-.5 0v.2h-.2-.2-.2v.2h-.4-.2v.2h-.4v-.4H-55.9v-.2H-55.3v-.2H-54.7v-.2h.7zM-119.5 287.5h-.4v-.2H-120.5h-.2v-.2H-121.3v.4h.2v.2h.2v.2h.2v.2h.2v.4h-.2v-.2h-.2v-.2h-.2v-.2h-.2v-.2h-.2v-.2h-.2v-.2h-.2v-.2-.2h.2v-.2h.8v.2h.8v.2H-119.5v.4zM-115.2 288.2h-.4v-.2H-116.2v-.2c-.1 0-.3.1-.4 0-.1-.1 0-.3 0-.4h-.2v-.2h.4v.2c.1 0 .3-.1.4 0v.2h.4v.2h.4v.2c.1.1 0 .2 0 .2M-56.9 287.3v.2h-.2-.2v.2h-.2-.2v-.2h.2v-.2h.6zM-141.8 287.7v.2h-.2v.2h-.2v.2h-.4v-.2h.2c0-.1-.1-.3 0-.4h.4v-.2h.2v.2M-57.8 287.5v.2h-.2v.2h-.2-.2v-.2h.2v-.2c.1-.1.3 0 .4 0M-58.6 287.7v.2h-.2-.2v.2h-.4-.2v.2h-.5-.2v.2h-4.2-.2v-.2H-66v-.2h-.8v-.2h1.6v.2h1.1c.1 0 .3-.1.4 0v.2h2.9v-.2h1.1v-.2H-59.1v-.2h.5zM-19.2 287.7H-18.6v.2h-.4-.2v-.2M-17.9 287.7h.2v.2h.8v.4h-.2v-.2c-.2-.1-.4 0-.5 0h-.2v-.2h-.2v-.2c-.1-.1 0 0 .1 0M-67.6 287.9H-67v.2h-.4-.2c-.1-.1 0-.2 0-.2M-16.3 288.4h.4v.4h-.4zM-120.1 288.9v-.2h.4v.2h.2v.4h-.2v-.2h-.2v-.2s-.1.1-.2 0M-72 288.9c-.1 0-.3-.1-.4 0v.2h-.4-.2v.2h-.2v-.2-.2H-72.6v-.2h.2c.1 0 .3-.1.4 0 .1.1 0 .2 0 .2M-125.3 293.5h.9v.2h2.2v.2h1.8v.2h2.5v-.2h1v-.2H-116.3v-.2h1.3v-.2H-114.4v-.2c.2 0 .4.1.5 0h.2v-.2h1.5v-.2H-111.3v-.2H-110.7v-.2H-110.1v-.2c.2 0 .4.1.5 0h.2v-.2h.7v-.2h.7v-.2h.7v-.2h.8v-.2h.9v-.2h.7v-.2h.4v-.2H-103.9v-.2H-103.3v-.2h.7v-.2h1v-.2h2.8v-.2H-98.2v-.2h.4v-.2H-97.2v-.2h.4v.2h-.2v.2c-.1 0-.3-.1-.4 0v.2c-.1 0-.3-.1-.4 0v.2H-99v.2h-.8v.2h-2.4v.2h-1v.2h-.7v.2H-104.5v.2h-.2-.2v.2h-.4-.2v.2h-.5-.2v.2h-.9v.2h-.8v.2c-.2 0-.4-.1-.5 0h-.2v.2h-.9v.2H-110.1v.2h-.2-.2-.2v.2c-.2 0-.4-.1-.5 0h-.2v.2h-.9v.2h-1.1v.2h-1.1v.2h-.7v.2h-.7v.2h-.2-.2-.2v.2c-.2 0-.4-.1-.5 0h-.2v.2h-1.5v.2h-2-.2v-.2h-1.8v-.2h-1.6v-.2H-125.2v-.2h-.2c-.1 0-.3.1-.4 0 .5-.1.5-.2.5-.2M-80.1 290.2v-.2h.2v.2h.2v.2h-.2-.2c-.1 0 0-.1 0-.2M-78.9 290c.1 0 .3-.1.4 0v.2h-.4-.4v-.2h.4M-82.3 290.2h1.7v.2h-1.5-.2v-.2M-49.8 290.2v.2h-.2v.2h-1.2v-.2H-50.3v-.2h.5zM-52.2 290.6H-51.6v.2h-.4-.2v-.2M-26.3 290.9v.2h-.2v.2h-.2v.2h-.2v.2h-.2v.2h-.2v.4h.2v-.2h.4v-.2H-26.1v-.2h.5v.2h-.2-.2v.2c-.1 0-.3-.1-.4 0v.2h-.4v.2h-.2v.2h-.2v.2h-1.1v.2h.4v.2H-29.1v.2h-1.6v.2H-32v.2h-1.1v.2h-1.5v.2H-37.6v-.2h-.4v-.2h-.2v-.2c-.1 0-.3.1-.4 0v-.2h-.2v-.2h.4v.2h.4v.2H-37.4v.2h1.7v-.2h2.1v-.2h.2c.3-.1.6 0 .9 0h.4v-.2h1v-.2H-29.8v-.2c.3 0 .6.1.9 0h.2v-.2H-28.1v-.2h.4v-.4h.2v-.2h.2v-.2h.2v-.2h.2v-.2h.2v-.2h.2v-.2h.2v-.2h.2l-.2.2M-115.7 291.3v.2h-.2-.2v.2c-.1 0-.3-.1-.4 0v.2c-.1 0-.3-.1-.4 0v.2h-.5v-.2h.2v-.2c.1 0 .3.1.4 0v-.2h.4v-.2h.7zM-90.7 291.5v.2h-.2-.2-.2v.2H-91.9v-.2h.4v-.2h.8zM-92.5 291.8v.2h-.2-.2-.2v.2h-.9v.2h-.4v-.4h1v-.2h.9zM-67.8 292h.4v.2h1.9v.2h-2.2v-.4zM-21.4 292c0 .1.1.3 0 .4H-22h-.2v-.2H-21.6v-.2c.1 0 .2.1.2 0M-172.3 292.6h-.2v.2h-.2v-.2h-.2v-.2h.2v-.2h.2v.2h.2v.2M-135.7 293.1h-.2v-.2h-.7v-.2h-1.1v-.2H-139.4v.2h-.8v.2h-.2-.2v.2h-.2-.2v.2h-.2-.2v.2h-.2v.2h-.2-.2v.2h-.2v.2h-.4v.2h-.2v.2c-.1 0-.3-.1-.4 0v.2h-.2v.2h-.4v.2h-.5-.2v.2h-.5-.2v-.2H-146.1v-.4h.4v.2h1.1v-.2H-144v-.2H-143.4v-.2h.2v-.2c.1 0 .3.1.4 0v-.2h.2v-.2h.4v-.2h.2v-.2h.4v-.2c.1 0 .3.1.4 0v-.2c.1 0 .3.1.4 0v-.2c.1 0 .3.1.4 0v-.2H-139.8v-.2h1.1v-.2H-138.1v.2h1.1v.2h.2v-.2h.2v.2h.8v.2h.4v.4zM-94.7 292.4v.2h-.2v-.2h-.2v.2H-95.7h-.2v.2h-.2v-.2-.2h.8v-.2h.8v.2h-.2M-55.3 292.4h-.2v.2h-2v-.2h1.3v-.2h.9v.2M-142.9 292.4v.2h-.2v.2h-1.2v.2h-2.1v.2h-4.1v.4h-.2v-.2h-.4-.2v-.2h-.2c-.1 0-.3-.1-.4 0v.2h-.2v-.2h-.2v.2H-153.2v-.2h-1.1v-.2h2.8v-.2H-148.6v-.2h.4v.2H-145.4v-.2h1.7v-.2h.8M-142.5 292.4H-141.9v.2h-.4-.2c-.1-.1 0-.2 0-.2M-63.6 292.4H-63v.2h-1-.2v-.2H-63.6zM-62.7 292.4h.9v.2h-.7-.2c-.1-.1 0-.2 0-.2M-154.5 293.1h-.7-.2v-.2h-2.5c-.1 0-.3.1-.4 0v-.2h.4v-.2h2v.2h1.1v.2h.4c-.1.1-.1.2-.1.2M-53.1 292.6h.5v.2H-52v.2h.9v.2h.4v.2c.2 0 .4-.1.5 0h.2v.2h1.1v.4h-1.2v-.2h-.8v-.2h-.5-.2v-.2h-.7v-.2h-.4v-.2h-.4v-.4zM-24.8 292.8v-.2h.8v.2h-.8zM-158.7 292.8v.2H-159.3c-.1 0-.3-.1-.4 0v.2h-.4v-.4h1.4zM-134.9 292.9c.2 0 .5-.1.7 0h.2v.2h1.8v.4h-1.6v-.2h-1.1-.2v-.2h-.2v-.2h.4M-12.3 292.9h.2v.2c-.1.1-.3 0-.4 0h-.9v.2h-.2-.2-.2v.2H-14.6v.2c-.1 0-.3-.1-.4 0v.2c-.1 0-.3-.1-.4 0v.2c-.1 0-.3-.1-.4 0v.2c-.1 0-.3-.1-.4 0v.2h-.4v.2h-.2-.2v.2h-.2-.2v.2h-.2-.2v.2h-.2-.2v.2h-.2-.2v.2h-.4-.2v.2H-19.8v.2H-22.5v-.2h-.5v-.2h-.2-.2v-.2c-.1 0-.3.1-.4 0v-.2h-.5-.2v-.2h-.2-.2v-.2h-.2v-.2h-.2v-.7h.4v.2h.2v.2h.2v.2h.2v.2h.4v.2h.4v.2H-22.9v.2h.8v.2c.2.1.5 0 .7 0h.2v.2H-19.4v-.2h.8v-.2H-18v-.2h.4v-.2c.1 0 .3.1.4 0v-.2h.4v-.2h.4v-.2h.4v-.2h.4v-.2h.4v-.2h.4v-.2h.4v-.2c.1 0 .3.1.4 0v-.2h.4v-.2H-13v-.2h.8-.1zM-126.8 293.5h-.2v.2H-127.6v-.2H-129.5h-.2v-.2h1.6v-.2h.4v.2h.8c.2 0 .1.1.1.2"/><path fill="#1D1D1B" d="M-125.7 293.7h-.9v-.2h.2v-.2h.5v.2h.2c.1 0 0 .1 0 .2M-39 293.8h.9v.2h-.7-.2s.1-.1 0-.2M-148.7 294.2v-.2H-148.1v.2h1.1v.2h.5c.1 0 .3-.1.4 0v.2h.2v.4h-.2v-.2H-146.7h-.2v-.2h-.8v-.2H-148.3h-.2v-.2h-.2zM-40.8 294H-40.2v.2h-.4-.2v-.2M-154.7 295.3v-.4h-.2v-.2h-.2c0-.1.1-.3 0-.4h-.2v-.2h.4v.2h.2v.2h.2v.2c0 .1-.1.3 0 .4h.2v.4h.5v.2h.4v.2h-.2v.2h-.2v-.2h-1.1v-.2h-3.5-.2v-.2h-.2v.2h-1.1v.2h-.5v.2h-1.9v-.2h-.4v-.2H-160.6v-.2h-.2v-.4h.8v-.2h.5v.4c-.1 0-.3-.1-.4 0v.2c.1 0 .3.1.4 0v-.2h1.9v.2h.8v-.2h2.1z"/><path fill="#1D1D1B" d="M-158.7 294.7v.2h-.2v-.2h-.2v-.2h.4v.2M-102.6 294.7V295.3h-.2v.4h-.4v-.4h.2v-.2-.2h.2c0-.1-.1-.3 0-.4h.2c0 .1-.1.2 0 .2M-100.6 294.6h.2v.4h-.4v-.2h.2c0-.1-.1-.2 0-.2M-75.8 294.6v.2h-.2-.2v.2h-.9v.2h-.2-.2-.2v.2h-.3v-.2h.2v-.2c.1 0 .3.1.4 0v-.2h1.1v-.2h.5zM-145.3 295.7h-.4v-.2H-146.3h-.2v-.2h-1.3v-.2h-1.1v-.2h1.4c.1 0 .3-.1.4 0v.2h.9v.2H-145.6v.2h.2c.2 0 .1.1.1.2"/><path fill="#1D1D1B" d="M-103.4 295.1v.2h-.2v.2h-.2v.2h-.2v.2h-.2-.2v.2h-.2-.2v.2h-.2-.2v.2H-105.8v.2c-.2.1-.4-.1-.5 0v.2h-.2-.2v.2h-.4v.2h-.2v.2h-.2-.2v.2h-.2v.2h-.2-.2v.2h-.2-.2v.2h-.2-.2v.2H-109.7v.2h-.8v.2h-.5-.2v.2h-.7v.2H-112.8v.2h-3v-.2h-.2-.2-.2v-.2c-.2-.1-.5 0-.7 0h-.4v-.2h-3.2v.2h-2.6-.2v-.2-.2H-122.9v.2h.7v-.2h1.4v-.2h3.6v.2h1.2v.2h1.2v.2h2v-.2h1v-.2h.8v-.2c.2-.1.5 0 .7 0v-.2h.8v-.2H-108.9v-.2H-108.3v-.2h.4v-.2h.2v-.2c.1 0 .3.1.4 0v-.2h.4v-.2h.4v-.2h.4v-.2h.4v-.2h.4v-.2H-104.7v-.2c.1 0 .3.1.4 0v-.2h.4v-.2h.4v-.2h.2v-.2h.2v-.2h.2c-.4.1-.5.2-.5.2M-151.8 295.1v.2h-.2v.2h-.2v.2h-.2v.2h-.5v-.2h.2v-.2h.2v-.2c.1-.1.3 0 .4 0v-.2H-151.8zM-38.2 295.1h.4v.4h-.4zM-144.5 295.8h-.2-.2v-.2H-144.3v.2h.4v.2h.4v.2h.4v.2h.2v.2h5.7v.4h-4.9v.5h.2v.2h.2v.2h.2V298.5h-.4v-.5h-.2v-.2-.2h-.2v-.2-.2h-.2v-.2h-.2v-.2h-.2v.2h-.2c-.1-.1.1-.3 0-.4h-.2-.2v-.2h-.2v.2h-.2-.4v-.2h-1.3v-.2h-1.1v-.2h-.8v-.2c-.3-.1-.6 0-.9 0v-.2-.2H-147.2v.2h.9v.2h.4v.2h.2v-.2H-145.1v.2h1.2v.2h.2v-.2h-.2v-.2c-.1-.1-.3.1-.4 0-.3.2-.2.1-.2 0M-148.5 295.8v.2h-.2-.2v.2h-.2-.2v.2h-.2v.2h-.4v.2h-.2v.2h-.2v.2h-.4v.2h-.2v.2h-.2v.2h-.4v.2h-.4-.2v.2h-.5v-.2h.2v-.2h.4v-.2H-151.4v-.2h.2v-.2h.4v-.2h.2v-.2h.2v-.2c.1-.1.3 0 .4 0v-.2h.2v-.2h.4v-.2c.1 0 .3.1.4 0v-.2h.5zM-131.1 296.2v.2h-.2v.2H-131.9v-.4h.8zM-134.4 296.6v-.2h1.2v.2h-.5v.2h-.4v-.2c-.1-.1-.2 0-.3 0M-116.4 296.6v.2H-118.4v-.2h.4c.2 0 .4.1.5 0h.2v-.2h.4v.2h.2s.2-.1.3 0M-171.2 296.6h.9v.2H-167.9v.2h1.5v.2h.2v.2h-1.1v-.2H-169.1h-.2v-.2h-1.8v-.4zM-137.1 296.6h2.3v.2h-.5-.2v.2h-1.6v-.4z"/><path fill="#1D1D1B" d="M-113.5 296.6H-112.9v.2h-.4-.2v-.2"/><path fill="#1D1D1B" d="M-111.5 296.6v.2h-.2-.2v.2h-.2-.2-.2v.2h-.2c-.1 0-.3-.1-.4 0v.2h-.7v-.2h.2v-.2H-112.7v-.2h.2v-.2h1zM-91 296.6h.4v.4h-.5v-.2h.2v-.2zM-92.1 296.9v-.2h.4v.2h-.2v.2h-.2v-.2M-165.6 297.1h2.2v.2h-2-.2v-.2M-121.3 297.7h-1.3v-.2h-2.4-.2v.2h-1.1v-.2h.4v-.2h1.5v-.2h1.3v.2h1.8v.4z"/><path fill="#1D1D1B" d="M-114.2 297.1c.1 0 .3-.1.4 0v.2h-.4-.4v-.2h.4M-162.9 297.3h1.9v.2h-1.5c-.1 0-.3.1-.4 0 0-.1.1-.2 0-.2M-120.6 297.5h.2v-.2h.4v.2h1.8c.1 0 .3-.1.4 0v.2h-2.5-.2c-.1-.1-.1-.2-.1-.2M-116.1 297.3c.1 0 .3-.1.4 0v.2h-.4-.4v-.2h.4M-161.8 297.8v.2h-.2-.4v-.2h.2v-.2h.2v.2c.1.1.2 0 .2 0M-95.6 297.7h.2v.2h.2v.4h.2v.4h-.2v-.2h-.2v-.2-.2h-.2v-.4zM-153.4 298.2v.2h-.2v.2h-1.9-.2v-.2H-157.4v-.4h.2v-.2H-156.6v.2h2.1v.2h1.1zM-128.4 298c0 .1.1.3 0 .4H-129h-.2v-.2H-128.6v-.2h.2M-104.3 298.2v.4h-.2v.4h-.2v.2h-.2v.2h-.2v.2c-.2 0-.5-.1-.7 0h-.2v.2h-.7-.2v.2h-.9v.2h-1.3v-.2h.2v-.2h.4v.2h.4v-.2H-107.5v-.2H-106.6v-.2h.8v-.2h.8v-.2h.4v-.2h.2c0-.1-.1-.3 0-.4h.2c0-.1-.1-.3 0-.4h.2c-.2 0-.3.2-.3.2M-130 298.4h.2v.4h-.2-.2-.2v-.2h.4v-.2zM-120.4 300.2c-.1 0-.3-.1-.4 0v.2h-.4-.2v.2h-.9v.2h-1v.2h-2.6-.2v-.2h.2v-.2h2.1v-.2h1.1v-.2H-121.8v-.2h1v-.2h.4v.4zM-119.5 299.8c.1 0 .3-.1.4 0v.2h-.4-.4v-.2h.4M-111.7 299.8c.1 0 .3-.1.4 0v.2h-.4-.4v-.2h.4M-136.6 300.2H-136v.2h-.4-.2c0-.1.1-.2 0-.2M-149.6 300.6h.4v.5h-.5c0-.1-.1-.3 0-.4h.2v-.1zM-128.2 300.7v.2h-.2v-.2h-.2v-.2h.4v.2M-151.1 304.2h1.1v.2h-.9-.2c0-.1.1-.2 0-.2M-149.1 304.2c.1 0 .3-.1.4 0v.2h-.4-.4v-.2h.4"/><path fill="#686D3B" d="M-107.2 308.9v.4h-.2V309.9h-.2v.4h-.2v-.2h-.2-.2v-.2c-.1-.1-.3 0-.4 0v-.2H-109.2v-.2h-1.3-.2v.2H-111.3v.2h-.2v.2h-.4c0 .1.1.3 0 .4h-.2v.2h-.2V311.3h-.2v1.5h.2V313.4h.2v.4h.2v.4h.2v.2h.2v.2h.2v.2h.2v.2h.2v.2h.2v.2h.2v.2c.1 0 .3-.1.4 0v.2h.2v.2h.2v.2h.2v.2c.1 0 .3-.1.4 0v.2h.2v.2h.2v.2h.2v.2h.2v.2h.2v.2h.2v.2h.2v.2h.2c.1.1 0 .3 0 .4h.2v.2h.2v.4h.2v.4h.2c0 .1-.1.3 0 .4h.2v.8h.2v1.5h-.2V323h-.2V323.6h-.2v.4h-.2v.2h-.2v.4h-.2v.2h-.2v.2h-.2v.2h-.4v.2h-.2v.2h-.2-.2v.2h-.2-.2v.2h-.7v.2h-2-.2v-.2h-1v-.2h-.2-.2-.2v-.2c-.1 0-.3.1-.4 0v-.2h-.2v-.2h-.2c-.1 0 0-.3 0-.4v-.2h.2v-.4-.2h.2v-.5h.5v.2h.2v.2h.2c.1 0 .3-.1.4 0v.2h.7v.2h1.1v-.2h.7v-.2h.4v-.2h.2v-.2h.2v-.2h.2v-.2h.2c0-.1-.1-.3 0-.4h.2v-.5-.4h.2v-.2h-.2v-.4-.5-.2h-.2v-.4h-.2v-.2-.2h-.2v-.2h-.2v-.2h-.2v-.2h-.2v-.2h-.2v-.2h-.2v-.2h-.2v-.2h-.2v-.2h-.2v-.2h-.2v-.2c-.1 0-.3.1-.4 0v-.2h-.2v-.2h-.2v-.2h-.2v-.2h-.2v-.2h-.2v-.2h-.2v-.2h-.2v-.2h-.2v-.2h-.2v-.2h-.2v-.2h-.2c0-.1.1-.3 0-.4h-.2c0-.1.1-.3 0-.4h-.2c0-.1.1-.3 0-.4h-.2c0-.1.1-.3 0-.4h-.2v-3.2h.2v-.2-.4h.2v-.2-.2h.2v-.2-.2h.2v-.2h.2v-.2h.2v-.2h.2v-.2h.2v-.2h.2v-.2c.1 0 .3.1.4 0v-.2c.1 0 .3.1.4 0v-.2H-111.6v-.2h2.2v.2H-108.8v.2H-108.2v.2h.2v.2c.1 0 .3-.1.4 0V308.9zM-29.5 308.7v.4h-.2c0 .2.1.4 0 .5v.2h-.2c0 .1.1.3 0 .4h-.2v-.2c-.1 0-.3.1-.4 0v-.2c-.1 0-.3.1-.4 0v-.2h-.5-.2v-.2h-1.3v.2h-.2-.2-.2v.2h-.2-.2v.2h-.2v.2h-.2c0 .1.1.3 0 .4h-.2c0 .1.1.3 0 .4h-.2V312.9h.2v.5h.2v.2h.2c0 .1-.1.3 0 .4h.2v.2h.2v.2h.2v.2h.2v.2h.2v.2h.2v.2h.2v.2h.2v.2c.1 0 .3-.1.4 0v.2h.2v.2h.2v.2h.2v.2h.4v.2h.2v.2h.2v.2h.2v.2h.2v.2h.2v.2h.2v.4h.2v.2h.2v.2h.2v.4h.2v.4h.2V319.8h.2v1.1h.2V321.5h-.2v1.1h-.2V323.2h-.2c0 .1.1.3 0 .4h-.2c0 .1.1.3 0 .4h-.2v.2h-.2v.2h-.2v.2h-.2v.2h-.2v.2h-.2v.2h-.2v.2c-.1 0-.3-.1-.4 0v.2h-.4-.2v.2H-32.3v.2h-2.3v-.2h-.8v-.2h-.4-.2v-.2h-.2-.2v-.2c-.1 0-.3.1-.4 0v-.2h-.2v-.2h.2v-.2c0-.1-.1-.3 0-.4h.2v-.5h.2v-.2-.2h.4v.2h.4v.2H-35v.2h.7v.2h1.1v-.2c.2 0 .4.1.5 0h.2v-.2h.4v-.2h.2v-.2h.2v-.2h.2c0-.1-.1-.3 0-.4h.2c0-.1-.1-.3 0-.4h.2V321v-.4-.2h-.2v-.5h-.2v-.2h-.2c0-.1.1-.3 0-.4h-.2v-.2h-.2v-.2h-.2v-.2h-.2v-.2h-.2v-.2h-.2v-.2h-.2v-.2h-.2v-.2h-.2v-.2c-.1 0-.3.1-.4 0v-.2h-.2v-.2h-.2v-.2h-.2v-.2h-.2v-.2h-.2v-.2c-.1 0-.3.1-.4 0v-.2-.2h-.2v-.2h-.2v-.2h-.2v-.2h-.2v-.4h-.2v-.2h-.2c0-.1.1-.3 0-.4h-.2v-.4-.2h-.2v-.2-.2-.4h-.2V312v-.4-.2h.2v-.4-.4-.2h.2v-.4-.2h.2v-.2-.2h.2v-.2h.2v-.2h.2v-.2h.2v-.2h.2v-.2h.2v-.2h.2v-.2c.1 0 .3.1.4 0v-.2h.4v-.2H-33.7v-.2h2.3v.2H-30.8v.2h.4v.2h.4v.2h.4v.5zM-140 308.2h.2v.8h.2v.2c0 .1-.1.3 0 .4h.2v.8h.2v.8h.2v.5h.2v.8h.2v.5h.2v.8h.2c0 .2-.1.4 0 .5h.2v.8h.2v.5h.2v.8h.2v.5h.2v.8h.2v.5h.2v.8h.2v.5h.2v.8h.2v.5h.2v.8h.2v.5h.2v.8h.2v.5h.2v.8h.2V324.8h.2v.5h-2.2v-.5h-.2v-.2-.2-.4h-.2v-1-.2h-.2v-.2-.5h-.2v-.2-.2-.4h-.2v-.4-.4h-.2v-.2-.2-.4h-.2v-.2h-4.7v.5h-.2v.8h-.2v.8h-.2V322.2h-.2v.4c0 .1.1.3 0 .4h-.2v.7h-.2v.4c0 .1.1.3 0 .4h-.2v.2h-1.8v-.7h.2v-.2-.2-.2h.2V322.8v-.2h.2v-.2-.4h.2c.1-.2 0-.4 0-.5v-.2h.2v-.2-.4h.2v-.5-.2h.2v-.2-.4h.2v-.5-.2h.2v-.2-.4h.2v-.5-.2h.2v-.2-.4h.2c.1-.2 0-.4 0-.5h.2v-.2-.2-.4h.2c0-.2-.1-.4 0-.5h.2v-.2-.2-.4h.2v-.5h.2v-.2-.2-.4h.2v-.5h.2v-.2-.2-.4h.2v-.5h.2v-.2-.2-.4h.2v-.5h.2v-.2-.5h.2v-.2-.4h.2v-.2-.2-.2h.2v.1h1.9c-.8 0-.8.1-.8.2m-1.1 2.5V311.3h-.2v.8h-.2v.8h-.2v.8h-.2v.8h-.2V315.1h-.2v.8h-.2v.8h-.2v.7h-.2v.8h-.2v.7h3.8v-.5h-.2v-.4-.2-.2h-.2v-.5-.2h-.2v-.4-.2-.2h-.2v-.4-.4h-.2v-.2-.4-.2h-.2v-.2-.4-.2h-.2v-.5-.2h-.2v-.5-.2h-.2v-.5-.2h-.2v-.5c.4-.4.2-.4.2-.4M-135.3 308h2.2v.5h.2v1h.2v.7h.2V311.1h.2v1h.2c0 .2-.1.4 0 .5v.2h.2c0 .2-.1.5 0 .7v.2h.2v.8h.2v.2c0 .2-.1.4 0 .5v.2h.2c0 .2-.1.5 0 .7v.2h.2v.8h.2V318h.2v1h.2v.8h.2v1h.2V321.7h.2v-.2-.2-.2h.2v-.5-.4h.2v-.2-.5-.2h.2v-.2-.4-.2h.2v-.2-.4-.4h.2v-.2-.2-.4h.2v-.2-.2-.4-.2h.2v-.5-.2h.2v-.5-.4h.2v-.2-.5h.2v-.2-.5-.2h.2v-.2-.4-.2h.2v-.2-.4-.4h.2v-.2-.2-.4h.2v-1h.2v-.2-.4-.2h.2v-.2.1h2V308.6h-.2v.8h-.2v.8h-.2v.7h-.2v.8h-.2v.7h-.2v.7h-.2v.8h-.2v.7h-.2v.7h-.2v.8h-.2c0 .2.1.4 0 .5v.2h-.2v.7h-.2V318.4h-.2v.7h-.2v.8h-.2v.8h-.2v.7h-.2v.7h-.2v.8h-.2c0 .2.1.4 0 .5v.2h-.2v.7h-.2v.7h-2v-.4-.2h-.2v-.2-.8h-.2v-.2-.2-.2h-.2v-.2-.5-.2h-.2v-.2-.5h-.2v-.2-.2-.4h-.2v-.2-.2-.4h-.2v-.5-.2h-.2v-.2-.5h-.2v-.2-.2-.4h-.2c0-.2.1-.4 0-.5v-.2h-.2v-.5-.2h-.2v-.2-.5h-.2v-.2-.2-.4h-.2v-.5-.2h-.2v-.2-.4-.2h-.2v-.2-.5h-.2v-.2-.2-.4h-.2v-.5-.2h-.2v-.2-.5-.2h-.2v-.5-.2h-.2v-.2c0-.2.1-.4 0-.5h-.2v-.5zM-123.1 308h6.9v1.6h-4.8v5.6h4.2v1.7h-4.2v6.1h4.8v1.7h-6.9zM-95 308.2h.2v.4h.2v.4h.2v.4h.2v.4h.2V310.4h.2v.4h.2v.4h.2v.4h.2v.4h.2v.4h.2v.4h.2v.4h.2v.4h.2v.4h.2v.4h.2v.4h.2v.4h.2v.4h.2c0 .1-.1.3 0 .4h.2c0 .1-.1.3 0 .4h.2V317h.2v.4h.2v.4h.2v.4h.2v.4h.2v.4h.2v.4h.2v.4h.2v.4h.2v.4h.2v.4h.2V321.6h.2v.4h.2v-.2-.4-.7-1.3V308h1.8v16.7h-1.7-.2v-.2h-.2v-.2-.2h-.2v-.2-.2h-.2c0-.1.1-.3 0-.4h-.2v-.4h-.2v-.2-.2h-.2v-.2-.2h-.2v-.2-.2h-.2v-.2-.2h-.2v-.2-.4h-.2c0-.1.1-.3 0-.4h-.2c0-.1.1-.3 0-.4h-.2v-.4h-.2v-.2-.2h-.2v-.2-.2h-.2v-.2-.2h-.2v-.2-.2h-.2v-.2-.2h-.2v-.2-.2h-.2v-.2-.2h-.2v-.2-.2h-.2v-.4h-.2v-.2-.2h-.2v-.2-.2h-.2v-.2-.2h-.2v-.2-.2h-.2v-.2-.2-.2h-.2v-.2-.2h-.2v-.2-.2h-.2v-.4h-.2v-.2-.2h-.2v-.2-.2h-.2v-.2-.2h-.2v-.2-.2h-.2v-.2-.2h-.2v-.2-.2h-.2v-.2-.2h-.2v13.7H-97.4v.6-16h2.2c.2 0 .2.2.2.2M-78.3 308v.4h.2v.8h.2V309.8h.2v.8h.2c.1.2 0 .4 0 .5h.2v.8h.2v.7h.2v.2c0 .1-.1.3 0 .4h.2v.7h.2V314.5h.2v.7h.2v.2c0 .1-.1.3 0 .4h.2c.1.2 0 .4 0 .5v.2h.2V317.1h.2v.7h.2V318.4h.2v.7h.2V319.7h.2v.7h.2V321h.2v.7h.2V322.3h.2v.2c0 .2-.1.4 0 .5h.2V323.6h.2v.8h.2V325h.2v.4h-2.2v-.4h-.2v-.2-.4-.2h-.2V323h-.2v-.2-.2-.4h-.2v-.5-.2h-.2v-.7h-.2v-.2-.2-.4h-.2v-.4h-4.7v.4h-.2v.8h-.2v.7h-.2V322.1h-.2c0 .2.1.4 0 .5v.2h-.2v.7h-.2v.8h-.2v.4h-2v-.2h.2v-.4-.4h.2v-.2c0-.1-.1-.3 0-.4h.2v-.5-.2h.2v-.2-.4h.2v-.5-.2h.2v-.2c0-.1-.1-.3 0-.4h.2c.1-.2 0-.4 0-.5v-.2h.2v-.2-.4h.2v-.5-.2h.2v-.2-.4h.2v-.5-.2h.2v-.2-.4h.2v-.2-.2-.2h.2v-.2c0-.2-.1-.4 0-.5h.2v-.2-.2-.2h.2v-.2-.5h.2v-.2-.2-.2h.2v-.2-.5h.2v-.2-.2-.2h.2v-.2-.5h.2v-.2-.2-.2h.2v-.2-.5h.2v-.2-.2-.2h.2v-.5-.2h.2v-.4-.2h.2V307.6h.2v-.2h1.1zm-1.1 2.7v.2h-.2v.9h-.2v.7h-.2v.7h-.2v.2c-.1.2 0 .4 0 .5h-.2V314.5h-.2v.8h-.2v.7h-.2v.7h-.2v.8h-.2V318.1h-.2v.2h.2v.2h3.8v-.4h-.2v-.2-.2-.2-.2h-.2v-.7h-.2v-.2-.4-.2h-.2v-.2-.4-.2h-.2v-.4-.2-.2h-.2v-.4-.4h-.2v-.2-.4-.2h-.2v-.2-.4-.2h-.2v-.2-.2-.2-.2h-.2v-.7c.3.4.2.4.2.4M-66 308.2v1.5h-2.7v15.1h-2.2v-15.1h-2.7V308H-65.8v.2s-.2-.1-.2 0M-61.6 308v16.7h-2V308h1.1zM-59.3 308h2.2v.2h.2v1h.2v1h.2v.7h.2V311.8h.2v1h.2v.8h.2V314.5h.2v.7h.2V316.1h.2v1h.2v.8h.2v1h.2c.1.3-.1.6 0 .9h.2v1h.2v1.1h.4v-.7-.2h.2v-.2-.4-.4h.2v-.7-.2h.2v-.2-.4-.2h.2v-.5-.4h.2v-.2-.4-.2h.2v-.2-.4-.4h.2v-.2-.4-.2h.2v-.2-.5-.2h.2v-.5-.2h.2c0-.2-.1-.5 0-.7v-.2h.2v-.2-.4-.2h.2v-.4-.4-.2h.2v-.2-.4-.2h.2v-.7-.2h.2v-.8h2v.7h-.2v.8h-.2v.4c0 .1.1.3 0 .4h-.2v.7h-.2V311.9h-.2v.7h-.2v.7h-.2v.8h-.2v.7h-.2v.7h-.2v.8h-.2v.7h-.2v.8h-.2v.7h-.2v.7h-.2v.7h-.2v.8h-.2v.7h-.2v.7h-.2v.8h-.2v.8h-.2v.8h-.2v.5H-54.9v-.2h-.2v-.2-.2-.4h-.2v-.2-.5h-.2v-.2-.2-.4h-.2v-.5-.2h-.2v-.2-.5h-.2v-.2-.2-.4h-.2v-.5-.2h-.2v-.2-.5h-.2v-.2-.2-.4h-.2v-.5-.2h-.2v-.2-.4-.2h-.2v-.2-.5-.2h-.2v-.2-.5h-.2v-.2-.2-.4h-.2v-.5-.2h-.2v-.2-.5h-.2v-.2-.2-.4h-.2v-.5-.2h-.2v-.2-.5h-.2v-.2-.2-.4h-.2v-.8h-.2v-.2-.4-.2h-.2v-.2zM-42.8 308V308.6h.2V309.2h.2v.7h.2V310.5h.2v.7h.2V311.8h.2v.2c0 .2-.1.4 0 .5h.2V313.1h.2v.7h.2v.8h.2v.5h.2v.8h.2v.5h.2v.8h.2c0 .2-.1.4 0 .5h.2v.8h.2v.5h.2v.8h.2v.5h.2v.8h.2v.5h.2v.8h.2v.5h.2v.7h.2V324.2h.2v.8h.2v.2h-2-.2v-.2h-.2v-.2-.4-.2h-.2V323h-.2v-.2-.2-.4h-.2c0-.2.1-.4 0-.5v-.2h-.2v-.5h-.2v-.2-.4-.2h-.2V319.6h-4.7v.2h-.2v.7h-.2v.7h-.2v.8h-.2v.8h-.2v.5h-.2v.8h-.2V324.7h-2v-.4h.2v-.2-.2-.2h.2V323.1v-.2h.2v-.4-.2h.2v-.2-.5h.2v-.2-.2-.2h.2v-.2c0-.2-.1-.4 0-.5h.2v-.2-.2-.2h.2v-.2-.4-.2h.2v-.5h.2v-.2-.2-.4h.2v-.5h.2v-.2-.2-.4h.2v-.5h.2v-.2-.4-.2h.2v-.2-.4h.2c0-.2-.1-.4 0-.5h.2v-.2-.2-.4h.2c.1-.2 0-.4 0-.5h.2v-.2-.2-.4h.2v-.5h.2v-.2-.2-.4h.2v-.5h.2v-.2-.2-.4h.2v-.5h.2v-.2-.2-.4h.2v.1h1.3zm-1.1 2.7v.2h-.1v.7h-.2v.7h-.2v.7h-.2v.7h-.2v.7h-.2v.7h-.2V315.7h-.2v.8h-.2v.8h-.2v.8h-.2v.4h3.8v-.5-.4h-.2v-.2-.4-.2h-.2v-.7h-.2v-.2-.5h-.2v-.2c-.1-.2 0-.4 0-.5h-.2v-.2c-.1-.2 0-.4 0-.5h-.2v-.2-.5h-.2v-.2-.5h-.2v-.2c-.1-.2 0-.4 0-.5h-.2v-.2-.5-.2c.3-.3.2-.3.1-.3"/><path fill="#1D1D1B" d="M-146.5 328.5v-.2h1.5v.2H-145.6v2.1h-.2v-.2-1.6-.2h-.2v-.2h-.2c-.1.1-.2.1-.3.1M-139.6 328.3h.4v2.4h-.2v-.2h-.2v-.2-.5-1.5zM-125.7 328.3h.4V328.9h.2v.4h.2v.4h.2c.1.2-.1.4 0 .5h.2V330.8h-.2v-.2h-.2V330h-.9-.2v.2h-.2v.4h-.2v.2h-.2v-.2-.2h.2v-.4h.2v-.2-.4h.2c0-.1-.1-.3 0-.4h.2c0-.1-.1-.3 0-.4h.2v-.3zm0 .6v.4h-.2V329.9h.7v-.4h-.2v-.2-.2h-.2v-.2c.1 0 0-.1-.1 0M-111 328.5h.2v1.8h.9v-.5-.9-.4h.2v-.2h.2v2h-.2v.2h-.2-.2v.2h-.2-.4v-.2c-.1 0-.3.1-.4 0v-.2h-.2v-.2-1.6-.2h.2c.1 0 .1.2.1.2M-89.9 328.5v.2h-.2-.2v-.2h-.2-.2v.2h-.2V329.3c.1 0 .3-.1.4 0v.2c.1 0 .3-.1.4 0v.2h.2v.2h.2v.4h-.2v.2h-.2v.2h-.2-.2v.2h-.4-.2v-.2h-.2v-.2h1v-.2h.2v-.2-.2h-.2v-.2h-.4-.2v-.2h-.2v-.2h-.2v-.2-.4h.2v-.2h.2v-.2h.8v.2h.2M-83.6 328.3H-83v.2h.2v.2h.2v.2h.2v1.4h-.2v.2h-.2v.2h-.2-.2v.2h-.4v-.2H-84.2v-.4h-.2v-.2-.2-.2h-.2v-.4h.2v-.4-.2h.2v-.2c0-.1.3 0 .4 0v-.2h.2m.6 2v-.2h.2v-.4h.2v-.4-.2h-.2v-.2-.2h-.2v-.2h-.2v-.2h-.4v.2h-.4v.4h-.2v.8h.2v.4h.2v.2h.8zM-76.7 328.5V330.4h.2v.2h.8v.2H-76.9v-.2h-.2v-2h.2v-.2h.2v.1M-70.3 328.3h.2v2.4h-.2v-.2-2.2zM-64.5 328.3h1.3v.2H-63.8v2h-.2v.2h-.2v-2.2h-.2-.4v-.2h.3M-57.1 328.3v.2h.2v.4h.2v.4h.2V329.9h.2v.4h.2V330.9h-.2v-.2h-.2c0-.1.1-.3 0-.4h-.2v-.2h-.9v.2h-.2v.4h-.2v.2h-.2v-.2-.2h.2v-.2-.2-.2h.2c0-.1-.1-.3 0-.4h.2v-.5h.2v-.2-.4h.2v-.2c-.1.1.1.1.1.1m-.2.4V329.3h-.2V329.9h.7v-.2h-.2v-.2-.4h-.2v-.2-.2c.1 0-.1-.1-.1 0M-43.5 328.3v.2h.2v1.9h-.2v.2h-.2v-.2-.7-1.3-.2c0 .1.2.1.2.1M-37.9 328.3h.4v2h.9v-.4h.2v-.2-.5-.5-.4h.2v2h-.2v.2h-.2-.2v.2h-.2-.4v-.2c-.1 0-.3.1-.4 0v-.2h-.2v-.2-1.8zM-105.7 284.4v.4h-.2v.2h-.2v.4h-.2v.2h-.2v.2h-.2v.2h-.2v.2h-.2v.2h-.2v.2h-.2v.2h-.2v.2h-.2-.2c-.1.1.1.3 0 .4h-.2-.2v.2h-.2v.2h-.2v.2c-.1 0-.3-.1-.4 0v.4H-108.7v-.2h.8v-.2H-106.1v-.2h1.1v-.2h3v-.2H-95.2v-.2h1.9v-.2h1v-.2h.5v-.4h-.2v-.2h-.2v-.2h-.2v-.2-.4h-.4-.2v-.2c-.1 0-.3.1-.4 0v-.2h-.2-.2v-.2h-.5c0-.1.1-.3 0-.4h-.2-.2v-.2-.2c-.1 0-.3.1-.4 0v-.2h-.2v-.2h-.2v-.2h-.2v-.2h-.2v-.2h-.2v-.2h-.2v-.2h-.2v-.2h-.2v-.2h-.2v-.8c-.1 0-.3.1-.4 0-.1-.1 0-.3 0-.4h-.2v-.2-.2h-.2v-.2h-.2v-.2h-.2v-.2h-.2v-.2-.2h-.2v-.2h-.2c-.1 0 0-.3 0-.4v-.2h-.2v-1.1h-.4v-.2h-.7v-.4h-.2v-.2-.4h-.2v-.4h-.2V276.7h-.2v-.2h-.2v-.2h-.2c0-.1.1-.3 0-.4h-.2c-.1-.2 0-.4 0-.5v-.2h-.2v-.9-.4h-.2v-.2-.7-.7-.4h.2v-.2V270h-.2v-.2-.2h-.2c-.1-.2 0-.4 0-.5v-.2h-.2v-2.4h-.2v-.2h-.2v-.2c0-.1-.1-.3 0-.4h.2c0-.2-.1-.5 0-.7v-.2h.2v-1.5h-.2v-.2h-.2v-1.6h.2v-.2-.2-.2h.2v-.4-.4h.2v-.2-.4h.2v-.2-.4h.2v-.2-.2-.4h.2c0-.1-.1-.3 0-.4h.2c0-.1-.1-.3 0-.4h.2v-.2h.4v-2h.2v-.2-.2h.2v-.2-.2h.2v-.2h.2v-.4h.2v-.2-.2h.2v-.2h.2v-.4h.2v-.2-.2h.2c0-.1-.1-.3 0-.4h.2v-.2h.2v-.2h.2v-.2h.2v-.2h.2v-.2h.2v-.2h.2v-.2h.2v-.2c.1 0 .3.1.4 0v-.2h.2v-.4h.2v-.2h.2v-.2h.2v-.2h.2v-.2h.2v-.2h.2v-.2h.2v-.2c.1-.1.3.1.4 0v-.2h.2v-.2h.4v-.2h.2v-.2h.4v-.2h.4v-.2h.4v-.2h.4v-.2h.4v-.2h.2v-.2h.2v-.2h.2v-.2h.2v-.2h.4v-.2h.9v-.2h.2v-.2h.2v-.2h.2v-.2h.2v-.2h.2v-.2h.2v-.2h.2v-.2c0-.1.3 0 .4 0v-.2h.8v-.2H-86.7v-.2h.2v-.2h.8v-.2h.4c.1-.1-.1-.3 0-.4H-83.5v.2h1.5v.2h.4v-.5h.2v-.2c.1-.2-.1-.5 0-.7v-.2h.2v-.2-.2H-80.6v.2h.2v-.4-.2h-.2v-.2-.2-.2h-.2v-.2-.2h-.2v-.2-.2h-.2v-.4-.2h-.2v-.2h-.2v-.2h-.2v-.2h-.2v-.2h-.4v-.4h-.2v-.2-.2h-.2v-.2H-85v-.2h-2.2v-.2h-.8v.2h-.4v-.2h-.2-.2-.2v-.2h-.2c-.1 0-.3.1-.4 0v-.2c-.1 0-.3.1-.4 0v-.2c-.1 0-.3.1-.4 0V235.1v-.2h.2v-.2h.2v-.2h.4v-.2h.2v-.2h.4v-.2h.4v-.2h.2v-.2h.4v-.2h.2v-.2h.2v-.2h.2v-.2h.2v-.2c0-.1.3 0 .4 0v-.2h.4v-.2c.1 0 .3.1.4 0v-.2h.4v-.2h.2v-.2h.4v-.2c.1 0 .3.1.4 0v-.2h.2v-.2h.4v-.2h.2v-.2h.4v-.2h.2v-.2c.1 0 .3.1.4 0v-.2h.2v-.2h.2c0-.1-.1-.3 0-.4h.2v-.2h.2v-.2h.2v-.2h.2v-.2c.1-.1.3.1.4 0v-.2h.4v-.2h.2v-.2h.4v-.2H-79.6v-.2h.2v-.2h.4v-.2h.4v-.2H-77.7v-.2h1.1v.2h1.1v.2H-74.9v.2H-74.3v.2h.4v.2h.4v.2c.1 0 .3-.1.4 0v.2c.1 0 .3-.1.4 0v.2h.2v.2h.2v.2h.2v.2h.2c.1.1 0 .3 0 .4h.2v.4h.2V230.3h.2v.7h.2v2.4h-.2v1.5h-.2v1.1h-.2v1.2h.2v2.2h-.2v1.3h.2v.4h-.4v2.2h.2v.4h.2v-.2h.2v.4h.2v.2h.4v-.4h.2v-.2h1.3v.2h.9v.2H-67.7v.2h.4v.2H-66.7v.2h.4v.2h1.5v.2h.2v.2h.2v.2h.2v.2h.2v.2h.2v.2h.2v.2h.2c0 .1-.1.3 0 .4h.2c0 .1-.1.3 0 .4h.2c0 .1-.1.3 0 .4h.2v.2H-62.2c0-.1.1-.3 0-.4h-.2v-.2-.2h-.2v-.2-.4h.2v.2c.1 0 .3-.1.4 0v.2c.1 0 .3-.1.4 0v.2h.2v.2h.2V247.5h.2V248.1h.2v.2h.2v-.2h.2v-.4h-.2v-.2h.2v.2h.4v.2h.2V248.8h.2v.4h.2v.2h.2v.2h.2v.4h.2v.2h.2v.2h.2c0-.1-.1-.3 0-.4h.2v-.2-.2-.2h.2c0-.1-.1-.3 0-.4h.2v-.2h.2c0-.1-.1-.3 0-.4h.2v-.2h.2v-.4h.2v-.2-.2h.2v-.2-.2h.2v-.2h.2c0-.1-.1-.3 0-.4h.2v-.2h.2v-.2h.2v-.4h.2v-.2h.2v-.2h.4v-.2h.2v-.2h.2v-.2h.4v-.2h.2v-.2h.2v-.2h.2v-.2h.4v-.2h1.9v-.2h.4v-.2c.1-.1.3 0 .4 0v-.2h.4v-.2c.1 0 .3.1.4 0v-.2h.4v-.2h.4v-.2h.4v-.2H-47.9v-.2h.8v-.2h.2c.3-.1.6 0 .9 0h.4v-.2H-44.1v.2h.2v-.2h1.5v.2h.8v.2H-41v-.2h1.1v.2h.4v.2h1.6v-.2h.2c.3-.1.6 0 .9 0v-.2h.4v-.2h.4v-.2h.2v-.2h.2v-.2h.4v-.2h.2v-.2h.4v-.2c0-.1.3 0 .4 0h.2v.2h1v-.2H-32.4v-.2h.9v-.2h1.7v.2h1.4v.2c.1 0 .3-.1.4 0v.2c.1 0 .3-.1.4 0v.2h.5v.2H-26.2v.2h.2v.4h.2v.2h.2V242.2h.2v.4h.2v.4h.2v.4h.2v.4h.2v.2h.2V244.6h.2v1.1h.2v.2h.2v.2h.2v.4h.2v.2h.2v.2h.2v.4h.2v.2h.2v.4h.2v.2h.2v.2h.2c.1.1 0 .3 0 .4h.2v.4h.2v.4h.2v.2h.2v.2h.2v.2h.2v.4c.1 0 .3-.1.4 0v.2h.2v.2h.2v.2h-.2-.2v.2h.2v.2h.2v.2h.2c0 .1-.1.3 0 .4h.2v.2h.2V252.9h.2V253.5h-.2v.2h-.4c-.1 0-.3.1-.4 0v-.2h-1v-.2H-21.8v-.2h-.2-.2v-.2h-.4-.2v-.2c-.1 0-.3.1-.4 0v-.2c-.2-.1-.4 0-.5 0h-.2v-.2h-.5-.2v-.2h-.2v.9h-.4v-.2h-.2v-.2-.4h-.2v.2h-.2-.2v-.2h-.7v-.4h-.2v-.2h-.7-.2v.2H-28.4v-.2h-.2-.2c0 .1.1.3 0 .4h-.2c-.1 0-.3-.1-.4 0v.2h-.9v.2h-.5V253h-.2v.4h-.2v-.2h-.4c0 .1-.1.3 0 .4h.2v1.1h-.4v-.2h-.2-.2v.4h-.2v-.2h-.2-.2v.4h-.4v-.5-.4h-.2v-.4-.4h.2v-.2c0-.1-.1-.3 0-.4h.2v-.2h.2v-.2h.2v-.2h.4v-.2h.2v-.2h-.2v-.2-.2h.4v-.2H-31.2v-.2h.8v-.2H-29.8v.2h.2v-.2H-29v.2h.8v-.2h.7v-.2h.2v-.2h.2v-.2h.2v-.2h.2v-.2h.2v-.2h.2v-.2h.2v-.2h.2v-.2h.2v-.2h.2v-.2h.2v-.2h.2v-.2h.2v-.2h.2v-.5h-.2v-.2-.2h.2v-.2h.2v-.2c.2-.1.4.1.5 0v-.5-.2h-.2v-.2-.5-.2h-.2v-.4-.2h-.2v-.2h-.2v-.2h-.2v-.2-.2h-.2c-.1-.1 0-.3 0-.4h-.2v-.2-.2h-.2v-.2h-.2v-.2h-.2v-.2-.2h-.2v-.2h-.2v-.2h-.2v-.2h-.2v-.2h-.2v.2H-27.6h-.2v-.2c-.1 0-.3.1-.4 0v-.2c-.2 0-.4.1-.5 0v-.2h-.2-.2-.2v-.2h-6.4v.2h.2v.2h.2v.2h-.7v-.2h-1.1c-.1 0-.3-.1-.4 0v.2h-.5v.2h-.7v.2h-.2-.2V242.3h-.5-.2v.2h-.2v.2h-.2v.2h-.2c0 .1.1.3 0 .4h-.2v.2h-.2v.7h-.4v.2h-.2v.4h-.2v.2h-.2v.2h-.2V245.8h-.2v.4h-.2V246.8h-.2v.4h.2v.2h.2v.2h-.2v.2h-.2v.2h-.2v.2h-.2v.2c0 .1-.1.3 0 .4 0 0 .3-.1.4 0v.2h-.2v.4h-.2V250h-.2v.2h.2v.4h.2V251.2h-.2V251.8h-.2V252.4h-.4v-.2h.2v-.4h-.2v.2h-.2v.4h-.2v.7c0 .1-.1.3 0 .4h.2v.2h-.4v-.2h-.2v-.2h-.2v-.2-.9h-.2v-.2h-.2v-.2h-.2v-1h.2v-.2h.2v.2h.2v-.4-.2h.2v-1.1-.4h.2v-.7h.2v-.2-.2h.2v-.2-.2h.2v-.2-.2h.2c0-.2-.1-.4 0-.5v-.2h.2v-.4-.2h.2c0-.1-.1-.3 0-.4h.2c0-.1-.1-.3 0-.4h.2c0-.1-.1-.3 0-.4h.2v-.2 2.9-.4h-.2v-.2h-.2-.2v-.2h-.4-.2v-.2c-.1 0-.3.1-.4 0v-.2h-.8v-.2h-.9v.2h.2V246.4h-.4v-.2h-.2-.2v-.2c-.1 0-.3.1-.4 0v-.2h-1.8-.2v.2h-.5v.2h-.2v.2H-48.8v.2h-.2v.2h-1.1v.2h-.7v.2H-51.4v.5h-.4v-.2h-.4-.2v.2c-.2 0-.4-.1-.5 0h-.2v.2h-.8v-.2h.2v-.2h-1.5v.2h-.8v.2h-.4v.2h-.4v-.2h.2v-.2h-.2-.4v.2h-.2-.2v.2h-.2v.4h.2v-.2h.4v.2h-.4v.2h-.2v.2c-.1 0-.3-.1-.4 0v.2h-.2v.2h-.4v.2h-.2V250.1h-.2v.2h-.2v.2h-.2v.2h-.2v.2h-.2v.2h-.2c0 .1.1.3 0 .4h-.2v.2h-.2V252.3h.2V252.9h-.2v.4h.2v.2h-.2v.2h.2v.2c.1 0 .3-.1.4 0v.2H-60.6h-.2v.2H-61.4V253v-.2h-.2v.2h-.2V253.9h.2v.4h.4v.2h.2v.4h-.5v.8h.2v-.2h.2v.4h-.2v.4h.2v.4h.2V257.3h.2c0 .2-.1.5 0 .7v.2h.2v3.1h.2v1.9h-.2v3.4h-.2v2.2h-.2V271.6h-.2v.4h-.2V273.8h-.2v1.1h-.2V275.5h-.2v.8h-.2v.7h-.2v.4h-.2c0 .1.1.3 0 .4h-.2v.7h.2v.4h.2v.9h.2v1.1h.2v.4h.2v.4h.2v.2h.2v.2h.2v.2h.2v.2c.1 0 .3-.1.4 0v.2c.1 0 .3-.1.4 0v.2c.4 0 .7-.1 1.1 0h.4v.2h.8v-.2H-57.2v.2H-56.6v.2h.8v-.2H-55.2v-.2h.8v-.2h.2v-.2h1v.2H-52.6v-.2H-51.7v-.2H-50.8v-.2h.2v-.4h.4v.2h.4v-.2h.2v-.2h.4v-.2h-.2v-.2-.5h.2v-.2h.2v.2h.4v-.2h.4v-.2h.4v-.2h.7v-.2h1v.2h.2v.2c.1 0 .3-.1.4 0v.2h.4v-.2h.4v-.2H-44.1v.2h.4v.2h.2v.2h.2v.2h.2v-.2h.2v-.2h1.2v.2h1.1v-.2h.2c.4-.1.7 0 1.1 0H-38.7v-.2h.2v-.4h-.2v-.2h-.2v-.2-.2h.4v.2h.2v.4c.1.1.3 0 .4 0v-.2H-37.3v-.2h.4v-.2h-.2v-.2H-36.2v-.2H-35.6v-.2H-35v-.2h.7V277h-.4v-.4h.5v-.2h.2v-.2h.8v-.2h.2v-.2c.1 0 .3.1.4 0v-.2h.2v-.2h.4v-.2h.2v-.2h.4v-.2h.4v-.2h1v.2h.4c0-.1-.1-.3 0-.4h.2v-.2h-.2v-.2h.2v-.2h.2v-2h.7v.2h.7v-.7-.2h.2v-.2-.4h.2v-.2-.2h.2v-.4h.2v-.2h.2v-.2h.2c0-.1-.1-.3 0-.4h.2v-.2h-.4v-.4h.2v-.2-.4h-.2v-.7h-.2v-1.3h-.2v.2c-.1 0-.3-.1-.4 0v.2h-.2v.2h-.2v-.2-.2h.2v-.2h.2v-.2h.2v-.2h.2v-.2h.4v-.2h.2v.2h.2c0 .1-.1.3 0 .4h.4v-.2-.2h.2v-.2-.2-.2h-.2v.2h-.2v.2h-.2v-.2-.2h.2v-.2h.2v-.2h.2v-.4-.4-.2h.2v-.8H-27v.4h-.2v-.2V261.9c.1 0 .3.1.4 0v-.2h.2v-.2-.2-.2h-.2v-.2-.2h-.2v.2h-.5v-.4H-26.9c.1-.1 0-.3 0-.4h-.2v-.2h-.2v-.2h-.2v-.2-.2h-.2v-1.2h-.2c-.1 0 0-.3 0-.4h.2v-.2h.2v-1h-.2v-.2-.4h-.2v-.2h-.2c0-.1.1-.3 0-.4h-.2v-.7h.4v.2h.2v.2h.2c0 .1-.1.3 0 .4h.2v.4h.2V256.4h.2V257h.2v.4h.2V258h.2v.9h.2v.2h-.2V259.7h.2v1h.2V262h.2V262.6h.2V263.2h-.2v.2h.4v.2h-.2v1.9h-.2v.4h-.2v.4h-.4v-.5h.2v-.2-.2h-.2v.4h-.2v.4h-.8v.5h.2V267.6h.4v-.5h.2v-.2-.2h.2v-.2h.2v.8h-.2V267.9h-.2v.4h-.2v1.1h-.2v.4h-.2v.2h-.2v.2h-.2v.2h-.2V271c-.1.1-.3 0-.4 0v.4h.2V272h-.2v.4h-.4v.2h-1.1v1.1h-.2v1h.2v.2h.2v.2h-.2v.2h-.2-.2v.4h-.2v.2h-.2v.4h-.2v.2h-.2c0 .1.1.3 0 .4h-.2c0 .1.1.3 0 .4h-.2v.2h-.2v.2h-.2v.2h-.2v.2h-.2v.2h-.2v.2h-.2v.2c.2 0 .5.1.7 0h.2v-.2h1.5v-.2h1.1v-.2h1v-.2h.2v.2h.2v.2h-1.1v.2h-.8v.2h-.8-.2v.2h1.3v-.2h2.2v-.2h.2c.4-.1.8 0 1.3 0h.4v-.2H-23.7v-.2h1.1v-.2H-21.7v-.2h.9v-.2h.7v-.2h.7v-.2h.7v-.2h.7v-.2H-17.4v-.2H-16.8v-.2h.7v.2h-.2-.2v.2H-17.1v.2H-17.7v.2h-.2-.2v.2h-.4v.2h-.5-.2v.2H-19.8h-.2v.2h-.7-.2v.2h-.5-.2v.2h-.7v.2h1.2v.2h-.8-.2v.2h-2.2v.2h-1.5v.2H-27.1v.2H-29v.4h-.4v-.2h-.4v.2h-.2-.2v.2h-.7-.2v-.2h.2v-.2h.4v-.2h-2.4v.2h-.2-.2-.2v.2h-.4v.2H-34.5v-.2h-.2v-.2h-.2v-.2h-.4v.2h-.2-.2-.2v.2H-36.5v.2h-.4v.2h-.2-.2-.2v.2H-38.1v.2h-.8v.2h-.2-.1v.2H-41.9c0 .1.1.3 0 .4h-.2v-.2h-.2v-.2h-.8v-.2h-.4v.2h-.2V281.7h-.2v.4h-.2v.2h-.2v.2h-.2v-.2h-.4-.2v-.2h-.2v.7h.2v.8h-.2v.2h-.2v.2h-.2-.2v-.8h-.4v-.2h-.2-.2v-.2h-.2v-.4h-.2v1.4h-.2v.2h-.2v.2h-.5v-1.1-.4-.2h-.2v-.2-.2h-.2v-.2h-.2v-.2h-.4v.2h-.2v.2h-.4v.2H-50.2v.2h-.2v.2h-.2v.4h-.4-.2v.2h-.2v.2h-.4v.2h-.5-.2v.2c-.1 0-.3.1-.4 0v-.2h-.2v.2h-1.7-.2v-.2h-.4v.2h-.4v.2h-.2v.2h-.5-.2v.2H-61v.2H-61.9v-.2H-62.8v.2h-.2c-.2.1-.5-.1-.7 0h-.2v.2H-65v.2H-66.3v.2h-2.2v.2h-2.6v.2h-.9-.2v.2h-2.6v.2h-.2v.2h-.2v.2h-.2c0 .1.1.3 0 .4h-.2v.4h-.2c0 .1.1.3 0 .4h-.2c0 .1.1.3 0 .4h-.2V288.7h-.2c0 .1.1.3 0 .4h-.2v.2h-1.1-.2v-.2h-.2v-.2h.2v-.4h.2v-.2h.2v.4h.2v-.2h.2v-.2h.2v-.4h-.2v-.2-.2-.2h-.2v-.8h.2v-.2-.2h.2v-.2-.2h.2v-.4h.2v-.2-.2h.2v-.2-.4h.2v-.2h.2v-.2H-75.3v-.2h.2v-.2h1v-.2h.2v-.2h-.2-.2v-.2h.2c.1 0 .3-.1.4 0v.2h.2v.2h.2v.2h.2v.4h.2v.2h-.2v.4h-.2v.4h.2v.2h.2v.2h.4v-.2H-71.9v-.2h.2v-.2h.2v-.2h.2v-.2h.2v.2h.2V285.1h.2v-.2h1v-.2h-.2v-.2h-.2v-.2h-.2v-.2h-.2v-.4h.2v.2h.4v.2h.2v.2h.2v.2h.7v-.2h.4v-.2c.1-.1.3 0 .4 0v-.2h.2v-.2h-.4v.2h-.2v.2h-.2v-.2h-.2v-.2h.2v-.2h.2v-.2h.2v-.2h.2v-.2-.2h.2v-.2h.2v-.2h.4v.2h-.2v.4h-.2V283.5h.2v.2h.2v.4h-.4-.2v.2h-.2v.2H-67.4v-.2h.2v-.2H-66.6c0-.1.1-.3 0-.4h-.4v-.2h.4v-.2h.4v-.2h.4v-.2h.2v-.2h.2v-.2h.2v-.4-.2h.2v-.2-.4h.2v-.2-.4h.2v-.2-.4-.2h.2v-.2-.2h.2v1h-.2v1.1h-.2v.4h-.2v.4c.1 0 .3.1.4 0v-.2h.2v-.2c.1-.1.3 0 .4 0v.2h.2v.2h.2v-.2h-.2v-.2h.2v-.2h-.2v-.2h.2v-.2-.2h.2c.1-.2-.1-.4 0-.5h.2v-.2-.2h.2v-.2-.2-.2h.2v-.2-.2-.2h.2v-2h.2v.2h.4v-.2h.2v-1.5h.4v.4h-.2v.2h.4v-.2h.2v-.2-.2h.2v-.4-.2h.2v-.4h.2v-.2-.2h.2v-.9-.2h.2v-.2h-.2v-.2-.2c.1 0 .3.1.4 0V271.2c-.1 0-.3.1-.4 0V270.3v-.2h-.2v-.2-1.3c0-.1-.1-.3 0-.4h.2v-.2h.2v-1.5h-.2v1h-.2v-.5c0-.1-.1-.3 0-.4h.2v-.5h-.2v-.2-1.4-1.1-.4h.2v-.2-1.4-.4h.2v-.2-.2h.2v-.5c.1 0 .3-.1.4 0v.2h.2v.2h.2v-1.8-.2h-.2v-.7h-.2V258.4h-.2v-.2-.4h-.2v-.2-.2h-.2v-.2-.2-.2h-.2v-.5h-.2v-.2-.4h-.2v-.2h-.2v-.5h-.2v-.2-.2h-.2v-.2-.2-.2h-.2v-.4h-.2v-.2-.2h-.2v-.2h-.2v-.2h-.2v-.2h-.2v-.2h-.2v-.2c-.1 0-.3.1-.4 0v-.2h-.2v-.2h-.2v-.2h-.2v-.2h-.2v-.2h-.2v-.2h-.2v-.2h-.2v-.2h-.2v-.2h-.2v-.2h-.2v-.2h-.2c-.1-.1 0-.3 0-.4h-.2v-.2h-.2v-.2-.2h-.2v-.2-.2h-.2v-.2h-.2v.2h-.2-.2v-.2h-.8-.2v.4h.2v.2h-.2v-.2h-.2v-.2h-.2v-.2h-.2v-.2h-.2v-.2h-.4v-.2h-.2v-.4h-.2v.2h-.2-.2v.4h-.2v-.2h-.2v-.2h-.2v-.2h-.2-.2-.2v.2h.2v.4h.2v.4h-.2v-.2h-.2v-.2-.2h-.2v-.2h-.2v-.2-.2h-.2-.2v-.2h-.2v.4h.2v.4h.2v.8h.2v.2c0 .1-.1.3 0 .4h.2V249.8h.2v.4h.2v.4h.2c.1.1 0 .3 0 .4h.2v.2h.2v.4h.2v.4h.2v.2h.2v.4h.2v.2h.2v.4h.2v.2h.2v.2h-.2v.2h-.2v-.2h-.2v-.2-.2h-.2v-.2h-.2v-.4h-.2v-.2h-.2v-.2-.2h-.2v-.2h-.2v-.2-.2h-.2c0-.1.1-.3 0-.4h-.2v-.4h-.2v-.2-.2h-.2v-.2h-.2v-.2-.2h-.2v-.2-.2h-.2v-.2-.2h-.2v-.2h-.2c0 .1.1.3 0 .4h-.2v1h.2v.5h-.4v-.4-1.1-.4h.2v-.2-.2-.2h-.2-.2v-.2h-.2v-.2h.8v-.5h-.2v-.2h-1v1.6h.2v.7h.2V249.8h.2V250.4h.2v.4h.2v.4h.2v.4h.2v.4h.2v.2h.2v.4h.2v.2h.2v.2h.2v.4h.2v.2h.2v.2h-.2v.2h-.2v-.2h-.2v-.2h-.2v-.2h-.2v-.2h-.2v-.2h-.2v-.2h-.2v-.2h-.8v-.2h-.2v-.2h-.2v-.2c-.2-.1-.4.1-.5 0v-.4-.2h-.2v-.5h-.2v-.2h-.2v-.5-.2h.2v-.2-.2h-.2v-.2-.2h.2v-.2-.2h.2v-.9h-.2v-.2-.7-.4h-.2v-.2-.7-.4h-.2v-.2-.4h.2v-1.1-.7-.4h.2v-.7-.2h.2v-.2-1.3-1.1-.4h.2v-.2-.9-.4h.2v-.2V233.5h-.2v-.2-.2h-.2v-.2h-.2v-.2h-.2v-.4-.4-.2h-.2v-.2h-.2v-.2h-.2v-.2h-.2-.2v-.2h-.9v-.2H-76.8v-.2h-.2v-.2h-.2v-.2h-.5-.2v-.2H-79v.2h-.7-.2v.2h-.4-.2v.2h-.4v.2h-.2-.2-.2v.2h-.4v.2h-.4v.2h-.2v.2h-.2v.2h-.2v.2h-.2v.4h-.2v.2h-.2v.4h-.2v.2h-.2v.2h-.2v.2h-.2v.2h-.2v.4h.2v.2h.2v.2h.2v.2h.2v.2h.2v.2h.2v.2h.2v.2h.2v.2h.2v.2h.2v1.3h-.2v.7h-.2v.9h.2v.2h.2v.2h.4v.2h.2v.2h.2v.2h.2c0 .1-.1.3 0 .4h.2c0 .1-.1.3 0 .4h.2v.4h.2v.2h.2V241.8h.2V246.4h-.2v.5h-.2v.4h-.2V247.9h-.2V248.5h-.2v.2h.2v.5h-.2c0 .1.1.3 0 .4h-.2v.2h-.2c0 .1.1.3 0 .4h-.2v.4h-.2v.4h-.2v.4h-.2v.4h-.2v.5h.2v.2H-83.3c0 .1.1.3 0 .4h-.2v.4h-.2v-.2-.4-.2h.2v-.8h-.2v.2h-.2v.4h-.4v-.2h-.2v.4h-.2v.2h.2v.4h-.2v.2h-.2c0 .1.1.3 0 .4h-.2v.2h-.2v.2h-.2v-.2h-.2v.2h-.2V254.7h.2v-.2h.4v-.2h.2v.2h-.2v.2h-.2v.2h-.2v.2h-.2-.2v-.2h-.2v-.8h.2v-.2h.2v-.2-.2h.2v-.2h.2v-.4h.2v-.2h.3v.2h-.2-.2c-.1.1.1.3 0 .4h-.2c0 .1.1.3 0 .4h-.2v.2h-.2v.2h-.4v-.5h.2v-.2h.2v-.4h.2v-.2h.2v-.2h.2v-.4h.2v-.2h.2v-.2h.2c0-.1-.1-.3 0-.4h.2v-.2h.2v-.2h.2v-.2h.2v-.2h.2v-.2h.2v-.2h.2v-.2h.2c.1-.1 0-.3 0-.4h.2V249h-.2v.2h-.2v.2h-.2v.2h-.2v.2h-.2-.2V250.4h-.2v.2h-.2v.2h-.2v.2h-.2v-.2h-.4v-.2h.2v-.2h.2v-.2h.2v-.2h.2v-.2h.4v-.4h.2v-.2h.2v-.2h.2v-.2h.2v-.2-.2h.2v-.2h.2v-.2h.2v-.2h.2v-.2h.2v-.2-.2h-.2v.2h-.2v.2h-.2v.2h-.2v.2h-.2v-.2-.2h.2v-.2h.2v-.2h.2v-.2h.2v-.2h.2c0-.1-.1-.3 0-.4h.2v-.2h-.2v-.2h-.2v-.2h-.4v.2H-83.6v.2h-.2-.2v.2h-.2v.2h-.2v.2h-.2v-.2h-.2v-.2h-.2v-.2h-.2v-.2H-85.8v.2h-.2-.2v-.2h-.2-.2v.2h-.2c-.2 0-.4-.1-.5 0h-.2v.2h-.2-.2v.2h-.2v.2h-.2v.2h.4v.2h-.2-.2v.2h-.2v.2h-.4v.2h-.2-.2v-.2h.4v-.2h.2v-.2h-.2v-.2h-.1v.2h-.2v.2h-.2v.2h-.2v.2h-.2v.4h-.2v.2h-.2v.2h-.2v.2h-.2v.2h-.2v.2c-.1.1-.3 0-.4 0v.2h-.2v.2h-1.2v.2h-.4v.2h-.2v.2h-.4v.2h-.2v.2h-.2v.2h-.2v.2h-.2v.2h-.2-.2v.2h-.2v.2h-.2v.2h-.2v.2h-.2v.2h-.2c0 .1.1.3 0 .4h-.2v.2h-.2v.4h-.2v.2c.1 0 .3.1.4 0v-.2H-95.4v.2h-.4v.2h-1.1v.2h-.2v.2h-.2v.2h-.2v.4h-.2v.2h-.2v.2h-.2c0 .1.1.3 0 .4h-.2c0 .1.1.3 0 .4h-.2v.2h-.2-.2v-.2h.2v-.2-.4h-.2v.2h-.2c0 .1.1.3 0 .4h-.2v.2h-.2v.4h-.2v.4h-.2v.4h-.2v1.3h-.2v1.1h-.2V260.2h-.2c0 .1.1.3 0 .4h-.2V261.2h-.2c0 .1.1.3 0 .4h-.2v.7h-.2v1h-.2v.7c0 .1.1.3 0 .4h-.2v.4h.2v-.2h.2v-.2c0-.2-.1-.4 0-.5h.2v-.2-.2-.2h.2v-.2c0-.1-.1-.3 0-.4h.2v-.2h.2V263.1h-.2V263.7h-.2V264.3h.2v.2h-.2v.2h-.2v.2h.2v-.2h.4V266.3h-.2v2.3h.2v-.2-.4h.2v-.2-.2h.2v-.9-.5-.4h.2v-.2-.7-.4h.2V263v-.4-.2h.2V264.2h-.2v2.2h.2V267.7h.2v1.1h.2v2.8h.2v-.2-.4h.2v.9c0 .2.1.4 0 .5v.2h-.2V273.2h.2V274.3h.2v.7h.2v.2h.2c0 .1-.1.3 0 .4h.2v.2h.2v.2h.2v.5c-.1 0-.3-.1-.4 0v.4h-.2v.4h.2v.4h.2v-.2h.2v.2h.2v1.3h.2v-3.6h.4v.2h-.2v.4h.2v.2h.2V276.8h.2v.7h.2V279.3h.2v2.2h.2v.4h.2v.2h.2c0 .1-.1.3 0 .4h.2v.4c.1 0 .3-.1.4 0v.2h.2v.2h.2v-.4h-.2v-.2-.4-.7-.7-.4h-.2v-.2-1.4h.4v2.4h.2v.2c.1.3-.1.6 0 .9v.2h.2c0 .1-.1.3 0 .4h.2v.4h.9v.5h-.2v1.1h.2v.2h.2v-.2h.4v.4h.4v.2H-91.4v-.2h-.2v-.2h-.2v-.2h-.2v-.2-.2h-.2v-.5h-.2v-.2-.2h.2v.2h.2v.4h.2v.4h.2v.2h.2v-.2h.2v-.2h.2v.2h.2v.4h.2v.2h-.2V285.9h.2v.4h.2v.2h.2v.2h.4c.1 0 .3-.1.4 0v.4h.8v-.2h.2v-.2h.2v-.2h-.2v-.2c0-.1-.1-.3 0-.4h.2v-.2h.9v-1.8h.2v.8h.2v1.4h.2v.2h-.2v.4h.2v.2H-85.5v.2h-.2v.2h.2v.4h.2v.8h.2v1.8h.2V290.9h-.2v.5h.2v.2h-.2-.2-.2v.2h-.9v-.2h.2v-.2h.2v-.2-.2h-.2v-.2-.8h-.2v-.2-.2-.2h-.2V288h-.2v-.2c-.1-.2 0-.4 0-.5h.2v-.2-.2h.2v-.4h-.2v.2h-.2v.4h-.2V287.7h-.2V288.3h.2v.2H-87.6v-.2h-.2v-.2h-.2v-.2h-.2v-.9h-.9v.2h-.2v.4H-89.9v-.2h-.2v-.2H-91v.2h-.8v.2c-.3.1-.6 0-.9 0v.2h-.7v-.2H-92.8v-.2h-.7c-.1 0-.3-.1-.4 0v.2H-97v.2h-3v.2h-2v.2h-2.4v.2h-3v.2H-109.8h-.4v.2h-.7v.2h-.2-.2v.2c-.1 0-.3-.1-.4 0v.2h-.2-.2v-.2h.2v-.2h.2v-.2h-.2v.2h-.4v.2h-.2v.2h-.2v.2h-.2c0 .1.1.3 0 .4h-.2v.2h-.2v.2h-.4-.2v.2h-.4v.2h-.2-.2v.2c-.1 0-.3-.1-.4 0v.2h-.2v.2h-.4v.2h-.2-.2v-.2h.2v-.2h.2v-.2h.4v-.2h-.4v.2h-1.1v.2h-.4-.2v-.2H-118v.2h-.2v.2h-.2v.2h-.2v.2h-.2v-.2h-.2v-.2h-.8v-.2h.2c.1 0 .3.1.4 0v-.2h-.7c0 .1.1.3 0 .4-.1.1-.3 0-.4 0v.2h-1v.2h-.2v-.2h-.8v-.2H-122.9v-.2h-1.1v.2h-.2v.2h-.2v.2h-.5v-.2H-126.6v-.2H-127.2h-.2v.2H-128h-.2v-.2h-.2-.2v.2h-1.6-.4v-.2h-.9v-.2h-.2-.2-.2v-.2H-132.7v.2H-137.5v-.2h-.2-.2v-.2h-.4-.2v-.2H-139.1v-.2c-.1 0-.3.1-.4 0v-.2h-.2v-.2h-.2-.2-.2v-.2h-.2v.2h-.8v-.2h-.9-.2v.2h-.9-.2v.2h-.9v.2h-.7-.2v.2h-.7v.2H-146.6v.2h-.4v.2h-1.1v.2H-149.4v.2h-1.5v.2h-6.4v-.2h-2.2v-.2h-1.9v-.2H-162.7v-.2H-164v-.2h-.2c-.7-.1-1.3 0-2 0h-.4v-.2H-171.1v.2h-3v.2h-2v.2h-1v-.2H-176.5v-.2H-175.9v-.2H-174.6v-.2h1.6v-.2h.8v-.2c.1 0 .3-.1.4 0v.2h.2v-.2h7.1v.2h1.5v.2H-161.7v.2H-160.4v.2h2.1v.2h.2c.5 0 1.1-.1 1.6 0h.4v.2h1.1v-.2h2.9v-.2h2.6v-.2H-148.6v-.2h-.2v-.2c-.1 0-.3.1-.4 0v-.2h-.2v-.2h-.2v-.4h-.2v-.2-.2-.2h-.2v-.2h-.2v-.2c-.1 0-.3.1-.4 0v-.2h-.2v-.9h-.8v-.2h-.2v-.2h-.2v-.5-.4-.2h-.2V285.2h-.2v-.2-.2h-.2v-.5-.2h-.2v-.2-1.3h-.2v-.2-.2h-.2c0-.1-.1-.3 0-.4h.2V280.1h-.2v-.2-.2h-.2c0-.1.1-.3 0-.4h-.2v-.3h.2v-.2-.2-.4h.2v-.9h.2v-.2-.5-.2-.2h-.2V275.6h.2v-.2h.2v-.4h-.2v-.2h.2v-.2h-.2v-.2h-.2v-.2h.2v-.4h.2v-.2-.2-.4h.2v-.4-.2h.2v-.2-.4h.2v-.2-.2-.2h.2v-.2-.2h.2v-1.3-.4h.2c0-.1-.1-.3 0-.4h.2v-.2h.2v-.2h.2v-.2h.2c0-.2-.1-.4 0-.5v-.2h.2v-.2h.2v-.2-.2h.2v-.5-.4h.2v-.2h.2v-.2-.2h.2c0-.1-.1-.3 0-.4h.2v-.4h.2v-.2h.2v-.4c.1 0 .3.1.4 0 .1-.1-.1-.3 0-.4h.2v-.2h.4c0-.1-.1-.3 0-.4h.2c0-.1-.1-.3 0-.4h.2v-.2h.2v-.2h.2v-.2h.2c0-.1-.1-.3 0-.4h.2v-.2-.2h.2v-.2-.4h.2v-.2h.2v-.2h.2v-.2h.2v-.2h.2v-.2h.2v-.4h.2v-.2h.2v-.2-.2c0-.1.3 0 .4 0v-.2h.2c.1-.1-.1-.3 0-.4h.2v-.2H-143.6v-.2h.2v-.2h.2v-.2h.2v-.2h.2v.2h.4v-.2h.4v-.2-.2-.2h.2v-.2h.2v.4h-.2v.2h.4v-.2h.2v-.2-.4h.2v-.2h.2v-.2-.2h.2v-.9h-.2v-.2-.2h-.2v-.2h-.2v-.2-.2h-.2v-.2h-.2v-.2h-.2v-.2h-.4v-.2h-.4-.2v-.2h-.5-.2v-.2h-.2-.2v-.2h-2.4v.2c-.2 0-.5-.1-.7 0h-.2v.2h-1v.2h-.8-.2v-.2c-.2 0-.4.1-.5 0h-.2v-.2h-.4v-.2h-.4v-.5h.2v-.2-.2h.2v-.2h.2v-.2c.1 0 .3.1.4 0v-.2h.2v-.2c.1 0 .3.1.4 0v-.2h.4v-.2c.1 0 .3.1.4 0v-.2h.4v-.2h.2v-.2h.2v-.2c.1 0 .3.1.4 0v-.2H-146.5v-.2h.4v-.2h.4v-.2h.2v-.2h.2v-.2h.2v-.2c.1 0 .3.1.4 0v-.2h.2v-.2-.2h.2v-.2h.2v-.2h.2v-.2h.4v-.2h.2v-.2h.2v-.2h.4v-.2h.2v-.2h.2v-.2h.2v-.2h.2v-.2-.2h.2v-.2h.2v-.2h.2v-.2c.1-.1.3.1.4 0v-.2h.2v-.2c.1-.1.3 0 .4 0v-.2h.8v-.2H-135.5v.2h.7v.2h.7v.2h.4v.2h.2v.2h.2v.2h.2v.2h.2v.2h.2v.2h.2v.2h.2v.2h.2c0 .1-.1.3 0 .4h.2v.4h.2v2.2h-.2v1.3h.2v.4h-.2V251.5h.2v.8h.2v.2h1.1v-.2h.2v-.2h-.2v-.2h.2v-.2h.4v-.2h.4v-.2H-128.8v-.2h.2v-.2h.2c.1-.1-.1-.3 0-.4.1-.1.3 0 .4 0v-.2h2.6v-.2h3.5v.2c.1 0 .3-.1.4 0v.2h.2v.2h.4v.2h.4v.2H-119.6v-.2h.9v-.2H-117.4v.2h.4v-.2h.4v.2h.8v.2H-115.2v.2h.2v.4h-.2v.2h-.7v.2h.4v.2h.8v.2H-114.1v-.2h.7v.2h.4c.1.1 0 .3 0 .4h.2v.2h.2v.2h.4v.2h.4v.2c.1 0 .3-.1.4 0v.2h.2v.2c.1 0 .3-.1.4 0v.2h.2v.2h.2v.2h.2v.2h.2v.2h.2v.2h.2v.2h.2v.2h.2v.2h.2v.2c.1 0 .3.1.4 0v-.2h.2v.2h.2v.2h.2v.2h.2v.2h.2v.4h.2v.2h.2v.2h.2v.2h.2v.2h.2v.4h.2v.2h.2v.2h.2c.1.1-.1.3 0 .4h.2v.2h.2v.4h.2V260.3h.2v.4h.2v.4h.2v.4h.2v.2h.2v.4h.2v.2h.2v.2h.2v.2h.2v.4h.2v.2h.2v1h.2v1.1h.2V266h.2v.4h.2v.5h.2v7.4h.2v.5h-.2v.2h-.4v.2h-.4V275.8h-.2v3h-.2v.5h-.4V279.9h-.2V280.5h-.2V281.1h-.2V282h-.2v.4c0 .1.1.3 0 .4h-.2v.2h-.2v.2h-.2c0 .1.1.3 0 .4h-.2v.2h-.2c0 .1.1.3 0 .4h-.2v.2h-.2v.2h-.2v.2h-.2v.2h-.9v.2h-.2c0 .1.1.3 0 .4h-.2v.2h-.2v.2h-.2v.2h-.2c0 .1.1.3 0 .4h-.2v.4h-.2v.2h.4v-.2h.2v-.2h.2v-.2h.2v-.2h.4v-.2h.2v-.2h.2v-.2h.2v-.2h.2v-.2h.2v-.2h.2v-.2h.2v-.2h.2v-.2h.2v-.2h.2v-.2h.2v-.2h.2v-.2h-.8v-.2h.2v.2c-.1.6-.2.6-.2.6m40.6-2.7V282.3h.2v-.2-.4h-.2M-99.6 267c-.1 0 0 .3 0 .4v.2h-.2v.4h.2v.2h.2V267h-.2m15.5-31.8h-.2v-.2h-.2-.2v.2h-.2v.2h-.2v.2h.8v-.2h.2c-.1 0 0-.1 0-.2m1.6 1.9v-.2h-.2v-.2-.2h-.2v-.2h-.2v-.2c0-.1-.3 0-.4 0v-.2h-.4v.2c0 .1-.3 0-.4 0h-2v.2h-.2v.2h-.2v.2h-.2v.2h-.9v.2h-.2v.2h-.2v.2h-.4-.2v.2h-.2-.2v.2h-.2v.2h-.2-.2v.2h-.2v.2h-.2v.2h.4v.2h.5v-.2H-88.7v-.2H-86.8v-.2h.7v-.2h1v-.2h.8v-.2h1.1v-.2h.4v-.2h.2v-.2zm-.7 1.1h-.2-.2v.2h-.5-.2v.2c.1.1.3 0 .4 0v.2h.8v.2h.2v-.2h.2v-.2-.4h-.5zm1.2 5.9V245.5h.2v.2h.2v-.4-.4-.4-.2h-.2v-.2c0 .1-.2 0-.2 0m-2 1.5H-83.4v-.2H-84c.1 0 0 .2 0 .2m-1.2.2v.2h.4v.2h.7v-.2h.2v-.2h-.4-.2v-.2h-.7v.2zm35 0h.2v.2H-49.4v-.2h.4v-.2h-1.3-.2v.2h.3zm-1.1 0v.2H-51.9v.2h-.2-.2v.2h.4v-.2H-51.3v-.2H-50.7v-.2h-.6zm8.9.3h.2v.2h.2v.2h.2v-.2h.2v-.2h.2v-.4h-.9v.4zm-88.2 17.1v-.2h-.2v-.2h-.2v-.2-.2h-.2v.4c0 .1-.3 0-.4 0v-.4-.2h-.2v-.2-.4h-.2v-.2-.5-.2h-.2v-.4-.9-.2h-.2v-.4-1.5h.2v-.2-.4-.2-.2h.2v-.4-.9-.2h.2v-.4-.9-.9-.2h.2v-.4-1.7-.7-.2h-.2v-.4-.4-.4h-.2c-.1 0 0-.3 0-.4h-.2c-.1 0 0-.3 0-.4h-.2c-.1 0 0-.3 0-.4h-.2v-.2h-.2v-.2h-.2-.2v-.2h-.4-.2v-.2h-.4-.2v-.2h-.4-.2v-.2h-3.3v.2h-.4v.2h-.2-.2v.2h-.2v.2h-.2-.2v.2h-.2-.2v.2H-140.7v.2h-.2v.2c-.1 0-.3-.1-.4 0v.2h-.2c-.1 0 0 .3 0 .4h-.2v.2h-.2v.2h-.4v.2h-.2v.2h-.2v.2h-.4v.4h.2v.2h-.2v.4h.2v.2h.2v.4h.2v.4h.2v.7h.2v.8h.2v.4h.7v.2h.2v.2c0 .1.3 0 .4 0v.2h.2v.2c0 .1.3 0 .4 0v.2h.2v.2h.2v.4h.2v.2h.2v.2h.2v.2h.2v.4h.2v1.8h-.2V257.9h-.2v.4h-.2v1.1h-.4v.2h-.2v.4h-.2v.4h-.2v.2h-.2c-.1 0 0 .3 0 .4h-.2v.4h-.2v.4h-.2v.4h-.2v.4h-.2v.2h-.2v.4h-.2v.2h-.2v.2h-.2c-.1 0 0 .3 0 .4h-.2v.2h-.2v.2h-.2v.2h-.2c-.1.1 0 .3 0 .4h-.2c-.1 0 0 .3 0 .4h-.2v.2h-.2c-.1 0 0 .3 0 .4h-.2v.4h-.2v.2h-.2v.2h.2v-.2c0-.1.3 0 .4 0v-.4h.2v-.2h.2v-.2h.2v-.2h.2v-.2h.2v-.5-.2h.2v-.2h.4v.4h-.2c-.1 0 0 .3 0 .4h-.2v.4h-.2v.4h-.2v.4h-.2v.2h-.2v.4h-.2v.2h-.2c-.1 0 0 .3 0 .4h-.2c-.1 0 0 .3 0 .4h-.2v.2h-.2v.4h-.2v.2h-.2v.4h-.2v.2h-.2v.4h-.2v.2h-.2v.2h-.2c-.1 0 0 .3 0 .4h-.2v.2h-.2v.2h-.2v-.2h.2v-.4h-.4-.2v.4h-.2v.2h-.2v.2h-.2v.2h-.2V272.1h.2v.4h-.2v.2h-.2v.2h-.7v-.2-.2h.2v-.2-.2h.2v-.4h.2v-.2h.2v-.2h.2v-.2h.2v-.2-.2h.2v-.2h.2v-.2h.2v-.2h.2v-.2-.2h.2v-.2h.2v-.2-.2h.2c0-.1-.1-.3 0-.4h.4v-.2h.2V267h-.2-.2v.2h-.2v.4H-146.3h-.2v.2h-.2v.9h-.4-.2v.2h-.2v.2h-.2v.2h-.2v.2h-.2v.2h-.2c-.1 0 0 .3 0 .4h-.2v.2h-.2v.2h-.2v.2h-.2c-.1 0 0 .3 0 .4h.2v-.2h.2v-.2h.2v-.2h.2v-.2-.2h.2v-.2h.2v-.2h.2v.4h-.2v.2h-.2c-.1 0 0 .3 0 .4h-.2v.2h-.2c-.1.1 0 .3 0 .4h-.2v.2h-.2v.2h.2v-.2h.2c.1.1 0 .3 0 .4v.2h.4v.2h-.2c-.1 0 0 .3 0 .4h-.2v.2h-.2v.2h-.2v.4h-.2v.2h-.2v.4h-.2v.2h-.2v.9c-.1 0-.3-.1-.4 0-.1.1 0 .3 0 .4h-.2v.4h.2v-.2h.2v-.2h.2c.1-.1 0-.3 0-.4h.2v-.2h.2c.1 0 0-.3 0-.4h.2c.1 0 0-.3 0-.4h.2v-.2h.2v-.2h.2v-.4h.4v.4h-.2v.2h-.2v.4h-.2v.2h-.2c-.1.1 0 .3 0 .4h-.2v.2h-.2v.4h-.2v.2h-.2v.4h-.2v.2h-.2v.2h-.2v.2h-.2-.2v-.2h-.2v.2h-.2V277.4h.2v-.2h.4V277.8h-.2v.4h.2v.4h.2v-.2h.2v-.2h.2c.1 0 0-.3 0-.4h.2v-.2h.2v-.2-.2H-148.9v.2h-.2v.2c-.1.2 0 .5 0 .7h.2v.2h.4v.4h-.2v.2h-.2v.4h-.2v.4h-.2v-.2-.2h-.2v-.4-.2h.2v-.2h-.2v-.2h-.2-.2v.2h-.2v.2h-.2v.2h-.2V279.7h-.2v1c-.1 0-.3-.1-.4 0-.1.1 0 .3 0 .4v.4h-.2v.4h.4v.2h.2v.2h.2v.2h-.2V283.1h.2v.7h.2v-.2c0-.1.3 0 .4 0v1.1h-.2V286H-149.5v-.2-1.2h.4V285.2h.2v-.8h.4v.4h-.2v1.7h-.2V288.2h.2v.4c.1.1.3 0 .4 0v.2h.2v.2h.2v-1-.4h.2V286v-.2h.2v-.2h.4v-.2h.4v.4h-.2v.4h.2v.2h-.2v.2h.4v.5h-.2v.2h.2v-.2c0-.1.3 0 .4 0v.4H-145.5v.2h.2v-.2-.2h-.2v-.2-.4-.2h-.2v-.5h.2v.2h.2v.4h.2V287.2h.2v-.2h.2v-.2h.2v.9h.2v.4h.4v.2h.2v.2h.2v.4H-142.9v.2H-141.3v-.2h-.2c-.1 0 0-.3 0-.4h.2v.2c0 .1.3 0 .4 0v.2h.2v.2h2.2v.2H-137.6v.2h.8v.2h.4v.2h.2v.4h.2v.2h.4v-.2h.2v-.2h.2v-.2h.2v-.2-.2h.2v-.2h1.1v.2h.2v.2c0 .1.3 0 .4 0v.2h.2v.2c0 .1.3 0 .4 0v.2h.2c.1-.1 0-.3 0-.4h.4v-.2h.4v-.2h.4v.2h.8v.2h.2v.2h1.1v-.2h.2v-.2-.2h-.2V288.9h.2v.2h.2v.2h.4v.2h.2v.2c0 .1.3 0 .4 0v.2c0 .1.3 0 .4 0h.2v.2H-126.4v.2h1.4v.2c0 .1.3 0 .4 0v.2H-124v.2h.9v-.2h.2v-.2h.2v-.2h.4v-.2h.2v-.2h-.2v-.2h-.2v-.2h-.2v-.2h-.2c-.1-.1 0-.3 0-.4h-.2v-.2h-.2v-.2h-.2v-.2h-.2v-.2h-.4v-.2h-.2v-.2h-.2v-.2h-.2v-.2h-.2v-.2h-.2v-.2h-.2v-.2h.2v-.2h.2v.2h.8v.2h.4v.2h-.4-.2v.2h.2v.2h.2v.2h.2v.2h.2v.2h.2v.2h.2c.1 0-.1.3 0 .4h.4v.2h.2v.2h.4v.2h.2v.2h.2v.2h.4v.2h.2v.2h.4v.2h.4v.2h.4v.2h.4v.2h.2v-.2h.2v-.2h.2v-.2h.2v-.2-.2h.2v-.2h.2V290.3h-.2v.2h1.1v-.2H-116.8v-.7-.2h-.2-.2v-.2h-.2-.2v-.2h-.2v-.2h-.2v-.2-.2h-.2v-.2c-.1-.2 0-.5 0-.7v-.5h.9v.2h.2v.2c.1.1.3 0 .4 0v.2h.2v.2c0 .1-.3 0-.4 0v-.2h-.2-.2v-.2h-.4v.4h.2v.4h.2v.2h.2v.4h-.2v-.2-.2h-.2v-.2c-.1 0-.3-.1-.4 0-.1.1 0 .3 0 .4h.2v.2h.4v.2h.2v-.2h.2v.2h.4v.2h.2v.2h.2v.2h.2v.2h.4v.2c0 .1.3 0 .4 0v.2c0 .1.3 0 .4 0h.2v-.2-.2h.2v-.2h.7v-.2h.4v-.4h-.2-.2v-.2h-.4-.2v-.2h1.4v.2h.4v-.2H-111.2v-.2h.2v-.2h.2v-.2h.2v-.4h.2v-.2-.2h-.2v.2h-.2v-.2h-.2v-.2h.2c.1 0 0-.3 0-.4h.2v-.2-.2h-.2v.2h-.2v.4h-.2v.4h-.2V286v-.4h.4v-.2h.2v-.2h.2V285.8h.2v-.2h.2v-.2h.2v-.4-.4h.2v-.2h-.2c-.1 0 0-.3 0-.4v-.4-.2h.4v1.3h.2v.4h.2v-.2h.2v.4h-.2v.2h-.2v.7h.2v-.2h.2v-.2h.2v-.2-.2h.2v-.2-.2h.2v-.8h.2v-.2-.4h.2v-.2-.2-.2h.2v-1.1h-.2c-.1 0 0-.3 0-.4h-.2v-.2h-.2v-.2-.2h-.2v-.2h-.2v-.2-.2h-.2v-.2h-.2c-.1 0 0-.3 0-.4h-.2v-.4h-.2v-.2h.2v-.2h.4v.4h.2v.8h.2v.2h.2v.2h.2v.4h.2v.5h.5v.5h.4v.2h.2v-.2h.2v-.4-.2h-.2v-.4-.9-.2h-.2v-.8H-106.5c.1 0 0 .3 0 .4V280.3h.2v1.5h-.2v.2h.2V282.6h.2v-.2h.4v-.2h.2v-.2h.2v-.2h.2v-.4-.2-.2h.2v-.5h.2v-.2h.2V277h.2v.2h.2v.8h.2v.2h.2v-.5h-.2c-.1 0 0-.3 0-.4v-.7-.5-.2h.2v-.4h-.2v-.2h-.2v-.4-.4-.2h-.2V273.7v-.2h-.2v-.2-.4-.5h-.2v-.4h-.2v-.2h-.2v-.5-.2h-.2v-.2-.5h-.2v-.4h-.2v-.2-.2-.2h-.2v-.4-.2h-.2v-.4h-.2v-.2-.2-.2h-.2v-.2-.2h-.2v-.4h-.2v-.2-.2-.2h-.2v-.2h.2v-.2h.2v.2h.2v.4h.2v.4h.2V267.6h.2v.4h.2V268.6h.2v.4h.2V269.6h.2c0 .2-.1.4 0 .5h.2c.1 0 0 .3 0 .4v.2h.2V271.3h.2V271.9h.2V272.5h.2c.1.2 0 .4 0 .5h.2v.4h.2v.8h.2v-.2h.2v-.2h-.2v-.4-.5-.7-.4h-.2v-.2-.2h.2v-.4-.2h-.2v-.4-.4h-.2v-.2-.2h-.2v-.6h.2v.2h.2v-.4-.2h-.2v-.4-.2h-.2v-.4-.2-.2h-.2c0-.2.1-.4 0-.5h-.2v-.4-.2h-.2v-.2-.2h-.2v-.2-.2h-.2v-.2-.2h-.2v-.2-.2h-.2v-.2h-.2v-.2-.2h-.2v-.2h-.2c0-.1.1-.3 0-.4h-.2v-.2h-.2-.2v-.2h-.2v-.2h-.2v-.2h-.2v-.2h-.2c-.1-.1 0-.3 0-.4h-.2v-.2h-.2v-.2h-.2v-.2h-.2v-.2h-.2v-.2h-.2v-.2h-.2v-.5-.2h-.2v-.2-.2h-.2v-.4h-.2c-.1 0 0-.3 0-.4h-.2v-.2-.2h-.2v-.2-.2h-.2c0-.2.1-.4 0-.5h-.2v-.2-.2h-.2v-.2-.2h-.2v-.2h-.2v-.2c-.1 0-.3.1-.4 0v-.2h-.2-.2v-.2h-.4v-.2h-.2v-.2c0-.1-.3 0-.4 0v-.2h-.2-.2v-.2h-.2v-.2c0-.1-.3 0-.4 0v-.2h-.2-.2v-.2h-.2-.2v-.2h-.4v-.2h-.2v-.2h-.4-.2v-.2h-.2-.2v-.2H-116.7v-.2c0-.1-.3 0-.4 0v-.2H-117.7v-.2c0-.1-.3 0-.4 0h-2.5v-.5h-1.4-.2v.2h-.2-.2v-.2h-.2v-.2h-.2v-.2h-.9v.2c0 .1-.3 0-.4 0h-.2v.2h-.2-.2v.2h-.2-.2v.2h-.2-.2v.2h-1.1-.2v-.2h-.7v.2h-.2v.2c0 .1-.3 0-.4 0h-.2v.2h-.2-.2v.2H-129.5v.2h-1v.2h-.2-.2v.2h-.2v.4h-.2V255.2H-130.7v.2h-.2v.2h-.2V256.2h-.5v.4h.2v.8h.2V258h-.2v.2h-.2v1h.2v.9h.2v.5h.2c.1.1 0 .3 0 .4h.2v.2h.2V261.8h-.2v-.2h-.2-.2v-.2h-.2v.2h.2c0 .2-.1.4 0 .5v.2c0 .1.3 0 .4 0v.4h.2zm79.5-16.3v-.2h-.4v.2h-.5v.4H-51.4v-.2H-50.8v-.2c-.2-.1-.3 0-.3 0m-40.7 2.3h.2v-.2h.4v-.2h.2v-.2-.2h-.2v.2h-.2v.2h-.2v.2h-.2c.1.1 0 .2 0 .2m9.1.4h-.2v.4h-.2v.2h-.2v.4h-.2v.2h.4v-.2h.2v-.2-.2h.2v-.2-.2h.2v-.2-.2h-.2v.2zm53.2.7h-.2c-.1 0 0 .3 0 .4.1 0 .3.1.4 0v-.2h.2c.1 0 0-.3 0-.4h-.4v.2zm-64.8.2h-.2v.2h-.2v.2h-.2v.2h-.2v.2h-.2v.2h.4v-.2h.2v-.2h.2v-.2h.2v-.2h.2v-.2h-.2zm-49 .2v.2h-.2v.2H-144.1v.2h-.2-.2v.2h-.4-.2v.2h-.2-.2v.2h-.4v.2c0 .1-.3 0-.4 0v.2h-.2-.2v.2h-.2-.2v.2h-.4v.2h-.2-.2v.2h-.4v.2h-.2v.5h.9v-.2h.2v-.2h.4v-.2h1.5v-.2h.8v-.2h.2v-.2h.8v-.2h1.4v-.2h.2v-.4h-.2v-.2-.2h-.2v-.2-.2h-.2v-.4H-143.3zm113.9.3v.2h.2v.2h.2v.2h-.2-.2v.4h-.2v-.2h-.7v.2h-.2v.4h-.2v.4h-.2v.4h-.2v.2h-.2v.2h.2v.2h1.3v.2c0 .1.3 0 .4 0v.4h.2v-.2c.1 0 .3-.1.4 0v.2h-.2v.2h.9v.2h.7v.2h.4v-.2h.8v.2h.4v.2h.4v.2h.2v.2h.4v.2h.2v-.8h-.2c-.1 0 0-.3 0-.4h-.2v-.2h-.2v-.2h-.2v-.2h-.2v-.2h-.2v-.2h-.2v-.2-.2h-.2v-.2h-.2v-.2h-.2v-.2h-.2v-.7h-.4-.2v-.2h-.2v-.2h-.2v-.2H-28.4v-.2-.2h-.4-.2v-.2h-.4v-.2h-.2v.5zm-54.6.2v.2h-.2c0 .1.1.3 0 .4h-.2v.2h.2v-.2h.2c.1-.1 0-.3 0-.4h.2v-.2h-.2m-57.6 1.5h-.8-.2v.2h-.4v.4h1.3V252.7zm-2.4.5H-143.4v-.2H-144v.2m17.4-.2v.2H-127.2v.2h-.2-.2v.2h.7v-.2c0-.1.3 0 .4 0v-.2h.2v-.2h-.3zm29.6.2h-.2v.2h-.2v.2h-.2v.2h-.2c-.1.1 0 .3 0 .4h-.2v.2c.1 0 .3.1.4 0 .1-.1 0-.3 0-.4h.2v-.2h.2v-.2h.2v-.2-.2m-21.2.2h-.2v.2h-.2v.2h.7v-.4h-.3m3.6 1.8h.2v.2h.4v.2h.4v.2c0 .1.3 0 .4 0v.2c0 .1.3 0 .4 0v.2h.2v.2h.2v-.5h.4v-.2h-.2-.2v-.2h-.4-.2v-.2h-.5v-.2h-.2-.2v-.2h-.5v.3zm2.3 1.1v.2h.2v.2h.2v.2c0 .1.3 0 .4 0v.2h.4v.2h.4v-.2h-.2v-.2h-.2v-.2h-.2v-.2h-.2-.2v-.2h-.4-.2m51.6 1.1h.2v-.2-.2-.2h-.2v.6zm-49.7 1.1v.2h.2v.4h.2v.4h.2V260.1h.2c0 .1-.1.3 0 .4h.2v.2h.2v.2h.2v.2h.2v.4h.2v.2h.2v.2h.2v.4h.2v.2h.2v.2h.2v.4h.2v.2h.2v.2h.2v.2h.2v.2h.2v-.2h-.2v-.2-.2-.2h-.2v-.4h-.2v-.2-.2h-.2v-.2h-.2v-.2-.2h-.2v-.2h-.2v-.2-.2h-.2v-.2h-.2v-.2-.2h-.2v-.2h-.2v-.2h-.2v-.2h.2v-.2h.2v-.4h-.2-.2v-.2h-.2v-.2h-.2v-.2c0-.1-.3 0-.4 0v-.2h-.2v-.2h-.4v.2zm-30 0h-.2v.2c-.1 0-.3-.1-.4 0v.2h-.2v.2h-.2v.2h-.2v.2h-.2v.2h-.2-.2v.2h-.2v.2h-.2v.4H-142v-.2h.2v-.2h.2v-.2h.4v.2h-.2v.2h-.2v.2h-.2v.4h.2v-.2h.2v-.2h.4v-.2h.2v-.2-.2h-.2v-.4-.2h.2v-.2h.2v-.2h.2v-.2h.2v-.2h-.2zm113 1.4v.2h.2v.4h.2v-.5-.2h-.2v-.2-.2h-.2v.5zm-80.5.6v.2h.2v.2h.2v.4h.2v.2h.2v-.2h-.2v-.4h-.2c-.1 0 0-.3 0-.4h-.2v-.2h-.2v.2zm-34.3.1h-.2v.2h-.2v.2h-.2v.2h-.2v.2h-.2v.4h.2v-.2h.2v-.2h.4v-.2h.2v-.4-.2m0 1.3c0-.1-.3 0-.4 0v.2h-.2v.2h-.2v.2h-.2v.2h-.2v.2h-.2v.2h-.2v.2h-.2v.2h-.2c-.1.1 0 .3 0 .4h-.2c-.1 0 0 .3 0 .4h-.2v.2h-.2v.2h.2v.2h-.2v.2h-.2v.2h.2v-.2h.2v-.2h.2v-.2h.2v-.7h.2v-.2h.2v-.2h.2v-.2h.4v-.2h.2v-.2h.2v-.2h.2v-.2h.2v-.2-.2h.2v-.3m-1.1 2h-.2v.2h-.2v.2h-.2v.2h-.2v.4h-.2v.2h-.2v.2h.2v-.2h.4v-.2h.2v-.2h.2v-.2h.2v-.2h.2v-.4h-.2zm36.9-.4v.4h.2v.4h.2v.2h.2v-.2h-.2v-.2-.2h-.2v-.2-.2c-.1 0-.2.1-.2 0v-.2h-.2v.2c0 .1.1 0 .2 0m45.5 1.1h.2v-.2-.2-.2h-.2v.6zm-39.6-.1v1.5h-.2v.7h.4v-2.3c0 .1-.1 0-.2.1m74.4.5v.2h.2v-.5-.2h-.2v.5m-34.6.5v.2h.2v-.5-.2h-.2v.5m34.4.4h.2v-.2-.2-.2h-.2v.6zm-118.6.7h-.2v.2h-.2v.2h-.2v.2h-.2v.2h-.2v.2h-.2v.2h-.2v.2h-.2v.4h-.2v.2h-.2c-.1.1 0 .3 0 .4h-.2v.2h.2v-.2h.2c.1 0 0-.3 0-.4h.2v-.2h.2v-.2h.2v-.2h.2v-.2h.2v-.2h.2v-.2h.2v-.2h.2v-.2h.2v-.2-.2m45.9 2.9v.2h.2v-.7-.2h-.2v.7m-48.6 1.7h-.4c-.1.1 0 .3 0 .4h-.2v.2h.2v-.2h.2v-.2h.2v-.2m.3.5h-.2v.2h-.2v.2h-.2v.2h-.2v-.2h-.4v.2h-.2v.2h-.2v.2h-.2-.2v.2h-.2v.8h.2v.2H-148.7v-.2h.2v-.2h.2c.1 0 0-.3 0-.4h.2v-.2h.2v-.2h.2v-.2h.2c.1-.1 0-.3 0-.4h.2v-.2s.1-.2 0-.2m48.5 2.7h-.4c-.1.1 0 .3 0 .4h-.2v.2h.2v-.2h.2v-.2h.2v-.2m-1.5.6V276.7h.4v-.7-.2h-.2v-.8h-.2m.6.5h.2v.2c0 .2-.1.5 0 .7h.2V277h.2v.4h.2v.2h.2c.1 0 0-.3 0-.4h-.2v-.4-.5h-.2v-.2-.2-.2h-.2v-.5h-.4v.3zm68.4.2h.4v-.4h-.4v.4zm-.8.2v.2h.2v-.4h-.2v-.2h-.2v.2h.2c.1 0 0 .1 0 .2m-30.3.2v.2h-.2v.5h.4v-.2-.2h.2v-.2h-.2v-.2c0 .1-.1 0-.2.1m29.6 0h-.4v.2h-.2-.2v.2h-.2v.2h.2v-.2h.4v-.2h.4v-.2m.4.1v.2c0 .1-.3 0-.4 0v.2h-.2v.2h-.4v.4h.4v-.2h.4v.4h-.2-.2v.2c0 .1-.3 0-.4 0v.2h-.2-.2v.2h-.2-.2v.2H-34.8v.2h-.2-.2-.2v.2H-36h-.2v.2h-.5-.2v.2h-.5-.2v.2h-.4-.2v.2H-38.8h-.2v.2h1.2v-.2H-37.2v-.2h.4v-.2h.9v-.2H-35.3v-.2h1.3v-.2c0-.1.3 0 .4 0v-.2h.4v-.2h.4v-.2h.2v-.2h.2v-.2h.2V276.8v-.4h.2v-.2h-.4zm-117.2.8v.2h-.2v.9h.2v-.4-.4h.2c.1 0 0-.3 0-.4-.1.1-.2 0-.2.1m87.1.9h.2v-.2-.2-.2h-.2v.6zm.7 0v.4h-.2v.2h-.2V279.1h.4v-.2h.2c.1 0 0-.3 0-.4h.2v-.2h-.2c-.1 0 0-.3 0-.4h-.2m-43.2.3v.7h.2v-.2-.5c0 .1-.2 0-.2 0m58.6 1.9v.2h.2v.2h.2v.2h-.2v.8h.2V282.1h.2v.2h.4v-.2-.2h-.2c-.1 0 0-.3 0-.4v-.2-.2h-.2v-.4-.4h-.2v-.2-.4-.2h-.2v-.2h-.2v.8zm-16.1-.4h-.2V280.3h-.2v.5h-.2c-.1 0 0 .3 0 .4h-.2v.2h-.2v.2h-.2v.7h-.2v.4h-.2v.2h-.4-.2v-.2h-.2v.2h-.2v.2h-.2v.2h-.2v.4h1.1v-.2h1.3v-.2h1.1v-.2h1.1v.2h.2v-.2h.4v-.2h1.1v-.2h.2v-.2h-.4v-.2c0-.1-.3 0-.4 0v-.2H-60.4v-.2h-.2v-.2c0-.1-.3 0-.4 0v-.2h-.2v-.2h-.2v-.2h-.2v-.1-.2h-.2v-.2h-.2v-.2-.2h-.2v-.2h-.2c0-.1.1-.3 0-.4h-.2v-.2h-.4v.3zm14.5.2h-.2c0 .1-.1.3 0 .4h.2v.2H-47.4v-.4-.2h-.2v-.2h-.4v.2zm3.2 0h-.2V280.5h.2v.4h.2v.2h.2v.2h.2v-.2h.2V280h-.2-.2v-.2c0-.1-.3 0-.4 0v.1zm2 .2h1.1v-.2h-1.1c.1 0 0 .1 0 .2m-9.8 2.3h-.2v-.2h-.2v-.2h-.4-.2v.2h-.2-.2v.2h-.4v.2c.1.1.3 0 .4 0v.2c0 .1.3 0 .4 0h.4v-.2c0-.1.3 0 .4 0h1.5v-.2h.4v-.2h.2v-.4h-.8v.2h-1v-.2h-.2v.6zm-13.2-.2h-.2v.2h-.2v.4h-.2v.2h-.2v.2h-.2v.2h-.2v.2h-.2v.2c.1.1.3 0 .4 0h.2v-.2h.2v-.2-.2H-65.8v-.8-.2m6.9.8h-.2v.2h.8v-.2c0-.1-.3 0-.4 0h-.2m-49.5.1v.9h-.2v.8h.2v-.2h.2v-.2-.2-.2h.2v-.5-.2h-.2v-.2c-.1.1-.2 0-.2 0m33.9 0h-.2v.2h-.2v.2h-.2v.4h-.2v.2h-.2v.2h-.2v.2h-.2v.2h-.2v.4h-.2V285.7h-.2v.8h.2v-.2h.2v-.2-.2h.2v-.2h.2v-.4h.2v-.2h.2c.1 0 0-.3 0-.4h.2v-.2h.2v-.2h.2v-.2h.2v-.2h.2v-.2-.4h.2v-.2h-.4zm.3 1.1v.2h-.2v.2h.4v-.2h.2v-.2c-.1.1-.3 0-.4 0m-74 1.1h-.2v.2c.1.1.3 0 .4 0v.2h.2v-.5h-.4v.1zm38.5 1.8h.2v-.2h.2v-.2h-.4v.2h-.2v.2h.2zm-.4.4h-.4-.2v.2h-.2v.2h-.2v.2h.2v.2h.4v-.2H-109.9v-.2h.4v-.4h-.6m-35.3.5v.2h.2v-.2h.2v-.4h-.4c0 .2-.1.3 0 .4m1.4 0h-.2-.2v.2h.2v.2h.2v-.2-.2m-.9.8v.4h.2v.4h.4v-.2h.4v-.4h-.2v-.2h-.2-.2v-.2h-.4v.2zm-.5.1h-.2v.2h-.2c0 .1.1.3 0 .4h-.2-.2v.2h.2v.4h.2v.2h.2v-.2h.2v-.2h.4v.2h.4v-.2-.2h-.2c-.1 0 0-.3 0-.4h-.2c-.1 0 0-.3 0-.4h-.2v-.2h-.2v.2m2.3.8h.2v-.2H-141.7v-.4h-.8v-.2h-.2v-.2h-.4v1zm29.9-.6h-.2v.2H-114v.2c0 .1-.3 0-.4 0h-.2v.2h-.2v.2h.5v-.2H-113.7v-.2c0-.1.3 0 .4 0v-.2h.4v-.2h-.3zm-24.1.4v.2h.4v.2c0 .1.3 0 .4 0v.2c0 .1.3 0 .4 0v-.2h-.2v-.2h-.2v-.2H-137.1h-.2m3.3.4h-.2v.4h-.2v.2H-132.7v-.2h-.4v-.2h-.2v-.2h-.2v-.2h-.5v.2zm3.6.3h-.2v-.2h-.2-.2v.2h.2v.2H-130.2v-.2h-.2m2.7.4v-.2h-.2v-.2h-.2v-.2c-.2-.1-.4.1-.5 0v.2h-.2-.2-.2v.2h-.2-.2v.2h.7v.2h1.3v-.2h-.1z"/><path fill="#1D1D1B" d="M-84.7 247.2H-84.1v.2h.2v.2h-.2v.2h-.2-.2v.2h-.2v.2h-.4v.2h-.2v.2h-.4v.2h-.2v-.2h.2v-.2h.4v-.4-.2-.2h-.2v-.2h.2v-.2c-.1-.1-.3 0-.4 0v.2h-.2-.2v.2h-.2-.2v-.2h.2v-.2h.4v-.2h.4v-.2H-84.9v.4c.1.1.2 0 .2 0M-85.2 249.4v-.2h.2c.1.1 0 .3 0 .4h-.2v.2h-.2v.2h-.2v.2h-.2c0 .1.1.3 0 .4h-.2v.2h-.2v.2h-.2v.4h.2v-.2h.2v.2h.5c0 .1.1.3 0 .4h-.2v-.2h-.2v.2h.2v.4h-.2v.2h-.2v-.2h-.2-.2v.2h-.2v.2h-.2v.2h-.2v.2h-.2v.2h-.2v-.2h.2v-.2h.2v-.2h.2v-.2h.2v-.2h.2v-.2-.2H-87.1v-.4h.2v-.2h.2v-.2h.2v-.4-.2h.2v-.2h.4v-.2h.2v-.2h.2v-.2h.2v-.2zM-66.9 250.8h-.2v-.4h.2v.4h.2v.2h-.2v-.2M-66 251.2v-.2h.4v.2h.2c.1.1-.1.3 0 .4h.2v.2h.2v.2h.2v.2h.2v.2h.2v.2h.2v.4c.1 0 .3-.1.4 0v.2h.2v.2h.2c0 .1.1.3 0 .4h-.2v-.2h-.4v-.2h-.2v-.2h-.2v-.2-.4h-.2-.2v-.2h-.2v-.2h-.2v-.2h-.2v-.2h-.2v-.2h-.2v-.4h-.2zM-91.4 252.1h-.2v.4h-.2v.2c-.1 0-.3-.1-.4 0v.2h-.2v.2h-.4v.4h-.2v.2h-.2v-.2-.2h.2v-.2h.2v-.2h.2v-.2h.2v-.2h.2v-.2h.2v-.2h.4v-.2h.2v.2M-41 255.4V256h.2v.2h-.2v-.2h-.2v-.2-.4h.2M-42.6 257.4v.5h.2v.2h.2V258.7h.2v.2h.2v.2h-.2v-.2h-.4-.2v-.2h-.2c-.1 0 0-.3 0-.4v-.2h.2v-.2h-.2V257.3c.1.1.2.1.2.1v-.2h.2v.2h-.2M-27.9 261.7v.2h-.2v.2h-.2v.2h-.2v.2h-.2v.2h-.2-.2v-.2c.1-.1.3 0 .4 0v-.4h.2v-.2h.2v-.2h.4zM-66.2 262.3h-.2v.2h-.2c0 .1.1.3 0 .4h-.2-.2v.2h-.2c0-.1-.1-.3 0-.4h.4v-.2h.2v-.2h.2v-.2h.2c.1 0 0 .1 0 .2M-42.6 267.4h.2v.2h.2v.4h.2v.4h.2v.4h-.2v-.4h-.2v-.2h-.2v-.2h-.2v-.2-.2h-.2v-.2c.1-.1.2 0 .2 0M-44 268.8v-.5h.4V268.9c.1.1.3 0 .4 0v.2h-.2-.2v-.2h-.4zM-42 270.6v.9h.2v.2h.2v.2c.1.1.3 0 .4 0v.2h.2v.2h-.2v-.2h-.4v-.2h-.2-.2v-.2h-.2v-.4h-.2v-.4h.2v-.4c0 .1.1.1.2.1v-.2-.2h.2c0-.1-.1-.3 0-.4h.2V270.4h.2v.4h.2v.4h.2v.2h-.2v-.2h-.2v-.2h-.2c0-.1.1-.3 0-.4h-.4M-39.1 270.1h.2v.2H-38.3v.4h-.2v-.2h-.4v-.2h-.2c-.1-.1 0-.2 0-.2M-146 271.7c0-.1-.1-.3 0-.4h.2v.4h-.2v.2h-.2v-.2h.2M-79.2 273.7c-.1 0-.3-.1-.4 0v.2H-80.2h-.2v-.2h.2v-.2h.2v.2h.4v-.2h.4v.2M-57.6 276.4h-.2v-.2h.2c0 .1-.1.2 0 .2s.3-.1.4 0v.2h-.2-.2c-.1 0 0-.2 0-.2M-67.6 276.6v.4h-.2v.2h-.2v.2h-.2-.2v-.2h-.2v-.2h.7v-.2-.2h.3M-23 276.8v.2h-.2-.2-.2v.2h-.5v-.2H-23.5v-.2h.5zM-66.9 277.3h.2v.2h-.2v.2h.2v.4h-.2v.4h-.2v-.2-.2h-.2v-.2-.2h.2v-.2h.2v-.2zM-72.3 278.2v.4h-.2v.2h-.2v.2h-.4v-.2h-.2v-.4-.5h.2v-.2h.2v.7h.4v-.2s.1.1.2 0v-.2h.2v.2c-.1.1-.2 0-.2 0M-40.2 277.9v.2h-.2v.2h-.2v.2h-.2v.2h-.2-.2v.2h-.4v.2h-.4-.4v-.2c-.1 0-.3.1-.4 0v-.2h-.2V278.1h-.2v-.2h.4v.4h.2v.2c.1 0 .3-.1.4 0v.2h.5c.1 0 .3.1.4 0v-.2h.2v-.2-.2h.4v-.2h.5zM-92.1 278.6h.2v.4h.2v.2h.2v.2h.2v.2h-.2v-.2h-.4v-.2h-.2V278.6zM-147.8 279.5v.4c0 .1.1.3 0 .4h-.2v.8h-.2v.2h-.2v-.2h.2v-.5-.4h.2v-.5-.4h.2v.2c0-.1 0-.1 0 0M-66.7 279.3v-.2h.2v.2h.2V279.9h.2v.2h-.2v-.2h-.2v-.2-.2-.2c-.1 0-.2.1-.2 0M-81.6 280.1h.2v.2h.2v.4h.2c.1.2 0 .4 0 .5v.2h.2v.2h-.2v-.2h-.2v-.2c-.1 0-.3.1-.4 0v-.2-.2h-.2v-.4-.2h.2v-.1zM-116.2 285.7h-.2v-.2h-.2v-.2h-.2v-.2h.2v.2h.2v.2h.2s-.1.1 0 .2M-112.1 287.3c0 .1.1.3 0 .4h-.2v.2h-.2v.2h-.7v-.4H-112.3v-.2-.2h.2M-127.9 288.2h.2v.2c.1 0 .3-.1.4 0v.2h.2v.2h.2v.2h.2v.2h-.2v-.2h-.2v-.2h-.4-.2v-.2h-.2v-.4zM-69.6 288.2v.2h-.2-.2v.2h-.4v-.2h.4v-.2h.4zM-17 288.8h.2v.2h-.2v.2h-.2-.2v.2h-.4v-.2h.4v-.2h.4v-.2M-77.4 289.9h.2v.2h-.2v.2H-78v-.2H-77.4v-.2M-24.6 290v-.2h.2v.2c-.1.1-.2 0-.2 0v.2h-.4-.2v.2h-.2v-.2h.2v-.2H-24.6M-52.9 290.8v.2h-.2v.2H-53.7h-.2v.2h-.7-.2v.2h-.7v.2h-.8v.2h-.5v-.2h.4v-.2h.9v-.2h.7v-.2H-53.9v-.2h.7v-.2c.1-.1.2 0 .3 0M-58 292.2v.2h-.2v.2c-.1 0-.3-.1-.4 0v.2h-1.1v.2H-60.3v.2h-.4-.2v.2h-.2c-.1 0-.3-.1-.4 0v.2h-.5-.2v.2h-.7-.2v.2h-3v.2h-6.3-.2v.2h-1.5v.2h-.7-.2v.2h-.7v-.2H-75.1v-.2h1.1v-.2h1v-.2h1.7v-.2h8v-.2h.7v-.2h.8v-.2h.8v-.2H-60.4v-.2h.4v-.2h.4v-.2h.8v-.2h.7v-.2h.8v.2h-.7M-101.9 294.6v-.8h.2v-.2-.2h.2v-.2h.2v-.2h-.5v.2h-.2-.2v-.2h.2v-.2h.5v-.2h.9v-.2h.4v-.2h1.1v.2H-98.5v.2h.7v.2H-96.9v.2h.4v.2h.2v.2h.4v.2h.2v.2h.2v.2h.2v.2h.2v.2h.2v.2h.2v.2h.2v.2h.2v.2h.2v.2h.2v.2h.2v.2h.2v.2h.2v.2h.2v.2h.2v.2h.2v.2c.1 0 .3-.1.4 0v.2h.2v.2h.2v.2h.2v.2h.2v.2h-.2v-.2c-.1 0-.3.1-.4 0v-.2h-1.1v-.4h-.2v-.2h-.2v-.2h-.2v-.2-.2h-.2v-.2h-.2v-.2h-.2v-.2h-.2v-.2-.2h-.2v-.2h-.2v-.2h-.2v-.2h-.2v-.2h-.2v-.2h-.2v-.2h-.2-.2v-.2h-.2v-.2h-.2v-.2h-.2v-.2h-1.3-.2v-.2c-.1 0-.3.1-.4 0v-.2c-.1 0-.3.1-.4 0v-.2h-.9v.2h-.2-.2v.2h-.2-.2v.2h-.2v.2h-.2v.2h-.2v.2h-.2c0 .1.1.3 0 .4h-.2V294.8h-.2c.1-.1.1-.2.1-.2M-174.1 294.2H-173.5v.2h.7v.2h.8v.2h.8v.2h.2v-.2h2.2v-.2h1.3v-.2H-166.6v-.2h.9v-.2h1.1v-.2h.7v-.2H-163.3v-.2h.8v-.2h.7v-.2h1v-.2h.9v.2h-.2v.2H-160.7v.2h-1v.2h-1.1v.2H-163.4v.2H-164h-.2v.2h-.9v.2h-.2-.2v.2h-.7-.2v.2h-1.4-.2v.2h-2.2v.2h-1.1v-.2H-173.1v-.2h-.4v-.2H-174.1v-.2h-.2-.2v-.2h.4M-152.3 294.2h-.2v-.2c-.1 0-.3.1-.4 0v-.2h-.2v-.2h.4v.2h.2v.2h.2c0 .1-.1.2 0 .2M-156 294.2h-.9v.2h-.2-.2v.2h-.4v.2H-158.3v-.2h.2v-.2h.2c.1 0 .3.1.4 0v-.2H-156.9v-.2H-156.3v-.2h.4v.4z"/><path fill="#1D1D1B" d="M-145.1 296.9H-144.5v.2h.2v.2h.4v.2c.1 0 .3-.1.4 0v.2h.2v.2h.4v.2h.4v.2h.4v.2h.2v.2h.2v.2h.4v.2h.2v.2h.2v.4h.2v.2h.2v.4h.2v.4h.4v.2h.4v.2h1.3c0 .1-.1.3 0 .4h.8v.2h.8v.2h.8v.2H-134v.2h1.1v.2h1.2v.2H-125.1v-.2h1.6v-.2h1.2v-.2H-120.8v-.2h1.4v-.2h1.1v-.2h1.1v-.2h6.9v.2h5v-.2h.4v-.2c.1 0 .3-.1.4 0v.2h.2v-.2h.4v-.2h.2v-.2h.4v-.2h.2v-.2h-.2v-.2h-.2v-.4h.4v-.2h.2v-.4-.4c0-.1.3.1.4 0v-.2h.4v.2h-.2v.4h-.2V300.3h.2V300.9c0 .1-.1.3 0 .4h.2V301.9h.2v.2h.2v.2h.2v.2c.1 0 .3-.1.4 0v.2h.2v.2c.1 0 .3-.1.4 0v.2h1.8c.1 0 .3.1.4 0v-.2h1.1v-.2h.4v-.2c.1 0 .3.1.4 0v-.2c.1 0 .3-.1.4 0v.2h1.3v-.2h.2c.1 0 .3.1.4 0v-.2h.4v-.2h.2v-.2h.2v-.2h.2v-.2h.2v-.2h.2v-.2h.2v-.2h.2v-.2c.2 0 .5.1.7 0h.2v-.2h.4v-.2h.2v-.2-.2h.2v-.2H-89.7v-.2h.7v-.2H-88.4v-.2h.4v-.2h.4v-.2h.4v-.2c.1 0 .3.1.4 0v-.2h.4v-.2h.4v-.2h.4v-.2h.2v-.2H-84.8v-.2H-84.2v-.2h.8v.2h-.2v.2h-.2-.2v.2h-.2-.2-.2v.2h-.2-.2v.2h-.2-.2V298.5h-.4-.2v.2h-.2-.2v.2h-.2v.2h-.2-.2v.4h2.6v-.2H-83.5v-.2h.2c.2 0 .4.1.5 0h.2v-.2c.2 0 .4.1.5 0h.2v-.2c.3-.1.6 0 .9 0v-.2h1.3v-.2h.8v-.2h.7v-.2h.7v-.2c.2 0 .4.1.5 0h.2v-.2h.8v-.2h.8v-.2H-74.6v-.2h.9v-.2H-73.1v-.2h.7v-.2h1.1v-.2h1.3v-.2h1.5v-.2h1.5v-.2h.9v-.2h1.3v-.2H-63.3v-.2h1.1c.3 0 .6.1.9 0h.2v-.2h2.7v.2h4.1v-.2h1.4v.2H-52.3c.6.1 1.2 0 1.8 0H-49.9v.2h1.9v.2h1.6v.2h1.2v.2h.8v.2H-39.2v.2h2.1v-.2h1v-.2h2.1v-.2h1.9v-.2h1.3v-.2-.2h.4v.2h.2v.2h.2c.1 0 .3.1.4 0v-.2h3.1v.2h1v.2h1v.2h1.1v.2H-21.9v.2h1.6v.2h1.6v.2H-12.9v-.2H-12v-.2H-11.4v-.2H-10.8v-.2h.4v-.2H-9.8v-.2H-9.2v-.2H-8.6v-.2h.5v-.2h.4v-.2H-7.1v-.2h.7v-.2H-4.9v.2h.4c.5 0 1.1-.1 1.6 0H-2.3v.2h.2H-5h.7v.2h-6.4v.2H-11.3h-.2v.2h-.4-.2v.2h-.4v.2h-.2-.2-.2v.2h-.4-.2v.2c-.2.1-.4-.1-.5 0v.2h-.2-.2v.2H-15.2v.2h.4v.2h-.4-.2v-.2h-.2v.2h-.2-.2v.2h-1.5v.2H-23.2v-.2h-.8v-.2h-1.9-.2v-.2h-1.4v-.2H-28.8h-.2v-.2h-1-.2v-.2h-1.4-.2v-.2H-33h-.2v.2h-1.2-.2v.2h-1.7v.2h-2v.2h-1.4v.2h-6.7-.2v-.2H-47.5h-.2v-.2h-.8-.2v-.2c-.3-.1-.6.1-.9 0v-.2h-1.3-.2v-.2H-54.9v-.2H-64.3v.2h-.4c-.7.1-1.4 0-2 0h-.4-.2v.2h-1.4-.2v.2h-.7-.2v.2h-1.3v.2h-1.1v.2h-.2c-.3 0-.6-.1-.9 0v.2h-1-.2v.2H-75.8v.2h-.8v.2H-77.2h-.2v.2H-78v.2H-78.6h-.2v.2H-79.4h-.2v.2c-.2 0-.4-.1-.5 0h-.2v.2h-.4-.2v.2h-.4-.2v.2H-82.1v.2H-82.7v.2h-.2-.2-.2v.2h-.4v.2h-.2-.2-.2v.2c-.2.1-.5-.1-.7 0v.2h-.7-.2v.2h-.9-.2v.2h-1.4v.2H-89h-.4v-.2h-.9v-.2h-.2v-.2H-92v-.2h-.2-.2v.2h-.7v.2h1.2v.2H-91.3v.2h.2v.2H-91.7h-.2v-.2h-.2v.2h-1.4-.2v.2H-94.6v.2h-.4v.2h-.2v.2c-.1 0-.3-.1-.4 0v.2h-.2v.2h-.2v.2h-.2v.2h-.2v.2h-.2v.2h-.2v.2h-.2v.2h-.2v.2h-.2v.2h-.4v.2h-1.1v.2h-.2v.2h-.4-.2v.2h-.2-.2-.2v.2H-100.9v.2c-.2 0-.4-.1-.5 0v.2h-.2-.2-.2v.2h-.7v-.2H-103.3v-.2H-102.7c.2 0 .5.1.7 0h.2v-.2h.7v-.2H-100.5v-.2h.2c.1 0 .3.1.4 0v-.2c.2-.1.4 0 .5 0v-.2h.4v-.2h-.9v-.2h-.2-.2-.2v-.2H-101.1v.2h-.2c-.2.1-.5-.1-.7 0h-.2v.2h-.5v-.2h-1.1v-.2H-104.4c-.1 0-.3.1-.4 0v-.2h-.2v-.2h-.2v-.2h-.2v-.2-.2h-.2v-.2h-.2v-.2h-1.3v.2h-.2v.2c-.1 0-.3-.1-.4 0v.2h-.2v.2h-.4v.2c0 .1-.3 0-.4 0v-.2h-1v.2H-110.3h-.2v-.2h.4v-.2h.8v-.2h.5v-.2H-109.4c-.2 0-.4-.1-.5 0h-.2v.2h-1.1-.2v-.2h-1.8-.2v.2h-5.4-.2v.2h-1.9v.2h-2.1v.2h-2.9v.2h-4.2v.2h-3.5-.2v-.2h-2.2v-.2H-137.3h-.2v-.2h-.2v-.2h-1.1v.2H-138.2v.2c.1 0 .3-.1.4 0v.2h.2v.2h.2v-.2h.8v.2h-.4v.2h-.4-.2v-.2h-.4-.2v-.2h-.5-.2v-.2h-.8v-.2h-.4v.2h-.2c-.2.1-.5-.1-.7 0h-.2v.2h-1-.2v.2H-143h-.2v.2h-.2c-.1 0-.3-.1-.4 0v.2c-.1 0-.3-.1-.4 0v.2h-.4v.2h-.2-.2-.2v.2h-.2-.2v.2h-.2-.2v.2c-.1 0-.3-.1-.4 0v.2h-.4v.2h-.2-.2v.2h-.2v.2H-148v.2h-.4v.2h-.4-.2v.2h-.9v.2h-1.5-.2v.2h-.2-.4v-.2h-1.5v-.2h-.5-.2v-.2H-155h-.2v-.2H-155.8v-.2c-.2 0-.4.1-.5 0h-.2v-.2h-.5v-.2h-.4v-.2c-.1 0-.3.1-.4 0v-.2h-.9v-.2h-1.1-.2v-.2h-1.1v-.2h-.5-.2v-.2h-.4-.2v-.2H-163.3v.2H-168.7v.2h-3.2v-.2H-179v-.2h-.2v-.2-.2H-173.6v.2H-168.3v-.2h3.3v-.2h-.4v-.2h-.7v-.2H-166.7v-.2h-1.1v-.2h-.9v-.2h-3.8v-.2h.8v-.2h-.5-.2v-.2h-.2v-.2h.8v.2H-170.3v.2h2v.2h.2c.5 0 1-.1 1.5 0H-166v.2h1.3v.2h1.3v.2H-162.8v.2h.4v.2H-161.8v.2h1v.2h1.4v-.2h.2v-.2H-158.6v-.2h.2v-.2h-.9-.2v-.2h-1v-.2h-1.1-.2v-.2h-1.3v-.2c-.1 0-.3.1-.4 0v-.2h-.2-.2-.2v-.2h-.2-.2v-.2h-.4-.2v-.2H-165.7v-.2h-.4-.2v-.2h-.4-.2v-.2h-.2-.2-.2v-.2h-.9v-.2h-1v-.2h-.8-.2v-.2h-1.1v-.2h-.4-.2v-.2h.8v-.2h.4v.2c.1 0 .3-.1.4 0v.2h.4v-.2h1.1v.2h.9v.2h.4v.2c.2.1.4 0 .5 0v.2h.9v.2c.2 0 .4-.1.5 0h.2v.2c.2 0 .4-.1.5 0h.2v.2H-164.3v.2h.8v.2h.8v.2h.8v.2H-161v.2h3.6v-.2h.8v-.2H-156v-.2H-155.4v-.2h.4v-.2h.2v-.2h.2v-.2h.2v-.2h.2v-.2-.2h.2v-.2h.2v-.2h-.9-.2v.2h-1-.2v.2h-.7-.2v.2h-.2v-.2h.2v-.2h.4v-.2h1.1v-.2h.4c.2 0 .4.1.5 0h.2v-.2c.3-.1.6 0 .9 0v-.2h.4v-.2h.4v-.2h.4v-.2c.2-.1.5.1.7 0v-.2h.9v-.2h2v.2h.7v.2h.4v.2h.4v.2h.2v.2H-146.4v.2c.1 0 .3-.1.4 0v.2h.2v.2h.2v.2h.2v.4h-.2v-.2h-.2-.2v-.2h-.2v.2h.2v.2h.4v.2h.2v-.2h.4v.2h.2c.1 0 0 .3 0 .4h.2V300.9h.2v.4h.2v.2h.4v.2h-.2v.2h-.5v-.2h-.2v-.2h-.2v-.2h-.2v-.2h-.2v-.2h-.2v-.2h-.2v-.2h-.2v-.2c-.1 0-.3.1-.4 0v-.2h-.2v-.2h-.2v-.2h-.2v-.2h-.2v-.2h-.2v-.2h-1.5v-.2h-1.1-.2v-.2h-1.5v.2h-1.1v.2H-153.3v.4h-.2v.2h-.2v.4h-.2v.2h-.2v.2h-.2v.2h-.2v.2h-.2v.2c-.1.1-.3 0-.4 0v.2h-.2v.2h-.2-.2v.2h-.2-.2v.2h-.4v.2h-.2-.2v.2h-.2-.2v.2h-.2v.2h-.5-.2v.2c-.2 0-.4-.1-.5 0h-.2v.2c-.1 0-.3-.1-.4 0v.2c-.1 0-.3-.1-.4 0v.2c.1 0 .3-.1.4 0v.2H-158.7v.2H-158.1v.2h.4v.2H-157.1v.2H-156.2v.2h1.3v.2h.4v.2h-.2v.2h.2c.2.1.4 0 .5 0v.2h.7v.2h1.3v.2H-150.6v-.2h.9v-.2h.5v-.2h.8v-.2H-147.8v-.2c.1 0 .3.1.4 0v-.2h.4v-.2h.4v-.2h.4v-.2h.2v-.2c.1-.1.3 0 .4 0v-.2h.2v-.2h.2v-.2h.2v-.2h.4v-.2h.2v-.2h.2v-.2h.2v-.2h.2v-.2h.2v-.2h.2v-.2h.2v-.2h.2v-.2h-.2v-.2h-.4-.2v-.2h.4v-.2h-.2v-.2h-.2v-.2h-.2v-.2-.2h-.2v-.4h-.2v-.2h-.2v-.2h-.2v-.2h-.2v-.2h-.2v-.2h-.2-.2v-.2h-.2v-.2h-.2-.2v-.2h-.2-.2v-.2h-.2v-.2h-.2-.2v-.2h-.2-.2v-.2h-.2v-.2h-.2v-.2h.2c2.7.1 2.7.2 2.7.2m59.9 2.4v.2H-85.8h-.2v.2h.8v-.2h.8v-.2h-.8zm-32.5 2.3h1.1v-.2h1.7v-.2h-1.9-.2v.2H-118.3h-.2v.2h.8zm-19.9 0H-138.2h-.2v-.2h-1.9v.2h-.2-.2v.2h-.2v.4h2v-.2h.8v-.2c0-.1.3 0 .4 0 0 0 .1-.1.1-.2m-24 .6v.2h.7v.2h.7v.2h.2v-.2h-.2v-.2h-.8v-.2h-.2c0-.1-.2 0-.4 0v-.2c0-.1-.3 0-.4 0-.1 0-.3-.1-.4 0v.2h.8zm65.7.2v-.2h-.2v.2h-1.8-.2v.2h-.2v.2H-96.9v.2h.4v-.2h.4v-.2h.2v-.2c-.2-.1-.1 0 0 0m-49.2-4v-.2c0-.1-.3 0-.4 0v-.2h-.2-.2-.2v-.2h-2.3-.2v.2h-.5-.2v.2h-.2v.2h.2v-.2h2v.2h1.3v.2h1.2v-.2h-.3zm-9.1 2.9v.2h-.7-.2v.2h.9v-.2h.4v-.2h-.4zm-1.9.3H-155.5v-.2H-156.1c0 .1-.1.2 0 .2"/><path fill="#1D1D1B" d="M-101.2 295.7h.2v.2h-.2c0 .1.1.3 0 .4h-.2v.2h-.2v-.2h.2c.1-.1 0-.3 0-.4h.2v-.2M-100.1 296.7h.2v.2h-.2v.2H-100.7v-.2H-100.1v-.2M-99.4 296.9c.1 0 .3-.1.4 0v.2h.2v.4h.4v.2h-.4v-.2h-.2v-.2c-.1 0-.3.1-.4 0v-.2h-.2v-.2h.2M-159.4 297.5h.5v.2h.4v.2h.9v.4h-.9v-.3-.2h-1v-.2h-.2v-.2c.1 0 .2.1.3.1M-144 300.2v.5h-.2v.4h-.2v-.2-.2h.2v-.2h-.2v-.2h-.2-.2-.2v-.2H-145.6v-.2H-146.2v-.2h-.2-.2v-.2h-1.2-.2v.2h-.2-.2v-.2h.4v-.2H-146.3v.2H-145.7v.2h.7v.2h.8v.2h.2zM-134.6 299.8v-.2h.4v.2h-.2c0 .1-.1 0-.2 0v.2h-.2v-.2h.2M-149.1 300.4v-.2h.2v-.2h.2v-.2h.4v.2h-.2v.2h-.2-.2v.2h-.2M-136.9 300.4v.2h-.2-.2v.2H-137.9v.2h-.4v-.4H-137.4v-.2h.5zM-170.3 300.9c-.1 0-.3.1-.4 0v-.2c-.2 0-.4.1-.5 0h-.2v-.2h.7v.2h.4v.2M-133.5 328.9V330.7h-.2v-.2h-.2v-.4-1.2-.4h.2v-.2h.2v.2h.2v.2h.2v.4h.2v.2h.2c0 .1-.1.3 0 .4h.2v.2h.2v.2h.2v-1.6-.2h.2V330.6h-.2v-.2h-.2v-.2-.2h-.2v-.2h-.2v-.4h-.2v-.2h-.2v-.2h-.2c0-.1.1-.3 0-.4 0 .2-.1.3-.2.3M-117 328.3v.2h.2v1.1h.2v1.1h-.2c0-.1.1-.3 0-.4h-.2v-.5-.9h-.2v.4h-.2v.4h-.2V330.3h-.2v.4h-.4v-.4h-.2v-.2-.4h-.2v-.7h-.2v.2h-.2v1.3h-.2v.2h-.2v-.2-.4h.2v-.2-.9-.2h.2v-.2-.2-.2h.4v.5h.2V329.3h.2V329.9h.4c0-.1-.1-.3 0-.4h.2v-.2-.4h.2v-.2c0-.1-.1-.3 0-.4h.2v-.2c.1.2.2.2.2.2M-103.7 328.9v.4h.4v.2h.4v.2h.2v.2h.2v.4h-.2v.4h-.2-.2v.2h-.5v-.2h-.2-.2v-.2h1v-.2h.2v-.4h-.2v-.2h-.2-.2v-.2c-.1 0-.3.1-.4 0v-.2h-.2V328.7h.2v-.2h.4v-.2H-102.8v.2h.2v.2h-.2v-.2h-.2-.2v.2h-.4v.2zM-50.4 328.3h.8v.2h.4v.2h.2v.5h-.2v.2h-.2v.2h-.4c0 .1-.1.3 0 .4h.2v.2h.2v.2h.2v.2h.2v.2h-.4v-.2h-.2v-.2h-.2v-.2-.2h-.2v-.2h-.2v-.2h.4v-.2h.4v-.7h-.2v-.2h-.4-.2-.2v2.2h-.2v-.2-2h.2v-.2zM-30.4 328.9v.4c.1 0 .3-.1.4 0v.2c.1 0 .3-.1.4 0v.2h.2v.2h.2v.5h-.2v.2h-.2-.2v.2h-.5v-.2h-.2-.2v-.2h1v-.2h.2v-.4h-.2v-.2h-.2-.2v-.2c-.1 0-.3.1-.4 0v-.2h-.2V328.6h.2v-.2h.4v-.2H-29.5v.2h.2v.2h-.2v-.2h-.2-.2v.2h-.4v.3zM-77.1 235.6h-.2v.2h-.2v.2h-.4-.2v.2h-.4-.2v.2h-.4-.2v-.2c-.1 0-.3.1-.4 0v-.2h-.2v-.2h-.2v-.2-.2h-.2v-.2-.5h.2v-.2h.2v-.2h.2v-.2h.2v-.2h.4v-.2h1v.2h.4v.2h.2v.2h.2v.2h.2v1.1zM-33.7 248.7c0 .1.1.3 0 .4h-.2V249.7h.2V250.3h-.2c0 .1.1.3 0 .4h-.2v.2h-.2v.2h-1.5v-.2c-.1 0-.3.1-.4 0v-.2h-.2v-.2h-.2v-.2h-.2v-.2h-.2v-.2-.2h-.2v-.2-.4h.2c0-.1-.1-.3 0-.4h.2v-.2h.2v-.2H-36v-.2h.4v-.2H-35v.2c.1 0 .3-.1.4 0v.2h.4v.2h.4v.2h.1zm-1.3.3h.2v-.2h.2v-.2h-.2-.2v.2c.1.1 0 .2 0 .2"/></g></svg>