<svg version="1.2" baseProfile="tiny" xmlns="http://www.w3.org/2000/svg" width="388.509" height="100.711" viewBox="0 0 388.509 100.711"><path d="M8.403 89.28l-.82-.116v7.004h-1.31V80.686c.42-.25.94-.456 1.557-.62a7.872 7.872 0 0 1 2.026-.246c1.686 0 2.966.422 3.84 1.264.874.842 1.312 1.998 1.312 3.466 0 1.374-.466 2.507-1.393 3.396-.93.89-2.323 1.335-4.18 1.335H8.402zm1.31-8.618c-.498 0-.912.036-1.24.107-.327.07-.625.16-.89.27v7.304l.773.07h.984c1.498 0 2.6-.35 3.3-1.055.704-.703 1.055-1.654 1.055-2.857 0-1.28-.32-2.24-.96-2.88-.64-.64-1.647-.96-3.02-.96M27.373 96.167V80.053h7.096v.915h-5.762v6.37h5.223v.914H28.71v7h5.76v.915zM49.6 96.4c-.83 0-1.508-.072-2.038-.222a5.658 5.658 0 0 1-1.476-.643l.422-.937c.36.235.773.422 1.24.562.47.14 1.023.21 1.664.21 1.062 0 1.905-.318 2.53-.96.622-.64.936-1.506.936-2.6 0-.826-.235-1.497-.703-2.013-.47-.516-1.307-1.002-2.517-1.463-1.21-.46-2.08-1.057-2.61-1.792a4.057 4.057 0 0 1-.797-2.436c0-1.185.395-2.197 1.182-3.033.79-.834 1.815-1.252 3.08-1.252.656 0 1.242.072 1.757.217a4.17 4.17 0 0 1 1.31.605l-.374.888c-.298-.21-.683-.394-1.16-.555a4.568 4.568 0 0 0-1.463-.24c-.953 0-1.695.297-2.226.89-.53.595-.796 1.408-.796 2.44 0 .86.255 1.534.762 2.018.507.484 1.353.942 2.54 1.373 1.188.43 2.042 1.04 2.565 1.83.523.79.785 1.613.785 2.474 0 1.376-.438 2.494-1.312 3.354-.873.857-1.973 1.287-3.3 1.287M74.33 95.815l2.928 3.72-1.053.958-2.577-4.42c-.28.094-.56.155-.842.187-.28.03-.554.046-.82.046-1.905 0-3.314-.752-4.227-2.26-.915-1.506-1.37-3.5-1.37-5.983 0-2.452.455-4.438 1.37-5.96.912-1.523 2.322-2.285 4.226-2.285 1.905 0 3.31.762 4.215 2.284.906 1.523 1.36 3.51 1.36 5.96 0 1.797-.255 3.36-.76 4.696-.51 1.335-1.326 2.355-2.45 3.057m-2.365-15.082c-1.594 0-2.702.686-3.325 2.06-.626 1.374-.937 3.115-.937 5.223 0 2.14.3 3.895.9 5.27.602 1.374 1.723 2.06 3.362 2.06 1.608 0 2.72-.694 3.337-2.084.617-1.39.925-3.138.925-5.246 0-2.14-.308-3.888-.925-5.247-.616-1.358-1.728-2.037-3.337-2.037M94.964 96.424c-1.452 0-2.604-.456-3.454-1.37-.852-.912-1.276-2.05-1.276-3.406V80.053h1.335v11.594c0 1.124.334 2.022 1.007 2.692.67.672 1.49 1.007 2.457 1.007.953 0 1.77-.34 2.448-1.02.68-.678 1.02-1.572 1.02-2.68V80.053h1.193v11.594c0 1.343-.42 2.475-1.264 3.396-.843.922-1.998 1.38-3.466 1.38M113.044 80.054h1.336v16.113h-1.336zM130.445 96.4c-.828 0-1.507-.072-2.037-.222a5.658 5.658 0 0 1-1.476-.643l.422-.937c.36.235.773.422 1.24.562.47.14 1.023.21 1.664.21 1.06 0 1.905-.318 2.53-.96.622-.64.936-1.506.936-2.6 0-.826-.235-1.497-.703-2.013-.468-.516-1.306-1.002-2.516-1.463-1.21-.46-2.08-1.057-2.61-1.792a4.057 4.057 0 0 1-.797-2.436c0-1.185.394-2.197 1.18-3.033.79-.834 1.816-1.252 3.08-1.252.657 0 1.243.072 1.758.217a4.17 4.17 0 0 1 1.31.605l-.373.888c-.298-.21-.683-.394-1.16-.555a4.568 4.568 0 0 0-1.463-.24c-.954 0-1.696.297-2.227.89-.53.595-.796 1.408-.796 2.44 0 .86.254 1.534.76 2.018.508.484 1.354.942 2.54 1.373 1.19.43 2.043 1.04 2.566 1.83.523.79.785 1.613.785 2.474 0 1.376-.438 2.494-1.312 3.354-.873.857-1.973 1.287-3.3 1.287M157.212 96.17l-1.79-5.507h-5.886l-1.83 5.503h-1.263l5.573-16.113h1.054l5.527 16.113-1.385.003zm-4.17-12.882a12.547 12.547 0 0 1-.487-1.97c-.048.173-.125.43-.234.775-.108.343-.234.733-.374 1.17l-2.137 6.533h5.338l-2.107-6.508zM186.443 96.167V80.053h7.096v.915h-5.762v6.37H193v.914h-5.222v7h5.76v.915zM221.97 80.054h1.334v16.113h-1.335zM246.49 96.167l-7.61-13.09c-.204-.36-.407-.74-.61-1.137a28.52 28.52 0 0 0-.515-.972v15.199h-1.1V80.053h1.713L245.8 92.88c.247.456.452.843.613 1.164.162.322.274.538.335.647V80.054h1.1v16.113h-1.358zM266.117 96.4c-1.906 0-3.31-.756-4.217-2.27-.905-1.514-1.357-3.522-1.357-6.02 0-2.482.452-4.484 1.357-6.008.906-1.522 2.31-2.284 4.217-2.284 1.905 0 3.314.762 4.227 2.284.914 1.523 1.37 3.525 1.37 6.007 0 2.483-.455 4.485-1.37 6.007-.913 1.522-2.322 2.284-4.227 2.284m0-15.667c-1.544 0-2.638.7-3.28 2.096-.64 1.396-.96 3.15-.96 5.257 0 2.123.308 3.872.925 5.246.617 1.375 1.722 2.062 3.314 2.062 1.608 0 2.72-.688 3.337-2.062.617-1.374.925-3.123.925-5.246 0-2.108-.32-3.86-.96-5.258-.638-1.398-1.74-2.097-3.3-2.097M289.093 96.167h-1.148l-4.73-16.114 1.44-.002 3.324 12.32.524 2.206.626-2.176 3.333-12.347h1.267zM315.154 96.17l-1.79-5.507h-5.886l-1.83 5.503h-1.263l5.573-16.113h1.053l5.53 16.113-1.386.003zm-4.17-12.882c-.17-.53-.287-.944-.348-1.242-.063-.298-.108-.54-.14-.727-.045.17-.124.43-.232.773l-.375 1.17-2.137 6.533h5.34l-2.11-6.508zM333.777 96.4c-1.765 0-3.186-.784-4.263-2.352-1.077-1.57-1.615-3.55-1.615-5.938 0-2.34.534-4.31 1.603-5.9 1.07-1.594 2.485-2.39 4.25-2.39.69 0 1.267.072 1.734.216.468.145.89.347 1.265.605l-.398.82a3.426 3.426 0 0 0-1.042-.532c-.4-.13-.854-.194-1.372-.194-1.576 0-2.743.707-3.5 2.122-.758 1.416-1.136 3.164-1.136 5.243 0 2.11.382 3.858 1.147 5.242.767 1.383 1.923 2.076 3.467 2.076.5 0 .94-.06 1.324-.175.383-.117.752-.285 1.114-.504l.398.796c-.328.265-.754.476-1.277.632a5.987 5.987 0 0 1-1.698.233m-3.91 4.24l.397-.61a36.18 36.18 0 0 0 2.894-.103c.85-.07 1.275-.357 1.275-.856 0-.358-.23-.58-.69-.666-.46-.085-1.255-.128-2.377-.128l.398-.586c.422-.046.805-.07 1.148-.07.953 0 1.635.132 2.05.4.413.264.62.616.62 1.052 0 .53-.344.937-1.03 1.217s-1.662.422-2.927.422c-.533 0-1.12-.025-1.76-.072M358.32 96.17l-1.79-5.507h-5.886l-1.83 5.503h-1.263l5.574-16.113h1.053l5.53 16.113-1.387.003zm-3.065-17.757c-.08.016-.18.024-.304.024-.28 0-.736-.144-1.37-.432-.632-.29-1.12-.434-1.463-.434-.283 0-.5.094-.655.28a2.135 2.135 0 0 0-.375.68l-.54-.586c.188-.498.415-.83.68-.994.264-.164.593-.247.982-.247.39 0 .867.162 1.43.48.56.32 1.03.458 1.405.41a1.19 1.19 0 0 0 .714-.363c.178-.195.307-.402.386-.62l.585.607c-.124.36-.285.633-.478.82-.197.19-.528.315-.997.376m-1.106 4.875c-.187-.577-.31-.997-.372-1.255-.06-.257-.107-.473-.14-.645l-.163.55c-.06.21-.202.652-.42 1.324l-2.136 6.532h5.338l-2.11-6.506zM376.638 96.4c-1.906 0-3.31-.756-4.217-2.27-.904-1.514-1.356-3.522-1.356-6.02 0-2.482.452-4.484 1.357-6.008.907-1.522 2.312-2.284 4.218-2.284 1.903 0 3.314.762 4.227 2.284.914 1.523 1.37 3.525 1.37 6.007 0 2.483-.455 4.485-1.37 6.007-.913 1.522-2.324 2.284-4.227 2.284m0-15.667c-1.544 0-2.638.7-3.28 2.096-.64 1.396-.96 3.15-.96 5.257 0 2.123.308 3.872.925 5.246.617 1.375 1.722 2.062 3.314 2.062 1.608 0 2.72-.688 3.337-2.062.617-1.374.925-3.123.925-5.246 0-2.108-.32-3.86-.96-5.258-.64-1.398-1.742-2.097-3.302-2.097M24.367 59.694c-7.082 0-12.915-2.585-17.495-7.757C2.29 46.767 0 39.263 0 29.427 0 20.15 2.32 12.93 6.962 7.757 11.605 2.588 17.415 0 24.392 0c3.04 0 5.683.268 7.934.802 2.25.534 4.135 1.28 5.653 2.234L35.7 7.84c-1.07-.673-2.49-1.235-4.263-1.685-1.774-.45-3.843-.675-6.205-.675-5.518 0-9.768 2.038-12.75 6.113C9.5 15.67 8.01 21.837 8.01 30.1c0 7.644 1.523 13.588 4.568 17.832 3.046 4.246 6.968 6.366 11.762 6.366 1.806 0 3.3-.128 4.485-.38 1.184-.252 2.116-.575 2.792-.97v-21.75h-9.864v-4.892h17.283V56.49a21.56 21.56 0 0 1-6.153 2.444c-2.194.508-5.033.76-8.516.76M78.58 58.85L59.524 31.788l-.168 27.064h-7.674V3.12c1.63-.898 3.695-1.643 6.197-2.233C60.38.297 63.12 0 66.1 0c6.464 0 11.396 1.506 14.797 4.517C84.297 7.527 86 11.763 86 17.222c0 4.896-1.6 8.78-4.79 11.65-3.193 2.87-7.45 4.304-12.77 4.304l18.905 25.678-8.766-.003zM65.93 4.553c-2.867 0-5.06.424-6.575 1.27v24.36c1.123.34 2.782.508 4.973.508 4.665 0 8.165-1.113 10.497-3.34 2.332-2.227 3.5-5.484 3.5-9.77 0-8.685-4.132-13.028-12.395-13.028M115.255 59.778c-5.453 0-9.823-1.643-13.112-4.932-3.288-3.29-4.93-7.46-4.93-12.52V.842h7.755V42.24c0 3.54 1.025 6.34 3.077 8.39 2.052 2.05 4.596 3.077 7.63 3.077 2.98 0 5.495-1.025 7.547-3.078 2.052-2.05 3.078-4.85 3.078-8.39V.843h7.082v41.48c0 5.005-1.66 9.164-4.975 12.48-3.316 3.32-7.7 4.975-13.152 4.975M156.567 34.99l-2.613-.252V58.85h-7.588V3.206c1.63-.955 3.723-1.728 6.28-2.318C155.205.297 157.945 0 160.87 0c6.575 0 11.522 1.59 14.84 4.764 3.314 3.177 4.975 7.435 4.975 12.774 0 5.115-1.675 9.346-5.017 12.69-3.345 3.344-8.362 5.016-15.05 5.016-1.24 0-2.587-.085-4.05-.254m3.993-30.352c-1.527 0-2.812.1-3.855.298-1.045.197-1.962.466-2.752.805v24.444l2.54.255H159.713c4.682 0 8.115-1.153 10.287-3.458 2.176-2.304 3.262-5.48 3.262-9.528 0-4.27-1.02-7.474-3.05-9.61-2.034-2.138-5.25-3.206-9.653-3.206M209.686 59.695c-7.14 0-12.424-2.754-15.853-8.264-3.428-5.506-5.143-12.7-5.143-21.582 0-8.882 1.715-16.075 5.143-21.585C197.263 2.756 202.546 0 209.686 0c7.082 0 12.336 2.756 15.766 8.263 3.428 5.51 5.143 12.703 5.143 21.585 0 8.936-1.7 16.145-5.102 21.626-3.4 5.48-8.67 8.22-15.807 8.22m0-54.55c-4.836 0-8.236 2.332-10.203 6.998-1.967 4.667-2.95 10.483-2.95 17.453 0 7.14.94 12.985 2.823 17.537 1.883 4.553 5.326 6.83 10.33 6.83 4.945 0 8.358-2.29 10.243-6.872 1.882-4.58 2.823-10.412 2.823-17.495 0-7.025-.97-12.857-2.91-17.495-1.936-4.638-5.323-6.957-10.157-6.957M265.667 59.694c-9.444 0-16.343-2.656-20.697-7.968-4.358-5.31-6.535-12.688-6.535-22.13 0-8.713 2.403-15.824 7.21-21.332C250.448 2.754 257.32 0 266.256 0c3.428 0 6.478.296 9.15.886 2.67.59 5.073 1.475 7.207 2.655l-4.804 10.204c-1.07-.62-2.333-1.097-3.795-1.435-1.462-.337-3.345-.505-5.65-.505-4.382 0-7.67 1.433-9.864 4.3-2.19 2.867-3.287 7.45-3.287 13.743 0 12.198 3.12 18.296 9.36 18.296a8.35 8.35 0 0 0 1.727-.168c.534-.112.914-.224 1.14-.338V33.894h-5.396V24.03h20.825v32.123c-2.025 1.18-4.386 2.066-7.083 2.657-2.7.59-6.072.884-10.12.884M314.4 59.695c-7.925 0-13.842-2.783-17.746-8.348-3.908-5.565-5.86-12.73-5.86-21.5 0-8.768 1.938-15.935 5.816-21.498C300.49 2.782 306.42 0 314.4 0c7.926 0 13.812 2.77 17.664 8.305 3.848 5.537 5.776 12.72 5.776 21.542 0 8.88-1.91 16.076-5.733 21.583-3.825 5.51-9.726 8.265-17.706 8.265m0-48.818c-2.586 0-4.33 1.7-5.227 5.1-.898 3.403-1.35 7.83-1.35 13.28 0 5.62.436 10.075 1.308 13.363.87 3.29 2.63 4.933 5.272 4.933 2.53 0 4.242-1.7 5.143-5.1.898-3.4 1.348-7.8 1.348-13.196 0-5.62-.435-10.088-1.307-13.407-.873-3.315-2.6-4.973-5.185-4.973M367.347 59.778c-6.185 0-11.27-1.615-15.262-4.848-3.99-3.23-5.985-7.715-5.985-13.448V.842h16.693v40.472c0 1.968.465 3.443 1.392 4.426.928.983 2.177 1.475 3.752 1.475 3.372 0 5.06-1.994 5.06-5.986V.842h15.512v40.555c0 5.733-1.982 10.23-5.945 13.49-3.96 3.26-9.036 4.89-15.218 4.89"/></svg>