<svg version="1.2" baseProfile="tiny" xmlns="http://www.w3.org/2000/svg" width="324.7" height="100.1" viewBox="-317 230.9 324.7 100.1"><g fill="#FFF"><path d="M-112.2 265.8c-6.4-17.5-23.1-29.2-41.7-29.2s-35.4 11.7-41.7 29.2l-.7-.2c6.5-17.7 23.5-29.7 42.4-29.7s36 11.9 42.4 29.7l-.7.2zM-154 326c-18.9 0-35.9-11.9-42.4-29.7l.7-.2c6.4 17.5 23.1 29.2 41.7 29.2s35.4-11.7 41.7-29.2l.7.2C-118 314.1-135 326-154 326"/><path d="M-109.2 264.6c-6.8-18.7-24.8-31.3-44.8-31.3-19.9 0-37.9 12.6-44.7 31.3l-2-.7c7.1-19.6 25.9-32.7 46.8-32.7s39.6 13.2 46.8 32.8l-2.1.6zM-154 330.6c-20.8 0-39.6-13.1-46.8-32.7l2-.7c6.8 18.7 24.8 31.3 44.7 31.3s37.9-12.6 44.7-31.3l2 .7c-6.9 19.6-25.7 32.7-46.6 32.7M-281.9 274.6v2.9h-.9v-2.9h-7.7v6.3h6.6v.9h-6.6v5.3h2.5v.9h-5.8v-.9h2.4v-12.5h-2.4v-.8h11.9z"/><path d="M-287.6 288.4h-6.5v-1.5h2.3v-12h-2.3v-1.5h12.6l-.1 4.5h-1.5V275h-7v5.4h6.5v1.6h-6.5v4.9h2.5zM-271.9 274.9l-3.4 7.4h6.8l-3.4-7.4zm8.6 13.1h-5.7v-.9h2.9l-1.9-4.1h-7.6l-1.9 4.1h2.8v.9h-5.6v-.9h1.7l5.9-12.5h-2.8v-.9h4.1l6.3 13.4h1.8v.9z"/><path d="M-274.8 281.9h5.8l-2.9-6.2-2.9 6.2zm11.8 6.5h-6.4v-1.5h2.7l-1.6-3.4h-7.2l-1.6 3.4h2.6v1.5h-6.3v-1.5h1.9l5.5-11.8h-2.6v-1.5h4.7l6.3 13.4h1.9v1.4h.1zM-249.8 287.1v-2.8h.9v3.7h-11.2v-.6l9.8-12.8h-8.6v2.9h-1v-3.7h11v.6l-9.8 12.7z"/><path d="M-248.6 288.4h-11.8v-1l9.4-12.4h-7.6v2.9h-1.6v-4.5h11.6v1.1l-.1.1-9.3 12.3h7.8v-3h1.6zM-233.7 274.6h-7.8v5.8h6.2v1h-6.2v5.7h7.8v-2.8h.9V288h-12v-.9h2.3v-12.5h-2.3v-.8h12v3.7h-.9z"/><path d="M-232.4 288.4h-12.7v-1.5h2.3v-12h-2.3v-1.5h12.7l-.1 4.5h-1.5V275h-7.2v5.1h6.3v1.7h-6.3v5h7.2v-2.9h1.5zM-214 274.6V288h-.9l-10-12.6v11.7h2.4v.9h-5.7v-.9h2.4v-12.5h-2.4v-.8h3.2l10 12.6v-11.8h-2.3v-.8h5.6v.8z"/><path d="M-213.7 288.4h-1.4l-9.4-12v10.5h2.3v1.5h-6.3v-1.5h2.3v-12h-2.3v-1.5h3.7l9.5 12.1v-10.6h-2.4v-1.5h6.4v1.5h-2.4zM-201.1 287.1c3.8 0 6.4-2.6 6.4-6.3 0-3.6-2.6-6.1-6.4-6.1h-3.8v12.4h3.8zm0-13.3c4.4 0 7.4 2.8 7.4 7 0 4.3-3 7.2-7.4 7.2h-7.1v-.9h2.3v-12.4h-2.3v-.9h7.1z"/><path d="M-204.6 286.8h3.5c3.6 0 6.1-2.4 6.1-6 0-3.5-2.4-5.8-6.1-5.8h-3.5v11.8zm3.5 1.6h-7.4v-1.5h2.3v-11.8h-2.3v-1.5h7.4c4.6 0 7.8 3 7.8 7.4 0 4.3-3.2 7.4-7.8 7.4M-182.3 274.9l-3.4 7.4h6.8l-3.4-7.4zm8.5 13.1h-5.7v-.9h2.9l-1.9-4.1h-7.6l-1.9 4.1h2.8v.9h-5.6v-.9h1.7l5.9-12.5h-2.8v-.9h4.1l6.3 13.4h1.8v.9z"/><path d="M-185.2 281.9h5.8l-2.9-6.2-2.9 6.2zm11.7 6.5h-6.4v-1.5h2.7l-1.6-3.4h-7.2l-1.6 3.4h2.6v1.5h-6.3v-1.5h1.9l5.5-11.8h-2.6v-1.5h4.7l6.3 13.4h1.9v1.4h.1zM-118 283.3c-.7 3-3.3 5-6.8 5-4.1 0-7.5-3.3-7.5-7.4 0-4.2 3.3-7.4 7.4-7.4 2.6 0 4.7 1.2 5.8 3v-2.7h.9v4.8h-1c-.6-2.4-2.9-4.1-5.8-4.1-3.6 0-6.5 2.9-6.5 6.5s2.9 6.5 6.5 6.5c2.9 0 5.1-1.7 5.7-4.1l1.3-.1z"/><path d="M-124.8 288.6c-4.3 0-7.8-3.5-7.8-7.8s3.5-7.8 7.8-7.8c2.2 0 4.2.8 5.5 2.3v-2h1.6v5.4h-1.6l-.1-.3c-.6-2.3-2.7-3.8-5.4-3.8-3.4 0-6.1 2.7-6.1 6.2s2.7 6.2 6.1 6.2c2.7 0 4.8-1.5 5.4-3.8l.1-.3h1.7l-.1.4c-.7 3.2-3.6 5.3-7.1 5.3M-101 274.5v7.5c0 3.6-2.4 6.2-6 6.2s-6-2.6-6-6.2v-7.5h-2.3v-.9h5.7v.9h-2.4v7.5c0 3 2 5.3 5 5.3s5-2.3 5-5.3v-7.5h-2.3v-.9h5.7v.9h-2.4z"/><path d="M-106.9 288.6c-3.7 0-6.3-2.7-6.3-6.6v-7.2h-2.3v-1.5h6.3v1.5h-2.4v7.2c0 2.9 2 5 4.7 5s4.6-2.1 4.6-5v-7.2h-2.3v-1.5h6.3v1.5h-2.4v7.2c.1 3.9-2.5 6.6-6.2 6.6M-84.6 288h-11.9v-.9h2.3v-12.6h-2.3v-.7h6.7v.7h-3.4v12.6h7.6v-3h1z"/><path d="M-84.3 288.4h-12.5v-1.5h2.3v-12h-2.3v-1.5h7.3v1.5h-3.3v11.9h6.8v-2.9h1.7zM-78.2 287.1h2.4v.9h-5.7v-.9h2.3v-12.6h-2.3v-.7h5.7v.7h-2.4z"/><path d="M-75.5 288.4h-6.3v-1.5h2.3v-12h-2.3v-1.5h6.3v1.5h-2.4v12h2.4zM-58.2 274.5V288h-.9l-10-12.6v11.7h2.4v.9h-5.7v-.9h2.3v-12.6h-2.3v-.7h3.2l10 12.6v-11.9h-2.3v-.7h5.7v.7z"/><path d="M-57.8 288.4h-1.5l-9.4-12v10.5h2.3v1.5h-6.3v-1.5h2.3v-12h-2.3v-1.5h3.7l9.5 12v-10.5h-2.3v-1.5h6.3v1.5h-2.3zM-45.9 274.9l-3.4 7.4h6.9l-3.5-7.4zm8.6 13.1H-43v-.9h2.9L-42 283h-7.7l-1.9 4.1h2.8v.9h-5.6v-.9h1.7l5.9-12.6h-2.7v-.9h4.1l6.3 13.4h1.8v1z"/><path d="M-48.8 281.9h5.8l-2.9-6.2-2.9 6.2zm11.8 6.5h-6.4v-1.5h2.7l-1.6-3.4h-7.2l-1.6 3.4h2.6v1.5h-6.3v-1.5h1.9l5.6-11.9h-2.6v-1.5h4.7l6.3 13.4h1.9v1.5zM-27.5 281.6c2.6 0 4.4-1.3 4.4-3.5s-1.7-3.5-4.4-3.5h-4v7.1h4v-.1zm7.5 6.4h-4.1v-.8l-4-4.6h-3.4v4.6h2.4v.9h-5.7v-.9h2.3v-12.6h-2.3v-.9h7.3c3.2 0 5.3 1.7 5.3 4.4 0 2.6-1.9 4.2-4.8 4.4l4 4.6h3v.9z"/><path d="M-31.2 281.4h3.7c2.5 0 4-1.2 4-3.2s-1.5-3.2-4-3.2h-3.7v6.4zm11.5 7h-4.8v-1.1l-3.8-4.4h-3v3.9h2.4v1.5h-6.4v-1.5h2.3v-11.9h-2.3v-1.5h7.7c3.5 0 5.7 1.9 5.7 4.8 0 2.5-1.7 4.2-4.4 4.6l3.5 4h3.1v1.6zM-14.7 287.1h2.4v.9H-18v-.9h2.4v-12.6H-18v-.7h5.7v.7h-2.4z"/><path d="M-12 288.4h-6.3v-1.5h2.3v-12h-2.3v-1.5h6.3v1.5h-2.3v12h2.3zM-1.2 274.9l-3.4 7.4h6.9l-3.5-7.4zM7.4 288H1.7v-.9h2.9L2.7 283H-5l-1.9 4.1h2.8v.9h-5.6v-.9H-8l5.9-12.6h-2.8v-.9h4.1L5.5 287h1.8v1h.1z"/><path d="M-4.1 281.9h5.8l-2.9-6.2-2.9 6.2zm11.8 6.5H1.3v-1.5H4l-1.6-3.4h-7.2l-1.6 3.4h2.6v1.5h-6.3v-1.5h1.9l5.6-11.9h-2.6v-1.5h4.7l6.3 13.4h1.9v1.5zM-45.4 271.9l-1.4-.1 2.1-2.9h2.7zM-162.6 247.9c.3-1.3 1.3-1.5 1.3-1.5s0-1 .3-1.4c1.2-1.6 2.9-.9 2.9-.9s-1.4.4-1.1 1.4c0 0 1.9-.8 3.1.2 0 0-2.3.5-2 1.5 0 0 1.7-.4 2.1.5 0 0-1.8.1-1.5.9 0 0 .4.8 0 1.9-.8 2.1-.9 3.8-.4 5.8.8 2.8 5.7 3.6 7-1.9 1.1-4.8 3-6.2 5.6-6.2 2.3 0 6.3 2.5 4.4 7.8 0 0-.7-4.2-3.4-3.3 0 0 3.4 2.3.7 6.9 0 0 0-3.2-2.4-3.2 0 0 2 3.1-1 5.7 0-2.7-1.4-3.2-1.4-3.2s.1 8.2-7.2 9c-5.1.5-8.7-2.7-8.5-7.5.1-4.7 2.3-6.4 1.6-8.3 0 0-1.7-1-2.4-1.3l2.4-1.3c0-.2-.2-1-.1-1.6M-154 305.4c-1.2 1.3-5.1 5.9-5.1 10.1 0 3.1 2 5.2 5.1 5.2 3.2 0 5.1-1.9 5.1-5.2 0-4.2-3.8-8.7-5.1-10.1m0 16c-3.7 0-6-2.3-6-5.8 0-5.2 5.4-10.6 5.6-10.9l.4-.4.4.4c.2.2 5.7 5.6 5.7 10.9 0 3.7-2.3 5.8-6.1 5.8"/><path d="M-154 307.4c-.5 1.6-1.6 5.2-1.6 8.6 0 3.2.8 4.6 1.6 4.6s1.6-1.2 1.6-4.6c.1-3.5-1-7-1.6-8.6m0 13.7c-1.4 0-2.3-2-2.3-5.2 0-4.6 1.9-9.6 2-9.6l.3-.8.3.8s2 4.9 2 9.6-1.6 5.2-2.3 5.2"/><path d="M-154 307.9c-.6 1.9-1.5 5.1-1.5 8.2 0 3.3.9 4.5 1.5 4.5s1.5-.9 1.5-4.5c0-3.3-.9-6.7-1.5-8.2m0 12.9c-.9 0-1.8-1.5-1.8-4.7 0-3.3 1-6.8 1.6-8.6l.1-.4.1.4c.6 1.8 1.6 5.2 1.6 8.6.2 3.3-.7 4.7-1.6 4.7m0-14.9l-.2.5s-2 5-2 9.6c0 3.1.8 5.1 2.2 5.1.6 0 2.2-.5 2.2-5.1s-2-9.5-2-9.6l-.2-.5zm0 15.5c-1.5 0-2.4-2-2.4-5.3 0-4.7 2-9.6 2-9.7l.4-1.1.4 1.1s2 5 2 9.7c0 4.7-1.6 5.3-2.4 5.3"/><path d="M-153.4 305.3v-5.4s1.1-1.1 1.1-3.3c0-1.9-.5-2.2-.5-3.8 0-1.6.5-1.9.5-3.1 0-1-1-1.6-1.8-1.6-1 0-1.8.6-1.8 1.6 0 1.3.6 1.6.6 3.2s-.4 1.8-.4 3.7c0 2.2 1.1 3.3 1.1 3.3v5.4h1.2zM-125.792 309.57l-24.678-24.677.495-.495 24.678 24.678zM-158.044 277.39l-24.678-24.677.495-.495 24.678 24.678zM-149.71 277.32l-.5-.49 24.38-24.69.5.492zM-182.178 309.517l-.496-.494 24.54-24.673.497.494z"/><path d="M-154 275.9c-2.7 0-5 2.2-5 5 0 2.7 2.2 5 5 5 2.7 0 5-2.2 5-5s-2.2-5-5-5m0 10.6c-3.1 0-5.7-2.6-5.7-5.7s2.6-5.7 5.7-5.7 5.7 2.6 5.7 5.7c0 3.2-2.5 5.7-5.7 5.7"/></g></svg>