<svg version="1.2" baseProfile="tiny" xmlns="http://www.w3.org/2000/svg" width="236.7" height="100.6" viewBox="-209.3 230.5 236.7 100.6"><path fill="#1E1E1C" d="M-189.5 238.9c-.1-.3-.2-1.4-.3-3.1-2.1-.6-3.8-.9-5.3-.9-1.3 0-2.5.2-3.6.7-1.1.5-2 1.1-2.8 2-.8.8-1.4 1.8-1.8 3.1-.5 1.2-.7 2.6-.7 4.1 0 1.6.2 2.9.7 4.1.5 1.2 1 2.2 1.8 3.1.8.8 1.6 1.5 2.7 1.9 1 .5 2.1.6 3.3.6.7 0 1.3 0 1.9-.1.6-.1 1.1-.2 1.6-.3.5-.2.9-.4 1.3-.7.4-.3.8-.6 1.3-1 .1-.1.3-.2.4-.3.2-.1.3-.1.5-.1.3 0 .5.1.7.3l2 2.2c-1.1 1.4-2.5 2.4-4.1 3.2-1.6.7-3.6 1.1-5.9 1.1-2.1 0-3.9-.4-5.5-1.1-1.6-.7-3.1-1.6-4.2-2.9-1.1-1.3-2.1-2.8-2.7-4.5-.6-1.7-.9-3.6-.9-5.7s.3-4 1-5.7c.7-1.7 1.6-3.2 2.9-4.4 1.3-1.3 2.7-2.3 4.5-2.9 1.7-.7 3.7-1 5.8-1 2.3 0 5.2.7 8.7 2v7h-2.2c-.7-.1-1-.3-1.1-.7M-157.9 250.3c-.7 1.7-1.6 3.2-2.8 4.5-1.2 1.3-2.7 2.3-4.4 2.9-1.7.7-3.6 1.1-5.7 1.1s-4-.4-5.7-1.1c-1.7-.7-3.2-1.7-4.4-2.9-1.2-1.3-2.2-2.8-2.9-4.5-.7-1.7-1-3.6-1-5.7 0-2 .3-3.9 1-5.6.7-1.7 1.6-3.2 2.9-4.5 1.2-1.3 2.7-2.3 4.4-2.9 1.7-.7 3.6-1.1 5.7-1.1s4 .3 5.7 1.1c1.7.7 3.2 1.7 4.4 2.9 1.2 1.3 2.1 2.7 2.8 4.5.7 1.7 1 3.6 1 5.6 0 2.1-.3 4-1 5.7m-4.9-9.7c-.4-1.2-1-2.2-1.7-3.1-.8-.8-1.7-1.5-2.8-2-1.1-.5-2.3-.7-3.6-.7-1.3 0-2.6.2-3.7.7-1.1.5-2 1.1-2.8 2-.8.8-1.3 1.8-1.8 3.1-.4 1.2-.6 2.5-.6 4.1 0 1.5.2 2.9.6 4.1.4 1.2 1 2.2 1.8 3.1.8.8 1.7 1.5 2.8 1.9 1.1.5 2.3.7 3.7.7 1.3 0 2.6-.2 3.6-.7 1.1-.5 2-1.1 2.8-1.9.8-.8 1.3-1.8 1.7-3.1.4-1.2.6-2.6.6-4.1 0-1.6-.2-2.9-.6-4.1M-130.6 244.6v11.2c-.7.5-1.4 1-2.2 1.3-.8.4-1.6.7-2.4.9-.8.2-1.8.4-2.8.5-1 .1-2 .2-3.2.2-2 0-3.9-.4-5.5-1.1-1.7-.7-3.2-1.6-4.4-2.9-1.2-1.3-2.2-2.8-2.9-4.5-.7-1.7-1-3.6-1-5.7s.3-4 1-5.7c.7-1.7 1.6-3.2 2.9-4.5 1.2-1.3 2.8-2.2 4.5-2.9 1.7-.7 3.6-1 5.7-1h.2c3 0 6.2.7 9.8 2v7h-2.3c-.5 0-.8-.2-.9-.7-.1-.3-.2-1.3-.3-3-1.9-.7-4.1-1-6.5-1-1.4 0-2.6.2-3.7.7-1.1.5-2.1 1.1-2.8 1.9-.8.8-1.4 1.9-1.8 3.1-.4 1.2-.7 2.5-.7 4 0 1.6.2 3.1.7 4.3.5 1.3 1.1 2.3 1.9 3.1.8.8 1.8 1.5 2.9 1.9 1.1.5 2.3.7 3.6.7 1.1 0 2.1-.1 3-.3.8-.2 1.7-.5 2.4-.9v-5h-3.4c-.3 0-.6-.1-.8-.3-.2-.2-.3-.4-.3-.7v-2.9h9.3zM-100.5 230.8v2.3c0 .7-.3 1-1 1.2h-.2c-.1 0-.3.1-.6.1s-.7.1-1.1.2v12.8c0 1.6-.3 3.2-.8 4.5-.5 1.4-1.3 2.6-2.3 3.6-1 1-2.2 1.8-3.6 2.4-1.4.6-3 .8-4.8.8-1.8 0-3.4-.3-4.8-.8-1.4-.6-2.6-1.4-3.6-2.4s-1.8-2.3-2.3-3.6c-.5-1.4-.8-2.9-.8-4.5v-12.8c-.5-.1-.9-.2-1.1-.2-.3 0-.5-.1-.6-.1h-.2c-.7-.2-1-.5-1-1.2v-2.3h11.1v2.3c0 .7-.3 1-1 1.2h-.3c-.1 0-.3.1-.6.1s-.7.1-1.2.2v12.7c0 1.1.1 2 .4 2.9.3.8.7 1.6 1.3 2.2.5.6 1.2 1 1.9 1.4.8.3 1.7.5 2.7.5 1 0 1.9-.2 2.7-.5.8-.3 1.5-.8 2-1.4.5-.6.9-1.3 1.2-2.2.3-.8.5-1.8.5-2.9v-12.8c-.5-.1-.9-.2-1.2-.2-.3 0-.5-.1-.6-.1h-.3c-.7-.2-1-.5-1-1.2v-2.3h11.2zM-64.6 234.3c-.1 0-.3.1-.6.1s-.6.1-1.1.2v20.1c.5.1.8.2 1.1.2.3 0 .5.1.6.1h.2c.7.2 1 .5 1 1.2v2.3h-10.8v-2.3c0-.6.3-1 1-1.2.1 0 .9-.1 2.5-.3v-14.1-1.1c0-.4 0-.8.1-1.2L-79 254c-.2.3-.5.6-.8.8-.3.2-.7.3-1.1.3h-.7c-.4 0-.8-.1-1.1-.3-.3-.2-.6-.5-.8-.8l-8.5-15.7c0 .4 0 .8.1 1.2v15.2c1.6.2 2.4.3 2.5.3.6.2 1 .5 1 1.2v2.3h-10.8v-2.3c0-.6.3-1 1-1.2h.2c.1 0 .3-.1.6-.1s.7-.1 1.1-.2v-20.1c-.5-.1-.9-.2-1.1-.2-.3 0-.5-.1-.6-.1h-.2c-.7-.2-1-.5-1-1.2v-2.3H-91.8c.2 0 .3 0 .5.1.2 0 .2.2.3.3.1.1.2.3.3.5l8.3 15.3c.2.4.4.8.6 1.3.2.4.4.9.6 1.3.2-.5.3-.9.5-1.3.2-.5.4-.9.6-1.3l8.2-15.3c.1-.2.2-.3.3-.5.1-.1.2-.2.4-.3.2 0 .3-.1.5-.1h7.4v2.3c0 .6-.3 1-1 1.2h-.3M-41.5 230.8v7.3h-2.3c-.5 0-.8-.3-.9-.7 0-.3-.2-1.1-.3-2.4h-8.9v7.6h9.4v4h-9.4v7.8h8.9c.1-1.3.2-2.1.3-2.5.1-.5.4-.7.9-.7H-41.5v7.4H-61.8v-2.3c0-.7.3-1 1-1.2h.2c.1 0 .3-.1.6-.1s.7-.1 1.1-.2v-20.1c-.5-.1-.9-.2-1.1-.2-.3 0-.5-.1-.6-.1h-.2c-.6-.2-1-.5-1-1.2v-2.3H-41.5zM-19.8 251.9v6.6H-39.9v-2.3c0-.7.3-1 1-1.2h.2c.1 0 .3-.1.6-.1s.7-.1 1.1-.2v-20.1c-.5-.1-.9-.2-1.1-.2-.3 0-.5-.1-.6-.1h-.2c-.7-.2-1-.5-1-1.2v-2.3H-29v2.3c0 .6-.3 1-1 1.2h-.2c-.1 0-.3.1-.6.1s-.7.1-1.2.2v19.6h8.9c.1-1 .1-1.5.2-1.6.1-.5.4-.7.9-.7h2.2zM7 250.3c-.7 1.7-1.6 3.2-2.8 4.5-1.2 1.3-2.7 2.3-4.4 2.9-1.7.7-3.6 1.1-5.7 1.1s-4-.4-5.7-1.1c-1.7-.7-3.2-1.7-4.4-2.9-1.2-1.3-2.2-2.8-2.9-4.5-.7-1.7-1-3.6-1-5.7 0-2 .3-3.9 1-5.6.7-1.7 1.6-3.2 2.9-4.5 1.2-1.3 2.7-2.3 4.4-2.9 1.7-.7 3.6-1.1 5.7-1.1s4 .3 5.7 1.1c1.7.7 3.2 1.7 4.4 2.9 1.2 1.3 2.1 2.7 2.8 4.5.7 1.7 1 3.6 1 5.6 0 2.1-.3 4-1 5.7m-4.9-9.7c-.4-1.2-1-2.2-1.7-3.1-.8-.8-1.7-1.5-2.8-2-1.1-.5-2.3-.7-3.6-.7s-2.6.2-3.7.7c-1.1.5-2 1.1-2.8 2-.8.8-1.3 1.8-1.8 3.1-.4 1.2-.6 2.5-.6 4.1 0 1.5.2 2.9.6 4.1.4 1.2 1 2.2 1.8 3.1.8.8 1.7 1.5 2.8 1.9 1.1.5 2.3.7 3.7.7s2.6-.2 3.6-.7c1.1-.5 2-1.1 2.8-1.9.8-.8 1.3-1.8 1.7-3.1.4-1.2.6-2.6.6-4.1 0-1.6-.2-2.9-.6-4.1M27.4 249.8c0 1.3-.2 2.4-.7 3.5-.4 1.1-1 2.1-1.9 2.9-.8.8-1.8 1.5-3 1.9-1.2.5-2.5.7-4.1.7h-.6c-2.4 0-5.1-.5-7.9-1.5V250.2h2.3c.5 0 .8.2.9.7.1.3.2 1.4.3 3.2 1.1.3 2.9.5 5.2.5 1.5 0 2.6-.3 3.4-1 .8-.7 1.2-1.7 1.2-3 0-.7-.2-1.3-.5-1.8s-.8-.8-1.5-1.1c-.6-.3-1.3-.6-2-.8-.8-.2-1.6-.4-2.3-.7-.8-.3-1.6-.6-2.3-.9-.8-.3-1.5-.8-2.1-1.4-.6-.6-1.1-1.3-1.4-2.1-.3-.8-.6-1.9-.6-3.2 0-1 .2-2 .6-2.9.4-1 1-1.8 1.8-2.6.8-.7 1.7-1.3 2.8-1.8 1.1-.5 2.4-.7 3.9-.7 2.7 0 5.4.5 7.9 1.6v7.1h-2.2c-.5 0-.8-.3-.9-.7-.1-.3-.2-1.4-.3-3.1-1-.4-2.5-.6-4.5-.6-.7 0-1.3.1-1.8.2-.5.2-1 .4-1.3.7-.3.3-.7.7-.8 1.1-.2.4-.3.9-.3 1.4 0 .7.2 1.2.6 1.6.3.4.8.8 1.4 1.1.6.3 1.3.6 2.1.8.8.2 1.5.5 2.3.8.8.3 1.6.6 2.3 1 .8.3 1.5.8 2.1 1.4.6.6 1.1 1.2 1.5 2 .2.7.4 1.7.4 2.8M-191.6 265.9v5.7h-1.6c-.4 0-.6-.2-.7-.6 0-.1-.1-1-.2-2.6h-8.9v7.9h8.8v2.5h-8.8v8.1h8.9c.1-1.5.2-2.3.2-2.4.1-.4.3-.5.7-.5h1.6v5.5h-17.1v-1.4c0-.3.2-.6.5-.6l1.9-.4v-18.9c-1.1-.2-1.7-.3-1.9-.4-.3-.1-.5-.3-.5-.6v-1.4h17.1zM-177.9 277c2.4 1.1 3.6 2.9 3.6 5.3 0 2.2-.7 4-2.1 5.3-1.5 1.5-3.4 2.2-5.9 2.2-1 0-2.1-.1-3.2-.3-1.1-.2-2-.4-2.7-.6l-1-.3v-6h1.6c.4 0 .6.2.7.6 0 .1.1.7.2 1.6.1.9.1 1.5.1 1.5 1.7.6 3 .9 4 .9 1.1 0 1.9-.1 2.5-.3.6-.2 1.1-.5 1.5-.9.9-.8 1.3-1.8 1.3-3.2 0-1.3-.6-2.3-1.8-2.9-.5-.3-1.1-.6-1.8-.8-2.1-.7-3.5-1.1-4.2-1.4-.7-.3-1.3-.7-1.8-1.2-1.2-1.1-1.8-2.6-1.8-4.4 0-1.8.6-3.3 1.9-4.5 1.4-1.3 3.1-2 5.3-2 2.2 0 4.4.4 6.7 1.3v5.5h-1.6c-.4 0-.6-.2-.7-.6 0-.1-.1-1-.2-2.9-1.5-.4-2.8-.6-3.9-.6-1.4 0-2.5.3-3.3 1.1-.7.7-1.1 1.6-1.1 2.7 0 1.2.6 2.1 1.8 2.8.5.3 1.2.6 1.9.8 1.8.5 3.2 1 4 1.3zM-159.6 266.3c3.3 1.1 4.9 3.4 4.9 6.9 0 2.3-.7 4-2.3 5.4-1.6 1.4-3.8 2.1-6.6 2.1h-3.4v6.5c.2.1.9.2 1.9.4.3.1.5.3.5.6v1.4h-8v-1.4c0-.3.2-.6.5-.6l1.9-.4v-18.9c-1.1-.2-1.7-.3-1.9-.4-.3-.1-.5-.3-.5-.6v-1.4h9c1.6 0 2.9.1 4 .4zm1.7 6.9c0-1.5-.5-2.7-1.4-3.5-.9-.9-2.3-1.3-4.2-1.3h-3.4v9.8h3.4c1.8 0 3.2-.4 4.1-1.3 1.1-1 1.5-2.2 1.5-3.7zM-129.8 277.8c0 1.8-.3 3.4-.8 4.9-.6 1.5-1.4 2.8-2.4 3.8-1 1.1-2.2 1.9-3.7 2.5-1.5.6-3.1.9-4.8.9-1.7 0-3.3-.3-4.8-.9-1.5-.6-2.7-1.4-3.7-2.5s-1.8-2.4-2.4-3.8c-.6-1.5-.9-3.1-.9-4.9 0-1.8.3-3.4.9-4.9.6-1.5 1.4-2.8 2.4-3.9s2.3-1.9 3.7-2.5c1.5-.6 3.1-.9 4.8-.9 1.7 0 3.3.3 4.8.9 1.5.6 2.7 1.4 3.7 2.5s1.8 2.4 2.4 3.8c.5 1.5.8 3.1.8 5zm-3.3 0c0-1.5-.2-2.8-.6-3.9-.4-1.2-.9-2.2-1.7-3-.7-.8-1.6-1.4-2.7-1.8-1.1-.4-2.3-.6-3.5-.6-1.3 0-2.4.2-3.5.6-1.1.4-1.9 1-2.7 1.8-.7.8-1.3 1.8-1.7 3-.4 1.2-.6 2.5-.6 3.9 0 1.5.2 2.8.6 3.9.4 1.2 1 2.1 1.7 2.9.7.8 1.6 1.4 2.7 1.9 1.1.4 2.2.7 3.5.7 1.3 0 2.4-.2 3.5-.7 1.1-.4 1.9-1.1 2.7-1.9.7-.8 1.3-1.8 1.7-2.9.4-1.1.6-2.4.6-3.9zM-109.3 284.4c-.1-.5-.1-1.1-.1-1.7v-14.4c-1.3-.2-2-.4-2.2-.4-.3-.1-.5-.3-.5-.6v-1.5h7.9v1.5c0 .3-.2.5-.5.6l-1.9.4v21.3h-1.6c-.5 0-.8-.2-1.1-.6l-13.8-17.9c.1.6.1 1.1.1 1.5v14.5c1.3.2 2.1.4 2.2.4.3.1.5.3.5.6v1.4h-7.9v-1.4c0-.3.2-.5.5-.6l1.9-.4v-18.9c-1.1-.2-1.7-.3-1.9-.4-.3-.1-.5-.3-.5-.6v-1.4h4c.3 0 .5 0 .6.1.1.1.3.2.5.4l13.8 18.1zM-83.1 265.9v5.2h-1.6c-.4 0-.6-.1-.6-.3-.1-.2-.2-.9-.3-2.2h-5.6v18.6s.1 0 .4.1c.9.2 1.4.3 1.7.3.2.1.3.3.3.6v1.4h-8v-1.4c0-.3.2-.6.6-.7.4-.1 1-.2 1.8-.4v-18.6h-5.6c-.1 1.3-.2 2-.3 2.2-.1.2-.3.3-.7.3h-1.6v-5.2h19.5zM-59.9 288.3v1.3h-6.8v-1.3c0-.3.2-.5.5-.5l1.4-.4-1.9-4.8H-77l-1.9 4.8 1.4.4c.3.1.4.2.4.5v1.3h-6.8v-1.3c0-.3.2-.5.4-.5l1.3-.4 8.6-21.5h3.3l8.6 21.5 1.3.4c.3 0 .5.2.5.5m-8.8-24.3c-.1 0-.3 0-.5-.1-.1 0-.3-.1-.4-.1l-2.2-1.6c-.1-.1-.1-.1-.2-.1-.1.1-.1.1-.2.1l-2.2 1.6c-.1.1-.2.1-.4.2h-2.7l4-3.5h2.9l4 3.5h-2.1zm1 16.3l-3.5-9.2c-.3-.6-.5-1.3-.7-2.2-.3 1-.5 1.7-.7 2.3l-3.5 9.1h8.4zM-39.1 284.4c-.1-.5-.1-1.1-.1-1.7v-14.4c-1.3-.2-2-.4-2.2-.4-.3-.1-.5-.3-.5-.6v-1.5h7.9v1.5c0 .3-.2.5-.5.6l-1.9.4v21.3H-38c-.5 0-.8-.2-1.1-.6l-13.8-17.9c.1.6.1 1.1.1 1.5v14.5c1.3.2 2.1.4 2.2.4.3.1.5.3.5.6v1.4H-58v-1.4c0-.3.2-.5.5-.6l1.9-.4v-18.9c-1.1-.2-1.7-.3-1.9-.4-.3-.1-.5-.3-.5-.6v-1.4h4c.3 0 .5 0 .6.1.1.1.3.2.5.4l13.8 18.1zM-15.2 265.9v5.7h-1.6c-.4 0-.6-.2-.7-.6 0-.1-.1-1-.2-2.6h-8.9v7.9h8.8v2.5h-8.8v8.1h8.9c.1-1.5.2-2.3.2-2.4.1-.4.3-.5.7-.5h1.6v5.5h-17.1v-1.4c0-.3.2-.6.5-.6l1.9-.4v-18.9c-1.1-.2-1.7-.3-1.9-.4-.3-.1-.5-.3-.5-.6v-1.4h17.1zM10.2 277.8c0 1.8-.3 3.4-.8 4.9-.6 1.5-1.4 2.8-2.4 3.8-1 1.1-2.2 1.9-3.7 2.5-1.5.6-3.1.9-4.8.9-1.7 0-3.3-.3-4.8-.9-1.5-.6-2.7-1.4-3.7-2.5s-1.8-2.4-2.4-3.8c-.6-1.5-.9-3.1-.9-4.9 0-1.8.3-3.4.9-4.9.6-1.5 1.4-2.8 2.4-3.9s2.3-1.9 3.7-2.5c1.5-.6 3.1-.9 4.8-.9 1.7 0 3.3.3 4.8.9 1.5.6 2.7 1.4 3.7 2.5s1.8 2.4 2.4 3.8c.6 1.5.9 3.1.8 5zm-3.3 0c0-1.5-.2-2.8-.6-3.9-.4-1.2-.9-2.2-1.7-3-.7-.8-1.6-1.4-2.7-1.8-1.1-.4-2.3-.6-3.5-.6-1.3 0-2.4.2-3.4.6-1.1.4-1.9 1-2.7 1.8-.7.8-1.3 1.8-1.7 3-.4 1.2-.6 2.5-.6 3.9 0 1.5.2 2.8.6 3.9.4 1.2 1 2.1 1.7 2.9.7.8 1.6 1.4 2.7 1.9 1.1.4 2.2.7 3.5.7s2.4-.2 3.5-.7c1.1-.4 1.9-1.1 2.7-1.9.7-.8 1.3-1.8 1.7-2.9.4-1.1.6-2.4.5-3.9zM23.5 277c2.4 1.1 3.6 2.9 3.6 5.3 0 2.2-.7 4-2.1 5.3-1.5 1.5-3.4 2.2-5.9 2.2-1 0-2.1-.1-3.2-.3-1.1-.2-2-.4-2.7-.6l-1-.3v-6h1.6c.4 0 .6.2.7.6 0 .1.1.7.2 1.6.1.9.1 1.5.1 1.5 1.7.6 3 .9 4 .9 1.1 0 1.9-.1 2.5-.3.6-.2 1.1-.5 1.5-.9.9-.8 1.3-1.8 1.3-3.2 0-1.3-.6-2.3-1.8-2.9-.5-.3-1.1-.6-1.8-.8-2.1-.7-3.5-1.1-4.2-1.4-.7-.3-1.3-.7-1.8-1.2-1.2-1.1-1.8-2.6-1.8-4.4 0-1.8.6-3.3 1.9-4.5 1.4-1.3 3.1-2 5.3-2 2.2 0 4.4.4 6.7 1.3v5.5H25c-.4 0-.6-.2-.7-.6 0-.1-.1-1-.2-2.9-1.5-.4-2.8-.6-3.9-.6-1.4 0-2.5.3-3.3 1.1-.7.7-1.1 1.6-1.1 2.7 0 1.2.6 2.1 1.8 2.8.5.3 1.2.6 1.9.8 1.9.5 3.3 1 4 1.3zM-138.4 296.9v7.6h-2.5c-.6 0-.9-.3-1.1-.8 0-.3-.1-.8-.2-1.8h-6.6v22.9c.5.1 1 .2 1.3.2.3 0 .5.1.7.1h.3c.8.2 1.2.6 1.2 1.4v2.6H-158v-2.6c0-.8.4-1.2 1.1-1.4h.3c.1 0 .4-.1.7-.1.3 0 .8-.1 1.3-.2v-23h-6.6c-.1 1-.2 1.6-.2 1.9-.1.5-.4.8-1 .8h-2.6v-7.6H-138.4zM-104.1 326.5v2.6h-6c-.5 0-1-.1-1.3-.3-.4-.2-.6-.5-.9-.9l-6.8-10.4c-.3-.4-.5-.6-.8-.8-.3-.2-.8-.3-1.3-.3h-2.3v8.2c.5.1 1 .2 1.3.2.3 0 .5.1.7.1h.3c.8.2 1.1.6 1.1 1.4v2.6h-12.8v-2.6c0-.8.4-1.2 1.1-1.4h.3c.1 0 .4-.1.7-.1.3 0 .8-.1 1.3-.2v-23.5c-.5-.1-1-.2-1.3-.2-.3 0-.5-.1-.7-.1h-.3c-.8-.2-1.1-.6-1.1-1.4v-2.6h12.9c2.2 0 4.1.2 5.7.7 1.6.4 2.9 1.1 3.8 1.9 1 .8 1.8 1.8 2.2 2.9.5 1.2.7 2.4.7 3.8 0 1.1-.2 2.1-.5 3.1s-.8 1.8-1.4 2.6c-.6.8-1.3 1.5-2.2 2.1-.9.6-1.9 1.1-3 1.4.8.4 1.4 1.1 2 1.9l5.1 7.5c.5.1 1 .2 1.4.2.4 0 .6.1.8.1h.4c.5.3.9.8.9 1.5m-11-15.9c.5-.5.9-1.1 1.2-1.8.3-.7.4-1.4.4-2.2 0-1.6-.5-2.9-1.6-3.8-1.1-.9-2.7-1.3-5-1.3h-3.5v10.7h3.4c1.1 0 2.1-.2 2.9-.4.9-.3 1.6-.7 2.2-1.2M-66.5 296.9v2.6c0 .8-.4 1.2-1.1 1.4h-.3c-.1 0-.4.1-.7.1-.3 0-.8.1-1.3.2v14.9c0 1.9-.3 3.7-.9 5.3-.6 1.6-1.5 3-2.6 4.2-1.2 1.2-2.6 2.1-4.2 2.8-1.7.7-3.5 1-5.6 1-2.1 0-3.9-.3-5.6-1-1.7-.7-3-1.6-4.2-2.8-1.2-1.2-2.1-2.6-2.7-4.2-.6-1.6-.9-3.4-.9-5.3v-14.9c-.5-.1-1-.2-1.3-.2-.3 0-.5-.1-.7-.1h-.3c-.8-.2-1.1-.6-1.1-1.4v-2.6h13v2.6c0 .8-.4 1.2-1.1 1.4h-.3c-.1 0-.4.1-.8.1s-.9.1-1.4.2v14.9c0 1.3.1 2.4.5 3.3.3 1 .8 1.9 1.5 2.6.6.7 1.4 1.2 2.3 1.6.9.4 2 .6 3.1.6 1.2 0 2.2-.2 3.1-.6.9-.4 1.7-.9 2.3-1.6.6-.7 1.1-1.6 1.4-2.5.3-1 .5-2.1.5-3.3v-14.9c-.5-.1-1-.2-1.4-.2-.4 0-.6-.1-.8-.1h-.3c-.8-.2-1.1-.6-1.1-1.4V297h13zM-36.3 296.9V305.3H-38.9c-.6 0-.9-.3-1-.9 0-.4-.2-1.3-.3-2.9h-11.5v9.6h11.3v4.8h-11.3v8.8c.5.1 1 .2 1.3.2.3 0 .5.1.7.1h.3c.8.2 1.1.6 1.1 1.4v2.6h-12.8v-2.6c0-.8.4-1.2 1.1-1.4h.3c.1 0 .4-.1.7-.1.3 0 .8-.1 1.3-.2v-23.4c-.5-.1-1-.2-1.3-.2-.3 0-.5-.1-.7-.1h-.3c-.8-.2-1.1-.6-1.1-1.4V297h24.8zM.3 326.9v2.3h-11v-2.3c0-.5.3-.9.9-1.2.1 0 .4-.1.9-.4l-.2-.5-1.6-4.4h-12.9l-1.7 4.6-.1.3c.5.2.8.3.9.4.6.3.9.6.9 1.2v2.3H-34.4v-2.3c0-.5.3-.9.9-1.2.2-.1 1.1-.4 2.5-1l10.9-27.8h6.2L-3 324.7c1.4.6 2.2.9 2.5 1 .6.2.8.6.8 1.2m-22.2-10.7h9.8l-3.7-10c-.2-.5-.4-1-.6-1.7-.2-.6-.4-1.4-.6-2.1-.2.8-.4 1.5-.6 2.1-.2.7-.4 1.2-.6 1.7l-3.7 10zM26.9 319.1c0 1.5-.3 2.8-.8 4.1-.5 1.3-1.2 2.4-2.2 3.4-.9.9-2.1 1.7-3.5 2.2-1.4.5-3 .8-4.7.8H15c-2.9 0-5.9-.6-9.2-1.7v-8.4h2.5c.6 0 .9.3 1 .8.1.4.2 1.6.4 3.7 1.3.4 3.3.6 6.1.6 1.7 0 3-.4 4-1.2.9-.8 1.4-2 1.4-3.5 0-.9-.2-1.6-.6-2.1-.4-.5-1-1-1.7-1.3-.7-.4-1.5-.7-2.4-.9-.9-.3-1.8-.5-2.7-.8-.9-.3-1.8-.7-2.7-1.1-.9-.4-1.7-1-2.4-1.7s-1.2-1.5-1.7-2.5c-.4-1-.7-2.2-.7-3.7 0-1.2.2-2.3.7-3.4.4-1.1 1.2-2.1 2.1-3 .9-.8 2-1.5 3.3-2.1 1.3-.5 2.8-.8 4.5-.8 3.2 0 6.3.6 9.2 1.8v8.3h-2.4c-.6 0-.9-.3-1-.8-.1-.4-.2-1.6-.4-3.6-1.1-.5-2.9-.7-5.2-.7-.8 0-1.5.1-2.1.3-.6.2-1.2.5-1.6.9-.4.4-.8.8-1 1.3-.2.5-.3 1.1-.3 1.7 0 .8.3 1.4.7 1.9.4.5.9.9 1.6 1.3.7.4 1.5.7 2.4 1l2.7.9c.9.3 1.8.7 2.7 1.1.9.4 1.7.9 2.4 1.6.7.7 1.3 1.4 1.7 2.4.4.7.6 1.8.6 3.2M-174.3 307.8v.4c-1.2 0-2.1.3-2.8.7-.7.4-1.4 1.1-1.9 2-.6.9-1.1 2.1-1.7 3.6-.7 1.7-1.2 3.1-1.7 4.1-.5 1-.9 1.8-1.3 2.4-.4.6-.7 1.1-1 1.5.1.1.7.6 1.8 1.6s2 1.8 2.7 2.5c1.7 1.4 3 2.3 4 2.7.9.4 1.9.6 2.8.6v.4h-7.3c-2.7-2.1-4.7-3.8-6-5.1-.9 1.2-2.2 2.4-4.1 3.8-1.8 1.3-4 2-6.4 2-1.3 0-2.5-.2-3.7-.7-1.1-.4-2.1-1.1-3-1.9-.9-.8-1.5-1.8-2-2.8-.5-1.1-.7-2.1-.7-3.3 0-2.2.7-4.2 2-5.9 1.4-1.7 3-3.2 5-4.5l-.3-.3c-1.4-1.6-2.5-3-3.3-4.4-.8-1.3-1.2-2.7-1.2-4.2 0-1.4.4-2.7 1.1-4 .8-1.2 1.8-2.2 3.1-3 1.3-.7 2.8-1.1 4.5-1.1 2.2 0 3.9.6 5.3 1.8 1.3 1.2 2 2.7 2 4.5 0 2-.8 3.7-2.3 5.3-1.5 1.5-3.4 3-5.5 4.3.8.9 2 2.2 3.7 4l3.4 3.5c1.3 1.4 2.5 2.5 3.5 3.5.8-1.3 1.7-3.1 2.7-5.4 1-2.4 1.4-4.3 1.4-5.7 0-1-.3-1.6-.8-1.9-.5-.3-1.1-.5-1.9-.5v-.4h9.9zm-24.6 4.9c-3.2 2.2-4.8 4.7-4.8 7.7 0 1.5.4 2.9 1.2 4.1.8 1.3 1.9 2.2 3.2 2.9 1.3.7 2.7 1.1 4 1.1 1.2 0 2.3-.2 3.2-.6 1-.4 1.8-.9 2.5-1.4.7-.5 1.3-1.2 2-1.8-1.3-1.3-2.4-2.3-3.1-3-.7-.7-1.5-1.5-2.2-2.3-.8-.8-1.6-1.7-2.5-2.6-.7-1-1.9-2.3-3.5-4.1m2.1-2.7c1.6-1.1 3-2.2 4-3.3 1-1.2 1.5-2.6 1.5-4.3 0-1-.2-2-.7-2.9-.5-.9-1.1-1.7-2-2.3-.9-.6-1.9-.9-3-.9-1.6 0-2.7.5-3.6 1.4-.8.9-1.2 2-1.2 3.3 0 .9.3 1.8.8 3 .5 1.1 1.1 2.2 1.9 3.2.8 1.1 1.6 2 2.3 2.8"/></svg>