<svg version="1.2" baseProfile="tiny" xmlns="http://www.w3.org/2000/svg" width="331.8" height="103.9" viewBox="-255.7 230.3 331.8 103.9"><g fill="#FFF"><path d="M-72.8 276.2h4.2V303h-4.2zM-221.7 331.6c4.8 1.3 9-4.5 12.9-6.2-7.5-2.4-14.1-5.8-21-8.9.3 5.9 5.2 14.4 8.1 15.1m59.6-22c.7-4.1-1.4-9.4-4.1-11.2-2.8 4.6-5.6 9.2-7.8 14.2 4.6-.5 9.6-.6 11.9-3m-42.2-66.3c-3.2 3.7-6.4 8.5-11.1 9.1-6.5.8-11.3-6-18.2-4-4.1 1.2-5.7 5.8-6.6 9.9-1.4 6.1.4 14.1-3.7 17.9-2.8 2.6-7.6 2.3-8.4 6.5-1 5.3 4.3 11.9 7.1 15.5 7 8.9 14.5 14.9 24.5 19.3 4.7 2.1 11.4 4.7 16.4 4.7 1.5 0 3-.9 4.3-.8 2.2.1 3.6 1.5 5.7 1.3 3.6-.4 9-2.8 11.7-4.7 3.5-2.5 6.6-8.4 8.8-12.4 5.3-9.9 8.5-18.5 11.4-30.2.8-3.4 3.8-13.5 1.8-17.7-2.5-5.2-8.5-1.6-14.8-2.7-4.4-.8-6.8-6.3-8.3-11.2-1.7-5.4-4-13-10.2-11-3.7 1.3-7.3 6.8-10.4 10.5m-51.2 39c-1.5-7.2 8.4-5.6 10.6-9.3 1.1-1.9.2-4.5.4-6.4.5-6.7 3.3-14.6 7-18.3 4-4 8.9-2.6 13.8-1.1 2.5.8 6.3 2.9 9.1 2.3 2.1-.4 6.1-6.4 8.4-9 2.7-3.2 6.2-6.9 9.3-8.6 14-7.6 14.5 15 22 19.6 3.5 2.1 10.5-.3 14.4 1.6 5.4 2.7 2.7 15.5 1.5 21.8-.6 2.9-1.2 5.8-2.1 8.3-1 3-2.9 5.2-3.3 7.3-.8 3.5 1.5 7.4 2.9 10.2 1 2.1 3.4 6.1 2.7 9.1-1.2 5.2-15.4 5.2-21 8-3.6 1.8-5.6 5.9-10.3 6.8-3 .6-6.5-.5-10.5.4-6.8 1.5-12.5 7.5-19.2 8.9-7.7 1.6-8.2-4.6-10.4-10.2-1.3-3.5-2.4-8.4-4.1-10.9-1.2-1.8-4-3-6.1-4.8-6.3-5.3-11.4-11.5-14.1-20.6.5.6.9 1.4 1.1 2.4 0-1.9-1.4-4.7-1.9-7-.2-.1-.2-.3-.2-.5"/><path d="M-218.8 261.9c.2.1.5.2.9.2 8.6 9.9 12.3 26.1 20.7 36.4 5-9-6.6-24.1-1.5-32 2.8 6 2.9 14.4 4.3 22 .8 4.6 2.9 8.9 1.5 12.9-.7.8-1.7 0-2.5 0 .3 3.1 1.7 4.8 3.5 6 3.7-9.6 4-22 6.4-33 1.4-6.2.3-12.4 5.4-15.1.7 15.9-4 29.6-5.9 44.3 6.1-4.9 6.7-16.3 13.9-21.1-1.4 4.9-3.8 9.9-6.6 14.7-4.3 7.2-6.9 15.4-14.3 20-1.4-1-2.5.4-3.9.2-2.1-.3-3.2-2.7-5.4-3.3-.9-.2-2.1.6-2.2.3-9.3-6-17.1-13.7-25.3-21.5-2.6-2.4-6.1-5-6.9-8.9 4.1-.4 7 2.8 9.7 5 8.5 6.7 15.7 16.2 25.1 22-1.4-6-6.7-9.1-10.5-13.5-1.7-1.9-3.4-4.2-5.2-6.6-2.3-3-5.5-5.2-5.1-10.2 8 6.8 11.4 19.4 21.9 23 1.4-1.6-.2-3.8-.9-5.2-2.4-4.6-5.3-9.5-7.8-14.6-3.4-6.9-5.6-14.4-9.1-21.1-.1-.4-.2-.6-.2-.9M-139 268.3h-4.1l-6.3-19.2h4.6l3.4 12.4c.4 1.4.5 2.6.5 2.6h.1s.1-1.2.5-2.6l3.5-12.4h4.1l-6.3 19.2zM-129.7 249.1h4.3v19.2h-4.3v-19.2zm2.2-3.3c-1.3 0-2.4-1-2.4-2.1 0-1.2 1.1-2.2 2.4-2.2 1.4 0 2.4 1 2.4 2.2-.1 1.1-1.1 2.1-2.4 2.1M-113.3 251.4c-2.5 0-4.3 2.1-4.2 6.7l7.9-1.2c.1-3.9-1.3-5.5-3.7-5.5m-3.9 8.9c.4 3.6 2.1 5.3 5.2 5.3 2.2 0 3.8-.5 4.8-1.1l1 2.7c-1.4.7-3.4 1.4-6.3 1.4-5.4 0-8.9-3.5-8.9-10 0-6.3 3.2-9.9 8.2-9.9 5.1 0 7.9 3.4 7.7 9.8l-11.7 1.8zM-101.6 249.1h4.3v19.2h-4.3v-19.2zm2.2-3.3c-1.3 0-2.4-1-2.4-2.1 0-1.2 1.1-2.2 2.4-2.2 1.4 0 2.4 1 2.4 2.2 0 1.1-1.1 2.1-2.4 2.1M-84.1 252c-1.5-.5-3.1-.4-4.1.1v16.2h-4.3v-18.2c2-1 4.4-1.5 9.3-1.4l-.9 3.3zM-71.3 257.8c-4.1.5-6.6 1.4-6.6 4.9 0 2.5 1.5 3.6 4 3.6 1 0 2-.2 2.6-.5v-8zm-2.8 10.9c-5.2 0-7.8-2.1-7.8-5.8 0-5.1 4.9-6.5 10.7-7.1v-1c0-2.5-1.6-3.2-3.8-3.2-1.9 0-3.6.6-4.8 1.2l-1-2.5c1.2-.6 3.6-1.5 6.6-1.5 4 0 7.1 1.7 7.1 6.6v11.9c-1.6.8-4 1.4-7 1.4M-58.4 268.6c-2.2 0-4.2-.6-5.3-1.4l1.1-2.8c.7.6 2 1.1 3.6 1.1 1.8 0 3-1.1 3-2.7s-.9-2.4-2.8-3.2c-3.6-1.4-4.4-3.4-4.4-5.4 0-3.1 2.4-5.6 6.1-5.6 2.1 0 3.7.5 5 1.4l-1.1 2.5c-.6-.5-1.7-1.1-3.1-1.1-1.8 0-2.7 1.2-2.7 2.5 0 1.6 1.2 2.4 2.8 3 3.7 1.5 4.6 3.4 4.6 5.7 0 3.3-2.6 6-6.8 6M-37 268.3v-13.6c0-1.6-.7-3.2-3.5-3.2-1.4 0-2.2.2-3 .5v16.3h-4.3v-18.2c1.8-.9 4.3-1.4 7.5-1.4 5.7 0 7.6 2.8 7.6 5.9v13.7H-37zM-18.5 257.8c-4.1.5-6.6 1.4-6.6 4.9 0 2.5 1.5 3.6 4 3.6 1 0 2-.2 2.6-.5v-8zm-2.9 10.9c-5.2 0-7.8-2.1-7.8-5.8 0-5.1 4.9-6.5 10.7-7.1v-1c0-2.5-1.6-3.2-3.8-3.2-1.9 0-3.6.6-4.8 1.2l-1-2.5c1.2-.6 3.6-1.5 6.6-1.5 4 0 7.1 1.7 7.1 6.6v11.9c-1.6.8-4 1.4-7 1.4M-3.4 268.5c-3.8 0-5.3-2.5-5.3-5.2v-11.4h-2.1v-2.8h2.1v-4.2l4.3-1.2v5.5h3.1v2.8h-3.1v11.2c0 1.5.6 2.5 2.1 2.5.4 0 .7-.1 1-.2v2.7c-.3.1-1.1.3-2.1.3M2.3 249.1h4.3v19.2H2.3v-19.2zm2.2-3.3c-1.3 0-2.4-1-2.4-2.1 0-1.2 1.1-2.2 2.4-2.2 1.4 0 2.4 1 2.4 2.2 0 1.1-1.1 2.1-2.4 2.1M20.3 268.3h-4.1l-6.3-19.2h4.6l3.4 12.4c.4 1.4.5 2.6.5 2.6h.1s.1-1.2.5-2.6l3.5-12.4h4.1l-6.3 19.2zM37.9 257.8c-4.1.5-6.6 1.4-6.6 4.9 0 2.5 1.5 3.6 4 3.6 1 0 2-.2 2.6-.5v-8zm-2.8 10.9c-5.2 0-7.8-2.1-7.8-5.8 0-5.1 4.9-6.5 10.7-7.1v-1c0-2.5-1.6-3.2-3.8-3.2-1.9 0-3.6.6-4.8 1.2l-1-2.5c1.2-.6 3.6-1.5 6.6-1.5 4 0 7.1 1.7 7.1 6.6v11.9c-1.6.8-4 1.4-7 1.4M50.8 268.6c-2.2 0-4.2-.6-5.3-1.4l1.1-2.8c.7.6 2 1.1 3.6 1.1 1.8 0 3-1.1 3-2.7s-.9-2.4-2.8-3.2c-3.6-1.4-4.4-3.4-4.4-5.4 0-3.1 2.4-5.6 6.1-5.6 2.1 0 3.7.5 5 1.4l-1.1 2.5c-.6-.5-1.7-1.1-3.1-1.1-1.8 0-2.7 1.2-2.7 2.5 0 1.6 1.2 2.4 2.8 3 3.7 1.5 4.6 3.4 4.6 5.7 0 3.3-2.6 6-6.8 6M-140 286.8c-1.1 0-1.8.2-2.5.5v13.1c.5.2 1.3.4 2.1.4 3.3 0 4.6-2.8 4.6-7.2.1-3.7-1-6.8-4.2-6.8m-.5 16.6c-2.8 0-4.9-.6-6.1-1.3v-25.8h4.1v8.9c.9-.4 1.9-.8 3.6-.8 4.3 0 7.2 3.5 7.2 9 .1 6.2-3.1 10-8.8 10M-118.2 293c-3.9.5-6.4 1.3-6.4 4.7 0 2.4 1.4 3.4 3.9 3.4 1 0 1.9-.2 2.5-.5V293zm-2.7 10.4c-5 0-7.5-2.1-7.5-5.6 0-4.9 4.7-6.3 10.3-6.8v-1c0-2.4-1.5-3-3.7-3-1.8 0-3.5.6-4.6 1.1l-1-2.4c1.2-.6 3.4-1.4 6.3-1.4 3.8 0 6.8 1.6 6.8 6.4v11.4c-1.4.8-3.8 1.3-6.6 1.3M-109.1 284.7h4.2v18.4h-4.2v-18.4zm2.2-2h-2.3l2.4-4.8c1.4-.8 3.7-.9 4.1.1l-4.2 4.7zM-91 293c-3.9.5-6.4 1.3-6.4 4.7 0 2.4 1.4 3.4 3.9 3.4 1 0 1.9-.2 2.5-.5V293zm-2.8 10.4c-5 0-7.5-2.1-7.5-5.6 0-4.9 4.7-6.3 10.3-6.8v-1c0-2.4-1.5-3-3.7-3-1.8 0-3.5.6-4.6 1.1l-1-2.4c1.2-.6 3.4-1.4 6.3-1.4 3.8 0 6.8 1.6 6.8 6.4v11.4c-1.4.8-3.7 1.3-6.6 1.3M-81.7 284.7h4.2v18.4h-4.2v-18.4zm2.1-3.2c-1.3 0-2.3-.9-2.3-2.1 0-1.2 1-2.1 2.3-2.1 1.3 0 2.3.9 2.3 2.1 0 1.2-1 2.1-2.3 2.1M-53.3 303.1v-13c0-1.6-.8-3.1-3.2-3.1-1.1 0-2 .2-2.9.8v15.3h-4.2v-26.8h4.2v9.2c1.4-.7 2.7-1 4.1-1 4.6 0 6.3 2.7 6.3 5.6v13.1h-4.3zM-34.7 293c-3.9.5-6.4 1.3-6.4 4.7 0 2.4 1.4 3.4 3.9 3.4 1 0 1.9-.2 2.5-.5V293zm-2.8 10.4c-5 0-7.5-2.1-7.5-5.6 0-4.9 4.7-6.3 10.3-6.8v-1c0-2.4-1.5-3-3.7-3-1.8 0-3.5.6-4.6 1.1l-1-2.4c1.2-.6 3.4-1.4 6.3-1.4 3.8 0 6.8 1.6 6.8 6.4v11.4c-1.4.8-3.7 1.3-6.6 1.3M-15.6 287.2c-.5-.3-1.3-.4-2.2-.4-3.2 0-4.6 2.7-4.6 7.3 0 4.5 1.3 6.8 4.4 6.8 1 0 1.8-.2 2.4-.6v-13.1zm-3.5 23.6c-2.6 0-5-.5-6.3-1.3l1.2-2.7c1.1.6 2.7 1.1 4.4 1.1 3.1 0 4.2-1.7 4.2-4.1v-1.2c-.7.4-1.9.7-3.5.7-4.4 0-7.4-3.4-7.4-9 0-6 3-9.9 8.9-9.9 2.7 0 4.8.6 6 1.3v17.7c0 4.9-3 7.4-7.5 7.4M1.2 287.4c-1.4-.5-2.9-.4-3.9.1v15.6h-4.2v-17.4c1.9-.9 4.2-1.4 8.9-1.3l-.8 3zM14.6 293c-3.9.5-6.4 1.3-6.4 4.7 0 2.4 1.4 3.4 3.9 3.4 1 0 1.9-.2 2.5-.5V293zm-2.8 10.4c-5 0-7.5-2.1-7.5-5.6 0-4.9 4.7-6.3 10.3-6.8v-1c0-2.4-1.5-3-3.7-3-1.8 0-3.5.6-4.6 1.1l-1-2.4c1.2-.6 3.4-1.4 6.3-1.4 3.8 0 6.8 1.6 6.8 6.4v11.4c-1.4.8-3.7 1.3-6.6 1.3M33.9 303.1V290c0-1.5-.7-3.1-3.3-3.1-1.4 0-2.1.2-2.9.5V303h-4.2v-17.4c1.7-.8 4.1-1.3 7.2-1.3 5.5 0 7.3 2.7 7.3 5.6V303h-4.1zM52.9 287.1c-.6-.2-1.2-.2-1.8-.2-3.6 0-4.9 3.1-4.9 7 0 4.2 1.3 6.9 4.5 6.9 1 0 1.7-.1 2.2-.4v-13.3zm-2.3 16.3c-5.4 0-8.6-3.5-8.6-9.3 0-6 3.3-9.6 8.1-9.6 1 0 1.9.1 2.8.3v-8.6h4.2V302c-1.5.9-3.6 1.4-6.5 1.4M68.6 286.9c-2.4 0-4.1 2-4 6.4l7.6-1.2c0-3.7-1.4-5.2-3.6-5.2m-3.8 8.5c.3 3.4 2 5.1 5 5.1 2.1 0 3.7-.5 4.6-1l1 2.6c-1.3.7-3.3 1.3-6.1 1.3-5.2 0-8.5-3.4-8.5-9.6 0-6 3-9.5 7.9-9.5s7.6 3.2 7.4 9.4l-11.3 1.7zM-147.7 322.4l1.8-3.4c.2-.5.4-.9.4-1.3 0-.8-.4-1.2-1.1-1.2-.4 0-.7.1-.9.2l-.2-.3c.2-.1.6-.3 1.1-.3 1 0 1.5.6 1.5 1.6 0 .4-.2.9-.5 1.5l-1.6 2.8h2.2v.4h-2.7zM-137.2 322.5c-.4 0-.9-.1-1.1-.3l.2-.3c.2.1.5.3.9.3.7 0 1.2-.7 1.2-1.4 0-.9-.7-1.5-1.5-1.5v-.3c.8 0 1.4-.6 1.4-1.4 0-.6-.3-1.1-1-1.1-.3 0-.7.1-.9.2l-.2-.3c.2-.1.6-.3 1-.3 1 0 1.5.7 1.5 1.4 0 .9-.6 1.3-1 1.5.4.1 1.1.6 1.1 1.6s-.6 1.9-1.6 1.9M-128.6 317.3c0 .5.3.8.7.8.4 0 .7-.3.7-.9 0-.4-.2-.9-.7-.9-.5.1-.7.6-.7 1m1.9 0c0 .9-.6 1.2-1.2 1.2-.7 0-1.2-.5-1.2-1.2 0-.8.6-1.2 1.2-1.2.7 0 1.2.5 1.2 1.2M-111.3 316.4c-.6 0-.9.5-.9 1s.4 1 .9 1.4c.5-.4.9-.8.9-1.4 0-.6-.3-1-.9-1m-.1 2.9c-.5.5-1 .9-1 1.6 0 .7.4 1.2 1 1.2s1-.5 1-1.2c.1-.7-.4-1.1-1-1.6m.1 3.2c-.8 0-1.4-.6-1.4-1.5 0-.8.5-1.4 1.1-1.9-.5-.5-1-.9-1-1.6 0-.7.5-1.4 1.3-1.4s1.3.6 1.3 1.4c0 .7-.5 1.2-1 1.6.6.5 1.1 1.1 1.1 1.9 0 .9-.7 1.5-1.4 1.5M-103.1 317.9h-.3l.4-1.6c0-.1.2-.2.3-.2.1 0 .2.1.2.2l-.6 1.6zM-88.2 322.4l1.8-3.4c.2-.5.4-.9.4-1.3 0-.8-.4-1.2-1.1-1.2-.4 0-.7.1-.9.2l-.2-.3c.2-.1.6-.3 1.1-.3 1 0 1.5.6 1.5 1.6 0 .4-.2.9-.5 1.5l-1.6 2.8h2.2v.4h-2.7zM-77.4 319c-.3 0-.5 0-.7.1-.1.3-.1.7-.1 1 0 1.1.3 1.9 1 1.9s1-.7 1-1.5c-.1-.8-.4-1.5-1.2-1.5m.2 3.5c-.9 0-1.4-1-1.4-2.3 0-2.3 1.3-3.6 2.4-4.1l.1.3c-.7.3-1.6 1.1-1.9 2.5.2-.1.5-.1.7-.1.9 0 1.5.7 1.5 1.8 0 1-.5 1.9-1.4 1.9M-67.7 317.9h-.3l.4-1.6c0-.1.2-.2.3-.2.1 0 .2.1.2.2l-.6 1.6zm-1.3 0h-.3l.4-1.6c0-.1.2-.2.3-.2.1 0 .2.1.2.2l-.6 1.6zM-51.8 322.5c-.4 0-.8-.1-1-.3l.2-.3c.2.1.5.2.8.2.7 0 1-.6 1-1.2 0-1.6-1.9-1.6-1.9-3.4 0-.9.6-1.4 1.4-1.4.4 0 .8.2.9.3l-.2.3c-.1-.1-.5-.2-.8-.2-.6 0-1 .5-1 1.1 0 1.6 2 1.6 2 3.4 0 .8-.5 1.5-1.4 1.5M-34.1 316.8l-.2.6-1.4 3.1h1.7v-3.1c-.1-.3-.1-.6-.1-.6zm.4 4v1.6h-.4v-1.6h-2v-.3l2-4.3h.4v4.3h.4v.3h-.4zM-24.8 316.8l-.2.6-1.4 3.1h1.7v-3.1c-.1-.3 0-.6-.1-.6zm.4 4v1.6h-.4v-1.6h-2v-.3l2-4.3h.4v4.3h.4v.3h-.4zM-17.2 317.3c0 .5.3.8.7.8.4 0 .7-.3.7-.9 0-.4-.2-.9-.7-.9-.4.1-.7.6-.7 1m1.9 0c0 .9-.6 1.2-1.2 1.2-.7 0-1.2-.5-1.2-1.2 0-.8.6-1.2 1.2-1.2.8 0 1.2.5 1.2 1.2M.3 322.4v-5.5c-.3.1-.9.3-1.3.3v-.3c.5-.1 1.3-.4 1.5-.8h.3v6.2H.3zM10.1 316.8l-.2.6-1.4 3.1h1.7v-3.1c-.1-.3-.1-.6-.1-.6zm.4 4v1.6h-.4v-1.6h-2v-.3l2-4.3h.4v4.3h.4v.3h-.4zM17.8 317.9h-.3l.4-1.6c0-.1.2-.2.3-.2.1 0 .2.1.2.2l-.6 1.6zM33.9 322.5c-.5 0-.9-.1-1.1-.3l.2-.3c.2.1.5.3.9.3.8 0 1.2-.7 1.2-1.5 0-1.1-.7-1.7-2-1.5l.2-3h2.3v.4h-1.9l-.1 2.2c1.2-.1 2.1.5 2.1 1.8-.2 1-.8 1.9-1.8 1.9M43.6 316.4c-.7 0-1 1.1-1 2.9s.3 2.9 1 2.9 1-1.1 1-2.9-.3-2.9-1-2.9m0 6.1c-1 0-1.4-1.2-1.4-3.2s.4-3.2 1.4-3.2c1 0 1.4 1.2 1.4 3.2s-.4 3.2-1.4 3.2M53.1 317.9h-.3l.4-1.6c0-.1.2-.2.3-.2.1 0 .2.1.2.2l-.6 1.6zm-1.2 0h-.3l.4-1.6c0-.1.2-.2.3-.2.1 0 .2.1.2.2l-.6 1.6zM71.9 322.4h-.4l-.9-5.1c-.1-.3-.1-.6-.1-.6s0 .3-.1.6l-.9 5.1h-.4l-1.2-6.2h.5l.8 5c0 .3.1.6.1.6s0-.3.1-.6l.9-5h.4l.9 5c.1.3.1.6.1.6s0-.3.1-.6l.8-5h.5l-1.2 6.2z"/></g></svg>