<svg version="1.2" baseProfile="tiny" xmlns="http://www.w3.org/2000/svg" width="291.6" height="100.1" viewBox="-236.4 230.5 291.6 100.1"><path fill="#C0BF41" d="M-225.5 268.5c0 .4-.2.6-.6.6h-1.8c-1.5 0-2.7.6-3.5 1.8-.8 1.1-1.1 2.6-1.1 4.5h5.8c.4 0 .6.2.6.6v1.2c0 .4-.2.6-.6.6h-5.8v15.4c0 .4-.2.6-.6.6h-2.7c-.4 0-.6-.2-.6-.6v-16.6c0-2.8.7-5.1 2-6.9 1.4-2 3.4-2.9 5.9-2.9h2.4c.4 0 .6.2.6.6v1.1zM-210.2 276l-.3 1.4c-.1.3-.3.5-.6.4-.3-.1-.6-.1-.9-.1-1.5 0-2.7.8-3.5 2.4-.8 1.4-1.2 3.2-1.2 5.3v7.6c0 .4-.2.6-.6.6h-2.7c-.4 0-.6-.2-.6-.6v-17.1c0-.4.2-.6.6-.6h2.7c.4 0 .6.2.6.6v1.9c.4-.7 1-1.4 1.8-1.9.9-.5 1.8-.8 2.9-.8.5 0 1 .1 1.5.2.2.1.4.4.3.7M-189.5 291.4l-.1 1.5c0 .4-.2.5-.6.5-1.8-.1-3.1-.7-3.8-1.7-1.2 1.3-2.8 1.9-5 1.9-2.5 0-4.3-.7-5.4-2.1-1.1-1.4-1.6-3.5-1.6-6.5v-9.3c0-.4.2-.6.6-.6h2.7c.4 0 .6.2.6.6v8.7c0 2.4.2 4 .7 5 .5 1.1 1.5 1.7 2.9 1.7s2.4-.6 2.9-1.7c.5-1 .7-2.7.7-5v-8.7c0-.4.2-.6.6-.6h2.7c.4 0 .6.2.6.6V288c0 1.1.1 1.9.3 2.2.1.3.4.5.8.6.2.1.4.3.4.6M-175.2 293c0 .4-.2.6-.6.6h-.4c-2.4 0-4.3-.8-5.7-2.3-1.4-1.6-2.2-3.7-2.2-6.3v-13.7c0-.4.2-.6.6-.6h2.7c.4 0 .6.2.6.6v4h4.4c.4 0 .6.2.6.6v1.2c0 .4-.2.6-.6.6h-4.4v7.2c0 2 .4 3.5 1.2 4.7.7 1.1 1.7 1.6 2.8 1.6h.4c.4 0 .6.2.6.6v1.2zM-161.4 288.3v-3.9h-1.6c-2.7 0-4 1.2-4 3.6 0 2.1.9 3.1 2.8 3.1 1.9.1 2.8-.9 2.8-2.8m5.2 3.3l-.2 1.5c-.1.4-.3.5-.6.5-1.3-.2-2.3-.7-3.1-1.6-1.1 1.1-2.5 1.6-4.1 1.6-1.7 0-3.1-.3-4.3-1-1.6-1-2.5-2.5-2.5-4.6 0-2.1.9-3.6 2.8-4.7 1.5-.8 3.3-1.3 5.4-1.3h1.3c-.2-2.9-1.5-4.3-3.9-4.3h-2.5c-.4 0-.6-.2-.6-.6v-1.3c0-.4.2-.6.6-.6h3c2.2 0 4 .8 5.3 2.3 1.3 1.6 2 3.6 2 6.3v4.3c0 1.6.3 2.6.9 2.8.3.3.5.5.5.7M-140 289.4c-.1 1.3-.6 2.3-1.5 3-.9.7-2.2 1.1-3.8 1.1h-4.9c-.4 0-.6-.2-.6-.6v-1.2c0-.4.2-.6.6-.6h3.6c2 0 3-.7 2.9-2.1 0-.6-.3-1.1-.8-1.5-.5-.5-1.5-1.2-3-2.1-2.6-1.6-3.9-3.4-3.9-5.4 0-1.6.5-2.8 1.6-3.6 1-.8 2.3-1.2 4-1.2h4.3c.4 0 .6.2.6.5v1.2c0 .4-.2.5-.6.5h-3.6c-1.7 0-2.6.4-2.8 1.3 0 .2-.1.4-.1.5 0 .9.9 1.9 2.6 3 2.3 1.5 3.8 2.7 4.5 3.7.7 1.2.9 2.2.9 3.5"/><path fill="#5D6024" d="M-120.1 291.4c.6.9 1.7 1.4 3.6 1.6v-.1l.1-1.5s-.1-.1-.2-.1c-.5-.1-.9-.4-1.1-.9-.2-.6-.3-1.4-.3-2.5v-4.6c0-3-.6-5.2-1.6-6.4-1-1.3-2.7-2-5.2-2-2.7 0-4.5 1-5.7 3.1l-.5.9-.4-1c-.5-1.2-1.6-2-3.3-2.5v.1l-.4 1.5s.1 0 .1.1c.9.4 1.6 1.1 2 2 .4 1.1.6 2.6.6 4.8v9h2.9v-9c0-2.5.2-4.3.8-5.4.6-1.3 1.9-2.1 3.5-2h.1c1.6 0 2.8.7 3.4 2.1.5 1.1.8 2.9.8 5.4v3.1c0 2.1.3 3.6.8 4.3M-102.6 290.7c-.6.6-1.5.9-2.5.9-1.1 0-2-.3-2.6-1-.6-.7-.9-1.6-.9-2.8 0-1.4.4-2.5 1.2-3.2.8-.8 2-1.1 3.5-1.1h2.1v4.5h-.5.5c0 1.2-.2 2-.8 2.7m4-.5c-.2-.6-.3-1.3-.3-2.2v-4.5c0-2.7-.7-4.7-1.9-6.2-1.3-1.5-2.9-2.2-5.1-2.2h-3.2v1.5h2.6c1.4 0 2.5.4 3.3 1.3.8.9 1.2 2.1 1.3 3.7v.6h-1.9c-2.2 0-3.9.4-5.4 1.2-1.8 1-2.6 2.4-2.7 4.4 0 2.1.8 3.4 2.3 4.4 1.1.7 2.5 1 4.2 1 1.6 0 2.9-.5 3.9-1.5l.4-.4.4.4c.7.8 1.6 1.3 2.9 1.5h.1v-.1l.2-1.5s-.1-.1-.2-.1c-.4-.3-.7-.8-.9-1.3M-88.8 270.3h-2.9V284.6c0 2.7.7 4.7 2.1 6.2 1.4 1.5 3.2 2.3 5.6 2.3h.5v-1.4h-.5c-1.4 0-2.5-.7-3.4-1.9-.9-1.3-1.4-3.1-1.4-5.2v-8h5.3v-1.3h-5.3v-5M-74.5 275.1l-2.8-.1v18.1h2.8v-18zm-2.8-5h2.8v-4h-2.8v4c-.1-.1-.1 0 0 0-.1 0-.1 0 0 0M-68 275.3l4.2 15.4c.3 1 .7 1.6 1.3 2 .6.4 1.4.7 2.4.7s1.8-.2 2.4-.7c.6-.4 1-1.1 1.3-2l4.2-15.4v-.1-.1h-2.6c-.2 0-.2 0-.4.2l-4.1 16.6c0 .2-.1.3-.3.5-.2.1-.4.2-.5.2-.2 0-.4 0-.5-.2-.2-.1-.3-.3-.3-.5l-4.1-16.6c-.1-.2-.1-.2-.3-.2h-2.6-.1v.2zM-36.7 288.1c0 1.1-.3 2-.9 2.6-.6.6-1.5.9-2.5.9s-2-.3-2.6-1c-.6-.7-.9-1.6-.9-2.8 0-1.4.4-2.5 1.2-3.2.8-.8 2-1.1 3.5-1.1h2.1v4.6zm3.2 2.1c-.2-.6-.3-1.3-.3-2.2v-4.5c0-2.7-.7-4.7-1.9-6.2-1.3-1.5-2.9-2.2-5.1-2.2H-44v1.5h2.6c1.4 0 2.5.4 3.3 1.3.8.9 1.2 2.1 1.3 3.7v.6h-1.9c-2.2 0-3.9.4-5.4 1.2-1.8 1-2.6 2.4-2.7 4.4 0 2.1.8 3.4 2.3 4.4 1.1.7 2.5 1 4.2 1 1.6 0 2.9-.5 3.9-1.5l.4-.4.4.4c.7.8 1.6 1.3 2.9 1.5v-.1l.2-1.5s-.1-.1-.2-.1c-.3-.3-.6-.8-.8-1.3M-21.2 282.4c-.9-.6-1.6-1.2-2.1-1.8-.5-.6-.8-1.2-.8-1.8 0-.2 0-.4.1-.6.1-.6.6-1.1 1.2-1.4.6-.3 1.3-.4 2.2-.4h3.7v-1.3h-4.5c-1.7 0-2.9.4-3.8 1.1-1 .8-1.4 1.8-1.4 3.4 0 1.8 1.2 3.5 3.8 5.2 1.6 1 2.7 1.7 3.2 2.3.6.5.9 1.2 1 2v.1c0 .8-.3 1.6-1 2-.7.4-1.5.6-2.6.6H-26v1.3h5.1c1.6 0 2.8-.4 3.6-1 .9-.7 1.3-1.6 1.4-2.8v-.4c0-1-.3-1.9-.8-2.6-.6-1.1-2.1-2.3-4.5-3.9"/><path fill="#C0BF41" d="M-108.2 302.6l2.4-4.5c.7-1.3 1.1-1.8 2.4-1.8 1.3 0 1.7.5 2.4 1.8l2.4 4.5v.4c-.1.1-.2.2-.3.2h-1.5c-.2 0-.4-.1-.5-.3l-2.4-5.2c0-.1-.1-.1-.2-.1s-.1.1-.2.1l-2.4 5.2c-.1.2-.3.3-.5.3h-1.5c-.2 0-.3-.1-.3-.2.1-.2.1-.3.2-.4"/><path fill="#5D6024" d="M-211.2 321c.6.9 1.7 1.4 3.5 1.6v-.1l.1-1.5s-.1 0-.1-.1c-.5-.1-.9-.4-1.2-.9-.3-.6-.3-1.4-.3-2.6v-4.7c0-2.9-.5-5-1.3-6.3-1-1.5-2.5-2.2-4.9-2.2-2.6 0-4.3 1.1-5.4 3.4l-.5 1-.5-1.1c-1-2.3-2.6-3.3-5.1-3.4-2 0-3.4.9-4.5 2.8l-.5.9-.5-.9c-.5-1.1-1.6-1.8-3.2-2.3h-.1v.1l-.4 1.5s.1 0 .1.1c.9.4 1.6 1.1 2 2 .4 1 .6 2.6.6 4.8v9h3v-10.5c0-1.9.3-3.4.9-4.5.6-1.1 1.7-1.7 2.9-1.7 1.3 0 2.3.6 3 1.7.6 1.1.9 2.6.9 4.5v10.5h2.9v-10.5c0-1.9.3-3.4.9-4.5.6-1.1 1.7-1.7 2.9-1.7.8 0 1.5.2 2 .6.6.4 1 1 1.3 1.7.3.9.5 2.2.5 3.9v4.8c.2 2.3.5 3.8 1 4.6M-193.4 317.3h-.5.5c0 1.1-.3 2-.9 2.6-.6.6-1.5.9-2.5.9-1.1 0-2-.3-2.6-1-.6-.7-.9-1.6-.9-2.8 0-1.4.4-2.5 1.2-3.2.8-.8 2-1.1 3.5-1.1h2.1v4.6zm3.2 2.2c-.2-.6-.3-1.3-.3-2.2v-4.5c0-2.7-.7-4.7-1.9-6.2-1.3-1.5-2.9-2.2-5.1-2.2h-3.2v1.5h2.6c1.4 0 2.5.4 3.3 1.3.8.9 1.2 2.1 1.3 3.7v.6h-1.9c-2.2 0-3.9.4-5.4 1.2-1.8 1-2.6 2.4-2.7 4.4 0 2.1.8 3.4 2.3 4.4 1.1.7 2.5 1 4.2 1 1.6 0 2.9-.5 3.9-1.5l.4-.4.4.4c.7.8 1.6 1.3 2.9 1.5h.1v-.1l.2-1.5s-.1-.1-.2-.1c-.4-.3-.7-.8-.9-1.3M-183.5 299.5c-.1 0-.1 0 0 0-.1.1-.1.1 0 0v14.3c0 2.7.7 4.7 2.1 6.2 1.4 1.5 3.2 2.3 5.6 2.3h.5v-1.4h-.5c-1.4 0-2.5-.7-3.4-1.9-.9-1.3-1.4-3.1-1.4-5.2v-8h5.3v-1.3h-5.3v-4.7-.1h-2.9zM-160.7 317.3h-.5.5c0 1.1-.3 2-.9 2.6-.6.6-1.5.9-2.5.9-1.1 0-2-.3-2.6-1-.6-.7-.9-1.6-.9-2.8 0-1.4.4-2.5 1.2-3.2.8-.8 2-1.1 3.5-1.1h2.1v4.6zm3.2 2.2c-.2-.6-.3-1.3-.3-2.2v-4.5c0-2.7-.7-4.7-1.9-6.2-1.3-1.5-2.9-2.2-5.1-2.2h-3.2v1.5h2.6c1.4 0 2.5.4 3.3 1.3.8.9 1.2 2.1 1.3 3.7v.6h-1.9c-2.2 0-3.9.4-5.4 1.2-1.8 1-2.6 2.4-2.7 4.4 0 2.1.8 3.4 2.3 4.4 1.1.7 2.5 1 4.2 1 1.6 0 2.9-.5 3.9-1.5l.4-.4.4.4c.7.8 1.6 1.3 2.9 1.5v-.1l.2-1.5s-.1-.1-.2-.1c-.3-.3-.6-.8-.8-1.3"/><path fill="#C0BF41" d="M-142.9 317.5v-3.9h-1.6c-2.7 0-4 1.2-4 3.6 0 2.1.9 3.1 2.8 3.1 1.9.1 2.8-.8 2.8-2.8m5.2 3.4l-.2 1.5c-.1.4-.3.5-.6.5-1.3-.2-2.3-.7-3.1-1.6-1.1 1.1-2.5 1.6-4.1 1.6-1.7 0-3.1-.3-4.3-1-1.6-1-2.5-2.5-2.5-4.6 0-2.1.9-3.6 2.8-4.7 1.5-.8 3.3-1.3 5.4-1.3h1.3c-.2-2.9-1.5-4.3-3.9-4.3h-2.5c-.4 0-.6-.2-.6-.5v-1.3c0-.4.2-.6.6-.6h3c2.2 0 4 .8 5.3 2.3 1.3 1.6 2 3.7 2 6.3v4.3c0 1.6.3 2.6.9 2.8.3.2.5.3.5.6M-124.7 322.3c0 .4-.2.6-.6.6h-.4c-2.4 0-4.3-.8-5.7-2.3-1.4-1.6-2.2-3.7-2.2-6.3v-13.7c0-.4.2-.6.6-.6h2.7c.4 0 .6.2.6.6v4h4.4c.4 0 .6.2.6.6v1.2c0 .4-.2.6-.6.6h-4.4v7.2c0 2 .4 3.5 1.2 4.7.7 1.1 1.7 1.6 2.8 1.6h.4c.4 0 .6.2.6.6v1.2zM-116.2 322.3c0 .4-.2.6-.6.6h-2.7c-.4 0-.6-.2-.6-.6v-26c0-.4.2-.6.6-.6h2.7c.4 0 .6.2.6.6v26zM-101.1 317.5v-3.9h-1.6c-2.7 0-4 1.2-4 3.6 0 2.1.9 3.1 2.8 3.1 1.9.1 2.9-.8 2.8-2.8m5.3 3.4l-.2 1.5c-.1.4-.3.5-.6.5-1.3-.2-2.3-.7-3.1-1.6-1.1 1.1-2.5 1.6-4.1 1.6-1.7 0-3.1-.3-4.3-1-1.6-1-2.5-2.5-2.5-4.6 0-2.1.9-3.6 2.8-4.7 1.5-.8 3.3-1.3 5.4-1.3h1.3c-.2-2.9-1.5-4.3-3.9-4.3h-2.5c-.4 0-.6-.2-.6-.5v-1.3c0-.4.2-.6.6-.6h3c2.2 0 4 .8 5.3 2.3 1.3 1.6 2 3.7 2 6.3v4.3c0 1.6.3 2.6.9 2.8.3.2.5.3.5.6M-73.8 320.8l-.1 1.5c0 .4-.2.5-.6.5-1.8-.2-3.1-.7-3.8-1.7-.6-.9-.9-2.4-.9-4.5v-3c0-2.4-.2-4-.7-5-.5-1.1-1.5-1.7-2.9-1.7s-2.4.6-2.9 1.7c-.5 1-.7 2.7-.7 5v8.7c0 .4-.2.6-.6.6h-2.7c-.4 0-.6-.2-.6-.6v-8.7c0-2.1-.2-3.5-.5-4.4-.3-.8-.8-1.3-1.6-1.6-.3-.1-.5-.4-.4-.6l.4-1.5c.1-.4.3-.5.7-.4 1.8.5 2.9 1.3 3.5 2.7 1.2-2.1 3.1-3.2 5.9-3.2 2.5 0 4.3.7 5.4 2.1 1.1 1.4 1.6 3.5 1.6 6.5v4.4c0 1.1.1 1.8.3 2.2.1.3.4.5.8.6.3 0 .5.1.4.4M-60.7 322.3c0 .4-.2.6-.6.6h-.4c-2.4 0-4.3-.8-5.7-2.3-1.4-1.6-2.2-3.7-2.2-6.3v-13.7c0-.4.2-.6.6-.6h2.7c.4 0 .6.2.6.6v4h4.4c.4 0 .6.2.6.6v1.2c0 .4-.2.6-.6.6h-4.4v7.2c0 2 .4 3.5 1.2 4.7.7 1.1 1.7 1.6 2.8 1.6h.4c.4 0 .6.2.6.6v1.2zM-52.2 322.4c0 .4-.2.6-.5.6h-2.7c-.4 0-.5-.2-.5-.6v-17.2c0-.4.2-.6.5-.6h2.7c.4 0 .5.2.5.6v17.2zm0-22.2c0 .4-.2.6-.6.6h-2.7c-.4 0-.6-.2-.6-.6v-3.8c0-.4.2-.6.6-.6h2.7c.4 0 .6.2.6.6v3.8zM-33.5 322.3c0 .4-.2.5-.6.6h-3.2c-3 0-5.3-.8-7-2.5-1.6-1.6-2.4-3.8-2.4-6.6 0-2.6.8-4.8 2.5-6.5 1.7-1.7 3.8-2.6 6.5-2.6h3.6c.4 0 .6.2.6.6v1.4c0 .4-.2.6-.6.6h-2.5c-2.1 0-3.7.7-4.7 2.1-.8 1.1-1.3 2.6-1.3 4.3 0 4.4 2.1 6.6 6.4 6.6h2.1c.4 0 .6.2.6.5v1.5zM-20.4 317.5v-3.9H-22c-2.7 0-4 1.2-4 3.6 0 2.1.9 3.1 2.8 3.1 1.9.1 2.9-.8 2.8-2.8m5.3 3.4l-.2 1.5c-.1.4-.3.5-.6.5-1.3-.2-2.3-.7-3.1-1.6-1.1 1.1-2.5 1.6-4.1 1.6-1.7 0-3.1-.3-4.3-1-1.6-1-2.5-2.5-2.5-4.6 0-2.1.9-3.6 2.8-4.7 1.5-.8 3.3-1.3 5.4-1.3h1.3c-.2-2.9-1.5-4.3-3.9-4.3h-2.5c-.4 0-.6-.2-.6-.5v-1.3c0-.4.2-.6.6-.6h3c2.2 0 4 .8 5.3 2.3 1.3 1.6 2 3.7 2 6.3v4.3c0 1.6.3 2.6.9 2.8.3.2.5.3.5.6"/><path fill="#5D6024" d="M45.9 303.3c-.8-.4-2.6-.9-3.3-.7-2.3.6-3.8 1.4-5.3 2.6-1.1.9-2.3 1.7-3.2 2.7-.3.3-.9.6-.6 1.1 0-.1-.1-.3 0-.3s.1.3.2.3c.1-.2-.2-.4 0-.6.4.4.3 1 .5 1.7.5 2.1 1.4 4.4 2.3 6.7.9 2.3 1.7 4.3 3.1 5.8.6.7 1.6 1.6 2.8 1.3 1.5-.4 1.7-2.5 1.6-4.2-.1-1.8-.6-3.5-.9-5-1.4-1.5-3.5-2.3-4.4-4.4 1-.4 1.7.3 2.6.2 1.3.7 2.4 1.5 3.3 2.7.1.1.4 0 .5.1 1.9 1.6 3.9 3.4 6 4.7.7.4 1.5 1.1 2.3 1.1-.1-1.3-1.1-2.3-1.7-3.3-1.9-2.8-4-5-6.7-7-1.7-1.3-4-2.7-6.8-2.7-.3-.4-.4-.8-.2-1.2 1.3-.5 2.1-.6 3.5-.5 3.5.2 4.8 3.2 7.7 3.2.3.2.4.2.8.2.4-.5.7-.2 1.3-.5-.7-2.3-3.2-3-5.4-4m-65.7-51.7c-1.2-.8-2.3-1.5-3.6-2.3l-1.2-.9c-1.5-.9-3.2-1.7-4.9-2.4-1.9-.9-4.1-1.8-6.1-2.5-2.2-.7-3.8-1.3-5.8-2-.9-.3-2.1-.8-2.8-.8-2.4.1-3.9.9-5.9 1.6-.7.7-1.4 1.3-1.8 1.9-.7 1-1.5 2.7-1.6 3.9-.2 2.2.4 4.4 1.1 6.2.9 2.5 2.6 4.9 4.5 6.5 2.7 2.2 5.9 4.2 10.2 4.4h3.2c3-.2 6.2-.6 8.9-1.6 2.6-1 5.2-2.2 7-3.7.6-.6 1.1-1.3 1.6-2 .3-.3.6-.6.8-.9.3-.3.7-.7.6-1-1.7.6-4 .9-6 1-2.3.2-4.8-.1-7.2-.6-4.7-.9-9-1.9-12.7-3.7-1-.5-1.9-.9-2.8-1.4-.9-.5-1.8-1.1-2.4-1.9 0-.4.6-.6.3-.8.3.1.9.5 1 .2.3.4.9.5 1.4.6 1.1.7 2.6 1.5 3.5 1.9 7.2 2.8 15.9 3.6 25.3 3.6-1.1-1.3-3-2.2-4.6-3.3m17 18.1c.2.7.5 1.2.7 1.7-.9-.8-1.3-2.2-1.9-3.4.1.4.4.9.4 1.2-1.2-2.1-2.2-5-2.9-7.7-.5-1.8-.9-4-1.2-5.8v-1.1c-.4-3.4-.7-7.2-.8-10.8-.1-3.8-.1-6.8-.1-9.9 0 .5-.8.5-.7 1.2-2.7 3.6-3.5 9.3-2.7 15 1.1 7.8 4.7 15.4 8.1 21.3.5.9 1 1.6 1.6 2.4.1.3-.1.5 0 .6.5-.6 1.1-1 1.5-1.7-.7-.9-1.3-1.8-2-3m2 3.2c1.1-.7 1.9-1.7 3-2.6 3.5-2.9 8.4-5.6 13.7-6.3.1 0 .6-.1.5 0 .1-.2.5-.1.7-.2 2.1.1 5.3-.4 7 .2 2.9.2 5.3.6 8.1 1.7 1 .4 2 .9 3 1.3 1.5.6 2.8 1 3.9 1.8.2.1.2.3.4.4 1 .7 2.1 1.3 3.1 2.1.5.4.9.9 1.3 1.3 1.3 1.3 2.6 2.4 3.7 4 .6 1 1.4 2.2 1.9 3.3.2.5.3 1 .5 1.6 1.3 3.1 2 7.3 1.7 11.2-.1 1.9-.8 3.5-1.7 4.8-.3.4-.4 1.1-1 1.2-.1-1 .7-1.3.8-2.3.5-.5.6-2.3.6-3.5 0-1.4.3-3.1.2-4.4 0-.3-.1.2-.1-.1.1-1-.3-2.4-.3-3.1-.2-.1-.2-.3-.3-.4-1.2-3.9-3.3-7.3-5.7-9.9-.3-.4-.8-.6-1.2-1-.6-.5-1.1-1.3-1.8-1.8-.2-.2-.5-.2-.8-.4-1.2-.8-2.2-1.7-3.4-2.4-.6-.4-1.3-.6-1.9-.9-1.9-.8-4-1.7-6.3-2.3-1.6-.4-3.7-.6-5.5-.8-5.5-.4-10.5.9-14.2 2.9-.1.2-.3.2-.4.3-.7.5-1.8 1.1-2.8 1.8-2.2 1.5-4.3 3.6-6.4 5.3-1 1.2-2 2.7-3.1 3.7.1.6-.8.8-.7 1.5-.4.3-.4.2-.4.6-.3.2-.5 1.2-.8 1.1 0 .6-.4 1.1-.7 1.6-.3.5-.5 1.1-.9 1.5-.1.4 0 .1.1.3-.2.2-.4.2-.4.7.1 0 0-.1.1-.1.1-.3 0 .4-.2.3-.4 1.4-.9 2.8-1.1 4.4-.1.4 0 .9-.1 1.4-.1.4-.3.8-.4 1.2-.1.5-.1 1.2-.2 1.7-.4 2.1-.1 4.4 0 6.7.1 0 0-.3 0-.4.3.4-.1.5-.1.7-.1.5.1 1.1.2 1.7.3 2.9 1 5.6 1.8 8.2.7 2.1 2 4.1 3.3 6.1 2.3 3.7 5.6 6.9 9.7 8.7 2.2 1 4.8 2.2 8.1 1.8 2.7-.3 5.6-1.6 7.8-3 1.1-.7 2-1.4 3.1-2.2 1-.8 2.2-1.4 2.9-2.3.3-.4.5-1 .8-1.4.2-.4.5-.8.8-1.4.2-.1.3-.2.5-.3 0-1.1.2-2 .7-2.6 1 .3 1.1 1.7 1.4 3 .3 1 .9 3.1 1.9 3.1.8 0 1.6-1.1 1.6-1.8.1-.7-.1-1.4-.4-2.1-.7-2.4-2.2-5-2.4-7.8-.7 1-1.3 2.2-2.7 2.3-.2-.1-.6-.5-.5-.8 0-.2.2-.3.3-.6v-.6c.1-.4.7-1.1 1.1-1.6 1.2-1.5 2.6-2.8 4.2-4 2.2-1.7 4.4-3.4 7.1-3.9 1.5-.3 2.4-.5 3.6-.6.3.1 0 .4.2.5.1.1.3 0 .5.2 0 0-.2.3.2.2-.1.1-.2.3-.4.3.4.2.2.2 0 .5 1.8.4 4.1 1 5.4 2 .2.2.4.5.7.8.6.6 1.5 1.4 1.6 2.5.1 1.8-1.6 2.7-3.6 2.6.4.7.9 1.4 1.3 2.1-.5-.2-.7-.8-1.2-1 .4.8 1.5 1.6 2 2.6l-1.1-1.1c1.3 2 2.9 3.8 3.9 6.1 0-.6-.5-1.3-.7-1.9 1.2 1.1 2.1 4.5 0 5.1-2.3.2-3.4-.8-4.8-1.9-.7-.5-1.4-1-1.8-1.4-.3-.3-.4-.8-.9-.8-.2.4.1 1 .1 1.5.2 1.3-.2 2.7-.3 3.9-.5.8-.9 1.7-1.3 2.5-1.2.9-3 1.6-4.5.8-2.1-1-3.2-3.8-4.5-5.5-.3.9-.7 2.2-1.8 2.4-.3.1-1 .1-1.3-.2.1 1.5.9 3.6 1.7 5.1.2.4.7 1.4 1.1 1.3.8-.1.5-2.6.5-3.4 0-.5.1-1 .1-1.5.6 0 .7.2 1.1.1.2 1 .6 3.7-.2 4.4-.1 1-.7 1.3-1.3 1.6-2.5-.2-2.8-2.8-3.7-5-.6-1.5-1.3-2.9-1.6-4-1.1 2.1-3.4 3.4-5.5 4.9-1.6 1.1-3.3 2-5.3 2.9l-.2.1c-.2.1 0 .1-.4.2-1.5.3-2.8.9-4.5 1.1-2.3.2-4.2-.1-6.1-.8-2.7-.9-5.9-2.4-8.2-4.3-1-.8-2-1.8-3-2.8-.5-.5-.9-1-1.3-1.5-1.8-2.2-3.3-5-4.6-7.5-1-2.7-1.7-5.6-2.3-8.6-.1-.1-.1-.1-.2-.3-.1-.3.1-.1.1-.2 0-.3-.2.1-.1-.2v-1.4c.1-2.2-.4-5.3 0-7.6 0-.3.2-.5.2-.7.4-2.8.9-5.4 1.7-7.8.1-.4.1-.9.3-1.3.1-.3.4-.6.5-.8.1-.2.1-.5.2-.8.3-.7.8-1.7 1.2-2.3 1.4-2.1 2.6-4.6 4.3-6.4-4.7-4.2-7.4-10.5-9.6-17.4-1.6 1.3-2.8 3.5-4.6 4.7-1 .6-2.2 1.2-3.3 1.8-1.1.6-2.3 1.1-3.5 1.6-2.6.9-5.5 1.3-8.4 1.6-3 .3-6 .3-8.4-.4-1-.3-2-.8-2.9-1.3-2.8-1.3-5.2-3.2-7.1-5.4-1.3-1.5-2.6-3.2-3.3-5.2-.2-.5-.2-1.1-.4-1.8-.5-1.9-1-4.2-.6-6.4 0-.3-.1.1-.1-.1.5-1.9 1.1-3.8 2.2-5.2.3-.3.8-.6 1.2-1 .8-.8 1.3-1.1 2.6-1.6 1.2-.5 2.5-.7 4-.6 3 .1 6.2 1 8.6 1.9 1.4.2 2.4.8 3.4 1.4 3.3 1.2 6.2 2.9 9.4 4.4.1.3.5.4.7.6.3.1 0-.2.3 0 .2.2-.2 0 0 .2l1.2.6c.4.2.7.5 1 .8.2.1.5.1.6.2.5.4 1 .9 1.6 1.3 1.2.8 2.3 1.5 3.3 2.3.4.3.7.7 1.2.9.1 0 .3-.1.3.1-.4-3.1-.8-6.3-.5-9.5.4-4.2 2.1-9.1 4.7-11.7.7-.7 1.4-1.1 2.2-1.3.3 0 .6.5.7.9.2 1.1-.2 2.6-.3 3.9-.1 1.2-.1 2.5-.1 3.7-.4 6.2.4 12.6 1.2 17.9.1 0 .1.1.1.2-.1 0-.1 0-.1-.1.3 3 1.7 7 3 10.6.2.5.6 1 .7 1.5.1.4 0 .8.1 1.2-.4.2.1 1 .4 1.8"/></svg>