<svg version="1.2" baseProfile="tiny" xmlns="http://www.w3.org/2000/svg" width="568.8" height="101.5" viewBox="-195 230.5 568.8 101.5"><path fill="#963A1F" d="M-97 322.47l-8.486 8.485-10.96-10.96 8.485-8.485zM-172.43 246.234l-9.193 9.193-13.364-13.365 9.192-9.192zM-93.7 292.3l-37.3 37.3-10.9-10.9 37.3-37.3zM-149.2 245.2L-181 277l-9.8-9.8 31.8-31.8zM-94.8 269.1l-62.6 62.6-10.6-10.6 62.6-62.6zM-120.3 243.6l-60.5 60.4-10.6-10.6 60.5-60.5zM-142.5 292.9l-39.1 39.1-11-11 39.1-39.1zM-92.7 241.5l-39.6 39.6-11-11 39.6-39.6z"/><path fill="#FFF" d="M-67.2 300.9v16.8h-3.7v-16.8h-5.9v-3.5h15.4v3.5zM-42.1 297.4v3.5h-12v4.8h9.6v3.5h-9.6v4.9h12v3.6h-15.6v-20.3zM-27.3 300.9H-34v5.9h6.7c1.8 0 3-1.3 3-2.9.1-1.6-1.2-3-3-3m2.7 16.8c-.4-.6-4-6.6-4.5-7.4H-34v7.4h-3.7v-20.4H-27c3.7 0 6.5 2.9 6.5 6.5 0 3-2.1 5.4-4.4 6 .4.7 4.4 7.2 4.9 7.8h-4.6v.1zM-5.5 300.9h-6.7v5.9h6.7c1.8 0 3-1.3 3-2.9.1-1.6-1.1-3-3-3m2.8 16.8c-.4-.6-4-6.6-4.5-7.4h-4.9v7.4h-3.7v-20.4h10.7c3.7 0 6.5 2.9 6.5 6.5 0 3-2.1 5.4-4.4 6 .4.7 4.4 7.2 4.9 7.8h-4.6v.1zM15.6 300.5c-3.8 0-6.8 3.1-6.8 7.1 0 3.9 3 7 6.9 7 3.8 0 6.9-3.1 6.9-7-.1-4-3.1-7.1-7-7.1m.1 17.7c-5.9 0-10.7-4.8-10.7-10.6 0-5.9 4.8-10.7 10.6-10.7 5.9 0 10.7 4.8 10.7 10.7 0 5.8-4.7 10.6-10.6 10.6M31.2 297.4h3.7v20.4h-3.7zM51 300.9h-6.7v5.9H51c1.8 0 3-1.3 3-2.9.1-1.6-1.2-3-3-3m2.7 16.8c-.4-.6-4-6.6-4.5-7.4h-4.9v7.4h-3.7v-20.4h10.7c3.7 0 6.5 2.9 6.5 6.5 0 3-2.1 5.4-4.4 6 .4.7 4.4 7.2 4.9 7.8h-4.6v.1zM81.8 308.8h-7.3v5.3h7.4c1.5 0 2.6-1.3 2.6-2.7.1-1.4-1.1-2.6-2.7-2.6m-.3-7.9h-7v4.5h7c1.3 0 2.3-1 2.3-2.2 0-1.3-1-2.3-2.3-2.3m.9 16.8H70.9v-20.4h11.4c2.7 0 5.2 2.3 5.2 5.1 0 2-1 3.5-2.3 4.2 1.4.4 3.3 2.1 3.3 5.1 0 3.3-2.6 6-6.1 6M101 303.3c-.3.8-2.6 6-2.8 6.5h5.7c-.3-.4-2.6-5.8-2.9-6.5m6.1 14.4c-.2-.5-1.6-3.8-1.9-4.3h-8.4c-.2.4-1.7 3.8-1.9 4.3h-4c.2-.5 8.6-20.1 8.7-20.5h2.7c.1.3 8.5 19.7 8.8 20.5h-4zM118.5 305.4v12.3h-3.7V297c.9.9 11.3 11.6 12.4 12.6v-12.3h3.6v20.8c-1-1.1-11.3-11.6-12.3-12.7M136.8 297.4h3.7v20.4h-3.7zM163.8 318.2c-.8-.6-7.6-6.4-8.5-7.1-.9.8-7.4 6.3-8.5 7.1-.1-1.9-1.4-19.5-1.5-20.8h3.8c0 1.2.6 12.5.6 13.7.7-.6 4.9-4.3 5.5-4.9.7.6 4.9 4.4 5.5 4.9.1-.9.6-12.5.7-13.7h3.8c-.1 1.2-1.3 19.6-1.4 20.8M177.7 303.3c-.3.8-2.6 6-2.8 6.5h5.7c-.2-.4-2.6-5.8-2.9-6.5m6.2 14.4c-.2-.5-1.6-3.8-1.9-4.3h-8.5c-.2.4-1.7 3.8-1.9 4.3h-4c.2-.5 8.6-20.1 8.7-20.5h2.7c.1.3 8.5 19.7 8.8 20.5h-3.9zM191.1 321.2v-8.1h3.5v4.6l-3.5 3.5M216.1 303.3c-.3.8-2.6 6-2.8 6.5h5.7c-.3-.4-2.7-5.8-2.9-6.5m6.1 14.4c-.2-.5-1.6-3.8-1.9-4.3h-8.5c-.2.4-1.7 3.8-1.9 4.3h-4c.2-.5 8.6-20.1 8.7-20.5h2.7c.1.3 8.5 19.7 8.8 20.5h-3.9zM245.4 317.7v-13.6c-.8.6-5 3.9-6 4.6-.9-.6-5.2-4-5.9-4.6v13.5h-3.6v-20.7c1.3 1 8.4 6.3 9.6 7.2 1-.8 8.5-6.4 9.5-7.2v20.7h-3.6v.1zM262.9 303.3c-.3.8-2.6 6-2.8 6.5h5.7c-.3-.4-2.7-5.8-2.9-6.5m6.1 14.4c-.2-.5-1.6-3.8-1.9-4.3h-8.5c-.2.4-1.7 3.8-1.9 4.3h-4c.2-.5 8.6-20.1 8.7-20.5h2.7c.1.3 8.5 19.7 8.8 20.5H269zM282 314.2h7.6v-3.9h3.5v7.4h-17.9c.7-1 11.2-15.9 11.8-16.8h-7.4v3.9h-3.5v-7.4h17.8c-.7.9-11.3 15.9-11.9 16.8M307.2 291.9l5.2 2.1-.5 2.2-4.7-1.8-4.7 1.8-.5-2.2 5.2-2.1zm.1 8.6c-3.8 0-6.8 3.1-6.8 7.1 0 3.9 3 7 6.9 7 3.8 0 6.9-3.1 6.9-7-.1-4-3.2-7.1-7-7.1m0 17.7c-5.9 0-10.7-4.8-10.7-10.6 0-5.9 4.8-10.7 10.6-10.7 5.9 0 10.7 4.8 10.7 10.7.1 5.8-4.7 10.6-10.6 10.6M326.2 305.4v12.3h-3.7V297c.9.9 11.3 11.6 12.4 12.6v-12.3h3.6v20.8c-1-1.1-11.3-11.6-12.3-12.7M344.5 297.4h3.7v20.4h-3.7zM362.1 303.3c-.3.8-2.6 6-2.8 6.5h5.7c-.2-.4-2.6-5.8-2.9-6.5m6.1 14.4c-.2-.5-1.6-3.8-1.9-4.3h-8.5c-.2.4-1.7 3.8-1.9 4.3h-4c.2-.5 8.6-20.1 8.7-20.5h2.7c.1.3 8.5 19.7 8.8 20.5h-3.9zM-60.1 254.8h-10.6v9.7h10.6c2.5 0 4.8-2 4.8-4.8-.1-3-2.3-4.9-4.8-4.9m.2 15.3h-10.8v11.2h-5.8v-32.2H-60c5.9 0 10.6 4.7 10.6 10.5 0 5.5-4.5 10.5-10.5 10.5M-42.6 249.1h5.9v32.2h-5.9zM-3.1 281.2v-21.5c-1.2 1-8 6.2-9.4 7.3-1.4-1-8.2-6.3-9.4-7.2v21.4h-5.7v-32.8c2.1 1.5 13.3 9.9 15.2 11.4 1.5-1.2 13.5-10.1 15.1-11.4v32.8h-5.8zM36.4 249.1v5.6h-19v7.5h15.2v5.6H17.4v7.8h18.9v5.7H11.6v-32.2zM49.2 261.8v19.5h-5.8v-32.7c1.4 1.4 17.9 18.3 19.5 19.9v-19.4h5.7v32.8c-1.6-1.8-17.8-18.4-19.4-20.1M89.9 254.7v26.5h-6v-26.5h-9.3v-5.6h24.3v5.6zM115.1 258.5c-.5 1.2-4.2 9.5-4.5 10.3h9c-.3-.6-4.1-9.2-4.5-10.3m9.7 22.7c-.3-.7-2.6-5.9-2.9-6.8h-13.4c-.3.6-2.7 6.1-2.9 6.8h-6.3c.4-.9 13.6-31.9 13.8-32.4h4.3c.2.5 13.4 31.2 14 32.4h-6.6z"/><path fill="#95391F" d="M138.5 284.7c-.7-1-3.9-5.4-4.8-6.5 1-.7 5.2-3.8 5.9-4.3 1-.8 1.4-1.8 1.4-3.1v-13.7h-6.1V249H149v21.8c0 4.3-1.2 6.8-4.2 9.3-1.6 1.3-5.3 3.9-6.3 4.6M157.8 249.1h8.3v32.2h-8.3zM186.2 273.2V269h7.8v4.2c3.1-1.5 4.9-4.9 4.9-8.1 0-5-3.9-9-8.8-9s-8.8 4-8.8 9c0 3.6 1.9 6.7 4.9 8.1m0 8.2c-7.4-1.8-12.9-8.4-12.9-16.3 0-9.3 7.5-16.8 16.8-16.8s16.9 7.5 16.9 16.8c0 7.7-5.6 14.7-13 16.3v3.5h-7.8v-3.5zM213.9 249.1h8.3v20.5c0 2.1 1.7 4.2 4.4 4.2 2.4 0 4.4-1.8 4.4-4.2v-20.5h8.1V269c0 7.2-5.5 12.8-12.5 12.8-7.1 0-12.6-5.5-12.6-12.8v-19.9h-.1zM248 249.1h8.3v32.2H248zM269.9 281.2V257h-7.8v-7.9h24v7.9h-7.9v24.2zM304.8 261c-.2.6-2.2 6.5-2.4 6.9h4.9c-.1-.4-2.3-6.3-2.5-6.9m-2.7-18l9.7-2.5v5.1l-9.7 2.5V243zm-4.3 38.2H289c.2-.7 11.4-31.6 11.6-32.2h8.4c.2.5 11.8 31.4 12.1 32.2h-8.9c-.2-.7-1.8-4.9-2-5.4h-10.6c0 .5-1.6 5-1.8 5.4M327.5 249.1h8.3v32.2h-8.3zM357.5 261c-.2.6-2.2 6.5-2.4 6.9h4.9c-.1-.4-2.3-6.3-2.5-6.9m-7 20.2h-8.8c.2-.7 11.4-31.6 11.6-32.2h8.4c.2.5 11.8 31.4 12.1 32.2h-8.9c-.2-.7-1.8-4.9-2-5.4h-10.6c-.1.5-1.7 5-1.8 5.4"/></svg>