<?xml version="1.0" encoding="UTF-8" standalone="no"?>
<svg
   xmlns:dc="http://purl.org/dc/elements/1.1/"
   xmlns:cc="http://creativecommons.org/ns#"
   xmlns:rdf="http://www.w3.org/1999/02/22-rdf-syntax-ns#"
   xmlns:svg="http://www.w3.org/2000/svg"
   xmlns="http://www.w3.org/2000/svg"
   xmlns:sodipodi="http://sodipodi.sourceforge.net/DTD/sodipodi-0.dtd"
   xmlns:inkscape="http://www.inkscape.org/namespaces/inkscape"
   width="54.239288"
   height="54.801945"
   viewBox="0 0 403.59155 576.71495"
   id="svg2"
   version="1.1"
   inkscape:version="0.91 r13725"
   sodipodi:docname="morango_lingua.svg">
  <metadata
     id="metadata38">
    <rdf:RDF>
      <cc:Work
         rdf:about="">
        <dc:format>image/svg+xml</dc:format>
        <dc:type
           rdf:resource="http://purl.org/dc/dcmitype/StillImage" />
        <dc:title></dc:title>
      </cc:Work>
    </rdf:RDF>
  </metadata>
  <defs
     id="defs36" />
  <sodipodi:namedview
     pagecolor="#ffffff"
     bordercolor="#666666"
     borderopacity="1"
     objecttolerance="10"
     gridtolerance="10"
     guidetolerance="10"
     inkscape:pageopacity="0"
     inkscape:pageshadow="2"
     inkscape:window-width="1164"
     inkscape:window-height="646"
     id="namedview34"
     showgrid="false"
     fit-margin-top="0"
     fit-margin-left="0"
     fit-margin-right="0"
     fit-margin-bottom="0"
     inkscape:zoom="2.36"
     inkscape:cx="-30.443815"
     inkscape:cy="28.961089"
     inkscape:window-x="55"
     inkscape:window-y="24"
     inkscape:window-maximized="0"
     inkscape:current-layer="svg2" />
  <g
     id="g4166"
     transform="translate(-0.81383351,7.8634412e-7)">
    <g
       transform="translate(-191.0635,-254.24171)"
       style="fill-rule:evenodd"
       id="g4">
      <path
         style="fill:#d40000"
         inkscape:connector-curvature="0"
         id="path6"
         d="m 580,533.18 c -13,84.56 -40,200.622 -55,221.9 -15,21.278 -40.638,62.528 -88,73.505 -37.373,8.662 -121.67,-6.24 -182,-47.392 -84.69,-57.77 -131,-148.944 -129,-248.563 2,-99.62 25,-143.142 79,-171.19 74.155,-38.517 211,-35.785 254,-22.245 43,13.54 124,30.118 121,193.986 z" />
      <path
         style="fill:#89a02c"
         inkscape:connector-curvature="0"
         id="path8"
         d="m 242,261.504 c 9,20 24,54 50,50 26,-4 120,-30 202,8 26.685,12.367 66,57 66,76 0,19 -18,30 -18,30 0,0 -31,-52 -52,-55 -21,-3 -56,13 -44,52 12,39 14,39 14,39 0,0 -78,-34 -94,-62 -16,-28 -43,-34 -43,-34 0,0 -74,40 -83,69 -9,29 -29,85 -29,85 0,0 -40,-76 -30,-107 10,-31 -31.867,28.503 -38.933,84.752 C 135,553.504 117,559.504 117,559.504 c 0,0 -27,-149 14,-182 41,-33 89,-30 82,-63 -7,-33 -13,-40 -13,-40 0,0 5,-35 42,-13 z" />
    </g>
    <circle
       style="fill:#ffffff;fill-rule:evenodd"
       id="circle10"
       r="118"
       cy="252.42729"
       cx="142.93649" />
    <circle
       style="fill:#0082ff;fill-rule:evenodd"
       id="circle12"
       r="84.142998"
       cy="252.42729"
       cx="160.93649" />
    <circle
       style="fill-rule:evenodd"
       id="circle14"
       r="54.27"
       cy="252.42729"
       cx="160.93649" />
    <ellipse
       style="fill:#ffffff;fill-rule:evenodd"
       id="ellipse16"
       ry="104.12"
       rx="99.07"
       cy="252.42729"
       cx="388.93649" />
    <circle
       style="fill:#0082ff;fill-rule:evenodd"
       id="circle18"
       r="70.135002"
       cy="252.42729"
       cx="371.49051" />
    <circle
       style="fill-rule:evenodd"
       id="circle20"
       r="45.235001"
       cy="252.42729"
       cx="371.49051" />
    <path
       style="fill:#800000;fill-rule:evenodd"
       inkscape:connector-curvature="0"
       id="path22"
       d="m 169.9365,82.948287 c -26,0 -107.000002,12 -111.000001,31.000003 -4,19 85.000001,4 117.000001,-3 32,-7 27,-31.000003 -6,-28.000003 z m 273.19,12.79 c -25.35,-5.78 -106.99,-12.09 -115.115,5.546003 -8.124,17.635 81.984,22.798 114.74,23.088 32.754,0.29 33.215,-24.222 0.374,-28.634003 z" />
    <ellipse
       style="fill:#ffffff"
       id="ellipse24"
       cx="444.58102"
       cy="-17.01182"
       rx="15"
       ry="4.5"
       transform="matrix(0.83714638,0.54697892,-0.54697892,0.83714638,0,0)" />
    <ellipse
       style="fill:#ffffff"
       id="ellipse26"
       cx="278.14304"
       cy="85.773178"
       rx="15"
       ry="4.5"
       transform="matrix(0.83714638,0.54697892,-0.54697892,0.83714638,0,0)" />
    <path
       style="fill:#ff8080;fill-rule:evenodd"
       inkscape:connector-curvature="0"
       id="path28"
       d="m 176.1245,409.05829 c 0,0 -84.375001,18.75 -71.875,48.437 12.5,29.688 48.437,53.125 82.812,31.25 34.375,-21.875 39.063,-53.125 39.063,-53.125 0,0 -32.813,0 -50,-26.562 z" />
    <path
       style="fill:none;stroke:#000000;stroke-width:9.5"
       inkscape:connector-curvature="0"
       id="path30"
       d="m 353.9365,422.12029 c 0,0 -123.25,53.875 -190.813,-27" />
    <path
       style="fill:none;stroke:#000000"
       inkscape:connector-curvature="0"
       id="path32"
       d="m 194.8745,423.12029 c 0,0 -35.938,18.75 -46.875,43.75" />
  </g>
</svg>
