<?xml version="1.0" encoding="UTF-8" standalone="no"?>
<!-- Created with Inkscape (http://www.inkscape.org/) -->

<svg
   xmlns:dc="http://purl.org/dc/elements/1.1/"
   xmlns:cc="http://creativecommons.org/ns#"
   xmlns:rdf="http://www.w3.org/1999/02/22-rdf-syntax-ns#"
   xmlns:svg="http://www.w3.org/2000/svg"
   xmlns="http://www.w3.org/2000/svg"
   xmlns:xlink="http://www.w3.org/1999/xlink"
   xmlns:sodipodi="http://sodipodi.sourceforge.net/DTD/sodipodi-0.dtd"
   xmlns:inkscape="http://www.inkscape.org/namespaces/inkscape"
   width="210mm"
   height="297mm"
   viewBox="0 0 744.09448819 1052.3622047"
   id="svg2"
   version="1.1"
   inkscape:version="0.91 r13725"
   inkscape:export-filename="/home/lucas/Codes/organica/scroll/img/rosto_sério_aberto.png"
   inkscape:export-xdpi="90"
   inkscape:export-ydpi="90"
   sodipodi:docname="drawing.svg">
  <defs
     id="defs4">
    <linearGradient
       inkscape:collect="always"
       id="linearGradient4377">
      <stop
         style="stop-color:#ffffff;stop-opacity:1;"
         offset="0"
         id="stop4379" />
      <stop
         style="stop-color:#ffffff;stop-opacity:0;"
         offset="1"
         id="stop4381" />
    </linearGradient>
    <inkscape:path-effect
       effect="skeletal"
       id="path-effect4436"
       is_visible="true"
       pattern="M 0,0 1,0"
       copytype="repeated"
       prop_scale="1"
       scale_y_rel="false"
       spacing="0"
       normal_offset="0"
       tang_offset="0"
       prop_units="false"
       vertical_pattern="false"
       fuse_tolerance="0" />
    <inkscape:path-effect
       effect="skeletal"
       id="path-effect4382"
       is_visible="true"
       pattern="M 0,0 1,0"
       copytype="repeated"
       prop_scale="1.18"
       scale_y_rel="false"
       spacing="0.4"
       normal_offset="1.4"
       tang_offset="-0.9"
       prop_units="false"
       vertical_pattern="true"
       fuse_tolerance="0" />
    <radialGradient
       inkscape:collect="always"
       xlink:href="#linearGradient4377"
       id="radialGradient4385"
       cx="334"
       cy="506.66949"
       fx="334"
       fy="506.66949"
       r="118"
       gradientUnits="userSpaceOnUse" />
  </defs>
  <sodipodi:namedview
     id="base"
     pagecolor="#ffffff"
     bordercolor="#666666"
     borderopacity="1.0"
     inkscape:pageopacity="0.0"
     inkscape:pageshadow="2"
     inkscape:zoom="1"
     inkscape:cx="133.5"
     inkscape:cy="546.9765"
     inkscape:document-units="px"
     inkscape:current-layer="g4783"
     showgrid="false"
     inkscape:snap-object-midpoints="false"
     inkscape:snap-others="true"
     inkscape:window-width="1865"
     inkscape:window-height="1056"
     inkscape:window-x="55"
     inkscape:window-y="24"
     inkscape:window-maximized="1"
     inkscape:snap-page="false" />
  <metadata
     id="metadata7">
    <rdf:RDF>
      <cc:Work
         rdf:about="">
        <dc:format>image/svg+xml</dc:format>
        <dc:type
           rdf:resource="http://purl.org/dc/dcmitype/StillImage" />
        <dc:title />
      </cc:Work>
    </rdf:RDF>
  </metadata>
  <g
     inkscape:groupmode="layer"
     id="layer2"
     inkscape:label="Laranja"
     style="display:none">
    <g
       id="g4299"
       transform="translate(120,35.737202)">
      <path
         inkscape:connector-curvature="0"
         id="path4248"
         d="m 171.23697,285.27559 c 0,0 -165.2258452,-46.51601 -222.6771,36.2208 -57.45125,82.73682 -95.24875,213.66717 -64.93578,253.34772 30.312958,39.68056 225.28135,-48.60033 287.61288,-289.56852 z"
         style="fill:#668000;fill-rule:evenodd;stroke:none;stroke-width:1px;stroke-linecap:butt;stroke-linejoin:miter;stroke-opacity:1" />
      <circle
         r="274.5"
         cy="506.86221"
         cx="231.5"
         id="path4209"
         style="fill:#ff7f2a" />
    </g>
  </g>
  <g
     inkscape:groupmode="layer"
     id="layer3"
     inkscape:label="Morango"
     style="display:none">
    <g
       id="g4481"
       transform="translate(0,67.142272)">
      <path
         sodipodi:nodetypes="cssssssc"
         inkscape:connector-curvature="0"
         id="path4306"
         d="m 580,466.039 c -13,84.55988 -40,200.6207 -55,221.89851 -15,21.27782 -40.63772,62.52813 -88,73.50519 -37.37325,8.66191 -121.6709,-6.23944 -182,-47.3915 -84.68995,-57.76923 -131,-148.94471 -129,-248.56358 2,-99.61887 25,-143.14167 79,-171.1897 74.15545,-38.51693 211,-35.78542 254,-22.24499 43,13.54043 124,30.11796 121,193.98607 z"
         style="fill:#d40000;fill-rule:evenodd;stroke:none;stroke-width:1px;stroke-linecap:butt;stroke-linejoin:miter;stroke-opacity:1" />
      <path
         sodipodi:nodetypes="cssscsscscscsscsscc"
         inkscape:connector-curvature="0"
         id="path4308"
         d="m 242,194.3622 c 9,20 24,54 50,50 26,-4 120,-30 202,8 26.68481,12.36613 66,57 66,76 0,19 -18,30 -18,30 0,0 -31,-52 -52,-55 -21,-3 -56,13 -44,52 12,39 14,39 14,39 0,0 -78,-34 -94,-62 -16,-28 -43,-34 -43,-34 0,0 -74,40 -83,69 -9,29 -29,85 -29,85 0,0 -40,-76 -30,-107 10,-31 -31.8669,28.50261 -38.93345,84.75131 C 135,486.3622 117,492.3622 117,492.3622 c 0,0 -27,-149 14,-182 41,-33 89,-30 82,-63 -7,-33 -13,-40 -13,-40 0,0 5,-35 42,-13 z"
         style="fill:#89a02c;fill-rule:evenodd;stroke:none;stroke-width:1px;stroke-linecap:butt;stroke-linejoin:miter;stroke-opacity:1" />
    </g>
  </g>
  <g
     inkscape:groupmode="layer"
     id="layer4"
     inkscape:label="Goiaba"
     style="display:none">
    <g
       id="g4477"
       transform="translate(0,39.89778)">
      <path
         sodipodi:nodetypes="cssscc"
         inkscape:connector-curvature="0"
         id="path4313"
         d="m 277.26416,323.12008 c 0,0 44.92902,-48.73869 4.19303,-66.41858 -40.736,-17.67988 -124.32613,1.45101 -165.89433,27.47186 -38.162234,23.88879 -104.602864,104.45967 -78.528491,232.16072 9.988751,48.92059 51.302882,97.07436 51.302882,97.07436 0,0 157.776289,-220.09834 188.926909,-290.28836 z"
         style="fill:#445500;fill-rule:evenodd;stroke:none;stroke-width:1px;stroke-linecap:butt;stroke-linejoin:miter;stroke-opacity:1" />
      <path
         sodipodi:nodetypes="cssssssssc"
         inkscape:connector-curvature="0"
         id="path4311"
         d="m 220.69351,287.3622 c 1.68823,-53 77.03175,-64.21734 100.66436,-40 37.69091,38.62348 119.5514,-18.19372 220.39521,71 43.51285,38.48598 43.17546,108.14019 37.28789,173.5701 -5.88756,65.4299 -12.75638,153.4299 -22.56899,184.4299 -9.8126,31 -53.96932,70 -104.99487,84 -51.02554,14 -136.69503,14 -201.45822,-6 -64.7632,-20 -101.08857,-64 -127.5826,-134 -26.49404,-70 -26.042017,-159.60574 -8.53152,-218 13.79387,-46 25.34412,-67 106.78874,-115 z"
         style="fill:#88aa00;fill-rule:evenodd;stroke:none;stroke-width:0.99058592px;stroke-linecap:butt;stroke-linejoin:miter;stroke-opacity:1" />
    </g>
  </g>
  <g
     inkscape:groupmode="layer"
     id="layer5"
     inkscape:label="Banana"
     style="display:none">
    <g
       id="g4467"
       transform="translate(0,11.331909)">
      <path
         sodipodi:nodetypes="cssssssc"
         inkscape:connector-curvature="0"
         id="path4316"
         d="m 366.35319,136.83663 c 41.62718,8.66945 68.61752,43.45609 74.05153,89.3599 5.43401,45.90382 -7.19571,154.16754 -4.63781,185.34749 2.55789,31.17995 -25.65346,324.98782 -32.69533,362.23053 -7.04186,37.24272 -71.64459,104.53986 -108.2196,88.94988 -36.575,-15.58997 -34.38771,-88.72512 -24.05722,-182.15083 11.49235,-103.93317 22.03238,-287.21789 24.55987,-363.43555 2.52749,-76.21766 1.74387,-161.43531 70.99856,-180.30142 z"
         style="fill:#ffffd8;fill-opacity:1;fill-rule:evenodd;stroke:none;stroke-width:0.9936012px;stroke-linecap:butt;stroke-linejoin:miter;stroke-opacity:1" />
      <path
         inkscape:connector-curvature="0"
         id="path4337"
         d="m 266.76572,602.21926 c 0,0 -16.76572,217.14294 -16.76572,238.14294 0,21 4.19557,67 4.19557,67 l 15.73338,6 c 0,0 86.00918,-18 117.47596,-57 31.46677,-39 54.5424,-206 55.5913,-246 1.04889,-40 -8.39114,-40 -8.39114,-40 l -167.83935,31.85706 z"
         style="fill:#ffcc00;fill-rule:evenodd;stroke:none;stroke-width:1px;stroke-linecap:butt;stroke-linejoin:miter;stroke-opacity:1" />
      <path
         inkscape:connector-curvature="0"
         id="path4335"
         d="m 201.18873,718.3622 c 0,0 89.98796,-135 155.33636,-130 65.34839,5 187.47491,138 187.47491,138 0,0 -2.81592,-182.32113 -191.02544,-186.66057 C 164.76503,535.3622 201.18873,718.3622 201.18873,718.3622 Z"
         style="fill:#ffcc00;fill-rule:evenodd;stroke:none;stroke-width:1px;stroke-linecap:butt;stroke-linejoin:miter;stroke-opacity:1" />
      <path
         sodipodi:nodetypes="csscssc"
         inkscape:connector-curvature="0"
         id="path4318"
         d="m 360.68564,530.70163 c 0,0 -33.70654,-42.33943 -71.30743,-38.33943 -37.6009,4 -116.32778,14 -128.07806,78 -11.75028,64 31.72575,141 31.72575,141 0,0 31.72576,-112 65.80158,-129 34.07581,-17 66.9766,-18 84.60202,-7 17.62542,11 17.25614,-44.66057 17.25614,-44.66057 z"
         style="fill:#ffffd8;fill-opacity:1;fill-rule:evenodd;stroke:none;stroke-width:1px;stroke-linecap:butt;stroke-linejoin:miter;stroke-opacity:1" />
      <path
         sodipodi:nodetypes="csscssc"
         inkscape:connector-curvature="0"
         id="path4318-6"
         d="m 395.32287,540.84457 c 0,0 29.61918,-42.33943 62.66048,-38.33943 33.0413,4 102.22152,14 112.54692,78 10.32541,64 -27.87859,141 -27.87859,141 0,0 -27.8786,-112 -57.82228,-129 -29.94368,-17 -58.85481,-18 -74.34292,-7 -15.48811,11 -15.16361,-44.66057 -15.16361,-44.66057 z"
         style="fill:#ffffd8;fill-opacity:1;fill-rule:evenodd;stroke:none;stroke-width:1.0161401px;stroke-linecap:butt;stroke-linejoin:miter;stroke-opacity:1" />
      <path
         sodipodi:nodetypes="cssc"
         inkscape:connector-curvature="0"
         id="path4339"
         d="m 318,726.3622 c -6,36 -40,110 -38,78 2,-32 16,-118 35,-126 19,-8 24.46122,37.50001 3,48 z"
         style="fill:#554400;fill-rule:evenodd;stroke:none;stroke-width:1px;stroke-linecap:butt;stroke-linejoin:miter;stroke-opacity:1" />
      <path
         inkscape:connector-curvature="0"
         id="path4341"
         d="m 255,885.3622 c 17,10 37,16 28,25 -9,9 -12,19 -30,14 -18,-5 2,-39 2,-39 z"
         style="fill:#554400;fill-rule:evenodd;stroke:none;stroke-width:1px;stroke-linecap:butt;stroke-linejoin:miter;stroke-opacity:1" />
      <path
         inkscape:connector-curvature="0"
         id="path4345"
         d="m 285,593.3622 c -25.01431,8.36671 -61,53 -67,70 -6,17 -6,24 -6,24 z"
         style="fill:#554400;fill-rule:evenodd;stroke:none;stroke-width:1px;stroke-linecap:butt;stroke-linejoin:miter;stroke-opacity:1" />
    </g>
  </g>
  <g
     inkscape:groupmode="layer"
     id="layer6"
     inkscape:label="Cenoura"
     style="display:none">
    <g
       id="g4463"
       transform="translate(0,-1.7835457)">
      <path
         sodipodi:nodetypes="csccscc"
         inkscape:connector-curvature="0"
         id="path4461"
         d="m 438,245.3622 c 0,0 -10.89231,-70.00692 -71.40513,-95.0094 C 306.08205,125.35033 202,155.3533 202,155.3533 l 19.3641,22.50222 c 0,0 92.86957,-32.96206 135.54872,-15.00148 65.35385,27.50272 60.51282,81.25804 60.51282,81.25804 z"
         style="fill:#aad400;fill-opacity:1;fill-rule:evenodd;stroke:none;stroke-width:1px;stroke-linecap:butt;stroke-linejoin:miter;stroke-opacity:1" />
      <path
         inkscape:connector-curvature="0"
         id="path4457"
         d="m 424.01527,217.3622 c -60.19321,4 -94.05188,-6 -109.10018,6 -15.04831,12 -21.31843,32 -3.76208,56 17.55635,24 -16.30233,35 -3.76208,71 12.54026,36 -5.0161,63.14019 -1.25402,112.5701 3.76207,49.4299 10.0322,104.4299 15.0483,146.4299 5.0161,42 -17.45909,56 0.67564,122.5 18.13474,66.5 45.72329,178.5 33.18304,187.5 -12.54025,9 -15.0483,29 -15.0483,29 0,0 60.1932,-11 65.2093,-23 5.0161,-12 25.08051,-24 21.31843,-40 -3.76207,-16 20.0644,-20 12.54025,-52 -7.52415,-32 26.33453,-50 17.55635,-80 -8.77817,-30 37.1911,-70.83598 21.31843,-87 -15.87267,-16.16401 11.28623,-65 5.0161,-87 -6.27012,-22 28.84258,-41 18.81038,-72 -10.0322,-31 25.0805,-47 10.0322,-94 -15.0483,-47 22.57245,-56 6.27012,-90 -16.30232,-34 43.89088,-86 7.52415,-99 -36.36672,-13 -101.57603,-7 -101.57603,-7 z"
         style="fill:#ff8e00;fill-opacity:1;fill-rule:evenodd;stroke:none;stroke-width:1px;stroke-linecap:butt;stroke-linejoin:miter;stroke-opacity:1" />
    </g>
  </g>
  <g
     inkscape:groupmode="layer"
     id="layer7"
     inkscape:label="Pimentão"
     style="display:none">
    <g
       id="g4490"
       transform="translate(0,49.521503)">
      <path
         inkscape:connector-curvature="0"
         id="path4488"
         d="m 456,298.3622 c 0,0 13,-68 5,-94 -8,-26 -46,-63 -83,-55 -37,8 -58,41.73722 -58,41.73722 l 39,30.26278 c 0,0 17,-21 29,-17 12,4 -31,95 -31,95 z"
         style="fill:#445500;fill-rule:evenodd;stroke:none;stroke-width:1px;stroke-linecap:butt;stroke-linejoin:miter;stroke-opacity:1" />
      <path
         sodipodi:nodetypes="cssssscsssssscsc"
         inkscape:connector-curvature="0"
         id="path4486"
         d="m 401.14344,280.37412 c -30,-6.68235 -54.67515,-22.5815 -84,-20.04705 -49.50764,4.27877 -38,26.7294 -54,23.86553 -16,-2.86386 -27.63598,-17.53051 -57,-12.41008 -25.51997,4.45013 -45,14.31933 -41,54.41343 2.18061,21.85739 18,441.03511 62,481.12921 44,40.0941 76,3.81849 76,3.81849 0,0 31.02193,28.06461 71,25.77478 50,-2.86387 64.54574,-11.8462 76,-20.04705 0,0 23,21.95629 51,21.00167 28,-0.95462 45,-5.72773 56,-43.91259 11,-38.18486 85,-469.67376 80,-496.40316 -5,-26.7294 -19,-39.13948 -40,-38.18485 -21,0.95462 -34,14.31932 -34,14.31932 0,0 -15,-24.82016 -65,-24.82016 -66,0 -42,31.50251 -97,31.50251 z"
         style="fill:#af2b2e;fill-opacity:1;fill-rule:evenodd;stroke:none;stroke-width:1px;stroke-linecap:butt;stroke-linejoin:miter;stroke-opacity:1" />
    </g>
  </g>
  <g
     style="display:inline"
     inkscape:label="Pimentão copiar"
     id="g4294"
     inkscape:groupmode="layer">
    <g
       transform="translate(0,49.521503)"
       id="g4296">
      <path
         style="fill:#445500;fill-rule:evenodd;stroke:none;stroke-width:1px;stroke-linecap:butt;stroke-linejoin:miter;stroke-opacity:1"
         d="m 441,267.3622 c 0,0 13,-68 5,-94 -8,-26 -46,-63 -83,-55 -37,8 -58,41.73722 -58,41.73722 l 39,30.26278 c 0,0 17,-21 29,-17 12,4 -31,95 -31,95 z"
         id="path4298"
         inkscape:connector-curvature="0" />
      <path
         style="fill:#af2b2e;fill-opacity:1;fill-rule:evenodd;stroke:none;stroke-width:1px;stroke-linecap:butt;stroke-linejoin:miter;stroke-opacity:1"
         d="m 409.17674,226.79194 c -37.12703,-8.0437 -67.66419,-27.18189 -103.95568,-24.13112 -61.26906,5.15046 -47.02757,32.17483 -66.82866,28.72752 -19.80108,-3.4473 -34.2014,-21.1019 -70.54136,-14.93831 -31.58268,5.35673 -55.69054,17.23652 -50.74027,65.49876 2.69865,26.31027 22.27622,530.88463 76.7292,579.14686 54.45297,48.26224 94.05514,4.59641 94.05514,4.59641 0,0 38.39173,33.78205 87.8673,31.02573 61.87838,-3.44731 79.87972,-14.25956 94.05515,-24.13112 0,0 28.46406,26.42932 63.11595,25.28022 34.65189,-1.1491 55.69054,-6.89461 69.30379,-52.85865 13.61325,-45.96404 105.19326,-565.35766 99.00541,-597.53249 -6.18784,-32.17482 -23.51379,-47.11314 -49.5027,-45.96402 -25.98892,1.14909 -42.07731,17.23651 -42.07731,17.23651 0,0 -18.56351,-29.87663 -80.4419,-29.87663 -81.67946,0 -51.97783,37.92033 -120.04406,37.92033 z"
         id="path4300"
         inkscape:connector-curvature="0"
         sodipodi:nodetypes="cssssscsssssscsc" />
    </g>
  </g>
  <g
     inkscape:label="Feliz Aberto"
     inkscape:groupmode="layer"
     id="layer1"
     style="display:none">
    <g
       id="g4211"
       transform="translate(162,44.307286)">
      <g
         id="g4284">
        <g
           style="stroke:#000000;stroke-width:0.625;stroke-miterlimit:4;stroke-dasharray:none;stroke-opacity:1"
           id="g4237">
          <circle
             r="118"
             cy="462.36221"
             cx="172"
             id="path3336"
             style="fill:#ffffff;fill-rule:evenodd;stroke:#000000;stroke-width:0.625;stroke-linecap:butt;stroke-linejoin:miter;stroke-miterlimit:4;stroke-dasharray:none;stroke-opacity:1" />
          <circle
             r="84.143463"
             cy="462.36221"
             cx="190"
             id="path3336-0"
             style="fill:#0082ff;fill-opacity:1;fill-rule:evenodd;stroke:#000000;stroke-width:0.625;stroke-linecap:butt;stroke-linejoin:miter;stroke-miterlimit:4;stroke-dasharray:none;stroke-opacity:1" />
          <circle
             r="54.270046"
             cy="462.36221"
             cx="190"
             id="path3336-0-9"
             style="fill:#000000;fill-rule:evenodd;stroke:#000000;stroke-width:0.625;stroke-linecap:butt;stroke-linejoin:miter;stroke-miterlimit:4;stroke-dasharray:none;stroke-opacity:1" />
          <ellipse
             ry="104.12041"
             rx="99.069641"
             cy="462.36221"
             cx="418"
             id="path3336-05"
             style="fill:#ffffff;fill-rule:evenodd;stroke:#000000;stroke-width:0.625;stroke-linecap:butt;stroke-linejoin:miter;stroke-miterlimit:4;stroke-dasharray:none;stroke-opacity:1" />
          <circle
             r="70.134872"
             cy="462.36221"
             cx="400.55405"
             id="path3336-0-7"
             style="fill:#0082ff;fill-opacity:1;fill-rule:evenodd;stroke:#000000;stroke-width:0.625;stroke-linecap:butt;stroke-linejoin:miter;stroke-miterlimit:4;stroke-dasharray:none;stroke-opacity:1" />
          <circle
             r="45.234921"
             cy="462.36221"
             cx="400.55405"
             id="path3336-0-9-0"
             style="fill:#000000;fill-rule:evenodd;stroke:#000000;stroke-width:0.625;stroke-linecap:butt;stroke-linejoin:miter;stroke-miterlimit:4;stroke-dasharray:none;stroke-opacity:1" />
          <path
             inkscape:connector-curvature="0"
             id="path4204"
             d="m 378,596.48914 c 0,0 -141,2.23797 -149,-1.11899 -8,-3.35695 -44,107.4226 38,108.54159 82,1.11898 103,-17.90377 103,-17.90377 0,0 -35,-45.34266 8,-89.51883 z"
             style="fill:#000000;fill-rule:evenodd;stroke:#000000;stroke-width:0.625;stroke-linecap:butt;stroke-linejoin:miter;stroke-miterlimit:4;stroke-dasharray:none;stroke-opacity:1" />
          <path
             style="fill:#800000;fill-rule:evenodd;stroke:#000000;stroke-width:0.625;stroke-linecap:butt;stroke-linejoin:miter;stroke-miterlimit:4;stroke-dasharray:none;stroke-opacity:1"
             d="m 199,292.88342 c -26,0 -107,12 -111,31 -4,19 85,4 117,-3 32,-7 27,-31 -6,-28 z"
             id="path4220"
             inkscape:connector-curvature="0" />
          <path
             style="display:inline;fill:#800000;fill-rule:evenodd;stroke:#000000;stroke-width:0.625;stroke-linecap:butt;stroke-linejoin:miter;stroke-miterlimit:4;stroke-dasharray:none;stroke-opacity:1"
             d="m 472.18933,305.67312 c -25.34927,-5.7805 -106.98994,-12.08933 -115.11404,5.54583 -8.1241,17.63516 81.98333,22.79769 114.73871,23.08735 32.7554,0.28966 33.21639,-24.2213 0.37533,-28.63318 z"
             id="path4220-7"
             inkscape:connector-curvature="0" />
          <path
             inkscape:connector-curvature="0"
             id="path4250"
             d="m 232,686.8726 c 17,10 50,13 83,9 33,-4 18,-22 -6,-24 -24,-2 -87,-13 -77,15 z"
             style="fill:#d70000;fill-opacity:1;fill-rule:evenodd;stroke:#000000;stroke-width:0.625;stroke-linecap:butt;stroke-linejoin:miter;stroke-miterlimit:4;stroke-dasharray:none;stroke-opacity:1" />
        </g>
        <ellipse
           transform="matrix(0.83715345,0.54696809,-0.54696809,0.83715345,0,0)"
           ry="4.5"
           rx="15"
           cy="142.83507"
           cx="583.74042"
           id="path4252-6"
           style="display:inline;fill:#ffffff;fill-opacity:1;stroke:none;stroke-width:1.25;stroke-miterlimit:4;stroke-dasharray:none;stroke-opacity:1" />
        <ellipse
           transform="matrix(0.83715345,0.54696809,-0.54696809,0.83715345,0,0)"
           ry="4.5"
           rx="15"
           cy="245.6198"
           cx="417.30243"
           id="path4252-6-2"
           style="display:inline;fill:#ffffff;fill-opacity:1;stroke:none;stroke-width:1.25;stroke-miterlimit:4;stroke-dasharray:none;stroke-opacity:1" />
      </g>
    </g>
  </g>
  <g
     style="display:none"
     id="g4494"
     inkscape:groupmode="layer"
     inkscape:label="Feliz Fechado">
    <g
       transform="translate(162,44.307286)"
       id="g4496">
      <g
         id="g4498">
        <circle
           r="118"
           cy="462.36221"
           cx="172"
           id="circle4502"
           style="fill:#ffffff;fill-rule:evenodd;stroke:#000000;stroke-width:0.625;stroke-linecap:butt;stroke-linejoin:miter;stroke-miterlimit:4;stroke-dasharray:none;stroke-opacity:1" />
        <circle
           r="84.143463"
           cy="462.36221"
           cx="190"
           id="circle4504"
           style="fill:#0082ff;fill-opacity:1;fill-rule:evenodd;stroke:#000000;stroke-width:0.625;stroke-linecap:butt;stroke-linejoin:miter;stroke-miterlimit:4;stroke-dasharray:none;stroke-opacity:1" />
        <circle
           r="54.270046"
           cy="462.36221"
           cx="190"
           id="circle4506"
           style="fill:#000000;fill-rule:evenodd;stroke:#000000;stroke-width:0.625;stroke-linecap:butt;stroke-linejoin:miter;stroke-miterlimit:4;stroke-dasharray:none;stroke-opacity:1" />
        <ellipse
           ry="104.12041"
           rx="99.069641"
           cy="462.36221"
           cx="418"
           id="ellipse4508"
           style="fill:#ffffff;fill-rule:evenodd;stroke:#000000;stroke-width:0.625;stroke-linecap:butt;stroke-linejoin:miter;stroke-miterlimit:4;stroke-dasharray:none;stroke-opacity:1" />
        <circle
           r="70.134872"
           cy="462.36221"
           cx="400.55405"
           id="circle4510"
           style="fill:#0082ff;fill-opacity:1;fill-rule:evenodd;stroke:#000000;stroke-width:0.625;stroke-linecap:butt;stroke-linejoin:miter;stroke-miterlimit:4;stroke-dasharray:none;stroke-opacity:1" />
        <circle
           r="45.234921"
           cy="462.36221"
           cx="400.55405"
           id="circle4512"
           style="fill:#000000;fill-rule:evenodd;stroke:#000000;stroke-width:0.625;stroke-linecap:butt;stroke-linejoin:miter;stroke-miterlimit:4;stroke-dasharray:none;stroke-opacity:1" />
        <path
           style="fill:#800000;fill-rule:evenodd;stroke:#000000;stroke-width:0.625;stroke-linecap:butt;stroke-linejoin:miter;stroke-miterlimit:4;stroke-dasharray:none;stroke-opacity:1"
           d="m 199,292.88342 c -26,0 -107,12 -111,31 -4,19 85,4 117,-3 32,-7 27,-31 -6,-28 z"
           id="path4516"
           inkscape:connector-curvature="0" />
        <path
           style="display:inline;fill:#800000;fill-rule:evenodd;stroke:#000000;stroke-width:0.625;stroke-linecap:butt;stroke-linejoin:miter;stroke-miterlimit:4;stroke-dasharray:none;stroke-opacity:1"
           d="m 472.18933,305.67312 c -25.34927,-5.7805 -106.98994,-12.08933 -115.11404,5.54583 -8.1241,17.63516 81.98333,22.79769 114.73871,23.08735 32.7554,0.28966 33.21639,-24.2213 0.37533,-28.63318 z"
           id="path4518"
           inkscape:connector-curvature="0" />
        <ellipse
           style="display:inline;fill:#ffffff;fill-opacity:1;stroke:none;stroke-width:1.25;stroke-miterlimit:4;stroke-dasharray:none;stroke-opacity:1"
           id="ellipse4522"
           cx="583.74042"
           cy="142.83507"
           rx="15"
           ry="4.5"
           transform="matrix(0.83715345,0.54696809,-0.54696809,0.83715345,0,0)" />
        <ellipse
           style="display:inline;fill:#ffffff;fill-opacity:1;stroke:none;stroke-width:1.25;stroke-miterlimit:4;stroke-dasharray:none;stroke-opacity:1"
           id="ellipse4524"
           cx="417.30243"
           cy="245.6198"
           rx="15"
           ry="4.5"
           transform="matrix(0.83715345,0.54696809,-0.54696809,0.83715345,0,0)" />
        <path
           style="fill:none;fill-rule:evenodd;stroke:#000000;stroke-width:9.5;stroke-linecap:butt;stroke-linejoin:miter;stroke-miterlimit:4;stroke-dasharray:none;stroke-opacity:1"
           d="m 383,632.05491 c 0,0 -142,32 -183,-2"
           id="path4600"
           inkscape:connector-curvature="0" />
      </g>
    </g>
  </g>
  <g
     inkscape:label="Feliz o"
     inkscape:groupmode="layer"
     id="g4526"
     style="display:none">
    <path
       style="fill:#000000;fill-rule:evenodd;stroke:#000000;stroke-width:0.76180983px;stroke-linecap:butt;stroke-linejoin:miter;stroke-opacity:1"
       d="m 487.91862,712.93049 c 6.30252,-11.78661 16.48319,-26.94326 0.7269,-34.30989 -15.7563,-7.36663 -59.08611,-9.57663 -70.1155,1.47333 -11.02941,11.04995 -22.84664,48.61978 0,56.72308 22.84662,8.10329 49.63231,11.04995 55.14702,-1.47332 5.51469,-12.52328 14.24158,-22.4132 14.24158,-22.4132 z"
       id="path4641"
       inkscape:connector-curvature="0"
       sodipodi:nodetypes="cssssc" />
    <circle
       style="fill:#ffffff;fill-rule:evenodd;stroke:#000000;stroke-width:0.625;stroke-linecap:butt;stroke-linejoin:miter;stroke-miterlimit:4;stroke-dasharray:none;stroke-opacity:1"
       id="circle4534"
       cx="334"
       cy="506.66949"
       r="118" />
    <circle
       style="fill:#0082ff;fill-opacity:1;fill-rule:evenodd;stroke:#000000;stroke-width:0.625;stroke-linecap:butt;stroke-linejoin:miter;stroke-miterlimit:4;stroke-dasharray:none;stroke-opacity:1"
       id="circle4536"
       cx="352"
       cy="506.66949"
       r="84.143463" />
    <circle
       style="fill:#000000;fill-rule:evenodd;stroke:#000000;stroke-width:0.625;stroke-linecap:butt;stroke-linejoin:miter;stroke-miterlimit:4;stroke-dasharray:none;stroke-opacity:1"
       id="circle4538"
       cx="352"
       cy="506.66949"
       r="54.270046" />
    <ellipse
       style="fill:#ffffff;fill-rule:evenodd;stroke:#000000;stroke-width:0.625;stroke-linecap:butt;stroke-linejoin:miter;stroke-miterlimit:4;stroke-dasharray:none;stroke-opacity:1"
       id="ellipse4540"
       cx="580"
       cy="506.66949"
       rx="99.069641"
       ry="104.12041" />
    <circle
       style="fill:#0082ff;fill-opacity:1;fill-rule:evenodd;stroke:#000000;stroke-width:0.625;stroke-linecap:butt;stroke-linejoin:miter;stroke-miterlimit:4;stroke-dasharray:none;stroke-opacity:1"
       id="circle4542"
       cx="562.55408"
       cy="506.66949"
       r="70.134872" />
    <circle
       style="fill:#000000;fill-rule:evenodd;stroke:#000000;stroke-width:0.625;stroke-linecap:butt;stroke-linejoin:miter;stroke-miterlimit:4;stroke-dasharray:none;stroke-opacity:1"
       id="circle4544"
       cx="562.55408"
       cy="506.66949"
       r="45.234921" />
    <path
       inkscape:connector-curvature="0"
       id="path4548"
       d="m 361,337.19071 c -26,0 -107,12 -111,31 -4,19 85,4 117,-3 32,-7 27,-31 -6,-28 z"
       style="fill:#800000;fill-rule:evenodd;stroke:#000000;stroke-width:0.625;stroke-linecap:butt;stroke-linejoin:miter;stroke-miterlimit:4;stroke-dasharray:none;stroke-opacity:1" />
    <path
       inkscape:connector-curvature="0"
       id="path4550"
       d="m 634.18933,349.98041 c -25.34927,-5.7805 -106.98994,-12.08933 -115.11404,5.54583 -8.1241,17.63516 81.98333,22.79769 114.73871,23.08735 32.7554,0.28966 33.21639,-24.2213 0.37533,-28.63318 z"
       style="display:inline;fill:#800000;fill-rule:evenodd;stroke:#000000;stroke-width:0.625;stroke-linecap:butt;stroke-linejoin:miter;stroke-miterlimit:4;stroke-dasharray:none;stroke-opacity:1" />
    <ellipse
       transform="matrix(0.83715345,0.54696809,-0.54696809,0.83715345,0,0)"
       ry="4.5"
       rx="15"
       cy="91.318237"
       cx="743.59393"
       id="ellipse4554"
       style="display:inline;fill:#ffffff;fill-opacity:1;stroke:none;stroke-width:1.25;stroke-miterlimit:4;stroke-dasharray:none;stroke-opacity:1" />
    <ellipse
       transform="matrix(0.83715345,0.54696809,-0.54696809,0.83715345,0,0)"
       ry="4.5"
       rx="15"
       cy="194.10297"
       cx="577.15594"
       id="ellipse4556"
       style="display:inline;fill:#ffffff;fill-opacity:1;stroke:none;stroke-width:1.25;stroke-miterlimit:4;stroke-dasharray:none;stroke-opacity:1" />
    <path
       style="fill:#d70000;fill-opacity:1;fill-rule:evenodd;stroke:#000000;stroke-width:0.3506681;stroke-linecap:butt;stroke-linejoin:miter;stroke-miterlimit:4;stroke-dasharray:none;stroke-opacity:1"
       d="m 415.4207,725.18559 c 8.48899,6.30413 24.96763,8.19537 41.44625,5.67372 16.47864,-2.52165 8.98834,-13.86909 -2.99611,-15.12992 -11.98446,-1.26083 -43.44366,-8.19537 -38.45014,9.4562 z"
       id="path4552"
       inkscape:connector-curvature="0" />
  </g>
  <g
     style="display:none"
     id="g4643"
     inkscape:groupmode="layer"
     inkscape:label="Sério Aberto">
    <circle
       r="118"
       cy="506.66949"
       cx="334"
       id="circle4651"
       style="fill:#ffffff;fill-rule:evenodd;stroke:#000000;stroke-width:0.625;stroke-linecap:butt;stroke-linejoin:miter;stroke-miterlimit:4;stroke-dasharray:none;stroke-opacity:1" />
    <circle
       r="84.143463"
       cy="506.66949"
       cx="352"
       id="circle4653"
       style="fill:#0082ff;fill-opacity:1;fill-rule:evenodd;stroke:#000000;stroke-width:0.625;stroke-linecap:butt;stroke-linejoin:miter;stroke-miterlimit:4;stroke-dasharray:none;stroke-opacity:1" />
    <circle
       r="54.270046"
       cy="506.66949"
       cx="352"
       id="circle4655"
       style="fill:#000000;fill-rule:evenodd;stroke:#000000;stroke-width:0.625;stroke-linecap:butt;stroke-linejoin:miter;stroke-miterlimit:4;stroke-dasharray:none;stroke-opacity:1" />
    <ellipse
       ry="104.12041"
       rx="99.069641"
       cy="506.66949"
       cx="580"
       id="ellipse4657"
       style="fill:#ffffff;fill-rule:evenodd;stroke:#000000;stroke-width:0.625;stroke-linecap:butt;stroke-linejoin:miter;stroke-miterlimit:4;stroke-dasharray:none;stroke-opacity:1" />
    <circle
       r="70.134872"
       cy="506.66949"
       cx="562.55408"
       id="circle4659"
       style="fill:#0082ff;fill-opacity:1;fill-rule:evenodd;stroke:#000000;stroke-width:0.625;stroke-linecap:butt;stroke-linejoin:miter;stroke-miterlimit:4;stroke-dasharray:none;stroke-opacity:1" />
    <circle
       r="45.234921"
       cy="506.66949"
       cx="562.55408"
       id="circle4661"
       style="fill:#000000;fill-rule:evenodd;stroke:#000000;stroke-width:0.625;stroke-linecap:butt;stroke-linejoin:miter;stroke-miterlimit:4;stroke-dasharray:none;stroke-opacity:1" />
    <path
       style="fill:#800000;fill-rule:evenodd;stroke:#000000;stroke-width:0.625;stroke-linecap:butt;stroke-linejoin:miter;stroke-miterlimit:4;stroke-dasharray:none;stroke-opacity:1"
       d="m 381.99491,352.1063 c -24.89302,-7.50586 -105.90857,-19.40039 -115.22331,-2.36409 -9.31474,17.0363 80.22626,28.36806 112.88462,30.90407 32.65836,2.53601 34.79973,-21.88559 2.33869,-28.53998 z"
       id="path4665"
       inkscape:connector-curvature="0" />
    <path
       style="display:inline;fill:#800000;fill-rule:evenodd;stroke:#000000;stroke-width:0.625;stroke-linecap:butt;stroke-linejoin:miter;stroke-miterlimit:4;stroke-dasharray:none;stroke-opacity:1"
       d="m 621.47298,342.10068 c -25.9718,-1.21059 -107.44268,7.00493 -112.32301,25.79808 -4.88032,18.79315 84.72158,7.95336 117.01278,2.45091 32.29123,-5.50245 28.41412,-29.70922 -4.68977,-28.24899 z"
       id="path4667"
       inkscape:connector-curvature="0" />
    <path
       style="fill:#000000;fill-rule:evenodd;stroke:#000000;stroke-width:1.06453586px;stroke-linecap:butt;stroke-linejoin:miter;stroke-opacity:1"
       d="m 525.73197,665.66021 c 0,0 -31.21375,-15.56729 -76.10398,-19.22173 -44.89023,-3.65444 -69.61591,7.93954 -71.54976,22.55021 -1.93385,14.61067 0.73687,62.99482 23.77587,71.76216 23.039,8.76734 116.43769,3.97566 125.25783,-1.71844 8.82014,-5.6941 -27.64587,-19.66939 -1.37996,-73.3722 z"
       id="path4712"
       inkscape:connector-curvature="0" />
    <path
       inkscape:connector-curvature="0"
       id="path4669"
       d="m 394,731.17989 c 17,10 50,13 83,9 33,-4 18,-22 -6,-24 -24,-2 -87,-13 -77,15 z"
       style="fill:#d70000;fill-opacity:1;fill-rule:evenodd;stroke:#000000;stroke-width:0.625;stroke-linecap:butt;stroke-linejoin:miter;stroke-miterlimit:4;stroke-dasharray:none;stroke-opacity:1" />
    <ellipse
       style="display:inline;fill:#ffffff;fill-opacity:1;stroke:none;stroke-width:1.25;stroke-miterlimit:4;stroke-dasharray:none;stroke-opacity:1"
       id="ellipse4671"
       cx="743.59393"
       cy="91.318237"
       rx="15"
       ry="4.5"
       transform="matrix(0.83715345,0.54696809,-0.54696809,0.83715345,0,0)" />
    <ellipse
       style="display:inline;fill:#ffffff;fill-opacity:1;stroke:none;stroke-width:1.25;stroke-miterlimit:4;stroke-dasharray:none;stroke-opacity:1"
       id="ellipse4673"
       cx="577.15594"
       cy="194.10297"
       rx="15"
       ry="4.5"
       transform="matrix(0.83715345,0.54696809,-0.54696809,0.83715345,0,0)" />
  </g>
  <g
     inkscape:label="Sério Fechado"
     inkscape:groupmode="layer"
     id="g4724"
     style="display:none">
    <circle
       style="fill:#ffffff;fill-rule:evenodd;stroke:#000000;stroke-width:0.625;stroke-linecap:butt;stroke-linejoin:miter;stroke-miterlimit:4;stroke-dasharray:none;stroke-opacity:1"
       id="circle4730"
       cx="334"
       cy="506.66949"
       r="118" />
    <circle
       style="fill:#0082ff;fill-opacity:1;fill-rule:evenodd;stroke:#000000;stroke-width:0.625;stroke-linecap:butt;stroke-linejoin:miter;stroke-miterlimit:4;stroke-dasharray:none;stroke-opacity:1"
       id="circle4732"
       cx="352"
       cy="506.66949"
       r="84.143463" />
    <circle
       style="fill:#000000;fill-rule:evenodd;stroke:#000000;stroke-width:0.625;stroke-linecap:butt;stroke-linejoin:miter;stroke-miterlimit:4;stroke-dasharray:none;stroke-opacity:1"
       id="circle4734"
       cx="352"
       cy="506.66949"
       r="54.270046" />
    <ellipse
       style="fill:#ffffff;fill-rule:evenodd;stroke:#000000;stroke-width:0.625;stroke-linecap:butt;stroke-linejoin:miter;stroke-miterlimit:4;stroke-dasharray:none;stroke-opacity:1"
       id="ellipse4736"
       cx="580"
       cy="506.66949"
       rx="99.069641"
       ry="104.12041" />
    <circle
       style="fill:#0082ff;fill-opacity:1;fill-rule:evenodd;stroke:#000000;stroke-width:0.625;stroke-linecap:butt;stroke-linejoin:miter;stroke-miterlimit:4;stroke-dasharray:none;stroke-opacity:1"
       id="circle4738"
       cx="562.55408"
       cy="506.66949"
       r="70.134872" />
    <circle
       style="fill:#000000;fill-rule:evenodd;stroke:#000000;stroke-width:0.625;stroke-linecap:butt;stroke-linejoin:miter;stroke-miterlimit:4;stroke-dasharray:none;stroke-opacity:1"
       id="circle4740"
       cx="562.55408"
       cy="506.66949"
       r="45.234921" />
    <ellipse
       transform="matrix(0.83715345,0.54696809,-0.54696809,0.83715345,0,0)"
       ry="4.5"
       rx="15"
       cy="91.318237"
       cx="743.59393"
       id="ellipse4746"
       style="display:inline;fill:#ffffff;fill-opacity:1;stroke:none;stroke-width:1.25;stroke-miterlimit:4;stroke-dasharray:none;stroke-opacity:1" />
    <ellipse
       transform="matrix(0.83715345,0.54696809,-0.54696809,0.83715345,0,0)"
       ry="4.5"
       rx="15"
       cy="194.10297"
       cx="577.15594"
       id="ellipse4748"
       style="display:inline;fill:#ffffff;fill-opacity:1;stroke:none;stroke-width:1.25;stroke-miterlimit:4;stroke-dasharray:none;stroke-opacity:1" />
    <path
       inkscape:connector-curvature="0"
       id="path4750"
       d="m 545,676.3622 c 0,0 -136,-2 -183,-2"
       style="fill:none;fill-rule:evenodd;stroke:#000000;stroke-width:9.5;stroke-linecap:butt;stroke-linejoin:miter;stroke-miterlimit:4;stroke-dasharray:none;stroke-opacity:1"
       sodipodi:nodetypes="cc" />
    <path
       style="display:inline;fill:#800000;fill-rule:evenodd;stroke:#000000;stroke-width:0.625;stroke-linecap:butt;stroke-linejoin:miter;stroke-miterlimit:4;stroke-dasharray:none;stroke-opacity:1"
       d="m 381.99491,352.1063 c -24.89302,-7.50586 -105.90857,-19.40039 -115.22331,-2.36409 -9.31474,17.0363 80.22626,28.36806 112.88462,30.90407 32.65836,2.53601 34.79973,-21.88559 2.33869,-28.53998 z"
       id="path4665-7"
       inkscape:connector-curvature="0" />
    <path
       style="display:inline;fill:#800000;fill-rule:evenodd;stroke:#000000;stroke-width:0.625;stroke-linecap:butt;stroke-linejoin:miter;stroke-miterlimit:4;stroke-dasharray:none;stroke-opacity:1"
       d="m 621.47298,342.10068 c -25.9718,-1.21059 -107.44268,7.00493 -112.32301,25.79808 -4.88032,18.79315 84.72158,7.95336 117.01278,2.45091 32.29123,-5.50245 28.41412,-29.70922 -4.68977,-28.24899 z"
       id="path4667-3"
       inkscape:connector-curvature="0" />
  </g>
  <g
     style="display:none"
     id="g4783"
     inkscape:groupmode="layer"
     inkscape:label="Sério o">
    <path
       sodipodi:nodetypes="cssssc"
       inkscape:connector-curvature="0"
       id="path4785"
       d="m 487.91862,712.93049 c 6.30252,-11.78661 16.48319,-26.94326 0.7269,-34.30989 -15.7563,-7.36663 -59.08611,-9.57663 -70.1155,1.47333 -11.02941,11.04995 -22.84664,48.61978 0,56.72308 22.84662,8.10329 49.63231,11.04995 55.14702,-1.47332 5.51469,-12.52328 14.24158,-22.4132 14.24158,-22.4132 z"
       style="fill:#000000;fill-rule:evenodd;stroke:#000000;stroke-width:0.76180983px;stroke-linecap:butt;stroke-linejoin:miter;stroke-opacity:1" />
    <circle
       r="118"
       cy="506.66949"
       cx="334"
       id="circle4787"
       style="fill:#ffffff;fill-rule:evenodd;stroke:#000000;stroke-width:0.625;stroke-linecap:butt;stroke-linejoin:miter;stroke-miterlimit:4;stroke-dasharray:none;stroke-opacity:1" />
    <circle
       r="84.143463"
       cy="506.66949"
       cx="352"
       id="circle4789"
       style="fill:#0082ff;fill-opacity:1;fill-rule:evenodd;stroke:#000000;stroke-width:0.625;stroke-linecap:butt;stroke-linejoin:miter;stroke-miterlimit:4;stroke-dasharray:none;stroke-opacity:1" />
    <circle
       r="54.270046"
       cy="506.66949"
       cx="352"
       id="circle4791"
       style="fill:#000000;fill-rule:evenodd;stroke:#000000;stroke-width:0.625;stroke-linecap:butt;stroke-linejoin:miter;stroke-miterlimit:4;stroke-dasharray:none;stroke-opacity:1" />
    <ellipse
       ry="104.12041"
       rx="99.069641"
       cy="506.66949"
       cx="580"
       id="ellipse4793"
       style="fill:#ffffff;fill-rule:evenodd;stroke:#000000;stroke-width:0.625;stroke-linecap:butt;stroke-linejoin:miter;stroke-miterlimit:4;stroke-dasharray:none;stroke-opacity:1" />
    <circle
       r="70.134872"
       cy="506.66949"
       cx="562.55408"
       id="circle4795"
       style="fill:#0082ff;fill-opacity:1;fill-rule:evenodd;stroke:#000000;stroke-width:0.625;stroke-linecap:butt;stroke-linejoin:miter;stroke-miterlimit:4;stroke-dasharray:none;stroke-opacity:1" />
    <circle
       r="45.234921"
       cy="506.66949"
       cx="562.55408"
       id="circle4797"
       style="fill:#000000;fill-rule:evenodd;stroke:#000000;stroke-width:0.625;stroke-linecap:butt;stroke-linejoin:miter;stroke-miterlimit:4;stroke-dasharray:none;stroke-opacity:1" />
    <ellipse
       style="display:inline;fill:#ffffff;fill-opacity:1;stroke:none;stroke-width:1.25;stroke-miterlimit:4;stroke-dasharray:none;stroke-opacity:1"
       id="ellipse4803"
       cx="743.59393"
       cy="91.318237"
       rx="15"
       ry="4.5"
       transform="matrix(0.83715345,0.54696809,-0.54696809,0.83715345,0,0)" />
    <ellipse
       style="display:inline;fill:#ffffff;fill-opacity:1;stroke:none;stroke-width:1.25;stroke-miterlimit:4;stroke-dasharray:none;stroke-opacity:1"
       id="ellipse4805"
       cx="577.15594"
       cy="194.10297"
       rx="15"
       ry="4.5"
       transform="matrix(0.83715345,0.54696809,-0.54696809,0.83715345,0,0)" />
    <path
       inkscape:connector-curvature="0"
       id="path4807"
       d="m 415.4207,725.18559 c 8.48899,6.30413 24.96763,8.19537 41.44625,5.67372 16.47864,-2.52165 8.98834,-13.86909 -2.99611,-15.12992 -11.98446,-1.26083 -43.44366,-8.19537 -38.45014,9.4562 z"
       style="fill:#d70000;fill-opacity:1;fill-rule:evenodd;stroke:#000000;stroke-width:0.3506681;stroke-linecap:butt;stroke-linejoin:miter;stroke-miterlimit:4;stroke-dasharray:none;stroke-opacity:1" />
    <path
       style="display:inline;fill:#800000;fill-rule:evenodd;stroke:#000000;stroke-width:0.625;stroke-linecap:butt;stroke-linejoin:miter;stroke-miterlimit:4;stroke-dasharray:none;stroke-opacity:1"
       d="m 381.99491,352.1063 c -24.89302,-7.50586 -105.90857,-19.40039 -115.22331,-2.36409 -9.31474,17.0363 80.22626,28.36806 112.88462,30.90407 32.65836,2.53601 34.79973,-21.88559 2.33869,-28.53998 z"
       id="path4665-2"
       inkscape:connector-curvature="0" />
    <path
       style="display:inline;fill:#800000;fill-rule:evenodd;stroke:#000000;stroke-width:0.625;stroke-linecap:butt;stroke-linejoin:miter;stroke-miterlimit:4;stroke-dasharray:none;stroke-opacity:1"
       d="m 621.47298,342.10068 c -25.9718,-1.21059 -107.44268,7.00493 -112.32301,25.79808 -4.88032,18.79315 84.72158,7.95336 117.01278,2.45091 32.29123,-5.50245 28.41412,-29.70922 -4.68977,-28.24899 z"
       id="path4667-1"
       inkscape:connector-curvature="0" />
  </g>
  <g
     inkscape:label="Convencional"
     inkscape:groupmode="layer"
     id="g4246"
     style="display:inline">
    <circle
       style="fill:url(#radialGradient4385);fill-rule:evenodd;stroke:none;stroke-width:0.625;stroke-linecap:butt;stroke-linejoin:miter;stroke-miterlimit:4;stroke-dasharray:none;stroke-opacity:1;fill-opacity:1"
       id="circle4248"
       cx="334"
       cy="506.66949"
       r="118" />
    <circle
       style="fill:#0082ff;fill-opacity:1;fill-rule:evenodd;stroke:none;stroke-width:0.625;stroke-linecap:butt;stroke-linejoin:miter;stroke-miterlimit:4;stroke-dasharray:none;stroke-opacity:1"
       id="circle4250"
       cx="352"
       cy="506.66949"
       r="84.143463" />
    <circle
       style="fill:#000000;fill-rule:evenodd;stroke:none;stroke-width:0.625;stroke-linecap:butt;stroke-linejoin:miter;stroke-miterlimit:4;stroke-dasharray:none;stroke-opacity:1"
       id="circle4252"
       cx="352"
       cy="506.66949"
       r="54.270046" />
    <ellipse
       style="fill:#ffffff;fill-rule:evenodd;stroke:none;stroke-width:0.625;stroke-linecap:butt;stroke-linejoin:miter;stroke-miterlimit:4;stroke-dasharray:none;stroke-opacity:1"
       id="ellipse4254"
       cx="580"
       cy="506.66949"
       rx="99.069641"
       ry="104.12041" />
    <circle
       style="fill:#0082ff;fill-opacity:1;fill-rule:evenodd;stroke:none;stroke-width:0.625;stroke-linecap:butt;stroke-linejoin:miter;stroke-miterlimit:4;stroke-dasharray:none;stroke-opacity:1"
       id="circle4256"
       cx="562.55408"
       cy="506.66949"
       r="70.134872" />
    <circle
       style="fill:#000000;fill-rule:evenodd;stroke:none;stroke-width:0.625;stroke-linecap:butt;stroke-linejoin:miter;stroke-miterlimit:4;stroke-dasharray:none;stroke-opacity:1"
       id="circle4258"
       cx="562.55408"
       cy="506.66949"
       r="45.234921" />
    <path
       inkscape:connector-curvature="0"
       id="path4260"
       d="m 426.98732,385.41307 c -25.08863,-17.61551 -111.21224,-63.23711 -127.67995,-51.28959 -16.46772,11.94753 79.36618,60.67493 114.88951,76.95537 35.52332,16.28044 46.62441,-5.62201 12.79044,-25.66578 z"
       style="fill:#800000;fill-rule:evenodd;stroke:none;stroke-width:0.625;stroke-linecap:butt;stroke-linejoin:miter;stroke-miterlimit:4;stroke-dasharray:none;stroke-opacity:1" />
    <path
       inkscape:connector-curvature="0"
       id="path4262"
       d="m 588.38052,346.98001 c -27.63981,8.69835 -110.2613,47.28247 -108.99225,66.80597 1.26906,19.52349 91.52333,-24.60842 123.50736,-42.01391 31.98407,-17.4055 19.6944,-38.70362 -14.51511,-24.79206 z"
       style="display:inline;fill:#800000;fill-rule:evenodd;stroke:none;stroke-width:0.625;stroke-linecap:butt;stroke-linejoin:miter;stroke-miterlimit:4;stroke-dasharray:none;stroke-opacity:1" />
    <ellipse
       transform="matrix(0.83715345,0.54696809,-0.54696809,0.83715345,0,0)"
       ry="4.5"
       rx="15"
       cy="91.318237"
       cx="743.59393"
       id="ellipse4268"
       style="display:inline;fill:#ffffff;fill-opacity:1;stroke:none;stroke-width:1.25;stroke-miterlimit:4;stroke-dasharray:none;stroke-opacity:1" />
    <ellipse
       transform="matrix(0.83715345,0.54696809,-0.54696809,0.83715345,0,0)"
       ry="4.5"
       rx="15"
       cy="194.10297"
       cx="577.15594"
       id="ellipse4270"
       style="display:inline;fill:#ffffff;fill-opacity:1;stroke:none;stroke-width:1.25;stroke-miterlimit:4;stroke-dasharray:none;stroke-opacity:1" />
    <path
       style="fill:#ffffff;fill-rule:evenodd;stroke:#000000;stroke-width:4.54400015;stroke-linecap:butt;stroke-linejoin:miter;stroke-miterlimit:4;stroke-dasharray:none;stroke-opacity:1"
       d="m 556.97584,629.93052 c 0,0 -9.99776,16.35872 -71.98382,16.35872 -61.98606,0 -122.97077,-7.9022 -122.97077,-7.9022 0,0 -33.99393,16.62685 -23.99618,58.06892 9.99775,41.44208 8.98741,69.88777 128.971,70.88777 72.98106,0.60826 95.97842,-32.71743 95.97842,-32.71743 0,0 -14.99393,-19.35871 -12.99438,-42.26092 1.99955,-22.9022 6.99573,-62.43486 6.99573,-62.43486 z"
       id="path4274"
       inkscape:connector-curvature="0"
       sodipodi:nodetypes="cscsscsc" />
    <path
       style="fill:none;fill-rule:evenodd;stroke:#000000;stroke-width:4.2;stroke-linecap:butt;stroke-linejoin:miter;stroke-opacity:1;stroke-miterlimit:4;stroke-dasharray:none"
       d="m 549,695.3622 c 0,0 -27,17 -64,16 -37,-1 -117,-6 -151,-31"
       id="path4276"
       inkscape:connector-curvature="0" />
    <path
       style="fill:none;fill-rule:evenodd;stroke:#000000;stroke-width:1px;stroke-linecap:butt;stroke-linejoin:miter;stroke-opacity:1"
       d="m 426,707.3622 1,-36"
       id="path4278"
       inkscape:connector-curvature="0" />
    <path
       style="fill:none;fill-rule:evenodd;stroke:#000000;stroke-width:1px;stroke-linecap:butt;stroke-linejoin:miter;stroke-opacity:1"
       d="m 499,712.3622 3,29"
       id="path4280"
       inkscape:connector-curvature="0" />
    <path
       style="fill:none;fill-rule:evenodd;stroke:#000000;stroke-width:1px;stroke-linecap:butt;stroke-linejoin:miter;stroke-opacity:1"
       d="m 533,704.3622 2,-32"
       id="path4282"
       inkscape:connector-curvature="0" />
    <path
       style="fill:none;fill-rule:evenodd;stroke:#000000;stroke-width:1px;stroke-linecap:butt;stroke-linejoin:miter;stroke-opacity:1"
       d="m 498,711.3622 -1,-32"
       id="path4284"
       inkscape:connector-curvature="0" />
    <path
       style="fill:none;fill-rule:evenodd;stroke:#000000;stroke-width:1px;stroke-linecap:butt;stroke-linejoin:miter;stroke-opacity:1"
       d="m 172,507.3622 c 0,0 53,105 54,126 1,21 -9,74 -9,74"
       id="path4302"
       inkscape:connector-curvature="0" />
    <path
       style="fill:none;fill-rule:evenodd;stroke:#000000;stroke-width:1px;stroke-linecap:butt;stroke-linejoin:miter;stroke-opacity:1"
       d="m 291,749.3622 -4,166"
       id="path4304"
       inkscape:connector-curvature="0" />
    <path
       style="fill:none;fill-rule:evenodd;stroke:#000000;stroke-width:0.56575108px;stroke-linecap:butt;stroke-linejoin:miter;stroke-opacity:1"
       d="m 470.2485,922.36695 -0.497,-85.0095"
       id="path4307"
       inkscape:connector-curvature="0" />
  </g>
</svg>
