<?xml version="1.0" encoding="UTF-8" standalone="no"?>
<!-- Created with Inkscape (http://www.inkscape.org/) -->

<svg
   xmlns:dc="http://purl.org/dc/elements/1.1/"
   xmlns:cc="http://creativecommons.org/ns#"
   xmlns:rdf="http://www.w3.org/1999/02/22-rdf-syntax-ns#"
   xmlns:svg="http://www.w3.org/2000/svg"
   xmlns="http://www.w3.org/2000/svg"
   xmlns:sodipodi="http://sodipodi.sourceforge.net/DTD/sodipodi-0.dtd"
   xmlns:inkscape="http://www.inkscape.org/namespaces/inkscape"
   width="163.86696mm"
   height="210.43922mm"
   viewBox="0 0 580.63096 745.65079"
   id="svg2"
   version="1.1"
   inkscape:version="0.91 r13725"
   inkscape:export-filename="/home/lucas/Codes/organica/scroll/img/rosto_sério_aberto.png"
   inkscape:export-xdpi="90"
   inkscape:export-ydpi="90"
   sodipodi:docname="pimentao_convencional.svg">
  <defs
     id="defs4">
    <inkscape:path-effect
       effect="skeletal"
       id="path-effect4436"
       is_visible="true"
       pattern="M 0,0 1,0"
       copytype="repeated"
       prop_scale="1"
       scale_y_rel="false"
       spacing="0"
       normal_offset="0"
       tang_offset="0"
       prop_units="false"
       vertical_pattern="false"
       fuse_tolerance="0" />
    <inkscape:path-effect
       effect="skeletal"
       id="path-effect4382"
       is_visible="true"
       pattern="M 0,0 1,0"
       copytype="repeated"
       prop_scale="1.18"
       scale_y_rel="false"
       spacing="0.4"
       normal_offset="1.4"
       tang_offset="-0.9"
       prop_units="false"
       vertical_pattern="true"
       fuse_tolerance="0" />
  </defs>
  <sodipodi:namedview
     id="base"
     pagecolor="#ffffff"
     bordercolor="#666666"
     borderopacity="1.0"
     inkscape:pageopacity="0.0"
     inkscape:pageshadow="2"
     inkscape:zoom="1"
     inkscape:cx="107.02931"
     inkscape:cy="546.61709"
     inkscape:document-units="px"
     inkscape:current-layer="g4279"
     showgrid="false"
     inkscape:snap-object-midpoints="false"
     inkscape:snap-others="true"
     inkscape:window-width="1865"
     inkscape:window-height="1056"
     inkscape:window-x="55"
     inkscape:window-y="24"
     inkscape:window-maximized="1"
     fit-margin-top="0"
     fit-margin-left="0"
     fit-margin-right="0"
     fit-margin-bottom="0" />
  <metadata
     id="metadata7">
    <rdf:RDF>
      <cc:Work
         rdf:about="">
        <dc:format>image/svg+xml</dc:format>
        <dc:type
           rdf:resource="http://purl.org/dc/dcmitype/StillImage" />
        <dc:title></dc:title>
      </cc:Work>
    </rdf:RDF>
  </metadata>
  <g
     style="display:inline"
     inkscape:label="Pimentão Convencional"
     id="g4279"
     inkscape:groupmode="layer"
     transform="translate(-110.68778,-191.77402)">
    <path
       inkscape:connector-curvature="0"
       id="path4283"
       d="m 349.00652,341.8837 c 0,0 -13,-68 -5,-94 8,-26 46,-63 83,-55 37,8 58,41.73722 58,41.73722 l -39,30.26278 c 0,0 -17,-21 -29,-17 -12,4 31,95 31,95 z"
       style="fill:#445500;fill-rule:evenodd;stroke:none;stroke-width:1px;stroke-linecap:butt;stroke-linejoin:miter;stroke-opacity:1" />
    <path
       sodipodi:nodetypes="cssssscsssssscsc"
       inkscape:connector-curvature="0"
       id="path4285"
       d="m 400.8311,285.24381 c 36.84483,-7.81681 67.1499,-26.41517 103.16554,-23.45045 60.80336,5.00519 46.67012,31.26726 66.3207,27.91719 19.65058,-3.35006 33.94144,-20.50667 70.0052,-14.51694 31.34264,5.20563 55.26725,16.75033 50.35461,63.6512 -2.67814,25.56813 -22.1069,515.90971 -76.146,562.8106 -54.03909,46.90088 -93.34025,4.46675 -93.34025,4.46675 0,0 -38.09994,32.82914 -87.19945,30.15056 -61.40806,-3.35006 -79.27257,-13.85732 -93.34026,-23.45043 0,0 -28.2477,25.68381 -62.63622,24.56712 -34.38851,-1.11669 -55.26725,-6.70012 -68.77702,-51.36764 -13.50978,-44.6675 -104.39371,-549.41033 -98.2529,-580.6776 6.1408,-31.26725 23.33506,-45.78419 49.12645,-44.66749 25.79138,1.11668 41.75748,16.75032 41.75748,16.75032 0,0 18.42242,-29.03389 79.83048,-29.03389 81.05863,0 51.58277,36.8507 119.13164,36.8507 z"
       style="fill:#af2b2e;fill-opacity:1;fill-rule:evenodd;stroke:none;stroke-width:1px;stroke-linecap:butt;stroke-linejoin:miter;stroke-opacity:1" />
  </g>
  <g
     style="display:inline"
     id="g4291"
     inkscape:groupmode="layer"
     inkscape:label="Sério o copiar copiar"
     transform="translate(-110.68778,-191.77402)">
    <circle
       r="118"
       cy="506.66949"
       cx="-468.00653"
       id="circle4295"
       style="fill:#ffffff;fill-rule:evenodd;stroke:none;stroke-width:0.625;stroke-linecap:butt;stroke-linejoin:miter;stroke-miterlimit:4;stroke-dasharray:none;stroke-opacity:1"
       transform="scale(-1,1)" />
    <circle
       r="84.143463"
       cy="506.66949"
       cx="-450.00653"
       id="circle4297"
       style="fill:#0082ff;fill-opacity:1;fill-rule:evenodd;stroke:none;stroke-width:0.625;stroke-linecap:butt;stroke-linejoin:miter;stroke-miterlimit:4;stroke-dasharray:none;stroke-opacity:1"
       transform="scale(-1,1)" />
    <circle
       r="54.270046"
       cy="506.66949"
       cx="-450.00653"
       id="circle4299"
       style="fill:#000000;fill-rule:evenodd;stroke:none;stroke-width:0.625;stroke-linecap:butt;stroke-linejoin:miter;stroke-miterlimit:4;stroke-dasharray:none;stroke-opacity:1"
       transform="scale(-1,1)" />
    <ellipse
       ry="104.12041"
       rx="99.069641"
       cy="506.66949"
       cx="-222.00653"
       id="ellipse4301"
       style="fill:#ffffff;fill-rule:evenodd;stroke:none;stroke-width:0.625;stroke-linecap:butt;stroke-linejoin:miter;stroke-miterlimit:4;stroke-dasharray:none;stroke-opacity:1"
       transform="scale(-1,1)" />
    <circle
       r="70.134872"
       cy="506.66949"
       cx="-239.45245"
       id="circle4303"
       style="fill:#0082ff;fill-opacity:1;fill-rule:evenodd;stroke:none;stroke-width:0.625;stroke-linecap:butt;stroke-linejoin:miter;stroke-miterlimit:4;stroke-dasharray:none;stroke-opacity:1"
       transform="scale(-1,1)" />
    <circle
       r="45.234921"
       cy="506.66949"
       cx="-239.45245"
       id="circle4305"
       style="fill:#000000;fill-rule:evenodd;stroke:none;stroke-width:0.625;stroke-linecap:butt;stroke-linejoin:miter;stroke-miterlimit:4;stroke-dasharray:none;stroke-opacity:1"
       transform="scale(-1,1)" />
    <ellipse
       style="display:inline;fill:#ffffff;fill-opacity:1;stroke:none;stroke-width:1.25;stroke-miterlimit:4;stroke-dasharray:none;stroke-opacity:1"
       id="ellipse4307"
       cx="72.191399"
       cy="529.99023"
       rx="15"
       ry="4.5"
       transform="matrix(-0.83715345,0.54696809,0.54696809,0.83715345,0,0)" />
    <ellipse
       style="display:inline;fill:#ffffff;fill-opacity:1;stroke:none;stroke-width:1.25;stroke-miterlimit:4;stroke-dasharray:none;stroke-opacity:1"
       id="ellipse4309"
       cx="-94.24659"
       cy="632.77496"
       rx="15"
       ry="4.5"
       transform="matrix(-0.83715345,0.54696809,0.54696809,0.83715345,0,0)" />
    <path
       style="display:inline;fill:#800000;fill-rule:evenodd;stroke:none;stroke-width:0.625;stroke-linecap:butt;stroke-linejoin:miter;stroke-miterlimit:4;stroke-dasharray:none;stroke-opacity:1"
       d="m 359.50611,387.97765 c 36.2725,-19.61765 160.62279,-67.3762 184.1701,-49.24427 23.54729,18.13195 -114.80066,68.58723 -166.06311,84.9399 -51.26247,16.35267 -66.98205,-14.1358 -18.10699,-35.69563 z"
       id="path4314"
       inkscape:connector-curvature="0" />
    <path
       style="display:inline;fill:#800000;fill-rule:evenodd;stroke:none;stroke-width:0.625;stroke-linecap:butt;stroke-linejoin:miter;stroke-miterlimit:4;stroke-dasharray:none;stroke-opacity:1"
       d="m 162.97878,328.32067 c 37.439,12.88987 148.00853,69.27645 144.1617,96.95658 -3.84684,27.68015 -124.41922,-36.73 -166.95866,-62.06178 -42.539485,-25.3318 -23.20492,-55.31243 22.79696,-34.8948 z"
       id="path4317"
       inkscape:connector-curvature="0" />
    <path
       style="fill:#ffffff;fill-rule:evenodd;stroke:#000000;stroke-width:3;stroke-linecap:butt;stroke-linejoin:miter;stroke-miterlimit:4;stroke-dasharray:none;stroke-opacity:1"
       d="m 226.00652,656.3622 c 0,0 39,9 98,8 59,-1 156,-18 156,-18 0,0 13,40 3,77 -10,37 -43,56 -127,59 -84,3 -124,-24 -124,-24 0,0 14,-16 11,-42 -3,-26 -17,-60 -17,-60 z"
       id="path4319"
       inkscape:connector-curvature="0" />
    <path
       style="fill:none;fill-rule:evenodd;stroke:#000000;stroke-width:1px;stroke-linecap:butt;stroke-linejoin:miter;stroke-opacity:1"
       d="m 243.00652,713.3622 c 0,0 36,10 94,12 58,2 150,-25 150,-25"
       id="path4321"
       inkscape:connector-curvature="0" />
    <path
       style="fill:none;fill-rule:evenodd;stroke:#000000;stroke-width:1px;stroke-linecap:butt;stroke-linejoin:miter;stroke-opacity:1"
       d="m 624.00652,562.3622 c 6,25 15,41 6,55 -9,14 -24,55 -21,67 3,12 12,26 -3,49"
       id="path4323"
       inkscape:connector-curvature="0" />
    <path
       style="fill:none;fill-rule:evenodd;stroke:#000000;stroke-width:1px;stroke-linecap:butt;stroke-linejoin:miter;stroke-opacity:1"
       d="m 521.00652,904.3622 c 0,0 12,-26 15,-48 3,-22 2,-67 2,-67"
       id="path4325"
       inkscape:connector-curvature="0" />
    <path
       style="fill:none;fill-rule:evenodd;stroke:#000000;stroke-width:1px;stroke-linecap:butt;stroke-linejoin:miter;stroke-opacity:1"
       d="m 342.00652,910.3622 c 12,-28 -1,-89 -1,-89"
       id="path4327"
       inkscape:connector-curvature="0" />
    <path
       style="fill:none;fill-rule:evenodd;stroke:#000000;stroke-width:1px;stroke-linecap:butt;stroke-linejoin:miter;stroke-opacity:1"
       d="m 267.00652,786.3622 c 40,11 80,12 112,11"
       id="path4329"
       inkscape:connector-curvature="0" />
  </g>
</svg>
